G04 #@! TF.FileFunction,Soldermask,Top*
%FSLAX46Y46*%
G04 Gerber Fmt 4.6, Leading zero omitted, Abs format (unit mm)*
G04 Created by KiCad (PCBNEW 4.0.6) date Saturday, June 09, 2018 'PMt' 06:08:09 PM*
%MOMM*%
%LPD*%
G01*
G04 APERTURE LIST*
%ADD10C,0.100000*%
%ADD11C,3.100000*%
%ADD12C,6.100000*%
%ADD13R,1.650000X1.400000*%
%ADD14R,1.460000X1.050000*%
%ADD15C,2.250000*%
%ADD16R,1.400000X1.650000*%
%ADD17R,1.598880X1.598880*%
%ADD18R,1.600000X2.100000*%
%ADD19O,1.600000X2.100000*%
%ADD20R,1.300000X1.200000*%
%ADD21R,1.797000X1.797000*%
%ADD22C,1.797000*%
%ADD23R,2.900000X1.500000*%
%ADD24R,2.100000X2.100000*%
%ADD25O,2.100000X2.100000*%
%ADD26R,0.900000X0.650000*%
%ADD27R,1.650000X1.620000*%
%ADD28R,1.200000X1.150000*%
%ADD29R,2.250000X2.250000*%
G04 APERTURE END LIST*
D10*
D11*
X58000000Y-100000000D03*
D12*
X68250000Y-122000000D03*
X131250000Y-122000000D03*
X68750000Y-76750000D03*
D13*
X112035554Y-89894834D03*
X112035554Y-87894834D03*
X114554000Y-89900000D03*
X114554000Y-87900000D03*
D14*
X108135554Y-89844834D03*
X108135554Y-88894834D03*
X108135554Y-87944834D03*
X105935554Y-87944834D03*
X105935554Y-89844834D03*
D13*
X102035554Y-89894834D03*
X102035554Y-87894834D03*
D10*
G36*
X67235210Y-113855218D02*
X65095333Y-114550507D01*
X64400044Y-112410630D01*
X66539921Y-111715341D01*
X67235210Y-113855218D01*
X67235210Y-113855218D01*
G37*
D15*
X65045085Y-110755283D03*
X64272542Y-108377641D03*
X63500000Y-106000000D03*
D10*
G36*
X65222294Y-92417583D02*
X63082417Y-91722294D01*
X63777706Y-89582417D01*
X65917583Y-90277706D01*
X65222294Y-92417583D01*
X65222294Y-92417583D01*
G37*
D15*
X65272542Y-88622359D03*
X66045085Y-86244717D03*
D10*
G36*
X120081349Y-79646145D02*
X119008887Y-78746242D01*
X120230183Y-77290757D01*
X121302645Y-78190660D01*
X120081349Y-79646145D01*
X120081349Y-79646145D01*
G37*
G36*
X117630007Y-77589225D02*
X116557545Y-76689322D01*
X117778841Y-75233837D01*
X118851303Y-76133740D01*
X117630007Y-77589225D01*
X117630007Y-77589225D01*
G37*
G36*
X116931689Y-83399763D02*
X115859227Y-82499860D01*
X117080523Y-81044375D01*
X118152985Y-81944278D01*
X116931689Y-83399763D01*
X116931689Y-83399763D01*
G37*
G36*
X114480347Y-81342843D02*
X113407885Y-80442940D01*
X114629181Y-78987455D01*
X115701643Y-79887358D01*
X114480347Y-81342843D01*
X114480347Y-81342843D01*
G37*
G36*
X128466411Y-97316084D02*
X128223304Y-95937353D01*
X130094439Y-95607422D01*
X130337546Y-96986153D01*
X128466411Y-97316084D01*
X128466411Y-97316084D01*
G37*
G36*
X127910737Y-94164700D02*
X127667630Y-92785969D01*
X129538765Y-92456038D01*
X129781872Y-93834769D01*
X127910737Y-94164700D01*
X127910737Y-94164700D01*
G37*
G36*
X123640853Y-98166960D02*
X123397746Y-96788229D01*
X125268881Y-96458298D01*
X125511988Y-97837029D01*
X123640853Y-98166960D01*
X123640853Y-98166960D01*
G37*
G36*
X123085179Y-95015576D02*
X122842072Y-93636845D01*
X124713207Y-93306914D01*
X124956314Y-94685645D01*
X123085179Y-95015576D01*
X123085179Y-95015576D01*
G37*
G36*
X123531724Y-116241859D02*
X124231724Y-115029423D01*
X125877172Y-115979423D01*
X125177172Y-117191859D01*
X123531724Y-116241859D01*
X123531724Y-116241859D01*
G37*
G36*
X125131724Y-113470577D02*
X125831724Y-112258141D01*
X127477172Y-113208141D01*
X126777172Y-114420577D01*
X125131724Y-113470577D01*
X125131724Y-113470577D01*
G37*
G36*
X119288200Y-113791859D02*
X119988200Y-112579423D01*
X121633648Y-113529423D01*
X120933648Y-114741859D01*
X119288200Y-113791859D01*
X119288200Y-113791859D01*
G37*
G36*
X120888200Y-111020577D02*
X121588200Y-109808141D01*
X123233648Y-110758141D01*
X122533648Y-111970577D01*
X120888200Y-111020577D01*
X120888200Y-111020577D01*
G37*
G36*
X107586281Y-127567886D02*
X108901851Y-127089058D01*
X109551689Y-128874474D01*
X108236119Y-129353302D01*
X107586281Y-127567886D01*
X107586281Y-127567886D01*
G37*
G36*
X110593298Y-126473422D02*
X111908868Y-125994594D01*
X112558706Y-127780010D01*
X111243136Y-128258838D01*
X110593298Y-126473422D01*
X110593298Y-126473422D01*
G37*
G36*
X105910382Y-122963392D02*
X107225952Y-122484564D01*
X107875790Y-124269980D01*
X106560220Y-124748808D01*
X105910382Y-122963392D01*
X105910382Y-122963392D01*
G37*
G36*
X108917399Y-121868928D02*
X110232969Y-121390100D01*
X110882807Y-123175516D01*
X109567237Y-123654344D01*
X108917399Y-121868928D01*
X108917399Y-121868928D01*
G37*
G36*
X88091132Y-125994594D02*
X89406702Y-126473422D01*
X88756864Y-128258838D01*
X87441294Y-127780010D01*
X88091132Y-125994594D01*
X88091132Y-125994594D01*
G37*
G36*
X91098149Y-127089058D02*
X92413719Y-127567886D01*
X91763881Y-129353302D01*
X90448311Y-128874474D01*
X91098149Y-127089058D01*
X91098149Y-127089058D01*
G37*
G36*
X89767031Y-121390100D02*
X91082601Y-121868928D01*
X90432763Y-123654344D01*
X89117193Y-123175516D01*
X89767031Y-121390100D01*
X89767031Y-121390100D01*
G37*
G36*
X92774048Y-122484564D02*
X94089618Y-122963392D01*
X93439780Y-124748808D01*
X92124210Y-124269980D01*
X92774048Y-122484564D01*
X92774048Y-122484564D01*
G37*
G36*
X74168276Y-112258141D02*
X74868276Y-113470577D01*
X73222828Y-114420577D01*
X72522828Y-113208141D01*
X74168276Y-112258141D01*
X74168276Y-112258141D01*
G37*
G36*
X75768276Y-115029423D02*
X76468276Y-116241859D01*
X74822828Y-117191859D01*
X74122828Y-115979423D01*
X75768276Y-115029423D01*
X75768276Y-115029423D01*
G37*
G36*
X78411800Y-109808141D02*
X79111800Y-111020577D01*
X77466352Y-111970577D01*
X76766352Y-110758141D01*
X78411800Y-109808141D01*
X78411800Y-109808141D01*
G37*
G36*
X80011800Y-112579423D02*
X80711800Y-113791859D01*
X79066352Y-114741859D01*
X78366352Y-113529423D01*
X80011800Y-112579423D01*
X80011800Y-112579423D01*
G37*
G36*
X72332370Y-92785969D02*
X72089263Y-94164700D01*
X70218128Y-93834769D01*
X70461235Y-92456038D01*
X72332370Y-92785969D01*
X72332370Y-92785969D01*
G37*
G36*
X71776696Y-95937353D02*
X71533589Y-97316084D01*
X69662454Y-96986153D01*
X69905561Y-95607422D01*
X71776696Y-95937353D01*
X71776696Y-95937353D01*
G37*
G36*
X77157928Y-93636845D02*
X76914821Y-95015576D01*
X75043686Y-94685645D01*
X75286793Y-93306914D01*
X77157928Y-93636845D01*
X77157928Y-93636845D01*
G37*
G36*
X76602254Y-96788229D02*
X76359147Y-98166960D01*
X74488012Y-97837029D01*
X74731119Y-96458298D01*
X76602254Y-96788229D01*
X76602254Y-96788229D01*
G37*
G36*
X83442455Y-76689322D02*
X82369993Y-77589225D01*
X81148697Y-76133740D01*
X82221159Y-75233837D01*
X83442455Y-76689322D01*
X83442455Y-76689322D01*
G37*
G36*
X80991113Y-78746242D02*
X79918651Y-79646145D01*
X78697355Y-78190660D01*
X79769817Y-77290757D01*
X80991113Y-78746242D01*
X80991113Y-78746242D01*
G37*
G36*
X86592115Y-80442940D02*
X85519653Y-81342843D01*
X84298357Y-79887358D01*
X85370819Y-78987455D01*
X86592115Y-80442940D01*
X86592115Y-80442940D01*
G37*
G36*
X84140773Y-82499860D02*
X83068311Y-83399763D01*
X81847015Y-81944278D01*
X82919477Y-81044375D01*
X84140773Y-82499860D01*
X84140773Y-82499860D01*
G37*
D13*
X102160000Y-111262000D03*
X102160000Y-109262000D03*
D16*
X90000000Y-85500000D03*
X88000000Y-85500000D03*
X90000000Y-83000000D03*
X88000000Y-83000000D03*
D10*
G36*
X122109594Y-88666674D02*
X121139748Y-87331796D01*
X122272372Y-86508896D01*
X123242218Y-87843774D01*
X122109594Y-88666674D01*
X122109594Y-88666674D01*
G37*
G36*
X123727628Y-87491104D02*
X122757782Y-86156226D01*
X123890406Y-85333326D01*
X124860252Y-86668204D01*
X123727628Y-87491104D01*
X123727628Y-87491104D01*
G37*
G36*
X115333326Y-119109594D02*
X116668204Y-118139748D01*
X117491104Y-119272372D01*
X116156226Y-120242218D01*
X115333326Y-119109594D01*
X115333326Y-119109594D01*
G37*
G36*
X116508896Y-120727628D02*
X117843774Y-119757782D01*
X118666674Y-120890406D01*
X117331796Y-121860252D01*
X116508896Y-120727628D01*
X116508896Y-120727628D01*
G37*
G36*
X83331796Y-118139748D02*
X84666674Y-119109594D01*
X83843774Y-120242218D01*
X82508896Y-119272372D01*
X83331796Y-118139748D01*
X83331796Y-118139748D01*
G37*
G36*
X82156226Y-119757782D02*
X83491104Y-120727628D01*
X82668204Y-121860252D01*
X81333326Y-120890406D01*
X82156226Y-119757782D01*
X82156226Y-119757782D01*
G37*
G36*
X78860252Y-87331796D02*
X77890406Y-88666674D01*
X76757782Y-87843774D01*
X77727628Y-86508896D01*
X78860252Y-87331796D01*
X78860252Y-87331796D01*
G37*
G36*
X77242218Y-86156226D02*
X76272372Y-87491104D01*
X75139748Y-86668204D01*
X76109594Y-85333326D01*
X77242218Y-86156226D01*
X77242218Y-86156226D01*
G37*
D17*
X112555020Y-107188000D03*
X110456980Y-107188000D03*
X99568000Y-135348980D03*
X99568000Y-137447020D03*
D18*
X90678000Y-109220000D03*
D19*
X92678000Y-109220000D03*
D10*
G36*
X117406055Y-68779423D02*
X118728572Y-66959134D01*
X120548861Y-68281651D01*
X119226344Y-70101940D01*
X117406055Y-68779423D01*
X117406055Y-68779423D01*
G37*
D15*
X121000000Y-70000000D03*
X123022543Y-71469463D03*
D10*
G36*
X76206029Y-73040866D02*
X74883512Y-71220577D01*
X76703801Y-69898060D01*
X78026318Y-71718349D01*
X76206029Y-73040866D01*
X76206029Y-73040866D01*
G37*
D15*
X78477457Y-70000000D03*
X80500000Y-68530537D03*
D10*
G36*
X132309874Y-85400065D02*
X134449751Y-84704776D01*
X135145040Y-86844653D01*
X133005163Y-87539942D01*
X132309874Y-85400065D01*
X132309874Y-85400065D01*
G37*
D15*
X134499999Y-88500000D03*
X135272542Y-90877642D03*
D10*
G36*
X135322791Y-104704776D02*
X137462668Y-105400065D01*
X136767379Y-107539942D01*
X134627502Y-106844653D01*
X135322791Y-104704776D01*
X135322791Y-104704776D01*
G37*
D15*
X135272543Y-108500000D03*
X134500000Y-110877642D03*
X133727458Y-113255283D03*
D10*
G36*
X62001991Y-99342765D02*
X63571235Y-98832887D01*
X64003859Y-100164367D01*
X62434615Y-100674245D01*
X62001991Y-99342765D01*
X62001991Y-99342765D01*
G37*
G36*
X62465517Y-100769349D02*
X64034761Y-100259471D01*
X64467385Y-101590951D01*
X62898141Y-102100829D01*
X62465517Y-100769349D01*
X62465517Y-100769349D01*
G37*
G36*
X76561848Y-77019728D02*
X75592002Y-75684850D01*
X76724626Y-74861950D01*
X77694472Y-76196828D01*
X76561848Y-77019728D01*
X76561848Y-77019728D01*
G37*
G36*
X77775374Y-76138050D02*
X76805528Y-74803172D01*
X77938152Y-73980272D01*
X78907998Y-75315150D01*
X77775374Y-76138050D01*
X77775374Y-76138050D01*
G37*
D20*
X88000000Y-89950000D03*
X88000000Y-91850000D03*
X90000000Y-90900000D03*
D21*
X103000000Y-137650000D03*
D22*
X105500000Y-137650000D03*
X108000000Y-137650000D03*
X108000000Y-134350000D03*
X105500000Y-134350000D03*
X103000000Y-134350000D03*
D10*
G36*
X114817500Y-137167490D02*
X113818265Y-135792161D01*
X115395848Y-134645980D01*
X116395083Y-136021309D01*
X114817500Y-137167490D01*
X114817500Y-137167490D01*
G37*
G36*
X112172467Y-133526913D02*
X111173232Y-132151584D01*
X112750815Y-131005403D01*
X113750050Y-132380732D01*
X112172467Y-133526913D01*
X112172467Y-133526913D01*
G37*
G36*
X118604152Y-128854020D02*
X117604917Y-127478691D01*
X119182500Y-126332510D01*
X120181735Y-127707839D01*
X118604152Y-128854020D01*
X118604152Y-128854020D01*
G37*
G36*
X121249185Y-132494597D02*
X120249950Y-131119268D01*
X121827533Y-129973087D01*
X122826768Y-131348416D01*
X121249185Y-132494597D01*
X121249185Y-132494597D01*
G37*
G36*
X76673232Y-131348416D02*
X77672467Y-129973087D01*
X79250050Y-131119268D01*
X78250815Y-132494597D01*
X76673232Y-131348416D01*
X76673232Y-131348416D01*
G37*
G36*
X79318265Y-127707839D02*
X80317500Y-126332510D01*
X81895083Y-127478691D01*
X80895848Y-128854020D01*
X79318265Y-127707839D01*
X79318265Y-127707839D01*
G37*
G36*
X85749950Y-132380732D02*
X86749185Y-131005403D01*
X88326768Y-132151584D01*
X87327533Y-133526913D01*
X85749950Y-132380732D01*
X85749950Y-132380732D01*
G37*
G36*
X83104917Y-136021309D02*
X84104152Y-134645980D01*
X85681735Y-135792161D01*
X84682500Y-137167490D01*
X83104917Y-136021309D01*
X83104917Y-136021309D01*
G37*
D14*
X106060000Y-109312000D03*
X106060000Y-110262000D03*
X106060000Y-111212000D03*
X108260000Y-111212000D03*
X108260000Y-109312000D03*
D23*
X92300000Y-69000000D03*
X92300000Y-71000000D03*
X92300000Y-73000000D03*
X92300000Y-75000000D03*
X92300000Y-77000000D03*
X92300000Y-79000000D03*
X92300000Y-81000000D03*
X92300000Y-83000000D03*
X107700000Y-83000000D03*
X107600000Y-81000000D03*
X107700000Y-79000000D03*
X107700000Y-77000000D03*
X107700000Y-75000000D03*
X107700000Y-73000000D03*
X107700000Y-71000000D03*
X107700000Y-69000000D03*
D13*
X112160000Y-111262000D03*
X112160000Y-109262000D03*
D24*
X93500000Y-118000000D03*
D25*
X96040000Y-118000000D03*
X98580000Y-118000000D03*
X101120000Y-118000000D03*
X103660000Y-118000000D03*
X106200000Y-118000000D03*
D16*
X88000000Y-87900000D03*
X90000000Y-87900000D03*
X106188000Y-107188000D03*
X108188000Y-107188000D03*
X101584000Y-132080000D03*
X99584000Y-132080000D03*
X103870000Y-107188000D03*
X101870000Y-107188000D03*
D13*
X86000000Y-89900000D03*
X86000000Y-91900000D03*
D16*
X112000000Y-78000000D03*
X110000000Y-78000000D03*
X88000000Y-73000000D03*
X90000000Y-73000000D03*
X112000000Y-73000000D03*
X110000000Y-73000000D03*
X112000000Y-75500000D03*
X110000000Y-75500000D03*
X110000000Y-82000000D03*
X112000000Y-82000000D03*
X88000000Y-75500000D03*
X90000000Y-75500000D03*
D10*
G36*
X74609594Y-80666674D02*
X73639748Y-79331796D01*
X74772372Y-78508896D01*
X75742218Y-79843774D01*
X74609594Y-80666674D01*
X74609594Y-80666674D01*
G37*
G36*
X76227628Y-79491104D02*
X75257782Y-78156226D01*
X76390406Y-77333326D01*
X77360252Y-78668204D01*
X76227628Y-79491104D01*
X76227628Y-79491104D01*
G37*
D16*
X112000000Y-70500000D03*
X110000000Y-70500000D03*
D10*
G36*
X72609594Y-77666674D02*
X71639748Y-76331796D01*
X72772372Y-75508896D01*
X73742218Y-76843774D01*
X72609594Y-77666674D01*
X72609594Y-77666674D01*
G37*
G36*
X74227628Y-76491104D02*
X73257782Y-75156226D01*
X74390406Y-74333326D01*
X75360252Y-75668204D01*
X74227628Y-76491104D01*
X74227628Y-76491104D01*
G37*
G36*
X73609594Y-79166674D02*
X72639748Y-77831796D01*
X73772372Y-77008896D01*
X74742218Y-78343774D01*
X73609594Y-79166674D01*
X73609594Y-79166674D01*
G37*
G36*
X75227628Y-77991104D02*
X74257782Y-76656226D01*
X75390406Y-75833326D01*
X76360252Y-77168204D01*
X75227628Y-77991104D01*
X75227628Y-77991104D01*
G37*
G36*
X59982610Y-99998900D02*
X61551854Y-99489022D01*
X61984478Y-100820502D01*
X60415234Y-101330380D01*
X59982610Y-99998900D01*
X59982610Y-99998900D01*
G37*
G36*
X60446136Y-101425484D02*
X62015380Y-100915606D01*
X62448004Y-102247086D01*
X60878760Y-102756964D01*
X60446136Y-101425484D01*
X60446136Y-101425484D01*
G37*
D26*
X70550000Y-105250000D03*
X70550000Y-105750000D03*
X70550000Y-106250000D03*
X70550000Y-106750000D03*
X72450000Y-106750000D03*
X72450000Y-106250000D03*
X72450000Y-105750000D03*
X72450000Y-105250000D03*
D20*
X71500000Y-106400000D03*
X71500000Y-105600000D03*
D27*
X103525000Y-132000000D03*
X106475000Y-132000000D03*
D13*
X97536000Y-128028000D03*
X97536000Y-129528000D03*
D28*
X69250000Y-103000000D03*
X70750000Y-103000000D03*
X73750000Y-103000000D03*
X72250000Y-103000000D03*
X73750000Y-104500000D03*
X75250000Y-104500000D03*
D29*
X95464000Y-132588000D03*
D15*
X92964000Y-132588000D03*
D12*
X130750000Y-76750000D03*
D11*
X141500000Y-100000000D03*
M02*
