G04 #@! TF.FileFunction,Paste,Bot*
%FSLAX46Y46*%
G04 Gerber Fmt 4.6, Leading zero omitted, Abs format (unit mm)*
G04 Created by KiCad (PCBNEW 4.0.6) date Saturday, June 09, 2018 'PMt' 06:08:09 PM*
%MOMM*%
%LPD*%
G01*
G04 APERTURE LIST*
%ADD10C,0.100000*%
G04 APERTURE END LIST*
D10*
G36*
X113514596Y-78050808D02*
X112557040Y-77247324D01*
X113199828Y-76481280D01*
X114157384Y-77284764D01*
X113514596Y-78050808D01*
X113514596Y-78050808D01*
G37*
G36*
X114800172Y-76518720D02*
X113842616Y-75715236D01*
X114485404Y-74949192D01*
X115442960Y-75752676D01*
X114800172Y-76518720D01*
X114800172Y-76518720D01*
G37*
G36*
X78580891Y-87376042D02*
X77846160Y-88387313D01*
X77037143Y-87799528D01*
X77771874Y-86788257D01*
X78580891Y-87376042D01*
X78580891Y-87376042D01*
G37*
G36*
X76962857Y-86200472D02*
X76228126Y-87211743D01*
X75419109Y-86623958D01*
X76153840Y-85612687D01*
X76962857Y-86200472D01*
X76962857Y-86200472D01*
G37*
G36*
X83376042Y-118419109D02*
X84387313Y-119153840D01*
X83799528Y-119962857D01*
X82788257Y-119228126D01*
X83376042Y-118419109D01*
X83376042Y-118419109D01*
G37*
G36*
X82200472Y-120037143D02*
X83211743Y-120771874D01*
X82623958Y-121580891D01*
X81612687Y-120846160D01*
X82200472Y-120037143D01*
X82200472Y-120037143D01*
G37*
G36*
X115612687Y-119153840D02*
X116623958Y-118419109D01*
X117211743Y-119228126D01*
X116200472Y-119962857D01*
X115612687Y-119153840D01*
X115612687Y-119153840D01*
G37*
G36*
X116788257Y-120771874D02*
X117799528Y-120037143D01*
X118387313Y-120846160D01*
X117376042Y-121580891D01*
X116788257Y-120771874D01*
X116788257Y-120771874D01*
G37*
G36*
X122153840Y-88387313D02*
X121419109Y-87376042D01*
X122228126Y-86788257D01*
X122962857Y-87799528D01*
X122153840Y-88387313D01*
X122153840Y-88387313D01*
G37*
G36*
X123771874Y-87211743D02*
X123037143Y-86200472D01*
X123846160Y-85612687D01*
X124580891Y-86623958D01*
X123771874Y-87211743D01*
X123771874Y-87211743D01*
G37*
G36*
X117605356Y-77307458D02*
X116839311Y-76664671D01*
X117803492Y-75515604D01*
X118569537Y-76158391D01*
X117605356Y-77307458D01*
X117605356Y-77307458D01*
G37*
G36*
X120056698Y-79364378D02*
X119290653Y-78721591D01*
X120254834Y-77572524D01*
X121020879Y-78215311D01*
X120056698Y-79364378D01*
X120056698Y-79364378D01*
G37*
G36*
X114455696Y-81061076D02*
X113689651Y-80418289D01*
X114653832Y-79269222D01*
X115419877Y-79912009D01*
X114455696Y-81061076D01*
X114455696Y-81061076D01*
G37*
G36*
X116907038Y-83117996D02*
X116140993Y-82475209D01*
X117105174Y-81326142D01*
X117871219Y-81968929D01*
X116907038Y-83117996D01*
X116907038Y-83117996D01*
G37*
G36*
X128072969Y-93933009D02*
X127899321Y-92948201D01*
X129376533Y-92687729D01*
X129550181Y-93672537D01*
X128072969Y-93933009D01*
X128072969Y-93933009D01*
G37*
G36*
X128628643Y-97084393D02*
X128454995Y-96099585D01*
X129932207Y-95839113D01*
X130105855Y-96823921D01*
X128628643Y-97084393D01*
X128628643Y-97084393D01*
G37*
G36*
X123247411Y-94783885D02*
X123073763Y-93799077D01*
X124550975Y-93538605D01*
X124724623Y-94523413D01*
X123247411Y-94783885D01*
X123247411Y-94783885D01*
G37*
G36*
X123803085Y-97935269D02*
X123629437Y-96950461D01*
X125106649Y-96689989D01*
X125280297Y-97674797D01*
X123803085Y-97935269D01*
X123803085Y-97935269D01*
G37*
G36*
X125404929Y-113397372D02*
X125904929Y-112531346D01*
X127203967Y-113281346D01*
X126703967Y-114147372D01*
X125404929Y-113397372D01*
X125404929Y-113397372D01*
G37*
G36*
X123804929Y-116168654D02*
X124304929Y-115302628D01*
X125603967Y-116052628D01*
X125103967Y-116918654D01*
X123804929Y-116168654D01*
X123804929Y-116168654D01*
G37*
G36*
X121161405Y-110947372D02*
X121661405Y-110081346D01*
X122960443Y-110831346D01*
X122460443Y-111697372D01*
X121161405Y-110947372D01*
X121161405Y-110947372D01*
G37*
G36*
X119561405Y-113718654D02*
X120061405Y-112852628D01*
X121360443Y-113602628D01*
X120860443Y-114468654D01*
X119561405Y-113718654D01*
X119561405Y-113718654D01*
G37*
G36*
X110849641Y-126592957D02*
X111789333Y-126250936D01*
X112302363Y-127660475D01*
X111362671Y-128002496D01*
X110849641Y-126592957D01*
X110849641Y-126592957D01*
G37*
G36*
X107842624Y-127687421D02*
X108782316Y-127345400D01*
X109295346Y-128754939D01*
X108355654Y-129096960D01*
X107842624Y-127687421D01*
X107842624Y-127687421D01*
G37*
G36*
X109173742Y-121988463D02*
X110113434Y-121646442D01*
X110626464Y-123055981D01*
X109686772Y-123398002D01*
X109173742Y-121988463D01*
X109173742Y-121988463D01*
G37*
G36*
X106166725Y-123082927D02*
X107106417Y-122740906D01*
X107619447Y-124150445D01*
X106679755Y-124492466D01*
X106166725Y-123082927D01*
X106166725Y-123082927D01*
G37*
G36*
X91217684Y-127345400D02*
X92157376Y-127687421D01*
X91644346Y-129096960D01*
X90704654Y-128754939D01*
X91217684Y-127345400D01*
X91217684Y-127345400D01*
G37*
G36*
X88210667Y-126250936D02*
X89150359Y-126592957D01*
X88637329Y-128002496D01*
X87697637Y-127660475D01*
X88210667Y-126250936D01*
X88210667Y-126250936D01*
G37*
G36*
X92893583Y-122740906D02*
X93833275Y-123082927D01*
X93320245Y-124492466D01*
X92380553Y-124150445D01*
X92893583Y-122740906D01*
X92893583Y-122740906D01*
G37*
G36*
X89886566Y-121646442D02*
X90826258Y-121988463D01*
X90313228Y-123398002D01*
X89373536Y-123055981D01*
X89886566Y-121646442D01*
X89886566Y-121646442D01*
G37*
G36*
X75695071Y-115302628D02*
X76195071Y-116168654D01*
X74896033Y-116918654D01*
X74396033Y-116052628D01*
X75695071Y-115302628D01*
X75695071Y-115302628D01*
G37*
G36*
X74095071Y-112531346D02*
X74595071Y-113397372D01*
X73296033Y-114147372D01*
X72796033Y-113281346D01*
X74095071Y-112531346D01*
X74095071Y-112531346D01*
G37*
G36*
X79938595Y-112852628D02*
X80438595Y-113718654D01*
X79139557Y-114468654D01*
X78639557Y-113602628D01*
X79938595Y-112852628D01*
X79938595Y-112852628D01*
G37*
G36*
X78338595Y-110081346D02*
X78838595Y-110947372D01*
X77539557Y-111697372D01*
X77039557Y-110831346D01*
X78338595Y-110081346D01*
X78338595Y-110081346D01*
G37*
G36*
X71545005Y-96099585D02*
X71371357Y-97084393D01*
X69894145Y-96823921D01*
X70067793Y-95839113D01*
X71545005Y-96099585D01*
X71545005Y-96099585D01*
G37*
G36*
X72100679Y-92948201D02*
X71927031Y-93933009D01*
X70449819Y-93672537D01*
X70623467Y-92687729D01*
X72100679Y-92948201D01*
X72100679Y-92948201D01*
G37*
G36*
X76370563Y-96950461D02*
X76196915Y-97935269D01*
X74719703Y-97674797D01*
X74893351Y-96689989D01*
X76370563Y-96950461D01*
X76370563Y-96950461D01*
G37*
G36*
X76926237Y-93799077D02*
X76752589Y-94783885D01*
X75275377Y-94523413D01*
X75449025Y-93538605D01*
X76926237Y-93799077D01*
X76926237Y-93799077D01*
G37*
G36*
X80709347Y-78721591D02*
X79943302Y-79364378D01*
X78979121Y-78215311D01*
X79745166Y-77572524D01*
X80709347Y-78721591D01*
X80709347Y-78721591D01*
G37*
G36*
X83160689Y-76664671D02*
X82394644Y-77307458D01*
X81430463Y-76158391D01*
X82196508Y-75515604D01*
X83160689Y-76664671D01*
X83160689Y-76664671D01*
G37*
G36*
X83859007Y-82475209D02*
X83092962Y-83117996D01*
X82128781Y-81968929D01*
X82894826Y-81326142D01*
X83859007Y-82475209D01*
X83859007Y-82475209D01*
G37*
G36*
X86310349Y-80418289D02*
X85544304Y-81061076D01*
X84580123Y-79912009D01*
X85346168Y-79269222D01*
X86310349Y-80418289D01*
X86310349Y-80418289D01*
G37*
G36*
X87442960Y-77247324D02*
X86485404Y-78050808D01*
X85842616Y-77284764D01*
X86800172Y-76481280D01*
X87442960Y-77247324D01*
X87442960Y-77247324D01*
G37*
G36*
X86157384Y-75715236D02*
X85199828Y-76518720D01*
X84557040Y-75752676D01*
X85514596Y-74949192D01*
X86157384Y-75715236D01*
X86157384Y-75715236D01*
G37*
M02*
