G04 #@! TF.FileFunction,Copper,L2,Bot,Signal*
%FSLAX46Y46*%
G04 Gerber Fmt 4.6, Leading zero omitted, Abs format (unit mm)*
G04 Created by KiCad (PCBNEW 4.0.6) date Saturday, June 09, 2018 'PMt' 06:08:09 PM*
%MOMM*%
%LPD*%
G01*
G04 APERTURE LIST*
%ADD10C,0.100000*%
%ADD11C,5.700000*%
%ADD12C,1.850000*%
%ADD13R,1.200000X1.700000*%
%ADD14O,1.200000X1.700000*%
%ADD15R,1.397000X1.397000*%
%ADD16C,1.397000*%
%ADD17R,1.700000X1.700000*%
%ADD18O,1.700000X1.700000*%
%ADD19R,1.850000X1.850000*%
%ADD20C,0.600000*%
%ADD21C,0.300000*%
%ADD22C,0.200000*%
%ADD23C,0.400000*%
%ADD24C,0.254000*%
%ADD25C,0.250000*%
G04 APERTURE END LIST*
D10*
D11*
X68250000Y-122000000D03*
X131250000Y-122000000D03*
X68750000Y-76750000D03*
D10*
G36*
X66983195Y-113726811D02*
X65223740Y-114298492D01*
X64652059Y-112539037D01*
X66411514Y-111967356D01*
X66983195Y-113726811D01*
X66983195Y-113726811D01*
G37*
D12*
X65045085Y-110755283D03*
X64272542Y-108377641D03*
X63500000Y-106000000D03*
D10*
G36*
X113514596Y-78050808D02*
X112557040Y-77247324D01*
X113199828Y-76481280D01*
X114157384Y-77284764D01*
X113514596Y-78050808D01*
X113514596Y-78050808D01*
G37*
G36*
X114800172Y-76518720D02*
X113842616Y-75715236D01*
X114485404Y-74949192D01*
X115442960Y-75752676D01*
X114800172Y-76518720D01*
X114800172Y-76518720D01*
G37*
G36*
X65093887Y-92165568D02*
X63334432Y-91593887D01*
X63906113Y-89834432D01*
X65665568Y-90406113D01*
X65093887Y-92165568D01*
X65093887Y-92165568D01*
G37*
D12*
X65272542Y-88622359D03*
X66045085Y-86244717D03*
D10*
G36*
X78580891Y-87376042D02*
X77846160Y-88387313D01*
X77037143Y-87799528D01*
X77771874Y-86788257D01*
X78580891Y-87376042D01*
X78580891Y-87376042D01*
G37*
G36*
X76962857Y-86200472D02*
X76228126Y-87211743D01*
X75419109Y-86623958D01*
X76153840Y-85612687D01*
X76962857Y-86200472D01*
X76962857Y-86200472D01*
G37*
G36*
X83376042Y-118419109D02*
X84387313Y-119153840D01*
X83799528Y-119962857D01*
X82788257Y-119228126D01*
X83376042Y-118419109D01*
X83376042Y-118419109D01*
G37*
G36*
X82200472Y-120037143D02*
X83211743Y-120771874D01*
X82623958Y-121580891D01*
X81612687Y-120846160D01*
X82200472Y-120037143D01*
X82200472Y-120037143D01*
G37*
G36*
X115612687Y-119153840D02*
X116623958Y-118419109D01*
X117211743Y-119228126D01*
X116200472Y-119962857D01*
X115612687Y-119153840D01*
X115612687Y-119153840D01*
G37*
G36*
X116788257Y-120771874D02*
X117799528Y-120037143D01*
X118387313Y-120846160D01*
X117376042Y-121580891D01*
X116788257Y-120771874D01*
X116788257Y-120771874D01*
G37*
G36*
X122153840Y-88387313D02*
X121419109Y-87376042D01*
X122228126Y-86788257D01*
X122962857Y-87799528D01*
X122153840Y-88387313D01*
X122153840Y-88387313D01*
G37*
G36*
X123771874Y-87211743D02*
X123037143Y-86200472D01*
X123846160Y-85612687D01*
X124580891Y-86623958D01*
X123771874Y-87211743D01*
X123771874Y-87211743D01*
G37*
G36*
X117605356Y-77307458D02*
X116839311Y-76664671D01*
X117803492Y-75515604D01*
X118569537Y-76158391D01*
X117605356Y-77307458D01*
X117605356Y-77307458D01*
G37*
G36*
X120056698Y-79364378D02*
X119290653Y-78721591D01*
X120254834Y-77572524D01*
X121020879Y-78215311D01*
X120056698Y-79364378D01*
X120056698Y-79364378D01*
G37*
G36*
X114455696Y-81061076D02*
X113689651Y-80418289D01*
X114653832Y-79269222D01*
X115419877Y-79912009D01*
X114455696Y-81061076D01*
X114455696Y-81061076D01*
G37*
G36*
X116907038Y-83117996D02*
X116140993Y-82475209D01*
X117105174Y-81326142D01*
X117871219Y-81968929D01*
X116907038Y-83117996D01*
X116907038Y-83117996D01*
G37*
G36*
X128072969Y-93933009D02*
X127899321Y-92948201D01*
X129376533Y-92687729D01*
X129550181Y-93672537D01*
X128072969Y-93933009D01*
X128072969Y-93933009D01*
G37*
G36*
X128628643Y-97084393D02*
X128454995Y-96099585D01*
X129932207Y-95839113D01*
X130105855Y-96823921D01*
X128628643Y-97084393D01*
X128628643Y-97084393D01*
G37*
G36*
X123247411Y-94783885D02*
X123073763Y-93799077D01*
X124550975Y-93538605D01*
X124724623Y-94523413D01*
X123247411Y-94783885D01*
X123247411Y-94783885D01*
G37*
G36*
X123803085Y-97935269D02*
X123629437Y-96950461D01*
X125106649Y-96689989D01*
X125280297Y-97674797D01*
X123803085Y-97935269D01*
X123803085Y-97935269D01*
G37*
G36*
X125404929Y-113397372D02*
X125904929Y-112531346D01*
X127203967Y-113281346D01*
X126703967Y-114147372D01*
X125404929Y-113397372D01*
X125404929Y-113397372D01*
G37*
G36*
X123804929Y-116168654D02*
X124304929Y-115302628D01*
X125603967Y-116052628D01*
X125103967Y-116918654D01*
X123804929Y-116168654D01*
X123804929Y-116168654D01*
G37*
G36*
X121161405Y-110947372D02*
X121661405Y-110081346D01*
X122960443Y-110831346D01*
X122460443Y-111697372D01*
X121161405Y-110947372D01*
X121161405Y-110947372D01*
G37*
G36*
X119561405Y-113718654D02*
X120061405Y-112852628D01*
X121360443Y-113602628D01*
X120860443Y-114468654D01*
X119561405Y-113718654D01*
X119561405Y-113718654D01*
G37*
G36*
X110849641Y-126592957D02*
X111789333Y-126250936D01*
X112302363Y-127660475D01*
X111362671Y-128002496D01*
X110849641Y-126592957D01*
X110849641Y-126592957D01*
G37*
G36*
X107842624Y-127687421D02*
X108782316Y-127345400D01*
X109295346Y-128754939D01*
X108355654Y-129096960D01*
X107842624Y-127687421D01*
X107842624Y-127687421D01*
G37*
G36*
X109173742Y-121988463D02*
X110113434Y-121646442D01*
X110626464Y-123055981D01*
X109686772Y-123398002D01*
X109173742Y-121988463D01*
X109173742Y-121988463D01*
G37*
G36*
X106166725Y-123082927D02*
X107106417Y-122740906D01*
X107619447Y-124150445D01*
X106679755Y-124492466D01*
X106166725Y-123082927D01*
X106166725Y-123082927D01*
G37*
G36*
X91217684Y-127345400D02*
X92157376Y-127687421D01*
X91644346Y-129096960D01*
X90704654Y-128754939D01*
X91217684Y-127345400D01*
X91217684Y-127345400D01*
G37*
G36*
X88210667Y-126250936D02*
X89150359Y-126592957D01*
X88637329Y-128002496D01*
X87697637Y-127660475D01*
X88210667Y-126250936D01*
X88210667Y-126250936D01*
G37*
G36*
X92893583Y-122740906D02*
X93833275Y-123082927D01*
X93320245Y-124492466D01*
X92380553Y-124150445D01*
X92893583Y-122740906D01*
X92893583Y-122740906D01*
G37*
G36*
X89886566Y-121646442D02*
X90826258Y-121988463D01*
X90313228Y-123398002D01*
X89373536Y-123055981D01*
X89886566Y-121646442D01*
X89886566Y-121646442D01*
G37*
G36*
X75695071Y-115302628D02*
X76195071Y-116168654D01*
X74896033Y-116918654D01*
X74396033Y-116052628D01*
X75695071Y-115302628D01*
X75695071Y-115302628D01*
G37*
G36*
X74095071Y-112531346D02*
X74595071Y-113397372D01*
X73296033Y-114147372D01*
X72796033Y-113281346D01*
X74095071Y-112531346D01*
X74095071Y-112531346D01*
G37*
G36*
X79938595Y-112852628D02*
X80438595Y-113718654D01*
X79139557Y-114468654D01*
X78639557Y-113602628D01*
X79938595Y-112852628D01*
X79938595Y-112852628D01*
G37*
G36*
X78338595Y-110081346D02*
X78838595Y-110947372D01*
X77539557Y-111697372D01*
X77039557Y-110831346D01*
X78338595Y-110081346D01*
X78338595Y-110081346D01*
G37*
G36*
X71545005Y-96099585D02*
X71371357Y-97084393D01*
X69894145Y-96823921D01*
X70067793Y-95839113D01*
X71545005Y-96099585D01*
X71545005Y-96099585D01*
G37*
G36*
X72100679Y-92948201D02*
X71927031Y-93933009D01*
X70449819Y-93672537D01*
X70623467Y-92687729D01*
X72100679Y-92948201D01*
X72100679Y-92948201D01*
G37*
G36*
X76370563Y-96950461D02*
X76196915Y-97935269D01*
X74719703Y-97674797D01*
X74893351Y-96689989D01*
X76370563Y-96950461D01*
X76370563Y-96950461D01*
G37*
G36*
X76926237Y-93799077D02*
X76752589Y-94783885D01*
X75275377Y-94523413D01*
X75449025Y-93538605D01*
X76926237Y-93799077D01*
X76926237Y-93799077D01*
G37*
G36*
X80709347Y-78721591D02*
X79943302Y-79364378D01*
X78979121Y-78215311D01*
X79745166Y-77572524D01*
X80709347Y-78721591D01*
X80709347Y-78721591D01*
G37*
G36*
X83160689Y-76664671D02*
X82394644Y-77307458D01*
X81430463Y-76158391D01*
X82196508Y-75515604D01*
X83160689Y-76664671D01*
X83160689Y-76664671D01*
G37*
G36*
X83859007Y-82475209D02*
X83092962Y-83117996D01*
X82128781Y-81968929D01*
X82894826Y-81326142D01*
X83859007Y-82475209D01*
X83859007Y-82475209D01*
G37*
G36*
X86310349Y-80418289D02*
X85544304Y-81061076D01*
X84580123Y-79912009D01*
X85346168Y-79269222D01*
X86310349Y-80418289D01*
X86310349Y-80418289D01*
G37*
G36*
X87442960Y-77247324D02*
X86485404Y-78050808D01*
X85842616Y-77284764D01*
X86800172Y-76481280D01*
X87442960Y-77247324D01*
X87442960Y-77247324D01*
G37*
G36*
X86157384Y-75715236D02*
X85199828Y-76518720D01*
X84557040Y-75752676D01*
X85514596Y-74949192D01*
X86157384Y-75715236D01*
X86157384Y-75715236D01*
G37*
D13*
X90678000Y-109220000D03*
D14*
X92678000Y-109220000D03*
D10*
G36*
X117685416Y-68735176D02*
X118772819Y-67238495D01*
X120269500Y-68325898D01*
X119182097Y-69822579D01*
X117685416Y-68735176D01*
X117685416Y-68735176D01*
G37*
D12*
X121000000Y-70000000D03*
X123022543Y-71469463D03*
D10*
G36*
X76250276Y-72761505D02*
X75162873Y-71264824D01*
X76659554Y-70177421D01*
X77746957Y-71674102D01*
X76250276Y-72761505D01*
X76250276Y-72761505D01*
G37*
D12*
X78477457Y-70000000D03*
X80500000Y-68530537D03*
D10*
G36*
X132561889Y-85528472D02*
X134321344Y-84956791D01*
X134893025Y-86716246D01*
X133133570Y-87287927D01*
X132561889Y-85528472D01*
X132561889Y-85528472D01*
G37*
D12*
X134499999Y-88500000D03*
X135272542Y-90877642D03*
D10*
G36*
X135451198Y-104956791D02*
X137210653Y-105528472D01*
X136638972Y-107287927D01*
X134879517Y-106716246D01*
X135451198Y-104956791D01*
X135451198Y-104956791D01*
G37*
D12*
X135272543Y-108500000D03*
X134500000Y-110877642D03*
X133727458Y-113255283D03*
D15*
X103000000Y-137650000D03*
D16*
X105500000Y-137650000D03*
X108000000Y-137650000D03*
X108000000Y-134350000D03*
X105500000Y-134350000D03*
X103000000Y-134350000D03*
D17*
X93500000Y-118000000D03*
D18*
X96040000Y-118000000D03*
X98580000Y-118000000D03*
X101120000Y-118000000D03*
X103660000Y-118000000D03*
X106200000Y-118000000D03*
D19*
X95464000Y-132588000D03*
D12*
X92964000Y-132588000D03*
D11*
X130750000Y-76750000D03*
D20*
X114808000Y-116840000D03*
X113898000Y-90806000D03*
X111298000Y-92806000D03*
X108498000Y-92806000D03*
X108498000Y-90806000D03*
X113898000Y-92806000D03*
X111298000Y-90806000D03*
X124004877Y-90477096D03*
X121750000Y-91500000D03*
X114500000Y-120500000D03*
X66138347Y-101493098D03*
X64650722Y-100921836D03*
X69750000Y-73250000D03*
X65750000Y-79250000D03*
X71000000Y-79750000D03*
X72000000Y-74750000D03*
X72000000Y-122999998D03*
X69500000Y-125999996D03*
X67750000Y-118250000D03*
X65000000Y-120000000D03*
X129500000Y-118500000D03*
X127250000Y-121750000D03*
X134250000Y-119250000D03*
X130000000Y-125750000D03*
X81750000Y-133000000D03*
X75000000Y-82500000D03*
X129000000Y-73000000D03*
X126500000Y-77000000D03*
X130999999Y-80999999D03*
X134000000Y-79000000D03*
X116332000Y-80518000D03*
X119126000Y-81788004D03*
X82550000Y-79755994D03*
X79502000Y-72644000D03*
X84836000Y-128016000D03*
X138176000Y-99060000D03*
X99060000Y-73660000D03*
X121920000Y-105918000D03*
X121158000Y-95250000D03*
X94488000Y-92456000D03*
X80772000Y-98298000D03*
X112014000Y-120396000D03*
X110744000Y-117348000D03*
X116078000Y-107950000D03*
X97282000Y-108458000D03*
X87884000Y-118618000D03*
X83058000Y-109220000D03*
X77978000Y-108712000D03*
X77216000Y-113792000D03*
X76962000Y-120650000D03*
X62992000Y-111760000D03*
X62230000Y-103124000D03*
X60706000Y-96520000D03*
X67564000Y-108712000D03*
X74676000Y-107950000D03*
X69596000Y-115824000D03*
X108712000Y-124206000D03*
X88138000Y-123697996D03*
X91440000Y-123444000D03*
X95758000Y-136652000D03*
X95758000Y-122936000D03*
X97028000Y-125984000D03*
X87376000Y-138176000D03*
X111252000Y-135890000D03*
X114554000Y-128524000D03*
X118872000Y-124460000D03*
X119380000Y-119380000D03*
X117348000Y-132080000D03*
X131572000Y-110998000D03*
X125222000Y-110744000D03*
X125222000Y-104140000D03*
X131572000Y-104140000D03*
X126746000Y-95504000D03*
X131572000Y-96266000D03*
X101853998Y-120904000D03*
X105918000Y-121158000D03*
X97028000Y-119888000D03*
X93726000Y-119888000D03*
X96520000Y-114808000D03*
X93472000Y-114808000D03*
X101854000Y-128016000D03*
X105918000Y-128015994D03*
X106426000Y-135890000D03*
X119888000Y-73914000D03*
X115569999Y-76708000D03*
X113792000Y-73406000D03*
X131572000Y-92964000D03*
X131572000Y-86868000D03*
X123697996Y-84074000D03*
X127762000Y-82804000D03*
X123698000Y-78486000D03*
X127762000Y-88646000D03*
X104140000Y-88138000D03*
X109982000Y-88138000D03*
X103632000Y-86106000D03*
X106934000Y-86614000D03*
X117094000Y-88392000D03*
X117094000Y-91948000D03*
X101854000Y-82550000D03*
X95504000Y-84328000D03*
X98044000Y-88900000D03*
X110236000Y-83312000D03*
X110744000Y-80264000D03*
X105918000Y-82042000D03*
X105918000Y-80010000D03*
X114300000Y-83312000D03*
X70866000Y-107696000D03*
X72136000Y-107696000D03*
X85852000Y-83820000D03*
X88646000Y-77978000D03*
X84074000Y-74676000D03*
X84074000Y-92456000D03*
X89408000Y-92202000D03*
X82042000Y-88900000D03*
X77724000Y-90932000D03*
X79248000Y-82296000D03*
X72390000Y-89408000D03*
X68072000Y-89408000D03*
X64516000Y-94488000D03*
X68580000Y-92710000D03*
X70866000Y-104140000D03*
X72136000Y-104140000D03*
X67818000Y-104394000D03*
X65532000Y-103632000D03*
X68580000Y-100330000D03*
X75438000Y-102870000D03*
X68580000Y-96012000D03*
X66294000Y-98552000D03*
X73152000Y-100330000D03*
X92456000Y-67564000D03*
X107950000Y-67564000D03*
X96520000Y-67564000D03*
X103378002Y-67564000D03*
X87376000Y-64770000D03*
X88646000Y-66294000D03*
X111760000Y-66294000D03*
X113792000Y-63500000D03*
X114808000Y-61976000D03*
X112776000Y-65024000D03*
X110236000Y-67564000D03*
X105664000Y-67564000D03*
X101092000Y-67564000D03*
X98806000Y-67564000D03*
X94488000Y-67564000D03*
X90170000Y-67564000D03*
X86106000Y-63246000D03*
X85090000Y-61722000D03*
X105600000Y-77000000D03*
X80772000Y-92709996D03*
X78486000Y-92964000D03*
X102898000Y-92806000D03*
X102898000Y-90606000D03*
X100098000Y-90606000D03*
X105498000Y-90606000D03*
X105498000Y-92806000D03*
X100098000Y-92806000D03*
X124000000Y-91500000D03*
X126400012Y-91813835D03*
X103549990Y-79600000D03*
X116400000Y-86200000D03*
X119206059Y-85993941D03*
X62200000Y-98600000D03*
X63802106Y-98591156D03*
X86400000Y-73800000D03*
X99599998Y-123499990D03*
X99400000Y-121499990D03*
X105760000Y-111962000D03*
X103160000Y-111962000D03*
X100360000Y-111962000D03*
X100360000Y-114162000D03*
X103160000Y-114162000D03*
X105760000Y-114162000D03*
X112600000Y-80200000D03*
X84200000Y-81400000D03*
X83872272Y-78841492D03*
X98600000Y-123499990D03*
X114160000Y-112162000D03*
X111560000Y-114162000D03*
X111560000Y-112162000D03*
X108760000Y-112162004D03*
X108760000Y-114162000D03*
X114160000Y-114162000D03*
X118154487Y-77551501D03*
X115800000Y-78400000D03*
X77724000Y-93979994D03*
X80772000Y-93726000D03*
X93699997Y-85948056D03*
X92199974Y-86600000D03*
X124601041Y-92101058D03*
X125750000Y-93500000D03*
X94000008Y-86800000D03*
X92729177Y-87519141D03*
X79999998Y-105800000D03*
X78000000Y-107000004D03*
X78000032Y-101800006D03*
X78000032Y-104623730D03*
X77747970Y-100800000D03*
X77599966Y-105468333D03*
D21*
X114808000Y-116840000D02*
X114799999Y-116848001D01*
X114799999Y-116848001D02*
X114799999Y-120200001D01*
X114799999Y-120200001D02*
X114500000Y-120500000D01*
X121750000Y-91500000D02*
X120032000Y-93218000D01*
X120032000Y-93218000D02*
X114310000Y-93218000D01*
X114310000Y-93218000D02*
X113898000Y-92806000D01*
X108498000Y-92806000D02*
X111298000Y-92806000D01*
X108498000Y-90806000D02*
X111298000Y-90806000D01*
X113898000Y-92806000D02*
X113898000Y-90806000D01*
X132522903Y-90477096D02*
X124429141Y-90477096D01*
X134499999Y-88500000D02*
X132522903Y-90477096D01*
X124429141Y-90477096D02*
X124004877Y-90477096D01*
D22*
X64650722Y-100921836D02*
X65567085Y-100921836D01*
X65567085Y-100921836D02*
X65838348Y-101193099D01*
X65838348Y-101193099D02*
X66138347Y-101493098D01*
D21*
X78896000Y-73250000D02*
X70174264Y-73250000D01*
X79502000Y-72644000D02*
X78896000Y-73250000D01*
X70174264Y-73250000D02*
X69750000Y-73250000D01*
X71000000Y-79750000D02*
X70000000Y-80750000D01*
X70000000Y-80750000D02*
X67250000Y-80750000D01*
X67250000Y-80750000D02*
X66049999Y-79549999D01*
X66049999Y-79549999D02*
X65750000Y-79250000D01*
X72424264Y-122999998D02*
X72000000Y-122999998D01*
X74612002Y-122999998D02*
X72424264Y-122999998D01*
X76962000Y-120650000D02*
X74612002Y-122999998D01*
X81750000Y-133000000D02*
X81750000Y-132750000D01*
X81750000Y-132750000D02*
X75299995Y-126299995D01*
X75299995Y-126299995D02*
X69799999Y-126299995D01*
X69799999Y-126299995D02*
X69500000Y-125999996D01*
X65000000Y-120000000D02*
X66750000Y-118250000D01*
X66750000Y-118250000D02*
X67750000Y-118250000D01*
X127250000Y-120750000D02*
X129200001Y-118799999D01*
X129200001Y-118799999D02*
X129500000Y-118500000D01*
X127250000Y-121750000D02*
X127250000Y-120750000D01*
X129575736Y-125750000D02*
X130000000Y-125750000D01*
X123678000Y-125750000D02*
X129575736Y-125750000D01*
X117348000Y-132080000D02*
X123678000Y-125750000D01*
X126500000Y-75500000D02*
X128700001Y-73299999D01*
X126500000Y-77000000D02*
X126500000Y-75500000D01*
X128700001Y-73299999D02*
X129000000Y-73000000D01*
X132000001Y-80999999D02*
X131424263Y-80999999D01*
X134000000Y-79000000D02*
X132000001Y-80999999D01*
X131424263Y-80999999D02*
X130999999Y-80999999D01*
X131572000Y-96266000D02*
X135382000Y-96266000D01*
X135382000Y-96266000D02*
X138176000Y-99060000D01*
X99060000Y-73660000D02*
X99060000Y-67818000D01*
X99060000Y-67818000D02*
X98806000Y-67564000D01*
X80772000Y-98298000D02*
X80772000Y-94996000D01*
X80772000Y-94996000D02*
X83312000Y-92456000D01*
X83312000Y-92456000D02*
X94488000Y-92456000D01*
X116078000Y-107950000D02*
X119126000Y-104902000D01*
X119126000Y-104902000D02*
X119126000Y-97282000D01*
X119126000Y-97282000D02*
X120858001Y-95549999D01*
X120858001Y-95549999D02*
X121158000Y-95250000D01*
X115316000Y-115570000D02*
X112522000Y-115570000D01*
X112522000Y-115570000D02*
X110744000Y-117348000D01*
X116078000Y-114046000D02*
X116078000Y-114808000D01*
X116078000Y-114808000D02*
X115316000Y-115570000D01*
X116078000Y-107950000D02*
X116078000Y-114046000D01*
X97282000Y-108458000D02*
X115570000Y-108458000D01*
X115570000Y-108458000D02*
X116078000Y-107950000D01*
X87884000Y-118618000D02*
X97282000Y-109220000D01*
X97282000Y-109220000D02*
X97282000Y-108458000D01*
X77978000Y-108712000D02*
X78486000Y-109220000D01*
X78486000Y-109220000D02*
X83058000Y-109220000D01*
X76962000Y-120650000D02*
X76962000Y-114046000D01*
X76962000Y-114046000D02*
X77216000Y-113792000D01*
X62230000Y-103124000D02*
X61930001Y-103423999D01*
X61930001Y-103423999D02*
X61930001Y-110698001D01*
X61930001Y-110698001D02*
X62992000Y-111760000D01*
X64516000Y-94488000D02*
X62738000Y-94488000D01*
X62738000Y-94488000D02*
X60706000Y-96520000D01*
X67056000Y-108204000D02*
X67264001Y-108412001D01*
X67056000Y-108033736D02*
X67056000Y-108204000D01*
X67264001Y-104947999D02*
X67056000Y-105156000D01*
X66802000Y-105410000D02*
X67056000Y-105664000D01*
X67264001Y-108412001D02*
X67564000Y-108712000D01*
X67056000Y-105664000D02*
X67056000Y-108033736D01*
X67056000Y-105156000D02*
X67056000Y-108033736D01*
X74422000Y-107696000D02*
X74676000Y-107950000D01*
X72136000Y-107696000D02*
X74422000Y-107696000D01*
X95758000Y-136652000D02*
X96520000Y-137414000D01*
X91431015Y-128221180D02*
X91431015Y-127770985D01*
X91431015Y-127770985D02*
X93218000Y-125984000D01*
X93218000Y-125984000D02*
X96603736Y-125984000D01*
X96603736Y-125984000D02*
X97028000Y-125984000D01*
X118872000Y-124460000D02*
X114808000Y-128524000D01*
X114808000Y-128524000D02*
X114554000Y-128524000D01*
X117587785Y-120809017D02*
X117950983Y-120809017D01*
X117950983Y-120809017D02*
X119380000Y-119380000D01*
X125222000Y-110744000D02*
X131318000Y-110744000D01*
X131318000Y-110744000D02*
X131572000Y-110998000D01*
X131572000Y-104140000D02*
X125222000Y-104140000D01*
X131572000Y-96266000D02*
X131572000Y-92964000D01*
X123809017Y-86412215D02*
X124623232Y-85598000D01*
X124623232Y-85598000D02*
X124714000Y-85598000D01*
X124714000Y-85598000D02*
X127762000Y-88646000D01*
X102107998Y-121158000D02*
X101853998Y-120904000D01*
X105918000Y-121158000D02*
X102107998Y-121158000D01*
X93726000Y-119888000D02*
X97028000Y-119888000D01*
X93472000Y-114808000D02*
X96520000Y-114808000D01*
X106217999Y-128315993D02*
X105918000Y-128015994D01*
X106725999Y-128823993D02*
X106217999Y-128315993D01*
X106725999Y-135590001D02*
X106725999Y-128823993D01*
X106426000Y-135890000D02*
X106725999Y-135590001D01*
X117704424Y-76411531D02*
X119888000Y-74227955D01*
X119888000Y-74227955D02*
X119888000Y-73914000D01*
X115569999Y-76661167D02*
X115569999Y-76708000D01*
X114642788Y-75733956D02*
X115569999Y-76661167D01*
X128724751Y-93310369D02*
X128817120Y-93218000D01*
X128817120Y-93218000D02*
X131226002Y-93218000D01*
X131226002Y-93218000D02*
X131272001Y-93263999D01*
X131272001Y-93263999D02*
X131572000Y-92964000D01*
X123997995Y-84373999D02*
X123697996Y-84074000D01*
X127762000Y-88138004D02*
X123997995Y-84373999D01*
X127762000Y-88646000D02*
X127762000Y-88138004D01*
X123698000Y-78486000D02*
X127762000Y-82550000D01*
X127762000Y-82550000D02*
X127762000Y-82804000D01*
X109982000Y-88138000D02*
X104140000Y-88138000D01*
X103332001Y-86405999D02*
X103632000Y-86106000D01*
X100838000Y-88900000D02*
X103332001Y-86405999D01*
X98044000Y-88900000D02*
X100838000Y-88900000D01*
X106934000Y-88900000D02*
X108204000Y-88900000D01*
X106934000Y-87038264D02*
X106934000Y-88900000D01*
X106934000Y-86614000D02*
X106934000Y-87038264D01*
X117094000Y-91948000D02*
X117094000Y-88392000D01*
X95504000Y-84328000D02*
X97282000Y-82550000D01*
X97282000Y-82550000D02*
X101854000Y-82550000D01*
X111043999Y-80563999D02*
X110744000Y-80264000D01*
X113792000Y-83312000D02*
X111043999Y-80563999D01*
X114300000Y-83312000D02*
X113792000Y-83312000D01*
X105918000Y-80010000D02*
X105918000Y-82042000D01*
X72136000Y-107696000D02*
X70866000Y-107696000D01*
X86614000Y-83058000D02*
X88138000Y-83058000D01*
X85852000Y-83820000D02*
X86614000Y-83058000D01*
X84074000Y-74676000D02*
X84299256Y-74676000D01*
X84299256Y-74676000D02*
X85357212Y-75733956D01*
X84074000Y-92031736D02*
X84074000Y-92456000D01*
X82042000Y-88900000D02*
X84074000Y-90932000D01*
X84074000Y-90932000D02*
X84074000Y-92031736D01*
X68072000Y-89408000D02*
X72390000Y-89408000D01*
X68580000Y-92710000D02*
X66802000Y-94488000D01*
X66802000Y-94488000D02*
X64516000Y-94488000D01*
X72136000Y-104140000D02*
X70866000Y-104140000D01*
X67056000Y-107950000D02*
X67056000Y-105156000D01*
X67264001Y-104947999D02*
X67818000Y-104394000D01*
X68580000Y-100330000D02*
X65532000Y-103378000D01*
X65532000Y-103378000D02*
X65532000Y-103632000D01*
X66802000Y-98552000D02*
X68280001Y-100030001D01*
X68280001Y-100030001D02*
X68580000Y-100330000D01*
X66294000Y-98552000D02*
X66802000Y-98552000D01*
X70719575Y-96461753D02*
X70719575Y-97897575D01*
X70719575Y-97897575D02*
X73152000Y-100330000D01*
X90170000Y-67564000D02*
X92456000Y-67564000D01*
X110236000Y-67564000D02*
X107950000Y-67564000D01*
X94488000Y-67564000D02*
X96520000Y-67564000D01*
X105664000Y-67564000D02*
X103378002Y-67564000D01*
X87675999Y-65069999D02*
X87376000Y-64770000D01*
X88346001Y-65740001D02*
X87675999Y-65069999D01*
X88346001Y-65993999D02*
X88346001Y-65740001D01*
X88346001Y-65994001D02*
X88646000Y-66294000D01*
X88346001Y-65993999D02*
X88346001Y-65994001D01*
X87630002Y-65278000D02*
X88346001Y-65993999D01*
X87376000Y-65278000D02*
X87630002Y-65278000D01*
X111760000Y-66040000D02*
X111760000Y-66294000D01*
X112776000Y-65024000D02*
X111760000Y-66040000D01*
X114091999Y-63200001D02*
X113792000Y-63500000D01*
X114808000Y-62484000D02*
X114091999Y-63200001D01*
X114808000Y-61976000D02*
X114808000Y-62484000D01*
X98806000Y-67564000D02*
X101092000Y-67564000D01*
X85090000Y-61722000D02*
X85090000Y-62230000D01*
X85090000Y-62230000D02*
X86106000Y-63246000D01*
X103849989Y-79300001D02*
X103549990Y-79600000D01*
X105600000Y-77549990D02*
X103849989Y-79300001D01*
X105600000Y-77000000D02*
X105600000Y-77549990D01*
X80517996Y-92964000D02*
X80772000Y-92709996D01*
X78486000Y-92964000D02*
X80517996Y-92964000D01*
X102898000Y-92806000D02*
X105498000Y-92806000D01*
X100098000Y-92806000D02*
X100098000Y-90806000D01*
X100098000Y-90806000D02*
X100098000Y-90606000D01*
X102898000Y-90606000D02*
X105498000Y-90606000D01*
X126400012Y-91813835D02*
X125786178Y-91200001D01*
X125786178Y-91200001D02*
X124299999Y-91200001D01*
X124299999Y-91200001D02*
X124000000Y-91500000D01*
X116606059Y-85993941D02*
X116400000Y-86200000D01*
X119206059Y-85993941D02*
X116606059Y-85993941D01*
X62208844Y-98591156D02*
X62200000Y-98600000D01*
X63802106Y-98591156D02*
X62208844Y-98591156D01*
X86400000Y-73800000D02*
X82600000Y-70000000D01*
X82600000Y-70000000D02*
X78477457Y-70000000D01*
D23*
X99599998Y-123499990D02*
X99599998Y-121699988D01*
X99599998Y-121699988D02*
X99400000Y-121499990D01*
D21*
X105760000Y-114162000D02*
X105760000Y-111962000D01*
X100360000Y-111962000D02*
X103160000Y-111962000D01*
X103160000Y-114162000D02*
X100360000Y-114162000D01*
X108000000Y-134350000D02*
X109800000Y-132550000D01*
X109800000Y-132550000D02*
X109800000Y-127326000D01*
X109800000Y-127326000D02*
X106934000Y-124460000D01*
X106934000Y-124460000D02*
X106934000Y-123657600D01*
X106934000Y-123657600D02*
X106893086Y-123616686D01*
X120460924Y-113660641D02*
X120460924Y-102289076D01*
X120460924Y-102289076D02*
X124454867Y-98295133D01*
X124454867Y-98295133D02*
X124454867Y-97312629D01*
X116412215Y-119787785D02*
X116412215Y-119190983D01*
X114953568Y-121246432D02*
X116412215Y-119787785D01*
X106893086Y-123616686D02*
X109263340Y-121246432D01*
X109263340Y-121246432D02*
X114953568Y-121246432D01*
X117006106Y-82222069D02*
X116384037Y-81600000D01*
X113099999Y-80499999D02*
X112899999Y-80499999D01*
X112899999Y-80499999D02*
X112600000Y-80200000D01*
X116384037Y-81600000D02*
X114200000Y-81600000D01*
X114200000Y-81600000D02*
X113099999Y-80499999D01*
X112899999Y-79900001D02*
X112600000Y-80200000D01*
X113357212Y-79442788D02*
X112899999Y-79900001D01*
X113357212Y-77266044D02*
X113357212Y-79442788D01*
X113357212Y-75511682D02*
X114468894Y-74400000D01*
X113357212Y-77266044D02*
X113357212Y-75511682D01*
X114468894Y-74400000D02*
X116600000Y-74400000D01*
X116600000Y-74400000D02*
X121000000Y-70000000D01*
X95800000Y-124200000D02*
X106309772Y-124200000D01*
X90099897Y-122522222D02*
X90281223Y-122340896D01*
X90281223Y-122340896D02*
X93940896Y-122340896D01*
X93940896Y-122340896D02*
X95800000Y-124200000D01*
X106309772Y-124200000D02*
X106432274Y-124077498D01*
X106432274Y-124077498D02*
X106893086Y-123616686D01*
X86642788Y-77266044D02*
X86642788Y-77557212D01*
X86642788Y-77557212D02*
X85600000Y-78600000D01*
X85600000Y-78600000D02*
X85600000Y-80000000D01*
X85600000Y-80000000D02*
X84499999Y-81100001D01*
X84499999Y-81100001D02*
X84200000Y-81400000D01*
X122190983Y-87587785D02*
X122190983Y-87590983D01*
X122190983Y-87590983D02*
X122600000Y-88000000D01*
X122600000Y-88000000D02*
X122600000Y-95457762D01*
X122600000Y-95457762D02*
X124454867Y-97312629D01*
X122190983Y-87587785D02*
X117006106Y-82402908D01*
X117006106Y-82402908D02*
X117006106Y-82222069D01*
X85445236Y-80165149D02*
X85445236Y-81554764D01*
X78527050Y-87587785D02*
X77809017Y-87587785D01*
X85445236Y-81554764D02*
X79412215Y-87587785D01*
X79412215Y-87587785D02*
X78527050Y-87587785D01*
X77809017Y-87587785D02*
X77412215Y-87587785D01*
X77412215Y-87587785D02*
X76200000Y-88800000D01*
X76200000Y-88800000D02*
X76200000Y-94062052D01*
X76200000Y-94062052D02*
X76100807Y-94161245D01*
X77939076Y-110889359D02*
X78375811Y-111326094D01*
X78375811Y-111326094D02*
X79126094Y-111326094D01*
X79126094Y-111326094D02*
X81000000Y-113200000D01*
X81000000Y-113200000D02*
X81000000Y-117000000D01*
X81000000Y-117000000D02*
X83190983Y-119190983D01*
X83190983Y-119190983D02*
X83587785Y-119190983D01*
X83587785Y-119190983D02*
X83587785Y-119587785D01*
X83587785Y-119587785D02*
X86522222Y-122522222D01*
X86522222Y-122522222D02*
X90099897Y-122522222D01*
X116412215Y-119190983D02*
X117009017Y-119190983D01*
X117009017Y-119190983D02*
X120460924Y-115739076D01*
X120460924Y-115739076D02*
X120460924Y-113660641D01*
X76900011Y-94960449D02*
X76900011Y-105132286D01*
X76100807Y-94161245D02*
X76900011Y-94960449D01*
X76900011Y-105132286D02*
X76899965Y-105132332D01*
X77502341Y-110452624D02*
X77939076Y-110889359D01*
X76900011Y-109850294D02*
X77502341Y-110452624D01*
X76900011Y-105804380D02*
X76900011Y-109850294D01*
X76899965Y-105132332D02*
X76899965Y-105804334D01*
X76899965Y-105804334D02*
X76900011Y-105804380D01*
X86642788Y-77266044D02*
X85445236Y-78463596D01*
X85445236Y-78463596D02*
X85445236Y-80165149D01*
D22*
X82295576Y-76411531D02*
X83872272Y-77988227D01*
X83872272Y-78417228D02*
X83872272Y-78841492D01*
X83872272Y-77988227D02*
X83872272Y-78417228D01*
X82993894Y-82222069D02*
X83000000Y-82228175D01*
X79561753Y-86438247D02*
X77626893Y-86438247D01*
X77626893Y-86438247D02*
X75600000Y-88465140D01*
X83000000Y-82228175D02*
X83000000Y-83000000D01*
X83000000Y-83000000D02*
X79561753Y-86438247D01*
X75600000Y-88465140D02*
X75600000Y-92500000D01*
X75600000Y-92500000D02*
X74700000Y-93400000D01*
X74700000Y-93400000D02*
X71275249Y-93400000D01*
X71275249Y-93400000D02*
X71275249Y-93310369D01*
X76399954Y-98167450D02*
X76399955Y-106011446D01*
X75545133Y-97312629D02*
X76399954Y-98167450D01*
X76400000Y-110634911D02*
X74315300Y-112719611D01*
X74315300Y-112719611D02*
X73695552Y-113339359D01*
X76399955Y-106011446D02*
X76400000Y-106011491D01*
X76400000Y-106011491D02*
X76400000Y-110634911D01*
X79539076Y-113660641D02*
X80400000Y-114521565D01*
X80400000Y-114521565D02*
X80400000Y-117400000D01*
X80400000Y-117400000D02*
X88423998Y-125423998D01*
X88423998Y-125423998D02*
X88423998Y-127126716D01*
X93106914Y-123616686D02*
X94216686Y-123616686D01*
X94216686Y-123616686D02*
X95400000Y-124800000D01*
X95400000Y-124800000D02*
X106258000Y-124800000D01*
X106258000Y-124800000D02*
X108568985Y-127110985D01*
X108568985Y-127110985D02*
X108568985Y-128221180D01*
X124600000Y-116006193D02*
X124704448Y-116110641D01*
X124600000Y-116000000D02*
X124600000Y-116006193D01*
X115200000Y-121800000D02*
X121000000Y-116000000D01*
X110622325Y-121800000D02*
X115200000Y-121800000D01*
X109900103Y-122522222D02*
X110622325Y-121800000D01*
X121000000Y-116000000D02*
X124600000Y-116000000D01*
X122060924Y-110889359D02*
X121000000Y-109828435D01*
X121000000Y-102600000D02*
X127138247Y-96461753D01*
X121000000Y-109828435D02*
X121000000Y-102600000D01*
X127138247Y-96461753D02*
X129280425Y-96461753D01*
X123177824Y-93439876D02*
X123177824Y-88622176D01*
X120155766Y-84220906D02*
X120155766Y-79346313D01*
X123899193Y-94161245D02*
X123177824Y-93439876D01*
X123177824Y-88622176D02*
X123400000Y-88400000D01*
X123400000Y-87465140D02*
X120155766Y-84220906D01*
X123400000Y-88400000D02*
X123400000Y-87465140D01*
X120155766Y-79346313D02*
X120155766Y-78468451D01*
X124297544Y-70857462D02*
X124297544Y-72302456D01*
X118977458Y-68530537D02*
X119107995Y-68400000D01*
X119107995Y-68400000D02*
X121840082Y-68400000D01*
X121840082Y-68400000D02*
X124297544Y-70857462D01*
X124297544Y-72302456D02*
X117350000Y-79250000D01*
X117350000Y-79250000D02*
X115150000Y-79250000D01*
X115150000Y-79250000D02*
X114554764Y-79845236D01*
X114554764Y-79845236D02*
X114554764Y-80165149D01*
D23*
X98580000Y-118000000D02*
X98580000Y-123479990D01*
X98580000Y-123479990D02*
X98600000Y-123499990D01*
D21*
X111560000Y-112162000D02*
X114160000Y-112162000D01*
X113735736Y-112162000D02*
X114160000Y-112162000D01*
X111960000Y-112362000D02*
X112160000Y-112162000D01*
X111760000Y-111962000D02*
X111960000Y-112162000D01*
X111960000Y-112162000D02*
X113735736Y-112162000D01*
X112160000Y-112162000D02*
X113735736Y-112162000D01*
X114160000Y-114162000D02*
X111560000Y-114162000D01*
X108760000Y-114162000D02*
X108760000Y-112162004D01*
D22*
X117854488Y-77851500D02*
X118154487Y-77551501D01*
X117305988Y-78400000D02*
X117854488Y-77851500D01*
X115800000Y-78400000D02*
X117305988Y-78400000D01*
D21*
X77977994Y-93726000D02*
X77724000Y-93979994D01*
X80772000Y-93726000D02*
X77977994Y-93726000D01*
X80698000Y-93800000D02*
X80772000Y-93726000D01*
D22*
X92199974Y-86600000D02*
X92851918Y-85948056D01*
X93275733Y-85948056D02*
X93699997Y-85948056D01*
X92851918Y-85948056D02*
X93275733Y-85948056D01*
X124601041Y-92351041D02*
X124601041Y-92101058D01*
X125750000Y-93500000D02*
X124601041Y-92351041D01*
X93575744Y-86800000D02*
X94000008Y-86800000D01*
X93448318Y-86800000D02*
X93575744Y-86800000D01*
X92729177Y-87519141D02*
X93448318Y-86800000D01*
X79575734Y-105800000D02*
X79999998Y-105800000D01*
X79200004Y-105800000D02*
X79575734Y-105800000D01*
X78000000Y-107000004D02*
X79200004Y-105800000D01*
X78000032Y-104623730D02*
X78000032Y-101800006D01*
X77400022Y-101147948D02*
X77447971Y-101099999D01*
X77400022Y-105268389D02*
X77400022Y-101147948D01*
X77599966Y-105468333D02*
X77400022Y-105268389D01*
X77447971Y-101099999D02*
X77747970Y-100800000D01*
D24*
G36*
X114783000Y-114885000D02*
X107787000Y-114885000D01*
X107787000Y-110889000D01*
X114783000Y-110889000D01*
X114783000Y-114885000D01*
X114783000Y-114885000D01*
G37*
X114783000Y-114885000D02*
X107787000Y-114885000D01*
X107787000Y-110889000D01*
X114783000Y-110889000D01*
X114783000Y-114885000D01*
G36*
X106533000Y-114885000D02*
X99287000Y-114885000D01*
X99287000Y-110889000D01*
X106533000Y-110889000D01*
X106533000Y-114885000D01*
X106533000Y-114885000D01*
G37*
X106533000Y-114885000D02*
X99287000Y-114885000D01*
X99287000Y-110889000D01*
X106533000Y-110889000D01*
X106533000Y-114885000D01*
D25*
G36*
X132231215Y-73927215D02*
X131384317Y-73575552D01*
X130121224Y-73574450D01*
X128953857Y-74056796D01*
X128059935Y-74949159D01*
X127575552Y-76115683D01*
X127574450Y-77378776D01*
X128056796Y-78546143D01*
X128949159Y-79440065D01*
X130115683Y-79924448D01*
X131378776Y-79925550D01*
X132546143Y-79443204D01*
X133440065Y-78550841D01*
X133924448Y-77384317D01*
X133925442Y-76244608D01*
X141107820Y-98349693D01*
X140552428Y-98579176D01*
X140080832Y-99049950D01*
X139825292Y-99665360D01*
X139824710Y-100331716D01*
X140079176Y-100947572D01*
X140549950Y-101419168D01*
X141105930Y-101650030D01*
X134424816Y-122212384D01*
X134425550Y-121371224D01*
X133943204Y-120203857D01*
X133050841Y-119309935D01*
X131884317Y-118825552D01*
X130621224Y-118824450D01*
X129453857Y-119306796D01*
X128559935Y-120199159D01*
X128075552Y-121365683D01*
X128074450Y-122628776D01*
X128556796Y-123796143D01*
X129449159Y-124690065D01*
X130615683Y-125174448D01*
X131878776Y-125175550D01*
X132686598Y-124841765D01*
X112428865Y-139559870D01*
X87189362Y-139559870D01*
X83599249Y-136951500D01*
X101970133Y-136951500D01*
X101970133Y-138348500D01*
X101992795Y-138468938D01*
X102063974Y-138579553D01*
X102172580Y-138653760D01*
X102301500Y-138679867D01*
X103698500Y-138679867D01*
X103818938Y-138657205D01*
X103929553Y-138586026D01*
X104003760Y-138477420D01*
X104029867Y-138348500D01*
X104029867Y-137862596D01*
X104426314Y-137862596D01*
X104589400Y-138257294D01*
X104891117Y-138559538D01*
X105285531Y-138723313D01*
X105712596Y-138723686D01*
X106107294Y-138560600D01*
X106409538Y-138258883D01*
X106573313Y-137864469D01*
X106573314Y-137862596D01*
X106926314Y-137862596D01*
X107089400Y-138257294D01*
X107391117Y-138559538D01*
X107785531Y-138723313D01*
X108212596Y-138723686D01*
X108607294Y-138560600D01*
X108909538Y-138258883D01*
X109073313Y-137864469D01*
X109073686Y-137437404D01*
X108910600Y-137042706D01*
X108608883Y-136740462D01*
X108214469Y-136576687D01*
X107787404Y-136576314D01*
X107392706Y-136739400D01*
X107090462Y-137041117D01*
X106926687Y-137435531D01*
X106926314Y-137862596D01*
X106573314Y-137862596D01*
X106573686Y-137437404D01*
X106410600Y-137042706D01*
X106108883Y-136740462D01*
X105714469Y-136576687D01*
X105287404Y-136576314D01*
X104892706Y-136739400D01*
X104590462Y-137041117D01*
X104426687Y-137435531D01*
X104426314Y-137862596D01*
X104029867Y-137862596D01*
X104029867Y-136951500D01*
X104007205Y-136831062D01*
X103936026Y-136720447D01*
X103827420Y-136646240D01*
X103698500Y-136620133D01*
X102301500Y-136620133D01*
X102181062Y-136642795D01*
X102070447Y-136713974D01*
X101996240Y-136822580D01*
X101970133Y-136951500D01*
X83599249Y-136951500D01*
X80297576Y-134552694D01*
X101976322Y-134552694D01*
X102131813Y-134929009D01*
X102419477Y-135217176D01*
X102795520Y-135373322D01*
X103202694Y-135373678D01*
X103579009Y-135218187D01*
X103867176Y-134930523D01*
X104019951Y-134562596D01*
X104426314Y-134562596D01*
X104589400Y-134957294D01*
X104891117Y-135259538D01*
X105285531Y-135423313D01*
X105712596Y-135423686D01*
X106107294Y-135260600D01*
X106409538Y-134958883D01*
X106573313Y-134564469D01*
X106573686Y-134137404D01*
X106410600Y-133742706D01*
X106108883Y-133440462D01*
X105714469Y-133276687D01*
X105287404Y-133276314D01*
X104892706Y-133439400D01*
X104590462Y-133741117D01*
X104426687Y-134135531D01*
X104426314Y-134562596D01*
X104019951Y-134562596D01*
X104023322Y-134554480D01*
X104023678Y-134147306D01*
X103868187Y-133770991D01*
X103580523Y-133482824D01*
X103204480Y-133326678D01*
X102797306Y-133326322D01*
X102420991Y-133481813D01*
X102132824Y-133769477D01*
X101976678Y-134145520D01*
X101976322Y-134552694D01*
X80297576Y-134552694D01*
X77947759Y-132845452D01*
X91663774Y-132845452D01*
X91861271Y-133323429D01*
X92226647Y-133689444D01*
X92704279Y-133887774D01*
X93221452Y-133888226D01*
X93699429Y-133690729D01*
X94065444Y-133325353D01*
X94114000Y-133208417D01*
X94114000Y-133597538D01*
X94178702Y-133753743D01*
X94298257Y-133873298D01*
X94454462Y-133938000D01*
X95232750Y-133938000D01*
X95339000Y-133831750D01*
X95339000Y-132713000D01*
X95589000Y-132713000D01*
X95589000Y-133831750D01*
X95695250Y-133938000D01*
X96473538Y-133938000D01*
X96629743Y-133873298D01*
X96749298Y-133753743D01*
X96814000Y-133597538D01*
X96814000Y-132819250D01*
X96707750Y-132713000D01*
X95589000Y-132713000D01*
X95339000Y-132713000D01*
X95319000Y-132713000D01*
X95319000Y-132463000D01*
X95339000Y-132463000D01*
X95339000Y-131344250D01*
X95589000Y-131344250D01*
X95589000Y-132463000D01*
X96707750Y-132463000D01*
X96814000Y-132356750D01*
X96814000Y-131578462D01*
X96749298Y-131422257D01*
X96629743Y-131302702D01*
X96473538Y-131238000D01*
X95695250Y-131238000D01*
X95589000Y-131344250D01*
X95339000Y-131344250D01*
X95232750Y-131238000D01*
X94454462Y-131238000D01*
X94298257Y-131302702D01*
X94178702Y-131422257D01*
X94114000Y-131578462D01*
X94114000Y-131966975D01*
X94066729Y-131852571D01*
X93701353Y-131486556D01*
X93223721Y-131288226D01*
X92706548Y-131287774D01*
X92228571Y-131485271D01*
X91862556Y-131850647D01*
X91664226Y-132328279D01*
X91663774Y-132845452D01*
X77947759Y-132845452D01*
X73024134Y-129268229D01*
X91182943Y-129268229D01*
X91246445Y-129404411D01*
X91419548Y-129467415D01*
X91578427Y-129525243D01*
X91747341Y-129517868D01*
X91900577Y-129446413D01*
X92014802Y-129321758D01*
X92221139Y-128754853D01*
X92157636Y-128618671D01*
X91505724Y-128381394D01*
X91182943Y-129268229D01*
X73024134Y-129268229D01*
X72226922Y-128689021D01*
X90276371Y-128689021D01*
X90283745Y-128857935D01*
X90355200Y-129011170D01*
X90479855Y-129125395D01*
X90638735Y-129183222D01*
X90811837Y-129246227D01*
X90948019Y-129182724D01*
X91270801Y-128295889D01*
X90860278Y-128146471D01*
X91591229Y-128146471D01*
X92243141Y-128383747D01*
X92379323Y-128320245D01*
X92585659Y-127753339D01*
X92578285Y-127584425D01*
X92506830Y-127431190D01*
X92382175Y-127316965D01*
X92223295Y-127259138D01*
X92050193Y-127196133D01*
X91914011Y-127259636D01*
X91591229Y-128146471D01*
X90860278Y-128146471D01*
X90618889Y-128058613D01*
X90482707Y-128122115D01*
X90276371Y-128689021D01*
X72226922Y-128689021D01*
X67087866Y-124955279D01*
X67615683Y-125174448D01*
X68878776Y-125175550D01*
X70046143Y-124693204D01*
X70940065Y-123800841D01*
X71424448Y-122634317D01*
X71425398Y-121544873D01*
X82032093Y-121544873D01*
X82055599Y-121693283D01*
X82305757Y-121875033D01*
X82442542Y-121974414D01*
X82606945Y-122013884D01*
X82773940Y-121987434D01*
X82918100Y-121899093D01*
X83125758Y-121613277D01*
X83102252Y-121464866D01*
X82439869Y-120983617D01*
X82032093Y-121544873D01*
X71425398Y-121544873D01*
X71425550Y-121371224D01*
X71201569Y-120829147D01*
X81179694Y-120829147D01*
X81206144Y-120996142D01*
X81294485Y-121140302D01*
X81431271Y-121239682D01*
X81681428Y-121421432D01*
X81829839Y-121397927D01*
X82237615Y-120836671D01*
X81575232Y-120355422D01*
X81426822Y-120378928D01*
X81219164Y-120664744D01*
X81179694Y-120829147D01*
X71201569Y-120829147D01*
X70943204Y-120203857D01*
X70050841Y-119309935D01*
X68884317Y-118825552D01*
X67621224Y-118824450D01*
X66453857Y-119306796D01*
X65559935Y-120199159D01*
X65075552Y-121365683D01*
X65075131Y-121848358D01*
X63466796Y-116898409D01*
X74393597Y-116898409D01*
X74485703Y-117057942D01*
X74570241Y-117204366D01*
X74704377Y-117307292D01*
X74867692Y-117351052D01*
X75035321Y-117328983D01*
X75557784Y-117027339D01*
X75596674Y-116882199D01*
X75249799Y-116281394D01*
X74432487Y-116753269D01*
X74393597Y-116898409D01*
X63466796Y-116898409D01*
X63182776Y-116024288D01*
X73963634Y-116024288D01*
X73985703Y-116191916D01*
X74070241Y-116338340D01*
X74162347Y-116497873D01*
X74307487Y-116536763D01*
X74966305Y-116156394D01*
X75466305Y-116156394D01*
X75813180Y-116757199D01*
X75958320Y-116796089D01*
X76480783Y-116494445D01*
X76583710Y-116360309D01*
X76627470Y-116196994D01*
X76605401Y-116029366D01*
X76520863Y-115882942D01*
X76428757Y-115723409D01*
X76283617Y-115684519D01*
X75466305Y-116156394D01*
X74966305Y-116156394D01*
X75124799Y-116064888D01*
X74777924Y-115464083D01*
X74632784Y-115425193D01*
X74110321Y-115726837D01*
X74007394Y-115860973D01*
X73963634Y-116024288D01*
X63182776Y-116024288D01*
X62960140Y-115339083D01*
X74994430Y-115339083D01*
X75341305Y-115939888D01*
X76158617Y-115468013D01*
X76197507Y-115322873D01*
X76105401Y-115163340D01*
X76020863Y-115016916D01*
X75886727Y-114913990D01*
X75723412Y-114870230D01*
X75555783Y-114892299D01*
X75033320Y-115193943D01*
X74994430Y-115339083D01*
X62960140Y-115339083D01*
X60006121Y-106247550D01*
X62249783Y-106247550D01*
X62439684Y-106707143D01*
X62791007Y-107059081D01*
X63250269Y-107249783D01*
X63727853Y-107250200D01*
X63565399Y-107317325D01*
X63213461Y-107668648D01*
X63022759Y-108127910D01*
X63022325Y-108625191D01*
X63212226Y-109084784D01*
X63563549Y-109436722D01*
X64022811Y-109627424D01*
X64369742Y-109627727D01*
X64309656Y-109652554D01*
X63943641Y-110017930D01*
X63745311Y-110495562D01*
X63744859Y-111012735D01*
X63942356Y-111490712D01*
X64307732Y-111856727D01*
X64785364Y-112055057D01*
X64903979Y-112055161D01*
X64533908Y-112175404D01*
X64409823Y-112243216D01*
X64313817Y-112360766D01*
X64271108Y-112506406D01*
X64288426Y-112657188D01*
X64860107Y-114416643D01*
X64927919Y-114540728D01*
X65045469Y-114636734D01*
X65191109Y-114679443D01*
X65341891Y-114662125D01*
X67101346Y-114090444D01*
X67225431Y-114022632D01*
X67321437Y-113905082D01*
X67364146Y-113759442D01*
X67346828Y-113608660D01*
X66775147Y-111849205D01*
X66707335Y-111725120D01*
X66589785Y-111629114D01*
X66444145Y-111586405D01*
X66293363Y-111603723D01*
X65910694Y-111728060D01*
X66146529Y-111492636D01*
X66344859Y-111015004D01*
X66345311Y-110497831D01*
X66147814Y-110019854D01*
X65782438Y-109653839D01*
X65304806Y-109455509D01*
X64937982Y-109455188D01*
X64979685Y-109437957D01*
X65331623Y-109086634D01*
X65522325Y-108627372D01*
X65522759Y-108130091D01*
X65332858Y-107670498D01*
X64981535Y-107318560D01*
X64522273Y-107127858D01*
X64044689Y-107127441D01*
X64207143Y-107060316D01*
X64559081Y-106708993D01*
X64749783Y-106249731D01*
X64750217Y-105752450D01*
X64560316Y-105292857D01*
X64208993Y-104940919D01*
X63749731Y-104750217D01*
X63252450Y-104749783D01*
X62792857Y-104939684D01*
X62440919Y-105291007D01*
X62250217Y-105750269D01*
X62249783Y-106247550D01*
X60006121Y-106247550D01*
X58498158Y-101606518D01*
X58947572Y-101420824D01*
X59313520Y-101055513D01*
X63975605Y-101055513D01*
X64078151Y-101303693D01*
X64267866Y-101493739D01*
X64515867Y-101596719D01*
X64784399Y-101596953D01*
X65032579Y-101494407D01*
X65130320Y-101396836D01*
X65370333Y-101396836D01*
X65463349Y-101489852D01*
X65463230Y-101626775D01*
X65565776Y-101874955D01*
X65755491Y-102065001D01*
X66003492Y-102167981D01*
X66272024Y-102168215D01*
X66520204Y-102065669D01*
X66710250Y-101875954D01*
X66813230Y-101627953D01*
X66813464Y-101359421D01*
X66710918Y-101111241D01*
X66521203Y-100921195D01*
X66273202Y-100818215D01*
X66135096Y-100818095D01*
X65902961Y-100585960D01*
X65748860Y-100482993D01*
X65567085Y-100446836D01*
X65130312Y-100446836D01*
X65033578Y-100349933D01*
X64785577Y-100246953D01*
X64517045Y-100246719D01*
X64268865Y-100349265D01*
X64078819Y-100538980D01*
X63975839Y-100786981D01*
X63975605Y-101055513D01*
X59313520Y-101055513D01*
X59419168Y-100950050D01*
X59674708Y-100334640D01*
X59675290Y-99668284D01*
X59420824Y-99052428D01*
X59102629Y-98733677D01*
X61524883Y-98733677D01*
X61627429Y-98981857D01*
X61817144Y-99171903D01*
X62065145Y-99274883D01*
X62333677Y-99275117D01*
X62581857Y-99172571D01*
X62638370Y-99116156D01*
X63372429Y-99116156D01*
X63419250Y-99163059D01*
X63667251Y-99266039D01*
X63935783Y-99266273D01*
X64183963Y-99163727D01*
X64374009Y-98974012D01*
X64476989Y-98726011D01*
X64477223Y-98457479D01*
X64374677Y-98209299D01*
X64184962Y-98019253D01*
X63936961Y-97916273D01*
X63668429Y-97916039D01*
X63420249Y-98018585D01*
X63372595Y-98066156D01*
X62620849Y-98066156D01*
X62582856Y-98028097D01*
X62334855Y-97925117D01*
X62066323Y-97924883D01*
X61818143Y-98027429D01*
X61628097Y-98217144D01*
X61525117Y-98465145D01*
X61524883Y-98733677D01*
X59102629Y-98733677D01*
X58950050Y-98580832D01*
X58496497Y-98392501D01*
X59003087Y-96833374D01*
X69460922Y-96833374D01*
X69497516Y-96998441D01*
X69594494Y-97136940D01*
X69737091Y-97227784D01*
X70331214Y-97332544D01*
X70392301Y-97289770D01*
X70700502Y-97289770D01*
X70786687Y-97412856D01*
X71380810Y-97517616D01*
X71545877Y-97481022D01*
X71684376Y-97384044D01*
X71775220Y-97241447D01*
X71804580Y-97074940D01*
X71836568Y-96893526D01*
X71750382Y-96770440D01*
X70820970Y-96606560D01*
X70700502Y-97289770D01*
X70392301Y-97289770D01*
X70454300Y-97246358D01*
X70574768Y-96563148D01*
X69645356Y-96399267D01*
X69522270Y-96485453D01*
X69490282Y-96666867D01*
X69460922Y-96833374D01*
X59003087Y-96833374D01*
X59156778Y-96360358D01*
X70864382Y-96360358D01*
X71793794Y-96524239D01*
X71916880Y-96438053D01*
X71948868Y-96256639D01*
X71978228Y-96090132D01*
X71941634Y-95925065D01*
X71844656Y-95786566D01*
X71702059Y-95695722D01*
X71107936Y-95590962D01*
X70984850Y-95677148D01*
X70864382Y-96360358D01*
X59156778Y-96360358D01*
X59264125Y-96029980D01*
X69602582Y-96029980D01*
X69688768Y-96153066D01*
X70618180Y-96316946D01*
X70738648Y-95633736D01*
X70652463Y-95510650D01*
X70058340Y-95405890D01*
X69893273Y-95442484D01*
X69754774Y-95539462D01*
X69663930Y-95682059D01*
X69634570Y-95848566D01*
X69602582Y-96029980D01*
X59264125Y-96029980D01*
X60048801Y-93614996D01*
X70123486Y-93614996D01*
X70124890Y-93737539D01*
X70175779Y-93858833D01*
X70269849Y-93950773D01*
X70392278Y-93998870D01*
X71869490Y-94259342D01*
X71992033Y-94257938D01*
X72113327Y-94207049D01*
X72205267Y-94112979D01*
X72253364Y-93990550D01*
X72282555Y-93825000D01*
X74700000Y-93825000D01*
X74835657Y-93798016D01*
X74862641Y-93792649D01*
X75000520Y-93700520D01*
X75039019Y-93662021D01*
X74898840Y-94457019D01*
X74900460Y-94598415D01*
X74959178Y-94738370D01*
X75067720Y-94844454D01*
X75208983Y-94899950D01*
X76287162Y-95090062D01*
X76375011Y-95177911D01*
X76375011Y-96614766D01*
X74950892Y-96363656D01*
X74828349Y-96365060D01*
X74707055Y-96415949D01*
X74615115Y-96510019D01*
X74567018Y-96632448D01*
X74393370Y-97617256D01*
X74394774Y-97739799D01*
X74445663Y-97861093D01*
X74539733Y-97953033D01*
X74662162Y-98001130D01*
X75840337Y-98208874D01*
X75974954Y-98343491D01*
X75974955Y-106011446D01*
X75975000Y-106011672D01*
X75975000Y-110458871D01*
X74209105Y-112224766D01*
X74185249Y-112212485D01*
X74054089Y-112202523D01*
X73929387Y-112244374D01*
X72630349Y-112994374D01*
X72537378Y-113074218D01*
X72477172Y-113191168D01*
X72467210Y-113322328D01*
X72509061Y-113447029D01*
X73009061Y-114313055D01*
X73088905Y-114406027D01*
X73205855Y-114466233D01*
X73337015Y-114476195D01*
X73461717Y-114434344D01*
X74760755Y-113684344D01*
X74853726Y-113604500D01*
X74913932Y-113487550D01*
X74923894Y-113356390D01*
X74882043Y-113231689D01*
X74707163Y-112928788D01*
X76684564Y-110951387D01*
X76708436Y-111022519D01*
X77208436Y-111888545D01*
X77300564Y-111995819D01*
X77435506Y-112065288D01*
X77586844Y-112076783D01*
X77730730Y-112028493D01*
X78143525Y-111790166D01*
X78174902Y-111811131D01*
X78375811Y-111851094D01*
X78908632Y-111851094D01*
X79677994Y-112620456D01*
X78473873Y-113315656D01*
X78380902Y-113395500D01*
X78320696Y-113512450D01*
X78310734Y-113643610D01*
X78352585Y-113768311D01*
X78852585Y-114634337D01*
X78932429Y-114727309D01*
X79049379Y-114787515D01*
X79180539Y-114797477D01*
X79305241Y-114755626D01*
X79766635Y-114489240D01*
X79975000Y-114697606D01*
X79975000Y-117400000D01*
X79988679Y-117468769D01*
X80007351Y-117562641D01*
X80099480Y-117700520D01*
X82037512Y-119638553D01*
X81906330Y-119718941D01*
X81698672Y-120004757D01*
X81722178Y-120153168D01*
X82384561Y-120634417D01*
X82396317Y-120618236D01*
X82598571Y-120765182D01*
X82586815Y-120781363D01*
X83249198Y-121262612D01*
X83397608Y-121239106D01*
X83498795Y-121099835D01*
X87998998Y-125600039D01*
X87998998Y-126003083D01*
X87967910Y-126025386D01*
X87899284Y-126137602D01*
X87386254Y-127547141D01*
X87366357Y-127668066D01*
X87395410Y-127796354D01*
X87472086Y-127903232D01*
X87584302Y-127971858D01*
X88523994Y-128313879D01*
X88644920Y-128333776D01*
X88773209Y-128304722D01*
X88880086Y-128228046D01*
X88948712Y-128115830D01*
X89104608Y-127687507D01*
X90640891Y-127687507D01*
X90704394Y-127823689D01*
X91356306Y-128060966D01*
X91679087Y-127174131D01*
X91615585Y-127037949D01*
X91442482Y-126974945D01*
X91283603Y-126917117D01*
X91114689Y-126924492D01*
X90961453Y-126995947D01*
X90847228Y-127120602D01*
X90640891Y-127687507D01*
X89104608Y-127687507D01*
X89461742Y-126706291D01*
X89481639Y-126585366D01*
X89452586Y-126457078D01*
X89375910Y-126350200D01*
X89263694Y-126281574D01*
X88848998Y-126130637D01*
X88848998Y-125423998D01*
X88816647Y-125261358D01*
X88816647Y-125261357D01*
X88724519Y-125123478D01*
X86648263Y-123047222D01*
X88994172Y-123047222D01*
X88991290Y-123064740D01*
X89024813Y-123212765D01*
X89113285Y-123336085D01*
X89242766Y-123415269D01*
X90182458Y-123757290D01*
X90321987Y-123780248D01*
X90470012Y-123746724D01*
X90593332Y-123658252D01*
X90672516Y-123528772D01*
X90913783Y-122865896D01*
X92495457Y-122865896D01*
X92069170Y-124037111D01*
X92049273Y-124158036D01*
X92078326Y-124286324D01*
X92155002Y-124393202D01*
X92267218Y-124461828D01*
X93206910Y-124803849D01*
X93327836Y-124823746D01*
X93456125Y-124794692D01*
X93563002Y-124718016D01*
X93631628Y-124605800D01*
X93836949Y-124041686D01*
X94040646Y-124041686D01*
X95099480Y-125100521D01*
X95237359Y-125192649D01*
X95400000Y-125225000D01*
X106081960Y-125225000D01*
X108098584Y-127241625D01*
X107729289Y-127376038D01*
X107623866Y-127438525D01*
X107544267Y-127543244D01*
X107511680Y-127670681D01*
X107531241Y-127800755D01*
X108044271Y-129210294D01*
X108106758Y-129315718D01*
X108211477Y-129395317D01*
X108338914Y-129427904D01*
X108468989Y-129408343D01*
X109275000Y-129114978D01*
X109275000Y-132332538D01*
X108296704Y-133310834D01*
X108214469Y-133276687D01*
X107787404Y-133276314D01*
X107392706Y-133439400D01*
X107090462Y-133741117D01*
X106926687Y-134135531D01*
X106926314Y-134562596D01*
X107089400Y-134957294D01*
X107391117Y-135259538D01*
X107785531Y-135423313D01*
X108212596Y-135423686D01*
X108607294Y-135260600D01*
X108909538Y-134958883D01*
X109073313Y-134564469D01*
X109073686Y-134137404D01*
X109039001Y-134053461D01*
X110171231Y-132921231D01*
X110285037Y-132750909D01*
X110325000Y-132550000D01*
X110325000Y-127660389D01*
X110785878Y-127660389D01*
X110992215Y-128227294D01*
X111106440Y-128351949D01*
X111259676Y-128423404D01*
X111428590Y-128430779D01*
X111587469Y-128372951D01*
X111760572Y-128309947D01*
X111824074Y-128173765D01*
X111501293Y-127286930D01*
X110849381Y-127524207D01*
X110785878Y-127660389D01*
X110325000Y-127660389D01*
X110325000Y-127326000D01*
X110285037Y-127125091D01*
X110171231Y-126954769D01*
X109875337Y-126658875D01*
X110421358Y-126658875D01*
X110627694Y-127225781D01*
X110763876Y-127289283D01*
X111005264Y-127201425D01*
X111736216Y-127201425D01*
X112058998Y-128088260D01*
X112195180Y-128151763D01*
X112368282Y-128088758D01*
X112527162Y-128030931D01*
X112651817Y-127916706D01*
X112723272Y-127763471D01*
X112730646Y-127594557D01*
X112524310Y-127027651D01*
X112388128Y-126964149D01*
X111736216Y-127201425D01*
X111005264Y-127201425D01*
X111415788Y-127052007D01*
X111093006Y-126165172D01*
X110956824Y-126101669D01*
X110783722Y-126164674D01*
X110624842Y-126222501D01*
X110500187Y-126336726D01*
X110428732Y-126489961D01*
X110421358Y-126658875D01*
X109875337Y-126658875D01*
X109296129Y-126079667D01*
X111327930Y-126079667D01*
X111650711Y-126966502D01*
X112302623Y-126729225D01*
X112366126Y-126593043D01*
X112159789Y-126026138D01*
X112045564Y-125901483D01*
X111892328Y-125830028D01*
X111723414Y-125822653D01*
X111564535Y-125880481D01*
X111391432Y-125943485D01*
X111327930Y-126079667D01*
X109296129Y-126079667D01*
X107732605Y-124516143D01*
X107750217Y-124509733D01*
X107871859Y-124437632D01*
X107963705Y-124316803D01*
X108001305Y-124169761D01*
X107978735Y-124019675D01*
X107779621Y-123472613D01*
X108939231Y-122313003D01*
X109375389Y-123511336D01*
X109437876Y-123616760D01*
X109542595Y-123696359D01*
X109670032Y-123728946D01*
X109800107Y-123709385D01*
X110739799Y-123367364D01*
X110845222Y-123304877D01*
X110924821Y-123200158D01*
X110957408Y-123072721D01*
X110937847Y-122942647D01*
X110709125Y-122314240D01*
X110798365Y-122225000D01*
X115200000Y-122225000D01*
X115335657Y-122198016D01*
X115362641Y-122192649D01*
X115500520Y-122100520D01*
X115987763Y-121613277D01*
X116874242Y-121613277D01*
X117081900Y-121899093D01*
X117226060Y-121987434D01*
X117393055Y-122013884D01*
X117557458Y-121974414D01*
X117694243Y-121875033D01*
X117944401Y-121693283D01*
X117967907Y-121544873D01*
X117560131Y-120983617D01*
X116897748Y-121464866D01*
X116874242Y-121613277D01*
X115987763Y-121613277D01*
X116501205Y-121099835D01*
X116602392Y-121239106D01*
X116750802Y-121262612D01*
X117337060Y-120836671D01*
X117762385Y-120836671D01*
X118170161Y-121397927D01*
X118318572Y-121421432D01*
X118568729Y-121239682D01*
X118705515Y-121140302D01*
X118793856Y-120996142D01*
X118820306Y-120829147D01*
X118780836Y-120664744D01*
X118573178Y-120378928D01*
X118424768Y-120355422D01*
X117762385Y-120836671D01*
X117337060Y-120836671D01*
X117413185Y-120781363D01*
X117401429Y-120765182D01*
X117603683Y-120618236D01*
X117615439Y-120634417D01*
X118277822Y-120153168D01*
X118301328Y-120004757D01*
X118093670Y-119718941D01*
X117962488Y-119638553D01*
X121176041Y-116425000D01*
X123604565Y-116425000D01*
X123639245Y-116455626D01*
X124938283Y-117205626D01*
X125053917Y-117246219D01*
X125185301Y-117239884D01*
X125303870Y-117182932D01*
X125390939Y-117084337D01*
X125890939Y-116218311D01*
X125931532Y-116102678D01*
X125925197Y-115971294D01*
X125868245Y-115852725D01*
X125769651Y-115765656D01*
X124470613Y-115015656D01*
X124354979Y-114975063D01*
X124223595Y-114981398D01*
X124105026Y-115038350D01*
X124017957Y-115136945D01*
X123765046Y-115575000D01*
X121000000Y-115575000D01*
X120985924Y-115577800D01*
X120985924Y-114824109D01*
X121091100Y-114773590D01*
X121191564Y-114659827D01*
X121508477Y-114110917D01*
X126003326Y-114110917D01*
X126042216Y-114256057D01*
X126564679Y-114557701D01*
X126732308Y-114579770D01*
X126895623Y-114536010D01*
X127029759Y-114433084D01*
X127114297Y-114286660D01*
X127206403Y-114127127D01*
X127167513Y-113981987D01*
X126350201Y-113510112D01*
X126003326Y-114110917D01*
X121508477Y-114110917D01*
X121691564Y-113793801D01*
X121738402Y-113660378D01*
X121731093Y-113508781D01*
X121691193Y-113425712D01*
X124972530Y-113425712D01*
X125016290Y-113589027D01*
X125119217Y-113723163D01*
X125641680Y-114024807D01*
X125786820Y-113985917D01*
X126133695Y-113385112D01*
X125975202Y-113293606D01*
X126475201Y-113293606D01*
X127292513Y-113765481D01*
X127437653Y-113726591D01*
X127529759Y-113567058D01*
X127561122Y-113512735D01*
X132427232Y-113512735D01*
X132624729Y-113990712D01*
X132990105Y-114356727D01*
X133467737Y-114555057D01*
X133984910Y-114555509D01*
X134462887Y-114358012D01*
X134828902Y-113992636D01*
X135027232Y-113515004D01*
X135027684Y-112997831D01*
X134830187Y-112519854D01*
X134464811Y-112153839D01*
X134401517Y-112127557D01*
X134747550Y-112127859D01*
X135207143Y-111937958D01*
X135559081Y-111586635D01*
X135749783Y-111127373D01*
X135750217Y-110630092D01*
X135560316Y-110170499D01*
X135257786Y-109867440D01*
X135577249Y-109842297D01*
X135735026Y-109683010D01*
X135217916Y-108668125D01*
X134203031Y-109185234D01*
X134237048Y-109406839D01*
X134524419Y-109627662D01*
X134252450Y-109627425D01*
X133792857Y-109817326D01*
X133440919Y-110168649D01*
X133250217Y-110627911D01*
X133249783Y-111125192D01*
X133439684Y-111584785D01*
X133791007Y-111936723D01*
X133835930Y-111955377D01*
X133470006Y-111955057D01*
X132992029Y-112152554D01*
X132626014Y-112517930D01*
X132427684Y-112995562D01*
X132427232Y-113512735D01*
X127561122Y-113512735D01*
X127614297Y-113420634D01*
X127636366Y-113253006D01*
X127592606Y-113089691D01*
X127489679Y-112955555D01*
X126967216Y-112653911D01*
X126822076Y-112692801D01*
X126475201Y-113293606D01*
X125975202Y-113293606D01*
X125316383Y-112913237D01*
X125171243Y-112952127D01*
X125079137Y-113111660D01*
X124994599Y-113258084D01*
X124972530Y-113425712D01*
X121691193Y-113425712D01*
X121665379Y-113371971D01*
X121551616Y-113271507D01*
X120985924Y-112944905D01*
X120985924Y-112551591D01*
X125402493Y-112551591D01*
X125441383Y-112696731D01*
X126258695Y-113168606D01*
X126605570Y-112567801D01*
X126566680Y-112422661D01*
X126044217Y-112121017D01*
X125876588Y-112098948D01*
X125713273Y-112142708D01*
X125579137Y-112245634D01*
X125494599Y-112392058D01*
X125402493Y-112551591D01*
X120985924Y-112551591D01*
X120985924Y-111225692D01*
X120995721Y-111234344D01*
X122294759Y-111984344D01*
X122410393Y-112024937D01*
X122541777Y-112018602D01*
X122660346Y-111961650D01*
X122747415Y-111863055D01*
X123247415Y-110997029D01*
X123288008Y-110881396D01*
X123281673Y-110750012D01*
X123224721Y-110631443D01*
X123126127Y-110544374D01*
X121827089Y-109794374D01*
X121711455Y-109753781D01*
X121580071Y-109760116D01*
X121548085Y-109775480D01*
X121425000Y-109652395D01*
X121425000Y-108409027D01*
X133899105Y-108409027D01*
X133930246Y-108804706D01*
X134089533Y-108962483D01*
X134889995Y-108554627D01*
X135440668Y-108554627D01*
X135957777Y-109569512D01*
X136179382Y-109535495D01*
X136506620Y-109109640D01*
X136645981Y-108590973D01*
X136614840Y-108195294D01*
X136455553Y-108037517D01*
X135440668Y-108554627D01*
X134889995Y-108554627D01*
X135104418Y-108445373D01*
X134587309Y-107430488D01*
X134365704Y-107464505D01*
X134038466Y-107890360D01*
X133899105Y-108409027D01*
X121425000Y-108409027D01*
X121425000Y-106735394D01*
X134548704Y-106735394D01*
X134582217Y-106862590D01*
X134662576Y-106966727D01*
X134777119Y-107031395D01*
X135127244Y-107145157D01*
X134967837Y-107157703D01*
X134810060Y-107316990D01*
X135327170Y-108331875D01*
X136342055Y-107814766D01*
X136308038Y-107593161D01*
X136162965Y-107481683D01*
X136536574Y-107603076D01*
X136658120Y-107618740D01*
X136785316Y-107585227D01*
X136889453Y-107504868D01*
X136954121Y-107390325D01*
X137525802Y-105630870D01*
X137541466Y-105509324D01*
X137507953Y-105382128D01*
X137427594Y-105277991D01*
X137313051Y-105213323D01*
X135553596Y-104641642D01*
X135432050Y-104625978D01*
X135304854Y-104659491D01*
X135200717Y-104739850D01*
X135136049Y-104854393D01*
X134564368Y-106613848D01*
X134548704Y-106735394D01*
X121425000Y-106735394D01*
X121425000Y-102776040D01*
X127314287Y-96886753D01*
X128257315Y-96886753D01*
X128302310Y-97141934D01*
X128345542Y-97256607D01*
X128434847Y-97353181D01*
X128554689Y-97407402D01*
X128686184Y-97410726D01*
X130163396Y-97150254D01*
X130278069Y-97107022D01*
X130374643Y-97017717D01*
X130428864Y-96897875D01*
X130432188Y-96766380D01*
X130258540Y-95781572D01*
X130215308Y-95666899D01*
X130126003Y-95570325D01*
X130006161Y-95516104D01*
X129874666Y-95512780D01*
X128397454Y-95773252D01*
X128282781Y-95816484D01*
X128186207Y-95905789D01*
X128131986Y-96025631D01*
X128131705Y-96036753D01*
X127138247Y-96036753D01*
X127002590Y-96063737D01*
X126975606Y-96069104D01*
X126837727Y-96161233D01*
X125616920Y-97382040D01*
X125483186Y-96623595D01*
X125433304Y-96491281D01*
X125330260Y-96379849D01*
X125191980Y-96317287D01*
X125040255Y-96313452D01*
X124324380Y-96439680D01*
X123125000Y-95240300D01*
X123125000Y-95084970D01*
X123173457Y-95106894D01*
X123304952Y-95110218D01*
X124782164Y-94849746D01*
X124896837Y-94806514D01*
X124993411Y-94717209D01*
X125047632Y-94597367D01*
X125050956Y-94465872D01*
X124877308Y-93481064D01*
X124834076Y-93366391D01*
X124744771Y-93269817D01*
X124624929Y-93215596D01*
X124493434Y-93212272D01*
X123692488Y-93353500D01*
X123602824Y-93263836D01*
X123602824Y-92057558D01*
X123617144Y-92071903D01*
X123865145Y-92174883D01*
X123975977Y-92174980D01*
X123975933Y-92224833D01*
X124070883Y-92454629D01*
X124246545Y-92630598D01*
X124303000Y-92654040D01*
X125125021Y-93476062D01*
X125124892Y-93623775D01*
X125219842Y-93853571D01*
X125395504Y-94029540D01*
X125625134Y-94124891D01*
X125873775Y-94125108D01*
X126103571Y-94030158D01*
X126279540Y-93854496D01*
X126326193Y-93742142D01*
X127607758Y-93742142D01*
X127639746Y-93923556D01*
X127669106Y-94090063D01*
X127759950Y-94232660D01*
X127898449Y-94329638D01*
X128063516Y-94366232D01*
X128657639Y-94261472D01*
X128743824Y-94138386D01*
X128623356Y-93455176D01*
X127693944Y-93619056D01*
X127607758Y-93742142D01*
X126326193Y-93742142D01*
X126374891Y-93624866D01*
X126375076Y-93411764D01*
X128869558Y-93411764D01*
X128990026Y-94094974D01*
X129113112Y-94181160D01*
X129707235Y-94076400D01*
X129849832Y-93985556D01*
X129946810Y-93847057D01*
X129983404Y-93681990D01*
X129954044Y-93515483D01*
X129922056Y-93334069D01*
X129798970Y-93247883D01*
X128869558Y-93411764D01*
X126375076Y-93411764D01*
X126375108Y-93376225D01*
X126280158Y-93146429D01*
X126104496Y-92970460D01*
X126028126Y-92938748D01*
X127466098Y-92938748D01*
X127495458Y-93105255D01*
X127527446Y-93286669D01*
X127650532Y-93372855D01*
X128579944Y-93208974D01*
X128459476Y-92525764D01*
X128397478Y-92482352D01*
X128705678Y-92482352D01*
X128826146Y-93165562D01*
X129755558Y-93001682D01*
X129841744Y-92878596D01*
X129809756Y-92697182D01*
X129780396Y-92530675D01*
X129689552Y-92388078D01*
X129551053Y-92291100D01*
X129385986Y-92254506D01*
X128791863Y-92359266D01*
X128705678Y-92482352D01*
X128397478Y-92482352D01*
X128336390Y-92439578D01*
X127742267Y-92544338D01*
X127599670Y-92635182D01*
X127502692Y-92773681D01*
X127466098Y-92938748D01*
X126028126Y-92938748D01*
X125874866Y-92875109D01*
X125726020Y-92874979D01*
X125182224Y-92331184D01*
X125225932Y-92225924D01*
X125226149Y-91977283D01*
X125131199Y-91747487D01*
X125108752Y-91725001D01*
X125568716Y-91725001D01*
X125724953Y-91881238D01*
X125724895Y-91947512D01*
X125827441Y-92195692D01*
X126017156Y-92385738D01*
X126265157Y-92488718D01*
X126533689Y-92488952D01*
X126781869Y-92386406D01*
X126971915Y-92196691D01*
X127028403Y-92060652D01*
X134810059Y-92060652D01*
X134967836Y-92219939D01*
X135504705Y-92234368D01*
X136006230Y-92042249D01*
X136308037Y-91784481D01*
X136342054Y-91562876D01*
X135327169Y-91045767D01*
X134810059Y-92060652D01*
X127028403Y-92060652D01*
X127074895Y-91948690D01*
X127075129Y-91680158D01*
X126972583Y-91431978D01*
X126782868Y-91241932D01*
X126534867Y-91138952D01*
X126467532Y-91138893D01*
X126438444Y-91109805D01*
X133915816Y-91109805D01*
X134107935Y-91611330D01*
X134365703Y-91913137D01*
X134587308Y-91947154D01*
X135104417Y-90932269D01*
X134889995Y-90823015D01*
X135440667Y-90823015D01*
X136455552Y-91340125D01*
X136614839Y-91182348D01*
X136629268Y-90645479D01*
X136437149Y-90143954D01*
X136179381Y-89842147D01*
X135957776Y-89808130D01*
X135440667Y-90823015D01*
X134889995Y-90823015D01*
X134089532Y-90415159D01*
X133930245Y-90572936D01*
X133915816Y-91109805D01*
X126438444Y-91109805D01*
X126330735Y-91002096D01*
X132522903Y-91002096D01*
X132723812Y-90962133D01*
X132894134Y-90848327D01*
X134030001Y-89712460D01*
X134240278Y-89799774D01*
X134437094Y-89799946D01*
X134237047Y-89970803D01*
X134203030Y-90192408D01*
X135217915Y-90709517D01*
X135735025Y-89694632D01*
X135577248Y-89535345D01*
X135310122Y-89528166D01*
X135601443Y-89237353D01*
X135799773Y-88759721D01*
X135800225Y-88242548D01*
X135602728Y-87764571D01*
X135237352Y-87398556D01*
X134759720Y-87200226D01*
X134476576Y-87199979D01*
X134995423Y-87031395D01*
X135102963Y-86972625D01*
X135186169Y-86870748D01*
X135223183Y-86744526D01*
X135208174Y-86613848D01*
X134636493Y-84854393D01*
X134577723Y-84746853D01*
X134475846Y-84663647D01*
X134349624Y-84626633D01*
X134218946Y-84641642D01*
X132459491Y-85213323D01*
X132351951Y-85272093D01*
X132268745Y-85373970D01*
X132231731Y-85500192D01*
X132246740Y-85630870D01*
X132818421Y-87390325D01*
X132877191Y-87497865D01*
X132979068Y-87581071D01*
X133105290Y-87618085D01*
X133235968Y-87603076D01*
X133713998Y-87447755D01*
X133398555Y-87762647D01*
X133200225Y-88240279D01*
X133199773Y-88757452D01*
X133287579Y-88969958D01*
X132305441Y-89952096D01*
X124434554Y-89952096D01*
X124387733Y-89905193D01*
X124139732Y-89802213D01*
X123871200Y-89801979D01*
X123623020Y-89904525D01*
X123602824Y-89924686D01*
X123602824Y-88798217D01*
X123700520Y-88700521D01*
X123792648Y-88562641D01*
X123792649Y-88562640D01*
X123825000Y-88400000D01*
X123825000Y-87636066D01*
X123953290Y-87605266D01*
X124239106Y-87397608D01*
X124262612Y-87249198D01*
X123781363Y-86586815D01*
X123765182Y-86598571D01*
X123649879Y-86439869D01*
X123983617Y-86439869D01*
X124464866Y-87102252D01*
X124613277Y-87125758D01*
X124899093Y-86918100D01*
X124987434Y-86773940D01*
X125013884Y-86606945D01*
X124974414Y-86442542D01*
X124875033Y-86305757D01*
X124693283Y-86055599D01*
X124544873Y-86032093D01*
X123983617Y-86439869D01*
X123649879Y-86439869D01*
X123618236Y-86396317D01*
X123634417Y-86384561D01*
X123153168Y-85722178D01*
X123004757Y-85698672D01*
X122718941Y-85906330D01*
X122630600Y-86050490D01*
X122624555Y-86088655D01*
X122111132Y-85575232D01*
X123355422Y-85575232D01*
X123836671Y-86237615D01*
X124397927Y-85829839D01*
X124421432Y-85681428D01*
X124239682Y-85431271D01*
X124140302Y-85294485D01*
X123996142Y-85206144D01*
X123829147Y-85179694D01*
X123664744Y-85219164D01*
X123378928Y-85426822D01*
X123355422Y-85575232D01*
X122111132Y-85575232D01*
X120580766Y-84044866D01*
X120580766Y-79255334D01*
X121274721Y-78428310D01*
X121334777Y-78321482D01*
X121351353Y-78190993D01*
X121315855Y-78064336D01*
X121233877Y-77961469D01*
X120467832Y-77318682D01*
X120361005Y-77258626D01*
X120230516Y-77242050D01*
X120103860Y-77277548D01*
X120000992Y-77359525D01*
X119036811Y-78508592D01*
X118976755Y-78615420D01*
X118960179Y-78745909D01*
X118995677Y-78872566D01*
X119077655Y-78975433D01*
X119730766Y-79523457D01*
X119730766Y-84220906D01*
X119757750Y-84356563D01*
X119763117Y-84383547D01*
X119831403Y-84485743D01*
X117888646Y-82542986D01*
X118164113Y-82214696D01*
X118233408Y-82091434D01*
X118252534Y-81940870D01*
X118211575Y-81794728D01*
X118116986Y-81676035D01*
X117350941Y-81033248D01*
X117227679Y-80963953D01*
X117077115Y-80944827D01*
X116930973Y-80985786D01*
X116812280Y-81080375D01*
X116712014Y-81199867D01*
X116584946Y-81114963D01*
X116384037Y-81075000D01*
X114876582Y-81075000D01*
X115673719Y-80125008D01*
X115733775Y-80018180D01*
X115750351Y-79887691D01*
X115714853Y-79761034D01*
X115646290Y-79675000D01*
X117350000Y-79675000D01*
X117491606Y-79646833D01*
X117512641Y-79642649D01*
X117650520Y-79550520D01*
X124598064Y-72602976D01*
X124690193Y-72465097D01*
X124697052Y-72430615D01*
X124722544Y-72302456D01*
X124722544Y-70857462D01*
X124690193Y-70694822D01*
X124690193Y-70694821D01*
X124598064Y-70556942D01*
X122140602Y-68099480D01*
X122002723Y-68007351D01*
X121975739Y-68001984D01*
X121840082Y-67975000D01*
X120350285Y-67975000D01*
X118967592Y-66970414D01*
X118856835Y-66917956D01*
X118725508Y-66910523D01*
X118601636Y-66954769D01*
X118504738Y-67043722D01*
X117417335Y-68540403D01*
X117364877Y-68651160D01*
X117357444Y-68782487D01*
X117401690Y-68906359D01*
X117490643Y-69003257D01*
X118987324Y-70090660D01*
X119098081Y-70143118D01*
X119229408Y-70150551D01*
X119353280Y-70106305D01*
X119450178Y-70017352D01*
X119765241Y-69583705D01*
X119700226Y-69740279D01*
X119699774Y-70257452D01*
X119787580Y-70469958D01*
X116382538Y-73875000D01*
X114468894Y-73875000D01*
X114267985Y-73914963D01*
X114097663Y-74028769D01*
X112985981Y-75140451D01*
X112872175Y-75310773D01*
X112832212Y-75511682D01*
X112832212Y-76324563D01*
X112264146Y-77001557D01*
X112194851Y-77124819D01*
X112175725Y-77275383D01*
X112216684Y-77421525D01*
X112311273Y-77540218D01*
X112832212Y-77977337D01*
X112832212Y-79225326D01*
X112532597Y-79524941D01*
X112466323Y-79524883D01*
X112218143Y-79627429D01*
X112028097Y-79817144D01*
X111925117Y-80065145D01*
X111924883Y-80333677D01*
X112027429Y-80581857D01*
X112217144Y-80771903D01*
X112465145Y-80874883D01*
X112534325Y-80874943D01*
X112699090Y-80985036D01*
X112878201Y-81020663D01*
X113828769Y-81971231D01*
X113999091Y-82085037D01*
X114200000Y-82125000D01*
X115935736Y-82125000D01*
X115848099Y-82229442D01*
X115778804Y-82352704D01*
X115759678Y-82503268D01*
X115800637Y-82649410D01*
X115895226Y-82768103D01*
X116661271Y-83410890D01*
X116784533Y-83480185D01*
X116935097Y-83499311D01*
X117081239Y-83458352D01*
X117199932Y-83363763D01*
X117211141Y-83350405D01*
X119179653Y-85318917D01*
X119072382Y-85318824D01*
X118824202Y-85421370D01*
X118776548Y-85468941D01*
X116606059Y-85468941D01*
X116405150Y-85508904D01*
X116381086Y-85524983D01*
X116266323Y-85524883D01*
X116018143Y-85627429D01*
X115828097Y-85817144D01*
X115725117Y-86065145D01*
X115724883Y-86333677D01*
X115827429Y-86581857D01*
X116017144Y-86771903D01*
X116265145Y-86874883D01*
X116533677Y-86875117D01*
X116781857Y-86772571D01*
X116971903Y-86582856D01*
X116998443Y-86518941D01*
X118776382Y-86518941D01*
X118823203Y-86565844D01*
X119071204Y-86668824D01*
X119339736Y-86669058D01*
X119587916Y-86566512D01*
X119777962Y-86376797D01*
X119880942Y-86128796D01*
X119881037Y-86020301D01*
X121078556Y-87217820D01*
X121042333Y-87311019D01*
X121046720Y-87462729D01*
X121109785Y-87600779D01*
X121844516Y-88612050D01*
X121947352Y-88709107D01*
X122075000Y-88758719D01*
X122075000Y-90904073D01*
X121884855Y-90825117D01*
X121616323Y-90824883D01*
X121368143Y-90927429D01*
X121178097Y-91117144D01*
X121075117Y-91365145D01*
X121075058Y-91432480D01*
X119814538Y-92693000D01*
X115173000Y-92693000D01*
X115173000Y-89456000D01*
X115150774Y-89337876D01*
X115080963Y-89229387D01*
X114974443Y-89156605D01*
X114848000Y-89131000D01*
X107598000Y-89131000D01*
X107479876Y-89153226D01*
X107371387Y-89223037D01*
X107298605Y-89329557D01*
X107273000Y-89456000D01*
X107273000Y-93706000D01*
X107295226Y-93824124D01*
X107365037Y-93932613D01*
X107471557Y-94005395D01*
X107598000Y-94031000D01*
X114848000Y-94031000D01*
X114966124Y-94008774D01*
X115074613Y-93938963D01*
X115147395Y-93832443D01*
X115165507Y-93743000D01*
X120032000Y-93743000D01*
X120232909Y-93703037D01*
X120403231Y-93589231D01*
X121817403Y-92175059D01*
X121883677Y-92175117D01*
X122075000Y-92096064D01*
X122075000Y-95457762D01*
X122114963Y-95658671D01*
X122228769Y-95828993D01*
X123259280Y-96859504D01*
X123256735Y-96865130D01*
X123252900Y-97016855D01*
X123426548Y-98001663D01*
X123476430Y-98133977D01*
X123579474Y-98245409D01*
X123705232Y-98302306D01*
X120089693Y-101917845D01*
X119975887Y-102088167D01*
X119935924Y-102289076D01*
X119935924Y-112497173D01*
X119830748Y-112547692D01*
X119730284Y-112661455D01*
X119230284Y-113527481D01*
X119183446Y-113660904D01*
X119190755Y-113812501D01*
X119256469Y-113949311D01*
X119370232Y-114049775D01*
X119935924Y-114376377D01*
X119935924Y-115521614D01*
X117072100Y-118385438D01*
X116933282Y-118194372D01*
X116830446Y-118097315D01*
X116688981Y-118042333D01*
X116537271Y-118046720D01*
X116399221Y-118109785D01*
X115387950Y-118844516D01*
X115324999Y-118911215D01*
X115324999Y-117277664D01*
X115379903Y-117222856D01*
X115482883Y-116974855D01*
X115483117Y-116706323D01*
X115380571Y-116458143D01*
X115190856Y-116268097D01*
X114942855Y-116165117D01*
X114674323Y-116164883D01*
X114426143Y-116267429D01*
X114236097Y-116457144D01*
X114133117Y-116705145D01*
X114132883Y-116973677D01*
X114235429Y-117221857D01*
X114274999Y-117261496D01*
X114274999Y-119862617D01*
X114118143Y-119927429D01*
X113928097Y-120117144D01*
X113825117Y-120365145D01*
X113824883Y-120633677D01*
X113861143Y-120721432D01*
X109263340Y-120721432D01*
X109062431Y-120761395D01*
X108892109Y-120875201D01*
X107328389Y-122438921D01*
X107272775Y-122396648D01*
X107125732Y-122359048D01*
X106975647Y-122381618D01*
X106035955Y-122723639D01*
X105914313Y-122795740D01*
X105822467Y-122916569D01*
X105784867Y-123063611D01*
X105807437Y-123213697D01*
X105975337Y-123675000D01*
X100258207Y-123675000D01*
X100274881Y-123634845D01*
X100275115Y-123366313D01*
X100174998Y-123124012D01*
X100174998Y-121699988D01*
X100131229Y-121479945D01*
X100075091Y-121395929D01*
X100075117Y-121366313D01*
X99972571Y-121118133D01*
X99782856Y-120928087D01*
X99534855Y-120825107D01*
X99266323Y-120824873D01*
X99155000Y-120870871D01*
X99155000Y-119084782D01*
X99446206Y-118890205D01*
X99711752Y-118492786D01*
X99805000Y-118023999D01*
X99805000Y-117976980D01*
X99945000Y-117976980D01*
X99945000Y-118023020D01*
X100034442Y-118472673D01*
X100289150Y-118853870D01*
X100670347Y-119108578D01*
X101120000Y-119198020D01*
X101569653Y-119108578D01*
X101950850Y-118853870D01*
X102205558Y-118472673D01*
X102295000Y-118023020D01*
X102295000Y-117976980D01*
X102485000Y-117976980D01*
X102485000Y-118023020D01*
X102574442Y-118472673D01*
X102829150Y-118853870D01*
X103210347Y-119108578D01*
X103660000Y-119198020D01*
X104109653Y-119108578D01*
X104490850Y-118853870D01*
X104745558Y-118472673D01*
X104835000Y-118023020D01*
X104835000Y-117976980D01*
X105025000Y-117976980D01*
X105025000Y-118023020D01*
X105114442Y-118472673D01*
X105369150Y-118853870D01*
X105750347Y-119108578D01*
X106200000Y-119198020D01*
X106649653Y-119108578D01*
X107030850Y-118853870D01*
X107285558Y-118472673D01*
X107375000Y-118023020D01*
X107375000Y-117976980D01*
X107285558Y-117527327D01*
X107030850Y-117146130D01*
X106649653Y-116891422D01*
X106200000Y-116801980D01*
X105750347Y-116891422D01*
X105369150Y-117146130D01*
X105114442Y-117527327D01*
X105025000Y-117976980D01*
X104835000Y-117976980D01*
X104745558Y-117527327D01*
X104490850Y-117146130D01*
X104109653Y-116891422D01*
X103660000Y-116801980D01*
X103210347Y-116891422D01*
X102829150Y-117146130D01*
X102574442Y-117527327D01*
X102485000Y-117976980D01*
X102295000Y-117976980D01*
X102205558Y-117527327D01*
X101950850Y-117146130D01*
X101569653Y-116891422D01*
X101120000Y-116801980D01*
X100670347Y-116891422D01*
X100289150Y-117146130D01*
X100034442Y-117527327D01*
X99945000Y-117976980D01*
X99805000Y-117976980D01*
X99805000Y-117976001D01*
X99711752Y-117507214D01*
X99446206Y-117109795D01*
X99048787Y-116844249D01*
X98580000Y-116751001D01*
X98111213Y-116844249D01*
X97713794Y-117109795D01*
X97448248Y-117507214D01*
X97355000Y-117976001D01*
X97355000Y-118023999D01*
X97448248Y-118492786D01*
X97713794Y-118890205D01*
X98005000Y-119084782D01*
X98005000Y-123172757D01*
X97925117Y-123365135D01*
X97924883Y-123633667D01*
X97941961Y-123675000D01*
X96017462Y-123675000D01*
X94312127Y-121969665D01*
X94141805Y-121855859D01*
X93940896Y-121815896D01*
X91163658Y-121815896D01*
X91086509Y-121708359D01*
X90957028Y-121629175D01*
X90017336Y-121287154D01*
X89877807Y-121264196D01*
X89729782Y-121297720D01*
X89606462Y-121386192D01*
X89527278Y-121515672D01*
X89352008Y-121997222D01*
X86739684Y-121997222D01*
X84454421Y-119711959D01*
X84696637Y-119378577D01*
X84757165Y-119250781D01*
X84765742Y-119099250D01*
X84714689Y-118956321D01*
X84612050Y-118844516D01*
X83767962Y-118231250D01*
X92225000Y-118231250D01*
X92225000Y-118934538D01*
X92289702Y-119090743D01*
X92409257Y-119210298D01*
X92565462Y-119275000D01*
X93268750Y-119275000D01*
X93375000Y-119168750D01*
X93375000Y-118125000D01*
X93625000Y-118125000D01*
X93625000Y-119168750D01*
X93731250Y-119275000D01*
X94434538Y-119275000D01*
X94590743Y-119210298D01*
X94710298Y-119090743D01*
X94775000Y-118934538D01*
X94775000Y-118231250D01*
X94668750Y-118125000D01*
X93625000Y-118125000D01*
X93375000Y-118125000D01*
X92331250Y-118125000D01*
X92225000Y-118231250D01*
X83767962Y-118231250D01*
X83600779Y-118109785D01*
X83472983Y-118049257D01*
X83321453Y-118040680D01*
X83178523Y-118091733D01*
X83066718Y-118194372D01*
X83012062Y-118269600D01*
X82719442Y-117976980D01*
X94865000Y-117976980D01*
X94865000Y-118023020D01*
X94954442Y-118472673D01*
X95209150Y-118853870D01*
X95590347Y-119108578D01*
X96040000Y-119198020D01*
X96489653Y-119108578D01*
X96870850Y-118853870D01*
X97125558Y-118472673D01*
X97215000Y-118023020D01*
X97215000Y-117976980D01*
X97125558Y-117527327D01*
X96870850Y-117146130D01*
X96489653Y-116891422D01*
X96040000Y-116801980D01*
X95590347Y-116891422D01*
X95209150Y-117146130D01*
X94954442Y-117527327D01*
X94865000Y-117976980D01*
X82719442Y-117976980D01*
X81807924Y-117065462D01*
X92225000Y-117065462D01*
X92225000Y-117768750D01*
X92331250Y-117875000D01*
X93375000Y-117875000D01*
X93375000Y-116831250D01*
X93625000Y-116831250D01*
X93625000Y-117875000D01*
X94668750Y-117875000D01*
X94775000Y-117768750D01*
X94775000Y-117065462D01*
X94710298Y-116909257D01*
X94590743Y-116789702D01*
X94434538Y-116725000D01*
X93731250Y-116725000D01*
X93625000Y-116831250D01*
X93375000Y-116831250D01*
X93268750Y-116725000D01*
X92565462Y-116725000D01*
X92409257Y-116789702D01*
X92289702Y-116909257D01*
X92225000Y-117065462D01*
X81807924Y-117065462D01*
X81525000Y-116782538D01*
X81525000Y-113200000D01*
X81485037Y-112999091D01*
X81371231Y-112828769D01*
X79497325Y-110954863D01*
X79327003Y-110841057D01*
X79188981Y-110813603D01*
X79171663Y-110762000D01*
X98835000Y-110762000D01*
X98835000Y-115012000D01*
X98857226Y-115130124D01*
X98927037Y-115238613D01*
X99033557Y-115311395D01*
X99160000Y-115337000D01*
X106660000Y-115337000D01*
X106778124Y-115314774D01*
X106886613Y-115244963D01*
X106959395Y-115138443D01*
X106985000Y-115012000D01*
X106985000Y-110762000D01*
X107335000Y-110762000D01*
X107335000Y-115012000D01*
X107357226Y-115130124D01*
X107427037Y-115238613D01*
X107533557Y-115311395D01*
X107660000Y-115337000D01*
X114910000Y-115337000D01*
X115028124Y-115314774D01*
X115136613Y-115244963D01*
X115209395Y-115138443D01*
X115235000Y-115012000D01*
X115235000Y-110762000D01*
X115212774Y-110643876D01*
X115142963Y-110535387D01*
X115036443Y-110462605D01*
X114910000Y-110437000D01*
X107660000Y-110437000D01*
X107541876Y-110459226D01*
X107433387Y-110529037D01*
X107360605Y-110635557D01*
X107335000Y-110762000D01*
X106985000Y-110762000D01*
X106962774Y-110643876D01*
X106892963Y-110535387D01*
X106786443Y-110462605D01*
X106660000Y-110437000D01*
X99160000Y-110437000D01*
X99041876Y-110459226D01*
X98933387Y-110529037D01*
X98860605Y-110635557D01*
X98835000Y-110762000D01*
X79171663Y-110762000D01*
X79169716Y-110756199D01*
X78669716Y-109890173D01*
X78577588Y-109782899D01*
X78442646Y-109713430D01*
X78291308Y-109701935D01*
X78147422Y-109750225D01*
X77763856Y-109971677D01*
X77425011Y-109632832D01*
X77425011Y-108370000D01*
X89695654Y-108370000D01*
X89695654Y-110070000D01*
X89721802Y-110208966D01*
X89803931Y-110336599D01*
X89929246Y-110422223D01*
X90078000Y-110452346D01*
X91278000Y-110452346D01*
X91416966Y-110426198D01*
X91544599Y-110344069D01*
X91630223Y-110218754D01*
X91660346Y-110070000D01*
X91660346Y-109617339D01*
X91778859Y-109977735D01*
X92041604Y-110283172D01*
X92395391Y-110455269D01*
X92553000Y-110380207D01*
X92553000Y-109345000D01*
X92803000Y-109345000D01*
X92803000Y-110380207D01*
X92960609Y-110455269D01*
X93314396Y-110283172D01*
X93577141Y-109977735D01*
X93703000Y-109595000D01*
X93703000Y-109345000D01*
X92803000Y-109345000D01*
X92553000Y-109345000D01*
X92533000Y-109345000D01*
X92533000Y-109095000D01*
X92553000Y-109095000D01*
X92553000Y-108059793D01*
X92803000Y-108059793D01*
X92803000Y-109095000D01*
X93703000Y-109095000D01*
X93703000Y-108845000D01*
X93577141Y-108462265D01*
X93314396Y-108156828D01*
X92960609Y-107984731D01*
X92803000Y-108059793D01*
X92553000Y-108059793D01*
X92395391Y-107984731D01*
X92041604Y-108156828D01*
X91778859Y-108462265D01*
X91660346Y-108822661D01*
X91660346Y-108370000D01*
X91634198Y-108231034D01*
X91552069Y-108103401D01*
X91426754Y-108017777D01*
X91278000Y-107987654D01*
X90078000Y-107987654D01*
X89939034Y-108013802D01*
X89811401Y-108095931D01*
X89725777Y-108221246D01*
X89695654Y-108370000D01*
X77425011Y-108370000D01*
X77425011Y-107245076D01*
X77469842Y-107353575D01*
X77645504Y-107529544D01*
X77875134Y-107624895D01*
X78123775Y-107625112D01*
X78353571Y-107530162D01*
X78529540Y-107354500D01*
X78624891Y-107124870D01*
X78625021Y-106976023D01*
X79376044Y-106225000D01*
X79541144Y-106225000D01*
X79645502Y-106329540D01*
X79875132Y-106424891D01*
X80123773Y-106425108D01*
X80353569Y-106330158D01*
X80529538Y-106154496D01*
X80624889Y-105924866D01*
X80625106Y-105676225D01*
X80530156Y-105446429D01*
X80354494Y-105270460D01*
X80124864Y-105175109D01*
X79876223Y-105174892D01*
X79646427Y-105269842D01*
X79541085Y-105375000D01*
X79200004Y-105375000D01*
X79037363Y-105407351D01*
X78899484Y-105499480D01*
X78023939Y-106375025D01*
X77876225Y-106374896D01*
X77646429Y-106469846D01*
X77470460Y-106645508D01*
X77425011Y-106754961D01*
X77425011Y-106072425D01*
X77475100Y-106093224D01*
X77723741Y-106093441D01*
X77953537Y-105998491D01*
X78129506Y-105822829D01*
X78224857Y-105593199D01*
X78225074Y-105344558D01*
X78176523Y-105227056D01*
X78353603Y-105153888D01*
X78529572Y-104978226D01*
X78624923Y-104748596D01*
X78625140Y-104499955D01*
X78530190Y-104270159D01*
X78425032Y-104164817D01*
X78425032Y-102258860D01*
X78529572Y-102154502D01*
X78624923Y-101924872D01*
X78625140Y-101676231D01*
X78530190Y-101446435D01*
X78354528Y-101270466D01*
X78218090Y-101213812D01*
X78277510Y-101154496D01*
X78372861Y-100924866D01*
X78373078Y-100676225D01*
X78278128Y-100446429D01*
X78102466Y-100270460D01*
X77872836Y-100175109D01*
X77624195Y-100174892D01*
X77425011Y-100257193D01*
X77425011Y-94960449D01*
X77385048Y-94759540D01*
X77271242Y-94589218D01*
X77189561Y-94507537D01*
X77205668Y-94416185D01*
X77341144Y-94551897D01*
X77589145Y-94654877D01*
X77857677Y-94655111D01*
X78105857Y-94552565D01*
X78158513Y-94500000D01*
X82100000Y-94500000D01*
X82100000Y-105500000D01*
X82130448Y-105653073D01*
X82217157Y-105782843D01*
X82346927Y-105869552D01*
X82500000Y-105900000D01*
X117500000Y-105900000D01*
X117653073Y-105869552D01*
X117782843Y-105782843D01*
X117869552Y-105653073D01*
X117900000Y-105500000D01*
X117900000Y-94500000D01*
X117869552Y-94346927D01*
X117782843Y-94217157D01*
X117653073Y-94130448D01*
X117500000Y-94100000D01*
X82500000Y-94100000D01*
X82346927Y-94130448D01*
X82217157Y-94217157D01*
X82130448Y-94346927D01*
X82100000Y-94500000D01*
X78158513Y-94500000D01*
X78295903Y-94362850D01*
X78342348Y-94251000D01*
X80342323Y-94251000D01*
X80389144Y-94297903D01*
X80637145Y-94400883D01*
X80905677Y-94401117D01*
X81153857Y-94298571D01*
X81343903Y-94108856D01*
X81446883Y-93860855D01*
X81447117Y-93592323D01*
X81344571Y-93344143D01*
X81218592Y-93217944D01*
X81343903Y-93092852D01*
X81446883Y-92844851D01*
X81447117Y-92576319D01*
X81344571Y-92328139D01*
X81154856Y-92138093D01*
X80906855Y-92035113D01*
X80638323Y-92034879D01*
X80390143Y-92137425D01*
X80200097Y-92327140D01*
X80153648Y-92439000D01*
X78915677Y-92439000D01*
X78868856Y-92392097D01*
X78620855Y-92289117D01*
X78352323Y-92288883D01*
X78104143Y-92391429D01*
X77914097Y-92581144D01*
X77811117Y-92829145D01*
X77810883Y-93097677D01*
X77863024Y-93223869D01*
X77777085Y-93240963D01*
X77681313Y-93304956D01*
X77590323Y-93304877D01*
X77342143Y-93407423D01*
X77203378Y-93545946D01*
X77133894Y-93478036D01*
X76992631Y-93422540D01*
X76725000Y-93375349D01*
X76725000Y-89456000D01*
X98694624Y-89456000D01*
X98694624Y-93706000D01*
X98716850Y-93824124D01*
X98786661Y-93932613D01*
X98893181Y-94005395D01*
X99019624Y-94031000D01*
X106519624Y-94031000D01*
X106637748Y-94008774D01*
X106746237Y-93938963D01*
X106819019Y-93832443D01*
X106844624Y-93706000D01*
X106844624Y-89456000D01*
X106822398Y-89337876D01*
X106752587Y-89229387D01*
X106646067Y-89156605D01*
X106519624Y-89131000D01*
X99019624Y-89131000D01*
X98901500Y-89153226D01*
X98793011Y-89223037D01*
X98720229Y-89329557D01*
X98694624Y-89456000D01*
X76725000Y-89456000D01*
X76725000Y-89017462D01*
X77288041Y-88454421D01*
X77621423Y-88696637D01*
X77749219Y-88757165D01*
X77900750Y-88765742D01*
X78043679Y-88714689D01*
X78155484Y-88612050D01*
X78518221Y-88112785D01*
X79412215Y-88112785D01*
X79613124Y-88072822D01*
X79783446Y-87959016D01*
X81018687Y-86723775D01*
X91574866Y-86723775D01*
X91669816Y-86953571D01*
X91845478Y-87129540D01*
X92075108Y-87224891D01*
X92174585Y-87224978D01*
X92104286Y-87394275D01*
X92104069Y-87642916D01*
X92199019Y-87872712D01*
X92374681Y-88048681D01*
X92604311Y-88144032D01*
X92852952Y-88144249D01*
X93082748Y-88049299D01*
X93258717Y-87873637D01*
X93354068Y-87644007D01*
X93354198Y-87495160D01*
X93582720Y-87266638D01*
X93645512Y-87329540D01*
X93875142Y-87424891D01*
X94123783Y-87425108D01*
X94353579Y-87330158D01*
X94529548Y-87154496D01*
X94624899Y-86924866D01*
X94625116Y-86676225D01*
X94530166Y-86446429D01*
X94354504Y-86270460D01*
X94259281Y-86230920D01*
X94324888Y-86072922D01*
X94325105Y-85824281D01*
X94230155Y-85594485D01*
X94054493Y-85418516D01*
X93824863Y-85323165D01*
X93576222Y-85322948D01*
X93346426Y-85417898D01*
X93241084Y-85523056D01*
X92851918Y-85523056D01*
X92716261Y-85550040D01*
X92689277Y-85555407D01*
X92551398Y-85647536D01*
X92223913Y-85975021D01*
X92076199Y-85974892D01*
X91846403Y-86069842D01*
X91670434Y-86245504D01*
X91575083Y-86475134D01*
X91574866Y-86723775D01*
X81018687Y-86723775D01*
X85816467Y-81925995D01*
X85930273Y-81755673D01*
X85970236Y-81554764D01*
X85970236Y-81202794D01*
X86556116Y-80711183D01*
X86645763Y-80601826D01*
X86690743Y-80456871D01*
X86675784Y-80305837D01*
X86603243Y-80172522D01*
X86235009Y-79733677D01*
X102874873Y-79733677D01*
X102977419Y-79981857D01*
X103167134Y-80171903D01*
X103415135Y-80274883D01*
X103683667Y-80275117D01*
X103931847Y-80172571D01*
X104121893Y-79982856D01*
X104224873Y-79734855D01*
X104224932Y-79667520D01*
X105971231Y-77921221D01*
X106085037Y-77750899D01*
X106125000Y-77549990D01*
X106125000Y-77429677D01*
X106171903Y-77382856D01*
X106274883Y-77134855D01*
X106275117Y-76866323D01*
X106172571Y-76618143D01*
X105982856Y-76428097D01*
X105734855Y-76325117D01*
X105466323Y-76324883D01*
X105218143Y-76427429D01*
X105028097Y-76617144D01*
X104925117Y-76865145D01*
X104924883Y-77133677D01*
X105026915Y-77380613D01*
X103482587Y-78924941D01*
X103416313Y-78924883D01*
X103168133Y-79027429D01*
X102978087Y-79217144D01*
X102875107Y-79465145D01*
X102874873Y-79733677D01*
X86235009Y-79733677D01*
X86125000Y-79602574D01*
X86125000Y-78817462D01*
X86518344Y-78424118D01*
X86597856Y-78416243D01*
X86731171Y-78343702D01*
X87688727Y-77540218D01*
X87778374Y-77430861D01*
X87823354Y-77285906D01*
X87808395Y-77134872D01*
X87735854Y-77001557D01*
X87093066Y-76235513D01*
X86983710Y-76145866D01*
X86838755Y-76100886D01*
X86687720Y-76115845D01*
X86554405Y-76188386D01*
X85596849Y-76991870D01*
X85507202Y-77101227D01*
X85462222Y-77246182D01*
X85477181Y-77397216D01*
X85549722Y-77530531D01*
X85589013Y-77577357D01*
X85074005Y-78092365D01*
X84960199Y-78262687D01*
X84920236Y-78463596D01*
X84920236Y-79127504D01*
X84334356Y-79619115D01*
X84244709Y-79728472D01*
X84199729Y-79873427D01*
X84214688Y-80024461D01*
X84287229Y-80157776D01*
X84475449Y-80382089D01*
X84132597Y-80724941D01*
X84066323Y-80724883D01*
X83818143Y-80827429D01*
X83628097Y-81017144D01*
X83525117Y-81265145D01*
X83524883Y-81533677D01*
X83547531Y-81588490D01*
X83148668Y-81113143D01*
X83053892Y-81035450D01*
X82928264Y-80996466D01*
X82797368Y-81009431D01*
X82681828Y-81072300D01*
X81915783Y-81715087D01*
X81838089Y-81809863D01*
X81799105Y-81935491D01*
X81812070Y-82066388D01*
X81874939Y-82181928D01*
X82487276Y-82911683D01*
X79385713Y-86013247D01*
X77626893Y-86013247D01*
X77464252Y-86045598D01*
X77377777Y-86103379D01*
X77369400Y-86050490D01*
X77281059Y-85906330D01*
X76995243Y-85698672D01*
X76846832Y-85722178D01*
X76365583Y-86384561D01*
X76381764Y-86396317D01*
X76234818Y-86598571D01*
X76218637Y-86586815D01*
X75737388Y-87249198D01*
X75760894Y-87397608D01*
X75937894Y-87526206D01*
X75299480Y-88164620D01*
X75207351Y-88302499D01*
X75207351Y-88302500D01*
X75175000Y-88465140D01*
X75175000Y-92323959D01*
X74523960Y-92975000D01*
X72426660Y-92975000D01*
X72425608Y-92883199D01*
X72374719Y-92761905D01*
X72280649Y-92669965D01*
X72158220Y-92621868D01*
X70681008Y-92361396D01*
X70558465Y-92362800D01*
X70437171Y-92413689D01*
X70345231Y-92507759D01*
X70297134Y-92630188D01*
X70123486Y-93614996D01*
X60048801Y-93614996D01*
X60698321Y-91615981D01*
X62952725Y-91615981D01*
X62991394Y-91762746D01*
X63084116Y-91882903D01*
X63216281Y-91957520D01*
X64975736Y-92529201D01*
X65115981Y-92547275D01*
X65262746Y-92508606D01*
X65382903Y-92415884D01*
X65457520Y-92283719D01*
X66029201Y-90524264D01*
X66047275Y-90384019D01*
X66008606Y-90237254D01*
X65915884Y-90117097D01*
X65783719Y-90042480D01*
X65414409Y-89922484D01*
X65529994Y-89922585D01*
X66007971Y-89725088D01*
X66373986Y-89359712D01*
X66572316Y-88882080D01*
X66572768Y-88364907D01*
X66375271Y-87886930D01*
X66095831Y-87607001D01*
X66349791Y-87587014D01*
X66507568Y-87427727D01*
X65990458Y-86412842D01*
X64975573Y-86929951D01*
X65009590Y-87151556D01*
X65231819Y-87322322D01*
X65015090Y-87322133D01*
X64537113Y-87519630D01*
X64171098Y-87885006D01*
X63972768Y-88362638D01*
X63972316Y-88879811D01*
X64169813Y-89357788D01*
X64406657Y-89595046D01*
X64024264Y-89470799D01*
X63884019Y-89452725D01*
X63737254Y-89491394D01*
X63617097Y-89584116D01*
X63542480Y-89716281D01*
X62970799Y-91475736D01*
X62952725Y-91615981D01*
X60698321Y-91615981D01*
X62473109Y-86153744D01*
X64671647Y-86153744D01*
X64702788Y-86549423D01*
X64862075Y-86707200D01*
X65662537Y-86299344D01*
X66213210Y-86299344D01*
X66730319Y-87314229D01*
X66951924Y-87280212D01*
X67279162Y-86854357D01*
X67345639Y-86606945D01*
X74986116Y-86606945D01*
X75012566Y-86773940D01*
X75100907Y-86918100D01*
X75386723Y-87125758D01*
X75535134Y-87102252D01*
X76016383Y-86439869D01*
X75455127Y-86032093D01*
X75306717Y-86055599D01*
X75124967Y-86305757D01*
X75025586Y-86442542D01*
X74986116Y-86606945D01*
X67345639Y-86606945D01*
X67418523Y-86335690D01*
X67387382Y-85940011D01*
X67228095Y-85782234D01*
X66213210Y-86299344D01*
X65662537Y-86299344D01*
X65876960Y-86190090D01*
X65359851Y-85175205D01*
X65138246Y-85209222D01*
X64811008Y-85635077D01*
X64671647Y-86153744D01*
X62473109Y-86153744D01*
X62827933Y-85061707D01*
X65582602Y-85061707D01*
X66099712Y-86076592D01*
X66875266Y-85681428D01*
X75578568Y-85681428D01*
X75602073Y-85829839D01*
X76163329Y-86237615D01*
X76644578Y-85575232D01*
X76621072Y-85426822D01*
X76335256Y-85219164D01*
X76170853Y-85179694D01*
X76003858Y-85206144D01*
X75859698Y-85294485D01*
X75760318Y-85431271D01*
X75578568Y-85681428D01*
X66875266Y-85681428D01*
X67114597Y-85559483D01*
X67080580Y-85337878D01*
X66654725Y-85010640D01*
X66136058Y-84871279D01*
X65740379Y-84902420D01*
X65582602Y-85061707D01*
X62827933Y-85061707D01*
X65575124Y-76606728D01*
X65574450Y-77378776D01*
X66056796Y-78546143D01*
X66949159Y-79440065D01*
X68115683Y-79924448D01*
X69378776Y-79925550D01*
X70546143Y-79443204D01*
X70749524Y-79240177D01*
X79284288Y-79240177D01*
X79672074Y-79702323D01*
X79822045Y-79780393D01*
X79990478Y-79795129D01*
X80151727Y-79744287D01*
X80281247Y-79635607D01*
X80422362Y-79517198D01*
X80435458Y-79367509D01*
X79828827Y-78644555D01*
X79297384Y-79090489D01*
X79284288Y-79240177D01*
X70749524Y-79240177D01*
X71440065Y-78550841D01*
X71559800Y-78262487D01*
X78548370Y-78262487D01*
X78599212Y-78423736D01*
X78986998Y-78885882D01*
X79136687Y-78898978D01*
X79631407Y-78483858D01*
X80020338Y-78483858D01*
X80626969Y-79206813D01*
X80776657Y-79219909D01*
X80917772Y-79101499D01*
X81047292Y-78992819D01*
X81125362Y-78842848D01*
X81140098Y-78674415D01*
X81089256Y-78513166D01*
X80701470Y-78051020D01*
X80551781Y-78037924D01*
X80020338Y-78483858D01*
X79631407Y-78483858D01*
X79668130Y-78453044D01*
X79061499Y-77730089D01*
X78911811Y-77716993D01*
X78770696Y-77835403D01*
X78641176Y-77944083D01*
X78563106Y-78094054D01*
X78548370Y-78262487D01*
X71559800Y-78262487D01*
X71847597Y-77569393D01*
X79253010Y-77569393D01*
X79859641Y-78292347D01*
X80391084Y-77846413D01*
X80404180Y-77696725D01*
X80016394Y-77234579D01*
X79866423Y-77156509D01*
X79697990Y-77141773D01*
X79536741Y-77192615D01*
X79407221Y-77301295D01*
X79266106Y-77419704D01*
X79253010Y-77569393D01*
X71847597Y-77569393D01*
X71924448Y-77384317D01*
X71925546Y-76124953D01*
X81100787Y-76124953D01*
X81113752Y-76255850D01*
X81176621Y-76371390D01*
X82140802Y-77520457D01*
X82235578Y-77598150D01*
X82361206Y-77637134D01*
X82492102Y-77624169D01*
X82607642Y-77561300D01*
X82736326Y-77453321D01*
X83447272Y-78164267D01*
X83447272Y-78382638D01*
X83342732Y-78486996D01*
X83247381Y-78716626D01*
X83247164Y-78965267D01*
X83342114Y-79195063D01*
X83517776Y-79371032D01*
X83747406Y-79466383D01*
X83996047Y-79466600D01*
X84225843Y-79371650D01*
X84401812Y-79195988D01*
X84497163Y-78966358D01*
X84497380Y-78717717D01*
X84402430Y-78487921D01*
X84297272Y-78382579D01*
X84297272Y-77988227D01*
X84283944Y-77921221D01*
X84264921Y-77825586D01*
X84172792Y-77687707D01*
X83387161Y-76902076D01*
X83451381Y-76823737D01*
X83490365Y-76698109D01*
X83479264Y-76586031D01*
X84701510Y-76586031D01*
X84928599Y-76856665D01*
X85078570Y-76934735D01*
X85247003Y-76949471D01*
X85408253Y-76898629D01*
X85537773Y-76789949D01*
X85774643Y-76591192D01*
X85787739Y-76441503D01*
X85341805Y-75910060D01*
X84714606Y-76436342D01*
X84701510Y-76586031D01*
X83479264Y-76586031D01*
X83477400Y-76567212D01*
X83414531Y-76451672D01*
X82867589Y-75799851D01*
X84126290Y-75799851D01*
X84177132Y-75961101D01*
X84404221Y-76231735D01*
X84553909Y-76244831D01*
X85144385Y-75749363D01*
X85533316Y-75749363D01*
X85979250Y-76280806D01*
X86128938Y-76293902D01*
X86365808Y-76095145D01*
X86495328Y-75986465D01*
X86573399Y-75836494D01*
X86588134Y-75668061D01*
X86537292Y-75506811D01*
X86310203Y-75236177D01*
X86160515Y-75223081D01*
X85533316Y-75749363D01*
X85144385Y-75749363D01*
X85181108Y-75718549D01*
X84735174Y-75187106D01*
X84585486Y-75174010D01*
X84348616Y-75372767D01*
X84219096Y-75481447D01*
X84141025Y-75631418D01*
X84126290Y-75799851D01*
X82867589Y-75799851D01*
X82450350Y-75302605D01*
X82355574Y-75224912D01*
X82229946Y-75185928D01*
X82099050Y-75198893D01*
X81983510Y-75261762D01*
X81217465Y-75904549D01*
X81139771Y-75999325D01*
X81100787Y-76124953D01*
X71925546Y-76124953D01*
X71925550Y-76121224D01*
X71473182Y-75026409D01*
X84926685Y-75026409D01*
X85372619Y-75557852D01*
X85999818Y-75031570D01*
X86012914Y-74881881D01*
X85785825Y-74611247D01*
X85635854Y-74533177D01*
X85467421Y-74518441D01*
X85306171Y-74569283D01*
X85176651Y-74677963D01*
X84939781Y-74876720D01*
X84926685Y-75026409D01*
X71473182Y-75026409D01*
X71443204Y-74953857D01*
X70550841Y-74059935D01*
X69384317Y-73575552D01*
X68121224Y-73574450D01*
X67544642Y-73812689D01*
X71129042Y-71208470D01*
X74836333Y-71208470D01*
X74840135Y-71339953D01*
X74894792Y-71459597D01*
X75982195Y-72956278D01*
X76071320Y-73040394D01*
X76193922Y-73088045D01*
X76325405Y-73084243D01*
X76445049Y-73029586D01*
X77941730Y-71942183D01*
X78025846Y-71853058D01*
X78073497Y-71730456D01*
X78069695Y-71598973D01*
X78015038Y-71479329D01*
X77740654Y-71101673D01*
X78217736Y-71299774D01*
X78734909Y-71300226D01*
X79212886Y-71102729D01*
X79578901Y-70737353D01*
X79667078Y-70525000D01*
X82382538Y-70525000D01*
X85724941Y-73867403D01*
X85724883Y-73933677D01*
X85827429Y-74181857D01*
X86017144Y-74371903D01*
X86265145Y-74474883D01*
X86533677Y-74475117D01*
X86781857Y-74372571D01*
X86971903Y-74182856D01*
X87074883Y-73934855D01*
X87075117Y-73666323D01*
X86972571Y-73418143D01*
X86782856Y-73228097D01*
X86534855Y-73125117D01*
X86467520Y-73125058D01*
X82971231Y-69628769D01*
X82800909Y-69514963D01*
X82600000Y-69475000D01*
X81498665Y-69475000D01*
X81559954Y-69413711D01*
X81557663Y-69411420D01*
X81765043Y-69073007D01*
X81728915Y-68851736D01*
X80860422Y-68714180D01*
X80690920Y-68544678D01*
X80514141Y-68721457D01*
X80585083Y-68792399D01*
X80476970Y-69475000D01*
X80223854Y-69475000D01*
X80316357Y-68890959D01*
X80485859Y-68721457D01*
X80309080Y-68544678D01*
X80238138Y-68615620D01*
X79231976Y-68456260D01*
X79129240Y-68655537D01*
X79199118Y-68892040D01*
X78737178Y-68700226D01*
X78220005Y-68699774D01*
X77742028Y-68897271D01*
X77376013Y-69262647D01*
X77177683Y-69740279D01*
X77177231Y-70257452D01*
X77243082Y-70416824D01*
X76927635Y-69982648D01*
X76838510Y-69898532D01*
X76715908Y-69850881D01*
X76584425Y-69854683D01*
X76464781Y-69909340D01*
X74968100Y-70996743D01*
X74883984Y-71085868D01*
X74836333Y-71208470D01*
X71129042Y-71208470D01*
X74957915Y-68426630D01*
X80643015Y-68426630D01*
X81768024Y-68604814D01*
X81870760Y-68405537D01*
X81718581Y-67890485D01*
X81380885Y-67472875D01*
X81042470Y-67265494D01*
X80821199Y-67301622D01*
X80643015Y-68426630D01*
X74957915Y-68426630D01*
X75561546Y-67988067D01*
X79234957Y-67988067D01*
X79271085Y-68209338D01*
X80396093Y-68387522D01*
X80574277Y-67262513D01*
X80375000Y-67159777D01*
X79859948Y-67311956D01*
X79442338Y-67649652D01*
X79234957Y-67988067D01*
X75561546Y-67988067D01*
X86574071Y-59987000D01*
X113044156Y-59987000D01*
X132231215Y-73927215D01*
X132231215Y-73927215D01*
G37*
X132231215Y-73927215D02*
X131384317Y-73575552D01*
X130121224Y-73574450D01*
X128953857Y-74056796D01*
X128059935Y-74949159D01*
X127575552Y-76115683D01*
X127574450Y-77378776D01*
X128056796Y-78546143D01*
X128949159Y-79440065D01*
X130115683Y-79924448D01*
X131378776Y-79925550D01*
X132546143Y-79443204D01*
X133440065Y-78550841D01*
X133924448Y-77384317D01*
X133925442Y-76244608D01*
X141107820Y-98349693D01*
X140552428Y-98579176D01*
X140080832Y-99049950D01*
X139825292Y-99665360D01*
X139824710Y-100331716D01*
X140079176Y-100947572D01*
X140549950Y-101419168D01*
X141105930Y-101650030D01*
X134424816Y-122212384D01*
X134425550Y-121371224D01*
X133943204Y-120203857D01*
X133050841Y-119309935D01*
X131884317Y-118825552D01*
X130621224Y-118824450D01*
X129453857Y-119306796D01*
X128559935Y-120199159D01*
X128075552Y-121365683D01*
X128074450Y-122628776D01*
X128556796Y-123796143D01*
X129449159Y-124690065D01*
X130615683Y-125174448D01*
X131878776Y-125175550D01*
X132686598Y-124841765D01*
X112428865Y-139559870D01*
X87189362Y-139559870D01*
X83599249Y-136951500D01*
X101970133Y-136951500D01*
X101970133Y-138348500D01*
X101992795Y-138468938D01*
X102063974Y-138579553D01*
X102172580Y-138653760D01*
X102301500Y-138679867D01*
X103698500Y-138679867D01*
X103818938Y-138657205D01*
X103929553Y-138586026D01*
X104003760Y-138477420D01*
X104029867Y-138348500D01*
X104029867Y-137862596D01*
X104426314Y-137862596D01*
X104589400Y-138257294D01*
X104891117Y-138559538D01*
X105285531Y-138723313D01*
X105712596Y-138723686D01*
X106107294Y-138560600D01*
X106409538Y-138258883D01*
X106573313Y-137864469D01*
X106573314Y-137862596D01*
X106926314Y-137862596D01*
X107089400Y-138257294D01*
X107391117Y-138559538D01*
X107785531Y-138723313D01*
X108212596Y-138723686D01*
X108607294Y-138560600D01*
X108909538Y-138258883D01*
X109073313Y-137864469D01*
X109073686Y-137437404D01*
X108910600Y-137042706D01*
X108608883Y-136740462D01*
X108214469Y-136576687D01*
X107787404Y-136576314D01*
X107392706Y-136739400D01*
X107090462Y-137041117D01*
X106926687Y-137435531D01*
X106926314Y-137862596D01*
X106573314Y-137862596D01*
X106573686Y-137437404D01*
X106410600Y-137042706D01*
X106108883Y-136740462D01*
X105714469Y-136576687D01*
X105287404Y-136576314D01*
X104892706Y-136739400D01*
X104590462Y-137041117D01*
X104426687Y-137435531D01*
X104426314Y-137862596D01*
X104029867Y-137862596D01*
X104029867Y-136951500D01*
X104007205Y-136831062D01*
X103936026Y-136720447D01*
X103827420Y-136646240D01*
X103698500Y-136620133D01*
X102301500Y-136620133D01*
X102181062Y-136642795D01*
X102070447Y-136713974D01*
X101996240Y-136822580D01*
X101970133Y-136951500D01*
X83599249Y-136951500D01*
X80297576Y-134552694D01*
X101976322Y-134552694D01*
X102131813Y-134929009D01*
X102419477Y-135217176D01*
X102795520Y-135373322D01*
X103202694Y-135373678D01*
X103579009Y-135218187D01*
X103867176Y-134930523D01*
X104019951Y-134562596D01*
X104426314Y-134562596D01*
X104589400Y-134957294D01*
X104891117Y-135259538D01*
X105285531Y-135423313D01*
X105712596Y-135423686D01*
X106107294Y-135260600D01*
X106409538Y-134958883D01*
X106573313Y-134564469D01*
X106573686Y-134137404D01*
X106410600Y-133742706D01*
X106108883Y-133440462D01*
X105714469Y-133276687D01*
X105287404Y-133276314D01*
X104892706Y-133439400D01*
X104590462Y-133741117D01*
X104426687Y-134135531D01*
X104426314Y-134562596D01*
X104019951Y-134562596D01*
X104023322Y-134554480D01*
X104023678Y-134147306D01*
X103868187Y-133770991D01*
X103580523Y-133482824D01*
X103204480Y-133326678D01*
X102797306Y-133326322D01*
X102420991Y-133481813D01*
X102132824Y-133769477D01*
X101976678Y-134145520D01*
X101976322Y-134552694D01*
X80297576Y-134552694D01*
X77947759Y-132845452D01*
X91663774Y-132845452D01*
X91861271Y-133323429D01*
X92226647Y-133689444D01*
X92704279Y-133887774D01*
X93221452Y-133888226D01*
X93699429Y-133690729D01*
X94065444Y-133325353D01*
X94114000Y-133208417D01*
X94114000Y-133597538D01*
X94178702Y-133753743D01*
X94298257Y-133873298D01*
X94454462Y-133938000D01*
X95232750Y-133938000D01*
X95339000Y-133831750D01*
X95339000Y-132713000D01*
X95589000Y-132713000D01*
X95589000Y-133831750D01*
X95695250Y-133938000D01*
X96473538Y-133938000D01*
X96629743Y-133873298D01*
X96749298Y-133753743D01*
X96814000Y-133597538D01*
X96814000Y-132819250D01*
X96707750Y-132713000D01*
X95589000Y-132713000D01*
X95339000Y-132713000D01*
X95319000Y-132713000D01*
X95319000Y-132463000D01*
X95339000Y-132463000D01*
X95339000Y-131344250D01*
X95589000Y-131344250D01*
X95589000Y-132463000D01*
X96707750Y-132463000D01*
X96814000Y-132356750D01*
X96814000Y-131578462D01*
X96749298Y-131422257D01*
X96629743Y-131302702D01*
X96473538Y-131238000D01*
X95695250Y-131238000D01*
X95589000Y-131344250D01*
X95339000Y-131344250D01*
X95232750Y-131238000D01*
X94454462Y-131238000D01*
X94298257Y-131302702D01*
X94178702Y-131422257D01*
X94114000Y-131578462D01*
X94114000Y-131966975D01*
X94066729Y-131852571D01*
X93701353Y-131486556D01*
X93223721Y-131288226D01*
X92706548Y-131287774D01*
X92228571Y-131485271D01*
X91862556Y-131850647D01*
X91664226Y-132328279D01*
X91663774Y-132845452D01*
X77947759Y-132845452D01*
X73024134Y-129268229D01*
X91182943Y-129268229D01*
X91246445Y-129404411D01*
X91419548Y-129467415D01*
X91578427Y-129525243D01*
X91747341Y-129517868D01*
X91900577Y-129446413D01*
X92014802Y-129321758D01*
X92221139Y-128754853D01*
X92157636Y-128618671D01*
X91505724Y-128381394D01*
X91182943Y-129268229D01*
X73024134Y-129268229D01*
X72226922Y-128689021D01*
X90276371Y-128689021D01*
X90283745Y-128857935D01*
X90355200Y-129011170D01*
X90479855Y-129125395D01*
X90638735Y-129183222D01*
X90811837Y-129246227D01*
X90948019Y-129182724D01*
X91270801Y-128295889D01*
X90860278Y-128146471D01*
X91591229Y-128146471D01*
X92243141Y-128383747D01*
X92379323Y-128320245D01*
X92585659Y-127753339D01*
X92578285Y-127584425D01*
X92506830Y-127431190D01*
X92382175Y-127316965D01*
X92223295Y-127259138D01*
X92050193Y-127196133D01*
X91914011Y-127259636D01*
X91591229Y-128146471D01*
X90860278Y-128146471D01*
X90618889Y-128058613D01*
X90482707Y-128122115D01*
X90276371Y-128689021D01*
X72226922Y-128689021D01*
X67087866Y-124955279D01*
X67615683Y-125174448D01*
X68878776Y-125175550D01*
X70046143Y-124693204D01*
X70940065Y-123800841D01*
X71424448Y-122634317D01*
X71425398Y-121544873D01*
X82032093Y-121544873D01*
X82055599Y-121693283D01*
X82305757Y-121875033D01*
X82442542Y-121974414D01*
X82606945Y-122013884D01*
X82773940Y-121987434D01*
X82918100Y-121899093D01*
X83125758Y-121613277D01*
X83102252Y-121464866D01*
X82439869Y-120983617D01*
X82032093Y-121544873D01*
X71425398Y-121544873D01*
X71425550Y-121371224D01*
X71201569Y-120829147D01*
X81179694Y-120829147D01*
X81206144Y-120996142D01*
X81294485Y-121140302D01*
X81431271Y-121239682D01*
X81681428Y-121421432D01*
X81829839Y-121397927D01*
X82237615Y-120836671D01*
X81575232Y-120355422D01*
X81426822Y-120378928D01*
X81219164Y-120664744D01*
X81179694Y-120829147D01*
X71201569Y-120829147D01*
X70943204Y-120203857D01*
X70050841Y-119309935D01*
X68884317Y-118825552D01*
X67621224Y-118824450D01*
X66453857Y-119306796D01*
X65559935Y-120199159D01*
X65075552Y-121365683D01*
X65075131Y-121848358D01*
X63466796Y-116898409D01*
X74393597Y-116898409D01*
X74485703Y-117057942D01*
X74570241Y-117204366D01*
X74704377Y-117307292D01*
X74867692Y-117351052D01*
X75035321Y-117328983D01*
X75557784Y-117027339D01*
X75596674Y-116882199D01*
X75249799Y-116281394D01*
X74432487Y-116753269D01*
X74393597Y-116898409D01*
X63466796Y-116898409D01*
X63182776Y-116024288D01*
X73963634Y-116024288D01*
X73985703Y-116191916D01*
X74070241Y-116338340D01*
X74162347Y-116497873D01*
X74307487Y-116536763D01*
X74966305Y-116156394D01*
X75466305Y-116156394D01*
X75813180Y-116757199D01*
X75958320Y-116796089D01*
X76480783Y-116494445D01*
X76583710Y-116360309D01*
X76627470Y-116196994D01*
X76605401Y-116029366D01*
X76520863Y-115882942D01*
X76428757Y-115723409D01*
X76283617Y-115684519D01*
X75466305Y-116156394D01*
X74966305Y-116156394D01*
X75124799Y-116064888D01*
X74777924Y-115464083D01*
X74632784Y-115425193D01*
X74110321Y-115726837D01*
X74007394Y-115860973D01*
X73963634Y-116024288D01*
X63182776Y-116024288D01*
X62960140Y-115339083D01*
X74994430Y-115339083D01*
X75341305Y-115939888D01*
X76158617Y-115468013D01*
X76197507Y-115322873D01*
X76105401Y-115163340D01*
X76020863Y-115016916D01*
X75886727Y-114913990D01*
X75723412Y-114870230D01*
X75555783Y-114892299D01*
X75033320Y-115193943D01*
X74994430Y-115339083D01*
X62960140Y-115339083D01*
X60006121Y-106247550D01*
X62249783Y-106247550D01*
X62439684Y-106707143D01*
X62791007Y-107059081D01*
X63250269Y-107249783D01*
X63727853Y-107250200D01*
X63565399Y-107317325D01*
X63213461Y-107668648D01*
X63022759Y-108127910D01*
X63022325Y-108625191D01*
X63212226Y-109084784D01*
X63563549Y-109436722D01*
X64022811Y-109627424D01*
X64369742Y-109627727D01*
X64309656Y-109652554D01*
X63943641Y-110017930D01*
X63745311Y-110495562D01*
X63744859Y-111012735D01*
X63942356Y-111490712D01*
X64307732Y-111856727D01*
X64785364Y-112055057D01*
X64903979Y-112055161D01*
X64533908Y-112175404D01*
X64409823Y-112243216D01*
X64313817Y-112360766D01*
X64271108Y-112506406D01*
X64288426Y-112657188D01*
X64860107Y-114416643D01*
X64927919Y-114540728D01*
X65045469Y-114636734D01*
X65191109Y-114679443D01*
X65341891Y-114662125D01*
X67101346Y-114090444D01*
X67225431Y-114022632D01*
X67321437Y-113905082D01*
X67364146Y-113759442D01*
X67346828Y-113608660D01*
X66775147Y-111849205D01*
X66707335Y-111725120D01*
X66589785Y-111629114D01*
X66444145Y-111586405D01*
X66293363Y-111603723D01*
X65910694Y-111728060D01*
X66146529Y-111492636D01*
X66344859Y-111015004D01*
X66345311Y-110497831D01*
X66147814Y-110019854D01*
X65782438Y-109653839D01*
X65304806Y-109455509D01*
X64937982Y-109455188D01*
X64979685Y-109437957D01*
X65331623Y-109086634D01*
X65522325Y-108627372D01*
X65522759Y-108130091D01*
X65332858Y-107670498D01*
X64981535Y-107318560D01*
X64522273Y-107127858D01*
X64044689Y-107127441D01*
X64207143Y-107060316D01*
X64559081Y-106708993D01*
X64749783Y-106249731D01*
X64750217Y-105752450D01*
X64560316Y-105292857D01*
X64208993Y-104940919D01*
X63749731Y-104750217D01*
X63252450Y-104749783D01*
X62792857Y-104939684D01*
X62440919Y-105291007D01*
X62250217Y-105750269D01*
X62249783Y-106247550D01*
X60006121Y-106247550D01*
X58498158Y-101606518D01*
X58947572Y-101420824D01*
X59313520Y-101055513D01*
X63975605Y-101055513D01*
X64078151Y-101303693D01*
X64267866Y-101493739D01*
X64515867Y-101596719D01*
X64784399Y-101596953D01*
X65032579Y-101494407D01*
X65130320Y-101396836D01*
X65370333Y-101396836D01*
X65463349Y-101489852D01*
X65463230Y-101626775D01*
X65565776Y-101874955D01*
X65755491Y-102065001D01*
X66003492Y-102167981D01*
X66272024Y-102168215D01*
X66520204Y-102065669D01*
X66710250Y-101875954D01*
X66813230Y-101627953D01*
X66813464Y-101359421D01*
X66710918Y-101111241D01*
X66521203Y-100921195D01*
X66273202Y-100818215D01*
X66135096Y-100818095D01*
X65902961Y-100585960D01*
X65748860Y-100482993D01*
X65567085Y-100446836D01*
X65130312Y-100446836D01*
X65033578Y-100349933D01*
X64785577Y-100246953D01*
X64517045Y-100246719D01*
X64268865Y-100349265D01*
X64078819Y-100538980D01*
X63975839Y-100786981D01*
X63975605Y-101055513D01*
X59313520Y-101055513D01*
X59419168Y-100950050D01*
X59674708Y-100334640D01*
X59675290Y-99668284D01*
X59420824Y-99052428D01*
X59102629Y-98733677D01*
X61524883Y-98733677D01*
X61627429Y-98981857D01*
X61817144Y-99171903D01*
X62065145Y-99274883D01*
X62333677Y-99275117D01*
X62581857Y-99172571D01*
X62638370Y-99116156D01*
X63372429Y-99116156D01*
X63419250Y-99163059D01*
X63667251Y-99266039D01*
X63935783Y-99266273D01*
X64183963Y-99163727D01*
X64374009Y-98974012D01*
X64476989Y-98726011D01*
X64477223Y-98457479D01*
X64374677Y-98209299D01*
X64184962Y-98019253D01*
X63936961Y-97916273D01*
X63668429Y-97916039D01*
X63420249Y-98018585D01*
X63372595Y-98066156D01*
X62620849Y-98066156D01*
X62582856Y-98028097D01*
X62334855Y-97925117D01*
X62066323Y-97924883D01*
X61818143Y-98027429D01*
X61628097Y-98217144D01*
X61525117Y-98465145D01*
X61524883Y-98733677D01*
X59102629Y-98733677D01*
X58950050Y-98580832D01*
X58496497Y-98392501D01*
X59003087Y-96833374D01*
X69460922Y-96833374D01*
X69497516Y-96998441D01*
X69594494Y-97136940D01*
X69737091Y-97227784D01*
X70331214Y-97332544D01*
X70392301Y-97289770D01*
X70700502Y-97289770D01*
X70786687Y-97412856D01*
X71380810Y-97517616D01*
X71545877Y-97481022D01*
X71684376Y-97384044D01*
X71775220Y-97241447D01*
X71804580Y-97074940D01*
X71836568Y-96893526D01*
X71750382Y-96770440D01*
X70820970Y-96606560D01*
X70700502Y-97289770D01*
X70392301Y-97289770D01*
X70454300Y-97246358D01*
X70574768Y-96563148D01*
X69645356Y-96399267D01*
X69522270Y-96485453D01*
X69490282Y-96666867D01*
X69460922Y-96833374D01*
X59003087Y-96833374D01*
X59156778Y-96360358D01*
X70864382Y-96360358D01*
X71793794Y-96524239D01*
X71916880Y-96438053D01*
X71948868Y-96256639D01*
X71978228Y-96090132D01*
X71941634Y-95925065D01*
X71844656Y-95786566D01*
X71702059Y-95695722D01*
X71107936Y-95590962D01*
X70984850Y-95677148D01*
X70864382Y-96360358D01*
X59156778Y-96360358D01*
X59264125Y-96029980D01*
X69602582Y-96029980D01*
X69688768Y-96153066D01*
X70618180Y-96316946D01*
X70738648Y-95633736D01*
X70652463Y-95510650D01*
X70058340Y-95405890D01*
X69893273Y-95442484D01*
X69754774Y-95539462D01*
X69663930Y-95682059D01*
X69634570Y-95848566D01*
X69602582Y-96029980D01*
X59264125Y-96029980D01*
X60048801Y-93614996D01*
X70123486Y-93614996D01*
X70124890Y-93737539D01*
X70175779Y-93858833D01*
X70269849Y-93950773D01*
X70392278Y-93998870D01*
X71869490Y-94259342D01*
X71992033Y-94257938D01*
X72113327Y-94207049D01*
X72205267Y-94112979D01*
X72253364Y-93990550D01*
X72282555Y-93825000D01*
X74700000Y-93825000D01*
X74835657Y-93798016D01*
X74862641Y-93792649D01*
X75000520Y-93700520D01*
X75039019Y-93662021D01*
X74898840Y-94457019D01*
X74900460Y-94598415D01*
X74959178Y-94738370D01*
X75067720Y-94844454D01*
X75208983Y-94899950D01*
X76287162Y-95090062D01*
X76375011Y-95177911D01*
X76375011Y-96614766D01*
X74950892Y-96363656D01*
X74828349Y-96365060D01*
X74707055Y-96415949D01*
X74615115Y-96510019D01*
X74567018Y-96632448D01*
X74393370Y-97617256D01*
X74394774Y-97739799D01*
X74445663Y-97861093D01*
X74539733Y-97953033D01*
X74662162Y-98001130D01*
X75840337Y-98208874D01*
X75974954Y-98343491D01*
X75974955Y-106011446D01*
X75975000Y-106011672D01*
X75975000Y-110458871D01*
X74209105Y-112224766D01*
X74185249Y-112212485D01*
X74054089Y-112202523D01*
X73929387Y-112244374D01*
X72630349Y-112994374D01*
X72537378Y-113074218D01*
X72477172Y-113191168D01*
X72467210Y-113322328D01*
X72509061Y-113447029D01*
X73009061Y-114313055D01*
X73088905Y-114406027D01*
X73205855Y-114466233D01*
X73337015Y-114476195D01*
X73461717Y-114434344D01*
X74760755Y-113684344D01*
X74853726Y-113604500D01*
X74913932Y-113487550D01*
X74923894Y-113356390D01*
X74882043Y-113231689D01*
X74707163Y-112928788D01*
X76684564Y-110951387D01*
X76708436Y-111022519D01*
X77208436Y-111888545D01*
X77300564Y-111995819D01*
X77435506Y-112065288D01*
X77586844Y-112076783D01*
X77730730Y-112028493D01*
X78143525Y-111790166D01*
X78174902Y-111811131D01*
X78375811Y-111851094D01*
X78908632Y-111851094D01*
X79677994Y-112620456D01*
X78473873Y-113315656D01*
X78380902Y-113395500D01*
X78320696Y-113512450D01*
X78310734Y-113643610D01*
X78352585Y-113768311D01*
X78852585Y-114634337D01*
X78932429Y-114727309D01*
X79049379Y-114787515D01*
X79180539Y-114797477D01*
X79305241Y-114755626D01*
X79766635Y-114489240D01*
X79975000Y-114697606D01*
X79975000Y-117400000D01*
X79988679Y-117468769D01*
X80007351Y-117562641D01*
X80099480Y-117700520D01*
X82037512Y-119638553D01*
X81906330Y-119718941D01*
X81698672Y-120004757D01*
X81722178Y-120153168D01*
X82384561Y-120634417D01*
X82396317Y-120618236D01*
X82598571Y-120765182D01*
X82586815Y-120781363D01*
X83249198Y-121262612D01*
X83397608Y-121239106D01*
X83498795Y-121099835D01*
X87998998Y-125600039D01*
X87998998Y-126003083D01*
X87967910Y-126025386D01*
X87899284Y-126137602D01*
X87386254Y-127547141D01*
X87366357Y-127668066D01*
X87395410Y-127796354D01*
X87472086Y-127903232D01*
X87584302Y-127971858D01*
X88523994Y-128313879D01*
X88644920Y-128333776D01*
X88773209Y-128304722D01*
X88880086Y-128228046D01*
X88948712Y-128115830D01*
X89104608Y-127687507D01*
X90640891Y-127687507D01*
X90704394Y-127823689D01*
X91356306Y-128060966D01*
X91679087Y-127174131D01*
X91615585Y-127037949D01*
X91442482Y-126974945D01*
X91283603Y-126917117D01*
X91114689Y-126924492D01*
X90961453Y-126995947D01*
X90847228Y-127120602D01*
X90640891Y-127687507D01*
X89104608Y-127687507D01*
X89461742Y-126706291D01*
X89481639Y-126585366D01*
X89452586Y-126457078D01*
X89375910Y-126350200D01*
X89263694Y-126281574D01*
X88848998Y-126130637D01*
X88848998Y-125423998D01*
X88816647Y-125261358D01*
X88816647Y-125261357D01*
X88724519Y-125123478D01*
X86648263Y-123047222D01*
X88994172Y-123047222D01*
X88991290Y-123064740D01*
X89024813Y-123212765D01*
X89113285Y-123336085D01*
X89242766Y-123415269D01*
X90182458Y-123757290D01*
X90321987Y-123780248D01*
X90470012Y-123746724D01*
X90593332Y-123658252D01*
X90672516Y-123528772D01*
X90913783Y-122865896D01*
X92495457Y-122865896D01*
X92069170Y-124037111D01*
X92049273Y-124158036D01*
X92078326Y-124286324D01*
X92155002Y-124393202D01*
X92267218Y-124461828D01*
X93206910Y-124803849D01*
X93327836Y-124823746D01*
X93456125Y-124794692D01*
X93563002Y-124718016D01*
X93631628Y-124605800D01*
X93836949Y-124041686D01*
X94040646Y-124041686D01*
X95099480Y-125100521D01*
X95237359Y-125192649D01*
X95400000Y-125225000D01*
X106081960Y-125225000D01*
X108098584Y-127241625D01*
X107729289Y-127376038D01*
X107623866Y-127438525D01*
X107544267Y-127543244D01*
X107511680Y-127670681D01*
X107531241Y-127800755D01*
X108044271Y-129210294D01*
X108106758Y-129315718D01*
X108211477Y-129395317D01*
X108338914Y-129427904D01*
X108468989Y-129408343D01*
X109275000Y-129114978D01*
X109275000Y-132332538D01*
X108296704Y-133310834D01*
X108214469Y-133276687D01*
X107787404Y-133276314D01*
X107392706Y-133439400D01*
X107090462Y-133741117D01*
X106926687Y-134135531D01*
X106926314Y-134562596D01*
X107089400Y-134957294D01*
X107391117Y-135259538D01*
X107785531Y-135423313D01*
X108212596Y-135423686D01*
X108607294Y-135260600D01*
X108909538Y-134958883D01*
X109073313Y-134564469D01*
X109073686Y-134137404D01*
X109039001Y-134053461D01*
X110171231Y-132921231D01*
X110285037Y-132750909D01*
X110325000Y-132550000D01*
X110325000Y-127660389D01*
X110785878Y-127660389D01*
X110992215Y-128227294D01*
X111106440Y-128351949D01*
X111259676Y-128423404D01*
X111428590Y-128430779D01*
X111587469Y-128372951D01*
X111760572Y-128309947D01*
X111824074Y-128173765D01*
X111501293Y-127286930D01*
X110849381Y-127524207D01*
X110785878Y-127660389D01*
X110325000Y-127660389D01*
X110325000Y-127326000D01*
X110285037Y-127125091D01*
X110171231Y-126954769D01*
X109875337Y-126658875D01*
X110421358Y-126658875D01*
X110627694Y-127225781D01*
X110763876Y-127289283D01*
X111005264Y-127201425D01*
X111736216Y-127201425D01*
X112058998Y-128088260D01*
X112195180Y-128151763D01*
X112368282Y-128088758D01*
X112527162Y-128030931D01*
X112651817Y-127916706D01*
X112723272Y-127763471D01*
X112730646Y-127594557D01*
X112524310Y-127027651D01*
X112388128Y-126964149D01*
X111736216Y-127201425D01*
X111005264Y-127201425D01*
X111415788Y-127052007D01*
X111093006Y-126165172D01*
X110956824Y-126101669D01*
X110783722Y-126164674D01*
X110624842Y-126222501D01*
X110500187Y-126336726D01*
X110428732Y-126489961D01*
X110421358Y-126658875D01*
X109875337Y-126658875D01*
X109296129Y-126079667D01*
X111327930Y-126079667D01*
X111650711Y-126966502D01*
X112302623Y-126729225D01*
X112366126Y-126593043D01*
X112159789Y-126026138D01*
X112045564Y-125901483D01*
X111892328Y-125830028D01*
X111723414Y-125822653D01*
X111564535Y-125880481D01*
X111391432Y-125943485D01*
X111327930Y-126079667D01*
X109296129Y-126079667D01*
X107732605Y-124516143D01*
X107750217Y-124509733D01*
X107871859Y-124437632D01*
X107963705Y-124316803D01*
X108001305Y-124169761D01*
X107978735Y-124019675D01*
X107779621Y-123472613D01*
X108939231Y-122313003D01*
X109375389Y-123511336D01*
X109437876Y-123616760D01*
X109542595Y-123696359D01*
X109670032Y-123728946D01*
X109800107Y-123709385D01*
X110739799Y-123367364D01*
X110845222Y-123304877D01*
X110924821Y-123200158D01*
X110957408Y-123072721D01*
X110937847Y-122942647D01*
X110709125Y-122314240D01*
X110798365Y-122225000D01*
X115200000Y-122225000D01*
X115335657Y-122198016D01*
X115362641Y-122192649D01*
X115500520Y-122100520D01*
X115987763Y-121613277D01*
X116874242Y-121613277D01*
X117081900Y-121899093D01*
X117226060Y-121987434D01*
X117393055Y-122013884D01*
X117557458Y-121974414D01*
X117694243Y-121875033D01*
X117944401Y-121693283D01*
X117967907Y-121544873D01*
X117560131Y-120983617D01*
X116897748Y-121464866D01*
X116874242Y-121613277D01*
X115987763Y-121613277D01*
X116501205Y-121099835D01*
X116602392Y-121239106D01*
X116750802Y-121262612D01*
X117337060Y-120836671D01*
X117762385Y-120836671D01*
X118170161Y-121397927D01*
X118318572Y-121421432D01*
X118568729Y-121239682D01*
X118705515Y-121140302D01*
X118793856Y-120996142D01*
X118820306Y-120829147D01*
X118780836Y-120664744D01*
X118573178Y-120378928D01*
X118424768Y-120355422D01*
X117762385Y-120836671D01*
X117337060Y-120836671D01*
X117413185Y-120781363D01*
X117401429Y-120765182D01*
X117603683Y-120618236D01*
X117615439Y-120634417D01*
X118277822Y-120153168D01*
X118301328Y-120004757D01*
X118093670Y-119718941D01*
X117962488Y-119638553D01*
X121176041Y-116425000D01*
X123604565Y-116425000D01*
X123639245Y-116455626D01*
X124938283Y-117205626D01*
X125053917Y-117246219D01*
X125185301Y-117239884D01*
X125303870Y-117182932D01*
X125390939Y-117084337D01*
X125890939Y-116218311D01*
X125931532Y-116102678D01*
X125925197Y-115971294D01*
X125868245Y-115852725D01*
X125769651Y-115765656D01*
X124470613Y-115015656D01*
X124354979Y-114975063D01*
X124223595Y-114981398D01*
X124105026Y-115038350D01*
X124017957Y-115136945D01*
X123765046Y-115575000D01*
X121000000Y-115575000D01*
X120985924Y-115577800D01*
X120985924Y-114824109D01*
X121091100Y-114773590D01*
X121191564Y-114659827D01*
X121508477Y-114110917D01*
X126003326Y-114110917D01*
X126042216Y-114256057D01*
X126564679Y-114557701D01*
X126732308Y-114579770D01*
X126895623Y-114536010D01*
X127029759Y-114433084D01*
X127114297Y-114286660D01*
X127206403Y-114127127D01*
X127167513Y-113981987D01*
X126350201Y-113510112D01*
X126003326Y-114110917D01*
X121508477Y-114110917D01*
X121691564Y-113793801D01*
X121738402Y-113660378D01*
X121731093Y-113508781D01*
X121691193Y-113425712D01*
X124972530Y-113425712D01*
X125016290Y-113589027D01*
X125119217Y-113723163D01*
X125641680Y-114024807D01*
X125786820Y-113985917D01*
X126133695Y-113385112D01*
X125975202Y-113293606D01*
X126475201Y-113293606D01*
X127292513Y-113765481D01*
X127437653Y-113726591D01*
X127529759Y-113567058D01*
X127561122Y-113512735D01*
X132427232Y-113512735D01*
X132624729Y-113990712D01*
X132990105Y-114356727D01*
X133467737Y-114555057D01*
X133984910Y-114555509D01*
X134462887Y-114358012D01*
X134828902Y-113992636D01*
X135027232Y-113515004D01*
X135027684Y-112997831D01*
X134830187Y-112519854D01*
X134464811Y-112153839D01*
X134401517Y-112127557D01*
X134747550Y-112127859D01*
X135207143Y-111937958D01*
X135559081Y-111586635D01*
X135749783Y-111127373D01*
X135750217Y-110630092D01*
X135560316Y-110170499D01*
X135257786Y-109867440D01*
X135577249Y-109842297D01*
X135735026Y-109683010D01*
X135217916Y-108668125D01*
X134203031Y-109185234D01*
X134237048Y-109406839D01*
X134524419Y-109627662D01*
X134252450Y-109627425D01*
X133792857Y-109817326D01*
X133440919Y-110168649D01*
X133250217Y-110627911D01*
X133249783Y-111125192D01*
X133439684Y-111584785D01*
X133791007Y-111936723D01*
X133835930Y-111955377D01*
X133470006Y-111955057D01*
X132992029Y-112152554D01*
X132626014Y-112517930D01*
X132427684Y-112995562D01*
X132427232Y-113512735D01*
X127561122Y-113512735D01*
X127614297Y-113420634D01*
X127636366Y-113253006D01*
X127592606Y-113089691D01*
X127489679Y-112955555D01*
X126967216Y-112653911D01*
X126822076Y-112692801D01*
X126475201Y-113293606D01*
X125975202Y-113293606D01*
X125316383Y-112913237D01*
X125171243Y-112952127D01*
X125079137Y-113111660D01*
X124994599Y-113258084D01*
X124972530Y-113425712D01*
X121691193Y-113425712D01*
X121665379Y-113371971D01*
X121551616Y-113271507D01*
X120985924Y-112944905D01*
X120985924Y-112551591D01*
X125402493Y-112551591D01*
X125441383Y-112696731D01*
X126258695Y-113168606D01*
X126605570Y-112567801D01*
X126566680Y-112422661D01*
X126044217Y-112121017D01*
X125876588Y-112098948D01*
X125713273Y-112142708D01*
X125579137Y-112245634D01*
X125494599Y-112392058D01*
X125402493Y-112551591D01*
X120985924Y-112551591D01*
X120985924Y-111225692D01*
X120995721Y-111234344D01*
X122294759Y-111984344D01*
X122410393Y-112024937D01*
X122541777Y-112018602D01*
X122660346Y-111961650D01*
X122747415Y-111863055D01*
X123247415Y-110997029D01*
X123288008Y-110881396D01*
X123281673Y-110750012D01*
X123224721Y-110631443D01*
X123126127Y-110544374D01*
X121827089Y-109794374D01*
X121711455Y-109753781D01*
X121580071Y-109760116D01*
X121548085Y-109775480D01*
X121425000Y-109652395D01*
X121425000Y-108409027D01*
X133899105Y-108409027D01*
X133930246Y-108804706D01*
X134089533Y-108962483D01*
X134889995Y-108554627D01*
X135440668Y-108554627D01*
X135957777Y-109569512D01*
X136179382Y-109535495D01*
X136506620Y-109109640D01*
X136645981Y-108590973D01*
X136614840Y-108195294D01*
X136455553Y-108037517D01*
X135440668Y-108554627D01*
X134889995Y-108554627D01*
X135104418Y-108445373D01*
X134587309Y-107430488D01*
X134365704Y-107464505D01*
X134038466Y-107890360D01*
X133899105Y-108409027D01*
X121425000Y-108409027D01*
X121425000Y-106735394D01*
X134548704Y-106735394D01*
X134582217Y-106862590D01*
X134662576Y-106966727D01*
X134777119Y-107031395D01*
X135127244Y-107145157D01*
X134967837Y-107157703D01*
X134810060Y-107316990D01*
X135327170Y-108331875D01*
X136342055Y-107814766D01*
X136308038Y-107593161D01*
X136162965Y-107481683D01*
X136536574Y-107603076D01*
X136658120Y-107618740D01*
X136785316Y-107585227D01*
X136889453Y-107504868D01*
X136954121Y-107390325D01*
X137525802Y-105630870D01*
X137541466Y-105509324D01*
X137507953Y-105382128D01*
X137427594Y-105277991D01*
X137313051Y-105213323D01*
X135553596Y-104641642D01*
X135432050Y-104625978D01*
X135304854Y-104659491D01*
X135200717Y-104739850D01*
X135136049Y-104854393D01*
X134564368Y-106613848D01*
X134548704Y-106735394D01*
X121425000Y-106735394D01*
X121425000Y-102776040D01*
X127314287Y-96886753D01*
X128257315Y-96886753D01*
X128302310Y-97141934D01*
X128345542Y-97256607D01*
X128434847Y-97353181D01*
X128554689Y-97407402D01*
X128686184Y-97410726D01*
X130163396Y-97150254D01*
X130278069Y-97107022D01*
X130374643Y-97017717D01*
X130428864Y-96897875D01*
X130432188Y-96766380D01*
X130258540Y-95781572D01*
X130215308Y-95666899D01*
X130126003Y-95570325D01*
X130006161Y-95516104D01*
X129874666Y-95512780D01*
X128397454Y-95773252D01*
X128282781Y-95816484D01*
X128186207Y-95905789D01*
X128131986Y-96025631D01*
X128131705Y-96036753D01*
X127138247Y-96036753D01*
X127002590Y-96063737D01*
X126975606Y-96069104D01*
X126837727Y-96161233D01*
X125616920Y-97382040D01*
X125483186Y-96623595D01*
X125433304Y-96491281D01*
X125330260Y-96379849D01*
X125191980Y-96317287D01*
X125040255Y-96313452D01*
X124324380Y-96439680D01*
X123125000Y-95240300D01*
X123125000Y-95084970D01*
X123173457Y-95106894D01*
X123304952Y-95110218D01*
X124782164Y-94849746D01*
X124896837Y-94806514D01*
X124993411Y-94717209D01*
X125047632Y-94597367D01*
X125050956Y-94465872D01*
X124877308Y-93481064D01*
X124834076Y-93366391D01*
X124744771Y-93269817D01*
X124624929Y-93215596D01*
X124493434Y-93212272D01*
X123692488Y-93353500D01*
X123602824Y-93263836D01*
X123602824Y-92057558D01*
X123617144Y-92071903D01*
X123865145Y-92174883D01*
X123975977Y-92174980D01*
X123975933Y-92224833D01*
X124070883Y-92454629D01*
X124246545Y-92630598D01*
X124303000Y-92654040D01*
X125125021Y-93476062D01*
X125124892Y-93623775D01*
X125219842Y-93853571D01*
X125395504Y-94029540D01*
X125625134Y-94124891D01*
X125873775Y-94125108D01*
X126103571Y-94030158D01*
X126279540Y-93854496D01*
X126326193Y-93742142D01*
X127607758Y-93742142D01*
X127639746Y-93923556D01*
X127669106Y-94090063D01*
X127759950Y-94232660D01*
X127898449Y-94329638D01*
X128063516Y-94366232D01*
X128657639Y-94261472D01*
X128743824Y-94138386D01*
X128623356Y-93455176D01*
X127693944Y-93619056D01*
X127607758Y-93742142D01*
X126326193Y-93742142D01*
X126374891Y-93624866D01*
X126375076Y-93411764D01*
X128869558Y-93411764D01*
X128990026Y-94094974D01*
X129113112Y-94181160D01*
X129707235Y-94076400D01*
X129849832Y-93985556D01*
X129946810Y-93847057D01*
X129983404Y-93681990D01*
X129954044Y-93515483D01*
X129922056Y-93334069D01*
X129798970Y-93247883D01*
X128869558Y-93411764D01*
X126375076Y-93411764D01*
X126375108Y-93376225D01*
X126280158Y-93146429D01*
X126104496Y-92970460D01*
X126028126Y-92938748D01*
X127466098Y-92938748D01*
X127495458Y-93105255D01*
X127527446Y-93286669D01*
X127650532Y-93372855D01*
X128579944Y-93208974D01*
X128459476Y-92525764D01*
X128397478Y-92482352D01*
X128705678Y-92482352D01*
X128826146Y-93165562D01*
X129755558Y-93001682D01*
X129841744Y-92878596D01*
X129809756Y-92697182D01*
X129780396Y-92530675D01*
X129689552Y-92388078D01*
X129551053Y-92291100D01*
X129385986Y-92254506D01*
X128791863Y-92359266D01*
X128705678Y-92482352D01*
X128397478Y-92482352D01*
X128336390Y-92439578D01*
X127742267Y-92544338D01*
X127599670Y-92635182D01*
X127502692Y-92773681D01*
X127466098Y-92938748D01*
X126028126Y-92938748D01*
X125874866Y-92875109D01*
X125726020Y-92874979D01*
X125182224Y-92331184D01*
X125225932Y-92225924D01*
X125226149Y-91977283D01*
X125131199Y-91747487D01*
X125108752Y-91725001D01*
X125568716Y-91725001D01*
X125724953Y-91881238D01*
X125724895Y-91947512D01*
X125827441Y-92195692D01*
X126017156Y-92385738D01*
X126265157Y-92488718D01*
X126533689Y-92488952D01*
X126781869Y-92386406D01*
X126971915Y-92196691D01*
X127028403Y-92060652D01*
X134810059Y-92060652D01*
X134967836Y-92219939D01*
X135504705Y-92234368D01*
X136006230Y-92042249D01*
X136308037Y-91784481D01*
X136342054Y-91562876D01*
X135327169Y-91045767D01*
X134810059Y-92060652D01*
X127028403Y-92060652D01*
X127074895Y-91948690D01*
X127075129Y-91680158D01*
X126972583Y-91431978D01*
X126782868Y-91241932D01*
X126534867Y-91138952D01*
X126467532Y-91138893D01*
X126438444Y-91109805D01*
X133915816Y-91109805D01*
X134107935Y-91611330D01*
X134365703Y-91913137D01*
X134587308Y-91947154D01*
X135104417Y-90932269D01*
X134889995Y-90823015D01*
X135440667Y-90823015D01*
X136455552Y-91340125D01*
X136614839Y-91182348D01*
X136629268Y-90645479D01*
X136437149Y-90143954D01*
X136179381Y-89842147D01*
X135957776Y-89808130D01*
X135440667Y-90823015D01*
X134889995Y-90823015D01*
X134089532Y-90415159D01*
X133930245Y-90572936D01*
X133915816Y-91109805D01*
X126438444Y-91109805D01*
X126330735Y-91002096D01*
X132522903Y-91002096D01*
X132723812Y-90962133D01*
X132894134Y-90848327D01*
X134030001Y-89712460D01*
X134240278Y-89799774D01*
X134437094Y-89799946D01*
X134237047Y-89970803D01*
X134203030Y-90192408D01*
X135217915Y-90709517D01*
X135735025Y-89694632D01*
X135577248Y-89535345D01*
X135310122Y-89528166D01*
X135601443Y-89237353D01*
X135799773Y-88759721D01*
X135800225Y-88242548D01*
X135602728Y-87764571D01*
X135237352Y-87398556D01*
X134759720Y-87200226D01*
X134476576Y-87199979D01*
X134995423Y-87031395D01*
X135102963Y-86972625D01*
X135186169Y-86870748D01*
X135223183Y-86744526D01*
X135208174Y-86613848D01*
X134636493Y-84854393D01*
X134577723Y-84746853D01*
X134475846Y-84663647D01*
X134349624Y-84626633D01*
X134218946Y-84641642D01*
X132459491Y-85213323D01*
X132351951Y-85272093D01*
X132268745Y-85373970D01*
X132231731Y-85500192D01*
X132246740Y-85630870D01*
X132818421Y-87390325D01*
X132877191Y-87497865D01*
X132979068Y-87581071D01*
X133105290Y-87618085D01*
X133235968Y-87603076D01*
X133713998Y-87447755D01*
X133398555Y-87762647D01*
X133200225Y-88240279D01*
X133199773Y-88757452D01*
X133287579Y-88969958D01*
X132305441Y-89952096D01*
X124434554Y-89952096D01*
X124387733Y-89905193D01*
X124139732Y-89802213D01*
X123871200Y-89801979D01*
X123623020Y-89904525D01*
X123602824Y-89924686D01*
X123602824Y-88798217D01*
X123700520Y-88700521D01*
X123792648Y-88562641D01*
X123792649Y-88562640D01*
X123825000Y-88400000D01*
X123825000Y-87636066D01*
X123953290Y-87605266D01*
X124239106Y-87397608D01*
X124262612Y-87249198D01*
X123781363Y-86586815D01*
X123765182Y-86598571D01*
X123649879Y-86439869D01*
X123983617Y-86439869D01*
X124464866Y-87102252D01*
X124613277Y-87125758D01*
X124899093Y-86918100D01*
X124987434Y-86773940D01*
X125013884Y-86606945D01*
X124974414Y-86442542D01*
X124875033Y-86305757D01*
X124693283Y-86055599D01*
X124544873Y-86032093D01*
X123983617Y-86439869D01*
X123649879Y-86439869D01*
X123618236Y-86396317D01*
X123634417Y-86384561D01*
X123153168Y-85722178D01*
X123004757Y-85698672D01*
X122718941Y-85906330D01*
X122630600Y-86050490D01*
X122624555Y-86088655D01*
X122111132Y-85575232D01*
X123355422Y-85575232D01*
X123836671Y-86237615D01*
X124397927Y-85829839D01*
X124421432Y-85681428D01*
X124239682Y-85431271D01*
X124140302Y-85294485D01*
X123996142Y-85206144D01*
X123829147Y-85179694D01*
X123664744Y-85219164D01*
X123378928Y-85426822D01*
X123355422Y-85575232D01*
X122111132Y-85575232D01*
X120580766Y-84044866D01*
X120580766Y-79255334D01*
X121274721Y-78428310D01*
X121334777Y-78321482D01*
X121351353Y-78190993D01*
X121315855Y-78064336D01*
X121233877Y-77961469D01*
X120467832Y-77318682D01*
X120361005Y-77258626D01*
X120230516Y-77242050D01*
X120103860Y-77277548D01*
X120000992Y-77359525D01*
X119036811Y-78508592D01*
X118976755Y-78615420D01*
X118960179Y-78745909D01*
X118995677Y-78872566D01*
X119077655Y-78975433D01*
X119730766Y-79523457D01*
X119730766Y-84220906D01*
X119757750Y-84356563D01*
X119763117Y-84383547D01*
X119831403Y-84485743D01*
X117888646Y-82542986D01*
X118164113Y-82214696D01*
X118233408Y-82091434D01*
X118252534Y-81940870D01*
X118211575Y-81794728D01*
X118116986Y-81676035D01*
X117350941Y-81033248D01*
X117227679Y-80963953D01*
X117077115Y-80944827D01*
X116930973Y-80985786D01*
X116812280Y-81080375D01*
X116712014Y-81199867D01*
X116584946Y-81114963D01*
X116384037Y-81075000D01*
X114876582Y-81075000D01*
X115673719Y-80125008D01*
X115733775Y-80018180D01*
X115750351Y-79887691D01*
X115714853Y-79761034D01*
X115646290Y-79675000D01*
X117350000Y-79675000D01*
X117491606Y-79646833D01*
X117512641Y-79642649D01*
X117650520Y-79550520D01*
X124598064Y-72602976D01*
X124690193Y-72465097D01*
X124697052Y-72430615D01*
X124722544Y-72302456D01*
X124722544Y-70857462D01*
X124690193Y-70694822D01*
X124690193Y-70694821D01*
X124598064Y-70556942D01*
X122140602Y-68099480D01*
X122002723Y-68007351D01*
X121975739Y-68001984D01*
X121840082Y-67975000D01*
X120350285Y-67975000D01*
X118967592Y-66970414D01*
X118856835Y-66917956D01*
X118725508Y-66910523D01*
X118601636Y-66954769D01*
X118504738Y-67043722D01*
X117417335Y-68540403D01*
X117364877Y-68651160D01*
X117357444Y-68782487D01*
X117401690Y-68906359D01*
X117490643Y-69003257D01*
X118987324Y-70090660D01*
X119098081Y-70143118D01*
X119229408Y-70150551D01*
X119353280Y-70106305D01*
X119450178Y-70017352D01*
X119765241Y-69583705D01*
X119700226Y-69740279D01*
X119699774Y-70257452D01*
X119787580Y-70469958D01*
X116382538Y-73875000D01*
X114468894Y-73875000D01*
X114267985Y-73914963D01*
X114097663Y-74028769D01*
X112985981Y-75140451D01*
X112872175Y-75310773D01*
X112832212Y-75511682D01*
X112832212Y-76324563D01*
X112264146Y-77001557D01*
X112194851Y-77124819D01*
X112175725Y-77275383D01*
X112216684Y-77421525D01*
X112311273Y-77540218D01*
X112832212Y-77977337D01*
X112832212Y-79225326D01*
X112532597Y-79524941D01*
X112466323Y-79524883D01*
X112218143Y-79627429D01*
X112028097Y-79817144D01*
X111925117Y-80065145D01*
X111924883Y-80333677D01*
X112027429Y-80581857D01*
X112217144Y-80771903D01*
X112465145Y-80874883D01*
X112534325Y-80874943D01*
X112699090Y-80985036D01*
X112878201Y-81020663D01*
X113828769Y-81971231D01*
X113999091Y-82085037D01*
X114200000Y-82125000D01*
X115935736Y-82125000D01*
X115848099Y-82229442D01*
X115778804Y-82352704D01*
X115759678Y-82503268D01*
X115800637Y-82649410D01*
X115895226Y-82768103D01*
X116661271Y-83410890D01*
X116784533Y-83480185D01*
X116935097Y-83499311D01*
X117081239Y-83458352D01*
X117199932Y-83363763D01*
X117211141Y-83350405D01*
X119179653Y-85318917D01*
X119072382Y-85318824D01*
X118824202Y-85421370D01*
X118776548Y-85468941D01*
X116606059Y-85468941D01*
X116405150Y-85508904D01*
X116381086Y-85524983D01*
X116266323Y-85524883D01*
X116018143Y-85627429D01*
X115828097Y-85817144D01*
X115725117Y-86065145D01*
X115724883Y-86333677D01*
X115827429Y-86581857D01*
X116017144Y-86771903D01*
X116265145Y-86874883D01*
X116533677Y-86875117D01*
X116781857Y-86772571D01*
X116971903Y-86582856D01*
X116998443Y-86518941D01*
X118776382Y-86518941D01*
X118823203Y-86565844D01*
X119071204Y-86668824D01*
X119339736Y-86669058D01*
X119587916Y-86566512D01*
X119777962Y-86376797D01*
X119880942Y-86128796D01*
X119881037Y-86020301D01*
X121078556Y-87217820D01*
X121042333Y-87311019D01*
X121046720Y-87462729D01*
X121109785Y-87600779D01*
X121844516Y-88612050D01*
X121947352Y-88709107D01*
X122075000Y-88758719D01*
X122075000Y-90904073D01*
X121884855Y-90825117D01*
X121616323Y-90824883D01*
X121368143Y-90927429D01*
X121178097Y-91117144D01*
X121075117Y-91365145D01*
X121075058Y-91432480D01*
X119814538Y-92693000D01*
X115173000Y-92693000D01*
X115173000Y-89456000D01*
X115150774Y-89337876D01*
X115080963Y-89229387D01*
X114974443Y-89156605D01*
X114848000Y-89131000D01*
X107598000Y-89131000D01*
X107479876Y-89153226D01*
X107371387Y-89223037D01*
X107298605Y-89329557D01*
X107273000Y-89456000D01*
X107273000Y-93706000D01*
X107295226Y-93824124D01*
X107365037Y-93932613D01*
X107471557Y-94005395D01*
X107598000Y-94031000D01*
X114848000Y-94031000D01*
X114966124Y-94008774D01*
X115074613Y-93938963D01*
X115147395Y-93832443D01*
X115165507Y-93743000D01*
X120032000Y-93743000D01*
X120232909Y-93703037D01*
X120403231Y-93589231D01*
X121817403Y-92175059D01*
X121883677Y-92175117D01*
X122075000Y-92096064D01*
X122075000Y-95457762D01*
X122114963Y-95658671D01*
X122228769Y-95828993D01*
X123259280Y-96859504D01*
X123256735Y-96865130D01*
X123252900Y-97016855D01*
X123426548Y-98001663D01*
X123476430Y-98133977D01*
X123579474Y-98245409D01*
X123705232Y-98302306D01*
X120089693Y-101917845D01*
X119975887Y-102088167D01*
X119935924Y-102289076D01*
X119935924Y-112497173D01*
X119830748Y-112547692D01*
X119730284Y-112661455D01*
X119230284Y-113527481D01*
X119183446Y-113660904D01*
X119190755Y-113812501D01*
X119256469Y-113949311D01*
X119370232Y-114049775D01*
X119935924Y-114376377D01*
X119935924Y-115521614D01*
X117072100Y-118385438D01*
X116933282Y-118194372D01*
X116830446Y-118097315D01*
X116688981Y-118042333D01*
X116537271Y-118046720D01*
X116399221Y-118109785D01*
X115387950Y-118844516D01*
X115324999Y-118911215D01*
X115324999Y-117277664D01*
X115379903Y-117222856D01*
X115482883Y-116974855D01*
X115483117Y-116706323D01*
X115380571Y-116458143D01*
X115190856Y-116268097D01*
X114942855Y-116165117D01*
X114674323Y-116164883D01*
X114426143Y-116267429D01*
X114236097Y-116457144D01*
X114133117Y-116705145D01*
X114132883Y-116973677D01*
X114235429Y-117221857D01*
X114274999Y-117261496D01*
X114274999Y-119862617D01*
X114118143Y-119927429D01*
X113928097Y-120117144D01*
X113825117Y-120365145D01*
X113824883Y-120633677D01*
X113861143Y-120721432D01*
X109263340Y-120721432D01*
X109062431Y-120761395D01*
X108892109Y-120875201D01*
X107328389Y-122438921D01*
X107272775Y-122396648D01*
X107125732Y-122359048D01*
X106975647Y-122381618D01*
X106035955Y-122723639D01*
X105914313Y-122795740D01*
X105822467Y-122916569D01*
X105784867Y-123063611D01*
X105807437Y-123213697D01*
X105975337Y-123675000D01*
X100258207Y-123675000D01*
X100274881Y-123634845D01*
X100275115Y-123366313D01*
X100174998Y-123124012D01*
X100174998Y-121699988D01*
X100131229Y-121479945D01*
X100075091Y-121395929D01*
X100075117Y-121366313D01*
X99972571Y-121118133D01*
X99782856Y-120928087D01*
X99534855Y-120825107D01*
X99266323Y-120824873D01*
X99155000Y-120870871D01*
X99155000Y-119084782D01*
X99446206Y-118890205D01*
X99711752Y-118492786D01*
X99805000Y-118023999D01*
X99805000Y-117976980D01*
X99945000Y-117976980D01*
X99945000Y-118023020D01*
X100034442Y-118472673D01*
X100289150Y-118853870D01*
X100670347Y-119108578D01*
X101120000Y-119198020D01*
X101569653Y-119108578D01*
X101950850Y-118853870D01*
X102205558Y-118472673D01*
X102295000Y-118023020D01*
X102295000Y-117976980D01*
X102485000Y-117976980D01*
X102485000Y-118023020D01*
X102574442Y-118472673D01*
X102829150Y-118853870D01*
X103210347Y-119108578D01*
X103660000Y-119198020D01*
X104109653Y-119108578D01*
X104490850Y-118853870D01*
X104745558Y-118472673D01*
X104835000Y-118023020D01*
X104835000Y-117976980D01*
X105025000Y-117976980D01*
X105025000Y-118023020D01*
X105114442Y-118472673D01*
X105369150Y-118853870D01*
X105750347Y-119108578D01*
X106200000Y-119198020D01*
X106649653Y-119108578D01*
X107030850Y-118853870D01*
X107285558Y-118472673D01*
X107375000Y-118023020D01*
X107375000Y-117976980D01*
X107285558Y-117527327D01*
X107030850Y-117146130D01*
X106649653Y-116891422D01*
X106200000Y-116801980D01*
X105750347Y-116891422D01*
X105369150Y-117146130D01*
X105114442Y-117527327D01*
X105025000Y-117976980D01*
X104835000Y-117976980D01*
X104745558Y-117527327D01*
X104490850Y-117146130D01*
X104109653Y-116891422D01*
X103660000Y-116801980D01*
X103210347Y-116891422D01*
X102829150Y-117146130D01*
X102574442Y-117527327D01*
X102485000Y-117976980D01*
X102295000Y-117976980D01*
X102205558Y-117527327D01*
X101950850Y-117146130D01*
X101569653Y-116891422D01*
X101120000Y-116801980D01*
X100670347Y-116891422D01*
X100289150Y-117146130D01*
X100034442Y-117527327D01*
X99945000Y-117976980D01*
X99805000Y-117976980D01*
X99805000Y-117976001D01*
X99711752Y-117507214D01*
X99446206Y-117109795D01*
X99048787Y-116844249D01*
X98580000Y-116751001D01*
X98111213Y-116844249D01*
X97713794Y-117109795D01*
X97448248Y-117507214D01*
X97355000Y-117976001D01*
X97355000Y-118023999D01*
X97448248Y-118492786D01*
X97713794Y-118890205D01*
X98005000Y-119084782D01*
X98005000Y-123172757D01*
X97925117Y-123365135D01*
X97924883Y-123633667D01*
X97941961Y-123675000D01*
X96017462Y-123675000D01*
X94312127Y-121969665D01*
X94141805Y-121855859D01*
X93940896Y-121815896D01*
X91163658Y-121815896D01*
X91086509Y-121708359D01*
X90957028Y-121629175D01*
X90017336Y-121287154D01*
X89877807Y-121264196D01*
X89729782Y-121297720D01*
X89606462Y-121386192D01*
X89527278Y-121515672D01*
X89352008Y-121997222D01*
X86739684Y-121997222D01*
X84454421Y-119711959D01*
X84696637Y-119378577D01*
X84757165Y-119250781D01*
X84765742Y-119099250D01*
X84714689Y-118956321D01*
X84612050Y-118844516D01*
X83767962Y-118231250D01*
X92225000Y-118231250D01*
X92225000Y-118934538D01*
X92289702Y-119090743D01*
X92409257Y-119210298D01*
X92565462Y-119275000D01*
X93268750Y-119275000D01*
X93375000Y-119168750D01*
X93375000Y-118125000D01*
X93625000Y-118125000D01*
X93625000Y-119168750D01*
X93731250Y-119275000D01*
X94434538Y-119275000D01*
X94590743Y-119210298D01*
X94710298Y-119090743D01*
X94775000Y-118934538D01*
X94775000Y-118231250D01*
X94668750Y-118125000D01*
X93625000Y-118125000D01*
X93375000Y-118125000D01*
X92331250Y-118125000D01*
X92225000Y-118231250D01*
X83767962Y-118231250D01*
X83600779Y-118109785D01*
X83472983Y-118049257D01*
X83321453Y-118040680D01*
X83178523Y-118091733D01*
X83066718Y-118194372D01*
X83012062Y-118269600D01*
X82719442Y-117976980D01*
X94865000Y-117976980D01*
X94865000Y-118023020D01*
X94954442Y-118472673D01*
X95209150Y-118853870D01*
X95590347Y-119108578D01*
X96040000Y-119198020D01*
X96489653Y-119108578D01*
X96870850Y-118853870D01*
X97125558Y-118472673D01*
X97215000Y-118023020D01*
X97215000Y-117976980D01*
X97125558Y-117527327D01*
X96870850Y-117146130D01*
X96489653Y-116891422D01*
X96040000Y-116801980D01*
X95590347Y-116891422D01*
X95209150Y-117146130D01*
X94954442Y-117527327D01*
X94865000Y-117976980D01*
X82719442Y-117976980D01*
X81807924Y-117065462D01*
X92225000Y-117065462D01*
X92225000Y-117768750D01*
X92331250Y-117875000D01*
X93375000Y-117875000D01*
X93375000Y-116831250D01*
X93625000Y-116831250D01*
X93625000Y-117875000D01*
X94668750Y-117875000D01*
X94775000Y-117768750D01*
X94775000Y-117065462D01*
X94710298Y-116909257D01*
X94590743Y-116789702D01*
X94434538Y-116725000D01*
X93731250Y-116725000D01*
X93625000Y-116831250D01*
X93375000Y-116831250D01*
X93268750Y-116725000D01*
X92565462Y-116725000D01*
X92409257Y-116789702D01*
X92289702Y-116909257D01*
X92225000Y-117065462D01*
X81807924Y-117065462D01*
X81525000Y-116782538D01*
X81525000Y-113200000D01*
X81485037Y-112999091D01*
X81371231Y-112828769D01*
X79497325Y-110954863D01*
X79327003Y-110841057D01*
X79188981Y-110813603D01*
X79171663Y-110762000D01*
X98835000Y-110762000D01*
X98835000Y-115012000D01*
X98857226Y-115130124D01*
X98927037Y-115238613D01*
X99033557Y-115311395D01*
X99160000Y-115337000D01*
X106660000Y-115337000D01*
X106778124Y-115314774D01*
X106886613Y-115244963D01*
X106959395Y-115138443D01*
X106985000Y-115012000D01*
X106985000Y-110762000D01*
X107335000Y-110762000D01*
X107335000Y-115012000D01*
X107357226Y-115130124D01*
X107427037Y-115238613D01*
X107533557Y-115311395D01*
X107660000Y-115337000D01*
X114910000Y-115337000D01*
X115028124Y-115314774D01*
X115136613Y-115244963D01*
X115209395Y-115138443D01*
X115235000Y-115012000D01*
X115235000Y-110762000D01*
X115212774Y-110643876D01*
X115142963Y-110535387D01*
X115036443Y-110462605D01*
X114910000Y-110437000D01*
X107660000Y-110437000D01*
X107541876Y-110459226D01*
X107433387Y-110529037D01*
X107360605Y-110635557D01*
X107335000Y-110762000D01*
X106985000Y-110762000D01*
X106962774Y-110643876D01*
X106892963Y-110535387D01*
X106786443Y-110462605D01*
X106660000Y-110437000D01*
X99160000Y-110437000D01*
X99041876Y-110459226D01*
X98933387Y-110529037D01*
X98860605Y-110635557D01*
X98835000Y-110762000D01*
X79171663Y-110762000D01*
X79169716Y-110756199D01*
X78669716Y-109890173D01*
X78577588Y-109782899D01*
X78442646Y-109713430D01*
X78291308Y-109701935D01*
X78147422Y-109750225D01*
X77763856Y-109971677D01*
X77425011Y-109632832D01*
X77425011Y-108370000D01*
X89695654Y-108370000D01*
X89695654Y-110070000D01*
X89721802Y-110208966D01*
X89803931Y-110336599D01*
X89929246Y-110422223D01*
X90078000Y-110452346D01*
X91278000Y-110452346D01*
X91416966Y-110426198D01*
X91544599Y-110344069D01*
X91630223Y-110218754D01*
X91660346Y-110070000D01*
X91660346Y-109617339D01*
X91778859Y-109977735D01*
X92041604Y-110283172D01*
X92395391Y-110455269D01*
X92553000Y-110380207D01*
X92553000Y-109345000D01*
X92803000Y-109345000D01*
X92803000Y-110380207D01*
X92960609Y-110455269D01*
X93314396Y-110283172D01*
X93577141Y-109977735D01*
X93703000Y-109595000D01*
X93703000Y-109345000D01*
X92803000Y-109345000D01*
X92553000Y-109345000D01*
X92533000Y-109345000D01*
X92533000Y-109095000D01*
X92553000Y-109095000D01*
X92553000Y-108059793D01*
X92803000Y-108059793D01*
X92803000Y-109095000D01*
X93703000Y-109095000D01*
X93703000Y-108845000D01*
X93577141Y-108462265D01*
X93314396Y-108156828D01*
X92960609Y-107984731D01*
X92803000Y-108059793D01*
X92553000Y-108059793D01*
X92395391Y-107984731D01*
X92041604Y-108156828D01*
X91778859Y-108462265D01*
X91660346Y-108822661D01*
X91660346Y-108370000D01*
X91634198Y-108231034D01*
X91552069Y-108103401D01*
X91426754Y-108017777D01*
X91278000Y-107987654D01*
X90078000Y-107987654D01*
X89939034Y-108013802D01*
X89811401Y-108095931D01*
X89725777Y-108221246D01*
X89695654Y-108370000D01*
X77425011Y-108370000D01*
X77425011Y-107245076D01*
X77469842Y-107353575D01*
X77645504Y-107529544D01*
X77875134Y-107624895D01*
X78123775Y-107625112D01*
X78353571Y-107530162D01*
X78529540Y-107354500D01*
X78624891Y-107124870D01*
X78625021Y-106976023D01*
X79376044Y-106225000D01*
X79541144Y-106225000D01*
X79645502Y-106329540D01*
X79875132Y-106424891D01*
X80123773Y-106425108D01*
X80353569Y-106330158D01*
X80529538Y-106154496D01*
X80624889Y-105924866D01*
X80625106Y-105676225D01*
X80530156Y-105446429D01*
X80354494Y-105270460D01*
X80124864Y-105175109D01*
X79876223Y-105174892D01*
X79646427Y-105269842D01*
X79541085Y-105375000D01*
X79200004Y-105375000D01*
X79037363Y-105407351D01*
X78899484Y-105499480D01*
X78023939Y-106375025D01*
X77876225Y-106374896D01*
X77646429Y-106469846D01*
X77470460Y-106645508D01*
X77425011Y-106754961D01*
X77425011Y-106072425D01*
X77475100Y-106093224D01*
X77723741Y-106093441D01*
X77953537Y-105998491D01*
X78129506Y-105822829D01*
X78224857Y-105593199D01*
X78225074Y-105344558D01*
X78176523Y-105227056D01*
X78353603Y-105153888D01*
X78529572Y-104978226D01*
X78624923Y-104748596D01*
X78625140Y-104499955D01*
X78530190Y-104270159D01*
X78425032Y-104164817D01*
X78425032Y-102258860D01*
X78529572Y-102154502D01*
X78624923Y-101924872D01*
X78625140Y-101676231D01*
X78530190Y-101446435D01*
X78354528Y-101270466D01*
X78218090Y-101213812D01*
X78277510Y-101154496D01*
X78372861Y-100924866D01*
X78373078Y-100676225D01*
X78278128Y-100446429D01*
X78102466Y-100270460D01*
X77872836Y-100175109D01*
X77624195Y-100174892D01*
X77425011Y-100257193D01*
X77425011Y-94960449D01*
X77385048Y-94759540D01*
X77271242Y-94589218D01*
X77189561Y-94507537D01*
X77205668Y-94416185D01*
X77341144Y-94551897D01*
X77589145Y-94654877D01*
X77857677Y-94655111D01*
X78105857Y-94552565D01*
X78158513Y-94500000D01*
X82100000Y-94500000D01*
X82100000Y-105500000D01*
X82130448Y-105653073D01*
X82217157Y-105782843D01*
X82346927Y-105869552D01*
X82500000Y-105900000D01*
X117500000Y-105900000D01*
X117653073Y-105869552D01*
X117782843Y-105782843D01*
X117869552Y-105653073D01*
X117900000Y-105500000D01*
X117900000Y-94500000D01*
X117869552Y-94346927D01*
X117782843Y-94217157D01*
X117653073Y-94130448D01*
X117500000Y-94100000D01*
X82500000Y-94100000D01*
X82346927Y-94130448D01*
X82217157Y-94217157D01*
X82130448Y-94346927D01*
X82100000Y-94500000D01*
X78158513Y-94500000D01*
X78295903Y-94362850D01*
X78342348Y-94251000D01*
X80342323Y-94251000D01*
X80389144Y-94297903D01*
X80637145Y-94400883D01*
X80905677Y-94401117D01*
X81153857Y-94298571D01*
X81343903Y-94108856D01*
X81446883Y-93860855D01*
X81447117Y-93592323D01*
X81344571Y-93344143D01*
X81218592Y-93217944D01*
X81343903Y-93092852D01*
X81446883Y-92844851D01*
X81447117Y-92576319D01*
X81344571Y-92328139D01*
X81154856Y-92138093D01*
X80906855Y-92035113D01*
X80638323Y-92034879D01*
X80390143Y-92137425D01*
X80200097Y-92327140D01*
X80153648Y-92439000D01*
X78915677Y-92439000D01*
X78868856Y-92392097D01*
X78620855Y-92289117D01*
X78352323Y-92288883D01*
X78104143Y-92391429D01*
X77914097Y-92581144D01*
X77811117Y-92829145D01*
X77810883Y-93097677D01*
X77863024Y-93223869D01*
X77777085Y-93240963D01*
X77681313Y-93304956D01*
X77590323Y-93304877D01*
X77342143Y-93407423D01*
X77203378Y-93545946D01*
X77133894Y-93478036D01*
X76992631Y-93422540D01*
X76725000Y-93375349D01*
X76725000Y-89456000D01*
X98694624Y-89456000D01*
X98694624Y-93706000D01*
X98716850Y-93824124D01*
X98786661Y-93932613D01*
X98893181Y-94005395D01*
X99019624Y-94031000D01*
X106519624Y-94031000D01*
X106637748Y-94008774D01*
X106746237Y-93938963D01*
X106819019Y-93832443D01*
X106844624Y-93706000D01*
X106844624Y-89456000D01*
X106822398Y-89337876D01*
X106752587Y-89229387D01*
X106646067Y-89156605D01*
X106519624Y-89131000D01*
X99019624Y-89131000D01*
X98901500Y-89153226D01*
X98793011Y-89223037D01*
X98720229Y-89329557D01*
X98694624Y-89456000D01*
X76725000Y-89456000D01*
X76725000Y-89017462D01*
X77288041Y-88454421D01*
X77621423Y-88696637D01*
X77749219Y-88757165D01*
X77900750Y-88765742D01*
X78043679Y-88714689D01*
X78155484Y-88612050D01*
X78518221Y-88112785D01*
X79412215Y-88112785D01*
X79613124Y-88072822D01*
X79783446Y-87959016D01*
X81018687Y-86723775D01*
X91574866Y-86723775D01*
X91669816Y-86953571D01*
X91845478Y-87129540D01*
X92075108Y-87224891D01*
X92174585Y-87224978D01*
X92104286Y-87394275D01*
X92104069Y-87642916D01*
X92199019Y-87872712D01*
X92374681Y-88048681D01*
X92604311Y-88144032D01*
X92852952Y-88144249D01*
X93082748Y-88049299D01*
X93258717Y-87873637D01*
X93354068Y-87644007D01*
X93354198Y-87495160D01*
X93582720Y-87266638D01*
X93645512Y-87329540D01*
X93875142Y-87424891D01*
X94123783Y-87425108D01*
X94353579Y-87330158D01*
X94529548Y-87154496D01*
X94624899Y-86924866D01*
X94625116Y-86676225D01*
X94530166Y-86446429D01*
X94354504Y-86270460D01*
X94259281Y-86230920D01*
X94324888Y-86072922D01*
X94325105Y-85824281D01*
X94230155Y-85594485D01*
X94054493Y-85418516D01*
X93824863Y-85323165D01*
X93576222Y-85322948D01*
X93346426Y-85417898D01*
X93241084Y-85523056D01*
X92851918Y-85523056D01*
X92716261Y-85550040D01*
X92689277Y-85555407D01*
X92551398Y-85647536D01*
X92223913Y-85975021D01*
X92076199Y-85974892D01*
X91846403Y-86069842D01*
X91670434Y-86245504D01*
X91575083Y-86475134D01*
X91574866Y-86723775D01*
X81018687Y-86723775D01*
X85816467Y-81925995D01*
X85930273Y-81755673D01*
X85970236Y-81554764D01*
X85970236Y-81202794D01*
X86556116Y-80711183D01*
X86645763Y-80601826D01*
X86690743Y-80456871D01*
X86675784Y-80305837D01*
X86603243Y-80172522D01*
X86235009Y-79733677D01*
X102874873Y-79733677D01*
X102977419Y-79981857D01*
X103167134Y-80171903D01*
X103415135Y-80274883D01*
X103683667Y-80275117D01*
X103931847Y-80172571D01*
X104121893Y-79982856D01*
X104224873Y-79734855D01*
X104224932Y-79667520D01*
X105971231Y-77921221D01*
X106085037Y-77750899D01*
X106125000Y-77549990D01*
X106125000Y-77429677D01*
X106171903Y-77382856D01*
X106274883Y-77134855D01*
X106275117Y-76866323D01*
X106172571Y-76618143D01*
X105982856Y-76428097D01*
X105734855Y-76325117D01*
X105466323Y-76324883D01*
X105218143Y-76427429D01*
X105028097Y-76617144D01*
X104925117Y-76865145D01*
X104924883Y-77133677D01*
X105026915Y-77380613D01*
X103482587Y-78924941D01*
X103416313Y-78924883D01*
X103168133Y-79027429D01*
X102978087Y-79217144D01*
X102875107Y-79465145D01*
X102874873Y-79733677D01*
X86235009Y-79733677D01*
X86125000Y-79602574D01*
X86125000Y-78817462D01*
X86518344Y-78424118D01*
X86597856Y-78416243D01*
X86731171Y-78343702D01*
X87688727Y-77540218D01*
X87778374Y-77430861D01*
X87823354Y-77285906D01*
X87808395Y-77134872D01*
X87735854Y-77001557D01*
X87093066Y-76235513D01*
X86983710Y-76145866D01*
X86838755Y-76100886D01*
X86687720Y-76115845D01*
X86554405Y-76188386D01*
X85596849Y-76991870D01*
X85507202Y-77101227D01*
X85462222Y-77246182D01*
X85477181Y-77397216D01*
X85549722Y-77530531D01*
X85589013Y-77577357D01*
X85074005Y-78092365D01*
X84960199Y-78262687D01*
X84920236Y-78463596D01*
X84920236Y-79127504D01*
X84334356Y-79619115D01*
X84244709Y-79728472D01*
X84199729Y-79873427D01*
X84214688Y-80024461D01*
X84287229Y-80157776D01*
X84475449Y-80382089D01*
X84132597Y-80724941D01*
X84066323Y-80724883D01*
X83818143Y-80827429D01*
X83628097Y-81017144D01*
X83525117Y-81265145D01*
X83524883Y-81533677D01*
X83547531Y-81588490D01*
X83148668Y-81113143D01*
X83053892Y-81035450D01*
X82928264Y-80996466D01*
X82797368Y-81009431D01*
X82681828Y-81072300D01*
X81915783Y-81715087D01*
X81838089Y-81809863D01*
X81799105Y-81935491D01*
X81812070Y-82066388D01*
X81874939Y-82181928D01*
X82487276Y-82911683D01*
X79385713Y-86013247D01*
X77626893Y-86013247D01*
X77464252Y-86045598D01*
X77377777Y-86103379D01*
X77369400Y-86050490D01*
X77281059Y-85906330D01*
X76995243Y-85698672D01*
X76846832Y-85722178D01*
X76365583Y-86384561D01*
X76381764Y-86396317D01*
X76234818Y-86598571D01*
X76218637Y-86586815D01*
X75737388Y-87249198D01*
X75760894Y-87397608D01*
X75937894Y-87526206D01*
X75299480Y-88164620D01*
X75207351Y-88302499D01*
X75207351Y-88302500D01*
X75175000Y-88465140D01*
X75175000Y-92323959D01*
X74523960Y-92975000D01*
X72426660Y-92975000D01*
X72425608Y-92883199D01*
X72374719Y-92761905D01*
X72280649Y-92669965D01*
X72158220Y-92621868D01*
X70681008Y-92361396D01*
X70558465Y-92362800D01*
X70437171Y-92413689D01*
X70345231Y-92507759D01*
X70297134Y-92630188D01*
X70123486Y-93614996D01*
X60048801Y-93614996D01*
X60698321Y-91615981D01*
X62952725Y-91615981D01*
X62991394Y-91762746D01*
X63084116Y-91882903D01*
X63216281Y-91957520D01*
X64975736Y-92529201D01*
X65115981Y-92547275D01*
X65262746Y-92508606D01*
X65382903Y-92415884D01*
X65457520Y-92283719D01*
X66029201Y-90524264D01*
X66047275Y-90384019D01*
X66008606Y-90237254D01*
X65915884Y-90117097D01*
X65783719Y-90042480D01*
X65414409Y-89922484D01*
X65529994Y-89922585D01*
X66007971Y-89725088D01*
X66373986Y-89359712D01*
X66572316Y-88882080D01*
X66572768Y-88364907D01*
X66375271Y-87886930D01*
X66095831Y-87607001D01*
X66349791Y-87587014D01*
X66507568Y-87427727D01*
X65990458Y-86412842D01*
X64975573Y-86929951D01*
X65009590Y-87151556D01*
X65231819Y-87322322D01*
X65015090Y-87322133D01*
X64537113Y-87519630D01*
X64171098Y-87885006D01*
X63972768Y-88362638D01*
X63972316Y-88879811D01*
X64169813Y-89357788D01*
X64406657Y-89595046D01*
X64024264Y-89470799D01*
X63884019Y-89452725D01*
X63737254Y-89491394D01*
X63617097Y-89584116D01*
X63542480Y-89716281D01*
X62970799Y-91475736D01*
X62952725Y-91615981D01*
X60698321Y-91615981D01*
X62473109Y-86153744D01*
X64671647Y-86153744D01*
X64702788Y-86549423D01*
X64862075Y-86707200D01*
X65662537Y-86299344D01*
X66213210Y-86299344D01*
X66730319Y-87314229D01*
X66951924Y-87280212D01*
X67279162Y-86854357D01*
X67345639Y-86606945D01*
X74986116Y-86606945D01*
X75012566Y-86773940D01*
X75100907Y-86918100D01*
X75386723Y-87125758D01*
X75535134Y-87102252D01*
X76016383Y-86439869D01*
X75455127Y-86032093D01*
X75306717Y-86055599D01*
X75124967Y-86305757D01*
X75025586Y-86442542D01*
X74986116Y-86606945D01*
X67345639Y-86606945D01*
X67418523Y-86335690D01*
X67387382Y-85940011D01*
X67228095Y-85782234D01*
X66213210Y-86299344D01*
X65662537Y-86299344D01*
X65876960Y-86190090D01*
X65359851Y-85175205D01*
X65138246Y-85209222D01*
X64811008Y-85635077D01*
X64671647Y-86153744D01*
X62473109Y-86153744D01*
X62827933Y-85061707D01*
X65582602Y-85061707D01*
X66099712Y-86076592D01*
X66875266Y-85681428D01*
X75578568Y-85681428D01*
X75602073Y-85829839D01*
X76163329Y-86237615D01*
X76644578Y-85575232D01*
X76621072Y-85426822D01*
X76335256Y-85219164D01*
X76170853Y-85179694D01*
X76003858Y-85206144D01*
X75859698Y-85294485D01*
X75760318Y-85431271D01*
X75578568Y-85681428D01*
X66875266Y-85681428D01*
X67114597Y-85559483D01*
X67080580Y-85337878D01*
X66654725Y-85010640D01*
X66136058Y-84871279D01*
X65740379Y-84902420D01*
X65582602Y-85061707D01*
X62827933Y-85061707D01*
X65575124Y-76606728D01*
X65574450Y-77378776D01*
X66056796Y-78546143D01*
X66949159Y-79440065D01*
X68115683Y-79924448D01*
X69378776Y-79925550D01*
X70546143Y-79443204D01*
X70749524Y-79240177D01*
X79284288Y-79240177D01*
X79672074Y-79702323D01*
X79822045Y-79780393D01*
X79990478Y-79795129D01*
X80151727Y-79744287D01*
X80281247Y-79635607D01*
X80422362Y-79517198D01*
X80435458Y-79367509D01*
X79828827Y-78644555D01*
X79297384Y-79090489D01*
X79284288Y-79240177D01*
X70749524Y-79240177D01*
X71440065Y-78550841D01*
X71559800Y-78262487D01*
X78548370Y-78262487D01*
X78599212Y-78423736D01*
X78986998Y-78885882D01*
X79136687Y-78898978D01*
X79631407Y-78483858D01*
X80020338Y-78483858D01*
X80626969Y-79206813D01*
X80776657Y-79219909D01*
X80917772Y-79101499D01*
X81047292Y-78992819D01*
X81125362Y-78842848D01*
X81140098Y-78674415D01*
X81089256Y-78513166D01*
X80701470Y-78051020D01*
X80551781Y-78037924D01*
X80020338Y-78483858D01*
X79631407Y-78483858D01*
X79668130Y-78453044D01*
X79061499Y-77730089D01*
X78911811Y-77716993D01*
X78770696Y-77835403D01*
X78641176Y-77944083D01*
X78563106Y-78094054D01*
X78548370Y-78262487D01*
X71559800Y-78262487D01*
X71847597Y-77569393D01*
X79253010Y-77569393D01*
X79859641Y-78292347D01*
X80391084Y-77846413D01*
X80404180Y-77696725D01*
X80016394Y-77234579D01*
X79866423Y-77156509D01*
X79697990Y-77141773D01*
X79536741Y-77192615D01*
X79407221Y-77301295D01*
X79266106Y-77419704D01*
X79253010Y-77569393D01*
X71847597Y-77569393D01*
X71924448Y-77384317D01*
X71925546Y-76124953D01*
X81100787Y-76124953D01*
X81113752Y-76255850D01*
X81176621Y-76371390D01*
X82140802Y-77520457D01*
X82235578Y-77598150D01*
X82361206Y-77637134D01*
X82492102Y-77624169D01*
X82607642Y-77561300D01*
X82736326Y-77453321D01*
X83447272Y-78164267D01*
X83447272Y-78382638D01*
X83342732Y-78486996D01*
X83247381Y-78716626D01*
X83247164Y-78965267D01*
X83342114Y-79195063D01*
X83517776Y-79371032D01*
X83747406Y-79466383D01*
X83996047Y-79466600D01*
X84225843Y-79371650D01*
X84401812Y-79195988D01*
X84497163Y-78966358D01*
X84497380Y-78717717D01*
X84402430Y-78487921D01*
X84297272Y-78382579D01*
X84297272Y-77988227D01*
X84283944Y-77921221D01*
X84264921Y-77825586D01*
X84172792Y-77687707D01*
X83387161Y-76902076D01*
X83451381Y-76823737D01*
X83490365Y-76698109D01*
X83479264Y-76586031D01*
X84701510Y-76586031D01*
X84928599Y-76856665D01*
X85078570Y-76934735D01*
X85247003Y-76949471D01*
X85408253Y-76898629D01*
X85537773Y-76789949D01*
X85774643Y-76591192D01*
X85787739Y-76441503D01*
X85341805Y-75910060D01*
X84714606Y-76436342D01*
X84701510Y-76586031D01*
X83479264Y-76586031D01*
X83477400Y-76567212D01*
X83414531Y-76451672D01*
X82867589Y-75799851D01*
X84126290Y-75799851D01*
X84177132Y-75961101D01*
X84404221Y-76231735D01*
X84553909Y-76244831D01*
X85144385Y-75749363D01*
X85533316Y-75749363D01*
X85979250Y-76280806D01*
X86128938Y-76293902D01*
X86365808Y-76095145D01*
X86495328Y-75986465D01*
X86573399Y-75836494D01*
X86588134Y-75668061D01*
X86537292Y-75506811D01*
X86310203Y-75236177D01*
X86160515Y-75223081D01*
X85533316Y-75749363D01*
X85144385Y-75749363D01*
X85181108Y-75718549D01*
X84735174Y-75187106D01*
X84585486Y-75174010D01*
X84348616Y-75372767D01*
X84219096Y-75481447D01*
X84141025Y-75631418D01*
X84126290Y-75799851D01*
X82867589Y-75799851D01*
X82450350Y-75302605D01*
X82355574Y-75224912D01*
X82229946Y-75185928D01*
X82099050Y-75198893D01*
X81983510Y-75261762D01*
X81217465Y-75904549D01*
X81139771Y-75999325D01*
X81100787Y-76124953D01*
X71925546Y-76124953D01*
X71925550Y-76121224D01*
X71473182Y-75026409D01*
X84926685Y-75026409D01*
X85372619Y-75557852D01*
X85999818Y-75031570D01*
X86012914Y-74881881D01*
X85785825Y-74611247D01*
X85635854Y-74533177D01*
X85467421Y-74518441D01*
X85306171Y-74569283D01*
X85176651Y-74677963D01*
X84939781Y-74876720D01*
X84926685Y-75026409D01*
X71473182Y-75026409D01*
X71443204Y-74953857D01*
X70550841Y-74059935D01*
X69384317Y-73575552D01*
X68121224Y-73574450D01*
X67544642Y-73812689D01*
X71129042Y-71208470D01*
X74836333Y-71208470D01*
X74840135Y-71339953D01*
X74894792Y-71459597D01*
X75982195Y-72956278D01*
X76071320Y-73040394D01*
X76193922Y-73088045D01*
X76325405Y-73084243D01*
X76445049Y-73029586D01*
X77941730Y-71942183D01*
X78025846Y-71853058D01*
X78073497Y-71730456D01*
X78069695Y-71598973D01*
X78015038Y-71479329D01*
X77740654Y-71101673D01*
X78217736Y-71299774D01*
X78734909Y-71300226D01*
X79212886Y-71102729D01*
X79578901Y-70737353D01*
X79667078Y-70525000D01*
X82382538Y-70525000D01*
X85724941Y-73867403D01*
X85724883Y-73933677D01*
X85827429Y-74181857D01*
X86017144Y-74371903D01*
X86265145Y-74474883D01*
X86533677Y-74475117D01*
X86781857Y-74372571D01*
X86971903Y-74182856D01*
X87074883Y-73934855D01*
X87075117Y-73666323D01*
X86972571Y-73418143D01*
X86782856Y-73228097D01*
X86534855Y-73125117D01*
X86467520Y-73125058D01*
X82971231Y-69628769D01*
X82800909Y-69514963D01*
X82600000Y-69475000D01*
X81498665Y-69475000D01*
X81559954Y-69413711D01*
X81557663Y-69411420D01*
X81765043Y-69073007D01*
X81728915Y-68851736D01*
X80860422Y-68714180D01*
X80690920Y-68544678D01*
X80514141Y-68721457D01*
X80585083Y-68792399D01*
X80476970Y-69475000D01*
X80223854Y-69475000D01*
X80316357Y-68890959D01*
X80485859Y-68721457D01*
X80309080Y-68544678D01*
X80238138Y-68615620D01*
X79231976Y-68456260D01*
X79129240Y-68655537D01*
X79199118Y-68892040D01*
X78737178Y-68700226D01*
X78220005Y-68699774D01*
X77742028Y-68897271D01*
X77376013Y-69262647D01*
X77177683Y-69740279D01*
X77177231Y-70257452D01*
X77243082Y-70416824D01*
X76927635Y-69982648D01*
X76838510Y-69898532D01*
X76715908Y-69850881D01*
X76584425Y-69854683D01*
X76464781Y-69909340D01*
X74968100Y-70996743D01*
X74883984Y-71085868D01*
X74836333Y-71208470D01*
X71129042Y-71208470D01*
X74957915Y-68426630D01*
X80643015Y-68426630D01*
X81768024Y-68604814D01*
X81870760Y-68405537D01*
X81718581Y-67890485D01*
X81380885Y-67472875D01*
X81042470Y-67265494D01*
X80821199Y-67301622D01*
X80643015Y-68426630D01*
X74957915Y-68426630D01*
X75561546Y-67988067D01*
X79234957Y-67988067D01*
X79271085Y-68209338D01*
X80396093Y-68387522D01*
X80574277Y-67262513D01*
X80375000Y-67159777D01*
X79859948Y-67311956D01*
X79442338Y-67649652D01*
X79234957Y-67988067D01*
X75561546Y-67988067D01*
X86574071Y-59987000D01*
X113044156Y-59987000D01*
X132231215Y-73927215D01*
G36*
X123009112Y-70170070D02*
X122948266Y-70201439D01*
X123107626Y-71207601D01*
X123036684Y-71278543D01*
X123213463Y-71455322D01*
X123382965Y-71285820D01*
X123872544Y-71208278D01*
X123872544Y-71461394D01*
X123284405Y-71554546D01*
X123213463Y-71483604D01*
X123036684Y-71660383D01*
X123206186Y-71829885D01*
X123337841Y-72661119D01*
X118718674Y-77280286D01*
X118684645Y-77197930D01*
X118508983Y-77021961D01*
X118427948Y-76988312D01*
X118493365Y-76910352D01*
X118411975Y-76842058D01*
X118561660Y-76828962D01*
X118949446Y-76366816D01*
X119000288Y-76205567D01*
X118985552Y-76037134D01*
X118907482Y-75887163D01*
X118777962Y-75778483D01*
X118636847Y-75660073D01*
X118487159Y-75673169D01*
X117880528Y-76396124D01*
X117895849Y-76408980D01*
X117735152Y-76600491D01*
X117719831Y-76587635D01*
X117113200Y-77310589D01*
X117126296Y-77460278D01*
X117267411Y-77578687D01*
X117396931Y-77687367D01*
X117412631Y-77692317D01*
X117129948Y-77975000D01*
X116258854Y-77975000D01*
X116154496Y-77870460D01*
X115924866Y-77775109D01*
X115676225Y-77774892D01*
X115446429Y-77869842D01*
X115270460Y-78045504D01*
X115175109Y-78275134D01*
X115174892Y-78523775D01*
X115269842Y-78753571D01*
X115341146Y-78825000D01*
X115150000Y-78825000D01*
X114987359Y-78857351D01*
X114849480Y-78949479D01*
X114813538Y-78985421D01*
X114760003Y-78955324D01*
X114629514Y-78938748D01*
X114502858Y-78974246D01*
X114399990Y-79056223D01*
X113486884Y-80144422D01*
X113471230Y-80128768D01*
X113436740Y-80105722D01*
X113728443Y-79814019D01*
X113842249Y-79643697D01*
X113882212Y-79442788D01*
X113882212Y-78207525D01*
X114450278Y-77530531D01*
X114519573Y-77407269D01*
X114538699Y-77256705D01*
X114497740Y-77110563D01*
X114403151Y-76991870D01*
X113882212Y-76554751D01*
X113882212Y-76441503D01*
X114212261Y-76441503D01*
X114225357Y-76591192D01*
X114462227Y-76789949D01*
X114591747Y-76898629D01*
X114752997Y-76949471D01*
X114921430Y-76934735D01*
X115071401Y-76856665D01*
X115272088Y-76617495D01*
X116408560Y-76617495D01*
X116423296Y-76785928D01*
X116501366Y-76935899D01*
X116630886Y-77044579D01*
X116772001Y-77162989D01*
X116921689Y-77149893D01*
X117528320Y-76426938D01*
X116996877Y-75981004D01*
X116847188Y-75994100D01*
X116459402Y-76456246D01*
X116408560Y-76617495D01*
X115272088Y-76617495D01*
X115298490Y-76586031D01*
X115285394Y-76436342D01*
X114658195Y-75910060D01*
X114212261Y-76441503D01*
X113882212Y-76441503D01*
X113882212Y-76292927D01*
X114020750Y-76280806D01*
X114466684Y-75749363D01*
X114451363Y-75736507D01*
X114466431Y-75718549D01*
X114818892Y-75718549D01*
X115446091Y-76244831D01*
X115595779Y-76231735D01*
X115822868Y-75961101D01*
X115873710Y-75799851D01*
X115859709Y-75639805D01*
X117144478Y-75639805D01*
X117157574Y-75789493D01*
X117689017Y-76235427D01*
X118295648Y-75512473D01*
X118282552Y-75362784D01*
X118141437Y-75244375D01*
X118011917Y-75135695D01*
X117850668Y-75084853D01*
X117682235Y-75099589D01*
X117532264Y-75177659D01*
X117144478Y-75639805D01*
X115859709Y-75639805D01*
X115858975Y-75631418D01*
X115780904Y-75481447D01*
X115651384Y-75372767D01*
X115414514Y-75174010D01*
X115264826Y-75187106D01*
X114818892Y-75718549D01*
X114466431Y-75718549D01*
X114612060Y-75544996D01*
X114627381Y-75557852D01*
X115073315Y-75026409D01*
X115064443Y-74925000D01*
X116600000Y-74925000D01*
X116800909Y-74885037D01*
X116971231Y-74771231D01*
X119730529Y-72011933D01*
X121757500Y-72011933D01*
X122061391Y-72454751D01*
X122511607Y-72747568D01*
X122897543Y-72840223D01*
X123096820Y-72737487D01*
X122918636Y-71612478D01*
X121793628Y-71790662D01*
X121757500Y-72011933D01*
X119730529Y-72011933D01*
X120530002Y-71212460D01*
X120740279Y-71299774D01*
X121257452Y-71300226D01*
X121706998Y-71114477D01*
X121651783Y-71344463D01*
X121754519Y-71543740D01*
X122760681Y-71384380D01*
X122831623Y-71455322D01*
X123008402Y-71278543D01*
X122838900Y-71109041D01*
X122701344Y-70240548D01*
X122480073Y-70204420D01*
X122260034Y-70355425D01*
X122299774Y-70259721D01*
X122300226Y-69742548D01*
X122102729Y-69264571D01*
X121737353Y-68898556D01*
X121560210Y-68825000D01*
X121664042Y-68825000D01*
X123009112Y-70170070D01*
X123009112Y-70170070D01*
G37*
X123009112Y-70170070D02*
X122948266Y-70201439D01*
X123107626Y-71207601D01*
X123036684Y-71278543D01*
X123213463Y-71455322D01*
X123382965Y-71285820D01*
X123872544Y-71208278D01*
X123872544Y-71461394D01*
X123284405Y-71554546D01*
X123213463Y-71483604D01*
X123036684Y-71660383D01*
X123206186Y-71829885D01*
X123337841Y-72661119D01*
X118718674Y-77280286D01*
X118684645Y-77197930D01*
X118508983Y-77021961D01*
X118427948Y-76988312D01*
X118493365Y-76910352D01*
X118411975Y-76842058D01*
X118561660Y-76828962D01*
X118949446Y-76366816D01*
X119000288Y-76205567D01*
X118985552Y-76037134D01*
X118907482Y-75887163D01*
X118777962Y-75778483D01*
X118636847Y-75660073D01*
X118487159Y-75673169D01*
X117880528Y-76396124D01*
X117895849Y-76408980D01*
X117735152Y-76600491D01*
X117719831Y-76587635D01*
X117113200Y-77310589D01*
X117126296Y-77460278D01*
X117267411Y-77578687D01*
X117396931Y-77687367D01*
X117412631Y-77692317D01*
X117129948Y-77975000D01*
X116258854Y-77975000D01*
X116154496Y-77870460D01*
X115924866Y-77775109D01*
X115676225Y-77774892D01*
X115446429Y-77869842D01*
X115270460Y-78045504D01*
X115175109Y-78275134D01*
X115174892Y-78523775D01*
X115269842Y-78753571D01*
X115341146Y-78825000D01*
X115150000Y-78825000D01*
X114987359Y-78857351D01*
X114849480Y-78949479D01*
X114813538Y-78985421D01*
X114760003Y-78955324D01*
X114629514Y-78938748D01*
X114502858Y-78974246D01*
X114399990Y-79056223D01*
X113486884Y-80144422D01*
X113471230Y-80128768D01*
X113436740Y-80105722D01*
X113728443Y-79814019D01*
X113842249Y-79643697D01*
X113882212Y-79442788D01*
X113882212Y-78207525D01*
X114450278Y-77530531D01*
X114519573Y-77407269D01*
X114538699Y-77256705D01*
X114497740Y-77110563D01*
X114403151Y-76991870D01*
X113882212Y-76554751D01*
X113882212Y-76441503D01*
X114212261Y-76441503D01*
X114225357Y-76591192D01*
X114462227Y-76789949D01*
X114591747Y-76898629D01*
X114752997Y-76949471D01*
X114921430Y-76934735D01*
X115071401Y-76856665D01*
X115272088Y-76617495D01*
X116408560Y-76617495D01*
X116423296Y-76785928D01*
X116501366Y-76935899D01*
X116630886Y-77044579D01*
X116772001Y-77162989D01*
X116921689Y-77149893D01*
X117528320Y-76426938D01*
X116996877Y-75981004D01*
X116847188Y-75994100D01*
X116459402Y-76456246D01*
X116408560Y-76617495D01*
X115272088Y-76617495D01*
X115298490Y-76586031D01*
X115285394Y-76436342D01*
X114658195Y-75910060D01*
X114212261Y-76441503D01*
X113882212Y-76441503D01*
X113882212Y-76292927D01*
X114020750Y-76280806D01*
X114466684Y-75749363D01*
X114451363Y-75736507D01*
X114466431Y-75718549D01*
X114818892Y-75718549D01*
X115446091Y-76244831D01*
X115595779Y-76231735D01*
X115822868Y-75961101D01*
X115873710Y-75799851D01*
X115859709Y-75639805D01*
X117144478Y-75639805D01*
X117157574Y-75789493D01*
X117689017Y-76235427D01*
X118295648Y-75512473D01*
X118282552Y-75362784D01*
X118141437Y-75244375D01*
X118011917Y-75135695D01*
X117850668Y-75084853D01*
X117682235Y-75099589D01*
X117532264Y-75177659D01*
X117144478Y-75639805D01*
X115859709Y-75639805D01*
X115858975Y-75631418D01*
X115780904Y-75481447D01*
X115651384Y-75372767D01*
X115414514Y-75174010D01*
X115264826Y-75187106D01*
X114818892Y-75718549D01*
X114466431Y-75718549D01*
X114612060Y-75544996D01*
X114627381Y-75557852D01*
X115073315Y-75026409D01*
X115064443Y-74925000D01*
X116600000Y-74925000D01*
X116800909Y-74885037D01*
X116971231Y-74771231D01*
X119730529Y-72011933D01*
X121757500Y-72011933D01*
X122061391Y-72454751D01*
X122511607Y-72747568D01*
X122897543Y-72840223D01*
X123096820Y-72737487D01*
X122918636Y-71612478D01*
X121793628Y-71790662D01*
X121757500Y-72011933D01*
X119730529Y-72011933D01*
X120530002Y-71212460D01*
X120740279Y-71299774D01*
X121257452Y-71300226D01*
X121706998Y-71114477D01*
X121651783Y-71344463D01*
X121754519Y-71543740D01*
X122760681Y-71384380D01*
X122831623Y-71455322D01*
X123008402Y-71278543D01*
X122838900Y-71109041D01*
X122701344Y-70240548D01*
X122480073Y-70204420D01*
X122260034Y-70355425D01*
X122299774Y-70259721D01*
X122300226Y-69742548D01*
X122102729Y-69264571D01*
X121737353Y-68898556D01*
X121560210Y-68825000D01*
X121664042Y-68825000D01*
X123009112Y-70170070D01*
D24*
G36*
X106392624Y-93579000D02*
X99146624Y-93579000D01*
X99146624Y-89583000D01*
X106392624Y-89583000D01*
X106392624Y-93579000D01*
X106392624Y-93579000D01*
G37*
X106392624Y-93579000D02*
X99146624Y-93579000D01*
X99146624Y-89583000D01*
X106392624Y-89583000D01*
X106392624Y-93579000D01*
G36*
X114721000Y-93579000D02*
X107725000Y-93579000D01*
X107725000Y-89583000D01*
X114721000Y-89583000D01*
X114721000Y-93579000D01*
X114721000Y-93579000D01*
G37*
X114721000Y-93579000D02*
X107725000Y-93579000D01*
X107725000Y-89583000D01*
X114721000Y-89583000D01*
X114721000Y-93579000D01*
M02*
