G04 #@! TF.FileFunction,Paste,Top*
%FSLAX46Y46*%
G04 Gerber Fmt 4.6, Leading zero omitted, Abs format (unit mm)*
G04 Created by KiCad (PCBNEW 4.0.6) date Saturday, June 09, 2018 'PMt' 06:08:09 PM*
%MOMM*%
%LPD*%
G01*
G04 APERTURE LIST*
%ADD10C,0.100000*%
%ADD11R,1.250000X1.000000*%
%ADD12R,1.060000X0.650000*%
%ADD13R,1.000000X1.250000*%
%ADD14R,1.198880X1.198880*%
%ADD15R,0.900000X0.800000*%
%ADD16R,2.500000X1.100000*%
%ADD17R,0.500000X0.250000*%
%ADD18R,0.540000X0.480000*%
%ADD19R,1.250000X1.220000*%
%ADD20R,0.800000X0.750000*%
G04 APERTURE END LIST*
D10*
D11*
X112035554Y-89894834D03*
X112035554Y-87894834D03*
X114554000Y-89900000D03*
X114554000Y-87900000D03*
D12*
X108135554Y-89844834D03*
X108135554Y-88894834D03*
X108135554Y-87944834D03*
X105935554Y-87944834D03*
X105935554Y-89844834D03*
D11*
X102035554Y-89894834D03*
X102035554Y-87894834D03*
D10*
G36*
X120056698Y-79364378D02*
X119290653Y-78721591D01*
X120254834Y-77572524D01*
X121020879Y-78215311D01*
X120056698Y-79364378D01*
X120056698Y-79364378D01*
G37*
G36*
X117605356Y-77307458D02*
X116839311Y-76664671D01*
X117803492Y-75515604D01*
X118569537Y-76158391D01*
X117605356Y-77307458D01*
X117605356Y-77307458D01*
G37*
G36*
X116907038Y-83117996D02*
X116140993Y-82475209D01*
X117105174Y-81326142D01*
X117871219Y-81968929D01*
X116907038Y-83117996D01*
X116907038Y-83117996D01*
G37*
G36*
X114455696Y-81061076D02*
X113689651Y-80418289D01*
X114653832Y-79269222D01*
X115419877Y-79912009D01*
X114455696Y-81061076D01*
X114455696Y-81061076D01*
G37*
G36*
X128628643Y-97084393D02*
X128454995Y-96099585D01*
X129932207Y-95839113D01*
X130105855Y-96823921D01*
X128628643Y-97084393D01*
X128628643Y-97084393D01*
G37*
G36*
X128072969Y-93933009D02*
X127899321Y-92948201D01*
X129376533Y-92687729D01*
X129550181Y-93672537D01*
X128072969Y-93933009D01*
X128072969Y-93933009D01*
G37*
G36*
X123803085Y-97935269D02*
X123629437Y-96950461D01*
X125106649Y-96689989D01*
X125280297Y-97674797D01*
X123803085Y-97935269D01*
X123803085Y-97935269D01*
G37*
G36*
X123247411Y-94783885D02*
X123073763Y-93799077D01*
X124550975Y-93538605D01*
X124724623Y-94523413D01*
X123247411Y-94783885D01*
X123247411Y-94783885D01*
G37*
G36*
X123804929Y-116168654D02*
X124304929Y-115302628D01*
X125603967Y-116052628D01*
X125103967Y-116918654D01*
X123804929Y-116168654D01*
X123804929Y-116168654D01*
G37*
G36*
X125404929Y-113397372D02*
X125904929Y-112531346D01*
X127203967Y-113281346D01*
X126703967Y-114147372D01*
X125404929Y-113397372D01*
X125404929Y-113397372D01*
G37*
G36*
X119561405Y-113718654D02*
X120061405Y-112852628D01*
X121360443Y-113602628D01*
X120860443Y-114468654D01*
X119561405Y-113718654D01*
X119561405Y-113718654D01*
G37*
G36*
X121161405Y-110947372D02*
X121661405Y-110081346D01*
X122960443Y-110831346D01*
X122460443Y-111697372D01*
X121161405Y-110947372D01*
X121161405Y-110947372D01*
G37*
G36*
X107842624Y-127687421D02*
X108782316Y-127345400D01*
X109295346Y-128754939D01*
X108355654Y-129096960D01*
X107842624Y-127687421D01*
X107842624Y-127687421D01*
G37*
G36*
X110849641Y-126592957D02*
X111789333Y-126250936D01*
X112302363Y-127660475D01*
X111362671Y-128002496D01*
X110849641Y-126592957D01*
X110849641Y-126592957D01*
G37*
G36*
X106166725Y-123082927D02*
X107106417Y-122740906D01*
X107619447Y-124150445D01*
X106679755Y-124492466D01*
X106166725Y-123082927D01*
X106166725Y-123082927D01*
G37*
G36*
X109173742Y-121988463D02*
X110113434Y-121646442D01*
X110626464Y-123055981D01*
X109686772Y-123398002D01*
X109173742Y-121988463D01*
X109173742Y-121988463D01*
G37*
G36*
X88210667Y-126250936D02*
X89150359Y-126592957D01*
X88637329Y-128002496D01*
X87697637Y-127660475D01*
X88210667Y-126250936D01*
X88210667Y-126250936D01*
G37*
G36*
X91217684Y-127345400D02*
X92157376Y-127687421D01*
X91644346Y-129096960D01*
X90704654Y-128754939D01*
X91217684Y-127345400D01*
X91217684Y-127345400D01*
G37*
G36*
X89886566Y-121646442D02*
X90826258Y-121988463D01*
X90313228Y-123398002D01*
X89373536Y-123055981D01*
X89886566Y-121646442D01*
X89886566Y-121646442D01*
G37*
G36*
X92893583Y-122740906D02*
X93833275Y-123082927D01*
X93320245Y-124492466D01*
X92380553Y-124150445D01*
X92893583Y-122740906D01*
X92893583Y-122740906D01*
G37*
G36*
X74095071Y-112531346D02*
X74595071Y-113397372D01*
X73296033Y-114147372D01*
X72796033Y-113281346D01*
X74095071Y-112531346D01*
X74095071Y-112531346D01*
G37*
G36*
X75695071Y-115302628D02*
X76195071Y-116168654D01*
X74896033Y-116918654D01*
X74396033Y-116052628D01*
X75695071Y-115302628D01*
X75695071Y-115302628D01*
G37*
G36*
X78338595Y-110081346D02*
X78838595Y-110947372D01*
X77539557Y-111697372D01*
X77039557Y-110831346D01*
X78338595Y-110081346D01*
X78338595Y-110081346D01*
G37*
G36*
X79938595Y-112852628D02*
X80438595Y-113718654D01*
X79139557Y-114468654D01*
X78639557Y-113602628D01*
X79938595Y-112852628D01*
X79938595Y-112852628D01*
G37*
G36*
X72100679Y-92948201D02*
X71927031Y-93933009D01*
X70449819Y-93672537D01*
X70623467Y-92687729D01*
X72100679Y-92948201D01*
X72100679Y-92948201D01*
G37*
G36*
X71545005Y-96099585D02*
X71371357Y-97084393D01*
X69894145Y-96823921D01*
X70067793Y-95839113D01*
X71545005Y-96099585D01*
X71545005Y-96099585D01*
G37*
G36*
X76926237Y-93799077D02*
X76752589Y-94783885D01*
X75275377Y-94523413D01*
X75449025Y-93538605D01*
X76926237Y-93799077D01*
X76926237Y-93799077D01*
G37*
G36*
X76370563Y-96950461D02*
X76196915Y-97935269D01*
X74719703Y-97674797D01*
X74893351Y-96689989D01*
X76370563Y-96950461D01*
X76370563Y-96950461D01*
G37*
G36*
X83160689Y-76664671D02*
X82394644Y-77307458D01*
X81430463Y-76158391D01*
X82196508Y-75515604D01*
X83160689Y-76664671D01*
X83160689Y-76664671D01*
G37*
G36*
X80709347Y-78721591D02*
X79943302Y-79364378D01*
X78979121Y-78215311D01*
X79745166Y-77572524D01*
X80709347Y-78721591D01*
X80709347Y-78721591D01*
G37*
G36*
X86310349Y-80418289D02*
X85544304Y-81061076D01*
X84580123Y-79912009D01*
X85346168Y-79269222D01*
X86310349Y-80418289D01*
X86310349Y-80418289D01*
G37*
G36*
X83859007Y-82475209D02*
X83092962Y-83117996D01*
X82128781Y-81968929D01*
X82894826Y-81326142D01*
X83859007Y-82475209D01*
X83859007Y-82475209D01*
G37*
D11*
X102160000Y-111262000D03*
X102160000Y-109262000D03*
D13*
X90000000Y-85500000D03*
X88000000Y-85500000D03*
X90000000Y-83000000D03*
X88000000Y-83000000D03*
D10*
G36*
X122153840Y-88387313D02*
X121419109Y-87376042D01*
X122228126Y-86788257D01*
X122962857Y-87799528D01*
X122153840Y-88387313D01*
X122153840Y-88387313D01*
G37*
G36*
X123771874Y-87211743D02*
X123037143Y-86200472D01*
X123846160Y-85612687D01*
X124580891Y-86623958D01*
X123771874Y-87211743D01*
X123771874Y-87211743D01*
G37*
G36*
X115612687Y-119153840D02*
X116623958Y-118419109D01*
X117211743Y-119228126D01*
X116200472Y-119962857D01*
X115612687Y-119153840D01*
X115612687Y-119153840D01*
G37*
G36*
X116788257Y-120771874D02*
X117799528Y-120037143D01*
X118387313Y-120846160D01*
X117376042Y-121580891D01*
X116788257Y-120771874D01*
X116788257Y-120771874D01*
G37*
G36*
X83376042Y-118419109D02*
X84387313Y-119153840D01*
X83799528Y-119962857D01*
X82788257Y-119228126D01*
X83376042Y-118419109D01*
X83376042Y-118419109D01*
G37*
G36*
X82200472Y-120037143D02*
X83211743Y-120771874D01*
X82623958Y-121580891D01*
X81612687Y-120846160D01*
X82200472Y-120037143D01*
X82200472Y-120037143D01*
G37*
G36*
X78580891Y-87376042D02*
X77846160Y-88387313D01*
X77037143Y-87799528D01*
X77771874Y-86788257D01*
X78580891Y-87376042D01*
X78580891Y-87376042D01*
G37*
G36*
X76962857Y-86200472D02*
X76228126Y-87211743D01*
X75419109Y-86623958D01*
X76153840Y-85612687D01*
X76962857Y-86200472D01*
X76962857Y-86200472D01*
G37*
D14*
X112555020Y-107188000D03*
X110456980Y-107188000D03*
X99568000Y-135348980D03*
X99568000Y-137447020D03*
D10*
G36*
X62254006Y-99471173D02*
X63442827Y-99084902D01*
X63751844Y-100035959D01*
X62563023Y-100422230D01*
X62254006Y-99471173D01*
X62254006Y-99471173D01*
G37*
G36*
X62717532Y-100897757D02*
X63906353Y-100511486D01*
X64215370Y-101462543D01*
X63026549Y-101848814D01*
X62717532Y-100897757D01*
X62717532Y-100897757D01*
G37*
G36*
X76606094Y-76740367D02*
X75871363Y-75729096D01*
X76680380Y-75141311D01*
X77415111Y-76152582D01*
X76606094Y-76740367D01*
X76606094Y-76740367D01*
G37*
G36*
X77819620Y-75858689D02*
X77084889Y-74847418D01*
X77893906Y-74259633D01*
X78628637Y-75270904D01*
X77819620Y-75858689D01*
X77819620Y-75858689D01*
G37*
D15*
X88000000Y-89950000D03*
X88000000Y-91850000D03*
X90000000Y-90900000D03*
D10*
G36*
X114861746Y-136888130D02*
X114097625Y-135836408D01*
X115351602Y-134925340D01*
X116115723Y-135977062D01*
X114861746Y-136888130D01*
X114861746Y-136888130D01*
G37*
G36*
X112216713Y-133247553D02*
X111452592Y-132195831D01*
X112706569Y-131284763D01*
X113470690Y-132336485D01*
X112216713Y-133247553D01*
X112216713Y-133247553D01*
G37*
G36*
X118648398Y-128574660D02*
X117884277Y-127522938D01*
X119138254Y-126611870D01*
X119902375Y-127663592D01*
X118648398Y-128574660D01*
X118648398Y-128574660D01*
G37*
G36*
X121293431Y-132215237D02*
X120529310Y-131163515D01*
X121783287Y-130252447D01*
X122547408Y-131304169D01*
X121293431Y-132215237D01*
X121293431Y-132215237D01*
G37*
G36*
X76952592Y-131304169D02*
X77716713Y-130252447D01*
X78970690Y-131163515D01*
X78206569Y-132215237D01*
X76952592Y-131304169D01*
X76952592Y-131304169D01*
G37*
G36*
X79597625Y-127663592D02*
X80361746Y-126611870D01*
X81615723Y-127522938D01*
X80851602Y-128574660D01*
X79597625Y-127663592D01*
X79597625Y-127663592D01*
G37*
G36*
X86029310Y-132336485D02*
X86793431Y-131284763D01*
X88047408Y-132195831D01*
X87283287Y-133247553D01*
X86029310Y-132336485D01*
X86029310Y-132336485D01*
G37*
G36*
X83384277Y-135977062D02*
X84148398Y-134925340D01*
X85402375Y-135836408D01*
X84638254Y-136888130D01*
X83384277Y-135977062D01*
X83384277Y-135977062D01*
G37*
D12*
X106060000Y-109312000D03*
X106060000Y-110262000D03*
X106060000Y-111212000D03*
X108260000Y-111212000D03*
X108260000Y-109312000D03*
D16*
X92300000Y-69000000D03*
X92300000Y-71000000D03*
X92300000Y-73000000D03*
X92300000Y-75000000D03*
X92300000Y-77000000D03*
X92300000Y-79000000D03*
X92300000Y-81000000D03*
X92300000Y-83000000D03*
X107700000Y-83000000D03*
X107600000Y-81000000D03*
X107700000Y-79000000D03*
X107700000Y-77000000D03*
X107700000Y-75000000D03*
X107700000Y-73000000D03*
X107700000Y-71000000D03*
X107700000Y-69000000D03*
D11*
X112160000Y-111262000D03*
X112160000Y-109262000D03*
D13*
X88000000Y-87900000D03*
X90000000Y-87900000D03*
X106188000Y-107188000D03*
X108188000Y-107188000D03*
X101584000Y-132080000D03*
X99584000Y-132080000D03*
X103870000Y-107188000D03*
X101870000Y-107188000D03*
D11*
X86000000Y-89900000D03*
X86000000Y-91900000D03*
D13*
X112000000Y-78000000D03*
X110000000Y-78000000D03*
X88000000Y-73000000D03*
X90000000Y-73000000D03*
X112000000Y-73000000D03*
X110000000Y-73000000D03*
X112000000Y-75500000D03*
X110000000Y-75500000D03*
X110000000Y-82000000D03*
X112000000Y-82000000D03*
X88000000Y-75500000D03*
X90000000Y-75500000D03*
D10*
G36*
X74653840Y-80387313D02*
X73919109Y-79376042D01*
X74728126Y-78788257D01*
X75462857Y-79799528D01*
X74653840Y-80387313D01*
X74653840Y-80387313D01*
G37*
G36*
X76271874Y-79211743D02*
X75537143Y-78200472D01*
X76346160Y-77612687D01*
X77080891Y-78623958D01*
X76271874Y-79211743D01*
X76271874Y-79211743D01*
G37*
D13*
X112000000Y-70500000D03*
X110000000Y-70500000D03*
D10*
G36*
X72653840Y-77387313D02*
X71919109Y-76376042D01*
X72728126Y-75788257D01*
X73462857Y-76799528D01*
X72653840Y-77387313D01*
X72653840Y-77387313D01*
G37*
G36*
X74271874Y-76211743D02*
X73537143Y-75200472D01*
X74346160Y-74612687D01*
X75080891Y-75623958D01*
X74271874Y-76211743D01*
X74271874Y-76211743D01*
G37*
G36*
X73653840Y-78887313D02*
X72919109Y-77876042D01*
X73728126Y-77288257D01*
X74462857Y-78299528D01*
X73653840Y-78887313D01*
X73653840Y-78887313D01*
G37*
G36*
X75271874Y-77711743D02*
X74537143Y-76700472D01*
X75346160Y-76112687D01*
X76080891Y-77123958D01*
X75271874Y-77711743D01*
X75271874Y-77711743D01*
G37*
G36*
X60234625Y-100127308D02*
X61423446Y-99741037D01*
X61732463Y-100692094D01*
X60543642Y-101078365D01*
X60234625Y-100127308D01*
X60234625Y-100127308D01*
G37*
G36*
X60698151Y-101553892D02*
X61886972Y-101167621D01*
X62195989Y-102118678D01*
X61007168Y-102504949D01*
X60698151Y-101553892D01*
X60698151Y-101553892D01*
G37*
D17*
X70550000Y-105250000D03*
X70550000Y-105750000D03*
X70550000Y-106250000D03*
X70550000Y-106750000D03*
X72450000Y-106750000D03*
X72450000Y-106250000D03*
X72450000Y-105750000D03*
X72450000Y-105250000D03*
D18*
X71500000Y-106400000D03*
X71500000Y-105600000D03*
D19*
X103525000Y-132000000D03*
X106475000Y-132000000D03*
D11*
X97536000Y-128028000D03*
X97536000Y-129528000D03*
D20*
X69250000Y-103000000D03*
X70750000Y-103000000D03*
X73750000Y-103000000D03*
X72250000Y-103000000D03*
X73750000Y-104500000D03*
X75250000Y-104500000D03*
M02*
