G04 #@! TF.FileFunction,Legend,Top*
%FSLAX46Y46*%
G04 Gerber Fmt 4.6, Leading zero omitted, Abs format (unit mm)*
G04 Created by KiCad (PCBNEW 4.0.6) date Saturday, June 09, 2018 'PMt' 06:08:09 PM*
%MOMM*%
%LPD*%
G01*
G04 APERTURE LIST*
%ADD10C,0.100000*%
%ADD11C,0.150000*%
%ADD12C,0.250000*%
%ADD13C,0.120000*%
%ADD14C,0.152400*%
%ADD15C,3.100000*%
%ADD16C,6.100000*%
%ADD17R,1.650000X1.400000*%
%ADD18R,1.460000X1.050000*%
%ADD19C,2.250000*%
%ADD20R,1.400000X1.650000*%
%ADD21R,1.598880X1.598880*%
%ADD22R,1.600000X2.100000*%
%ADD23O,1.600000X2.100000*%
%ADD24R,1.300000X1.200000*%
%ADD25R,1.797000X1.797000*%
%ADD26C,1.797000*%
%ADD27R,2.900000X1.500000*%
%ADD28R,2.100000X2.100000*%
%ADD29O,2.100000X2.100000*%
%ADD30R,0.900000X0.650000*%
%ADD31R,1.650000X1.620000*%
%ADD32R,1.200000X1.150000*%
%ADD33R,2.250000X2.250000*%
G04 APERTURE END LIST*
D10*
D11*
X70315169Y-126232193D02*
X70442079Y-126151140D01*
X70509055Y-126144102D01*
X70613036Y-126167030D01*
X70724057Y-126256933D01*
X70768103Y-126353875D01*
X70775142Y-126420849D01*
X70752214Y-126524831D01*
X70512472Y-126820887D01*
X69735326Y-126191567D01*
X69945100Y-125932517D01*
X70042042Y-125888471D01*
X70109017Y-125881432D01*
X70212998Y-125904360D01*
X70287012Y-125964295D01*
X70331058Y-126061238D01*
X70338098Y-126128212D01*
X70315169Y-126232193D01*
X70105396Y-126491243D01*
X70944490Y-125455047D02*
X71071400Y-125373994D01*
X71138375Y-125366956D01*
X71242356Y-125389884D01*
X71353377Y-125479787D01*
X71397423Y-125576729D01*
X71404463Y-125643703D01*
X71381534Y-125747685D01*
X71141793Y-126043741D01*
X70364647Y-125414421D01*
X70574421Y-125155371D01*
X70671363Y-125111325D01*
X70738337Y-125104286D01*
X70842319Y-125127214D01*
X70916333Y-125187149D01*
X70960379Y-125284092D01*
X70967418Y-125351066D01*
X70944490Y-125455047D01*
X70734716Y-125714097D01*
X71771113Y-125266595D02*
X70993967Y-124637275D01*
X71758846Y-124827740D01*
X71413514Y-124119177D01*
X72190660Y-124748497D01*
D12*
X93935714Y-114531714D02*
X94107143Y-114588857D01*
X94392857Y-114588857D01*
X94507143Y-114531714D01*
X94564286Y-114474571D01*
X94621429Y-114360286D01*
X94621429Y-114246000D01*
X94564286Y-114131714D01*
X94507143Y-114074571D01*
X94392857Y-114017429D01*
X94164286Y-113960286D01*
X94050000Y-113903143D01*
X93992857Y-113846000D01*
X93935714Y-113731714D01*
X93935714Y-113617429D01*
X93992857Y-113503143D01*
X94050000Y-113446000D01*
X94164286Y-113388857D01*
X94450000Y-113388857D01*
X94621429Y-113446000D01*
X95135714Y-114588857D02*
X95135714Y-113388857D01*
X95592857Y-113388857D01*
X95707143Y-113446000D01*
X95764286Y-113503143D01*
X95821429Y-113617429D01*
X95821429Y-113788857D01*
X95764286Y-113903143D01*
X95707143Y-113960286D01*
X95592857Y-114017429D01*
X95135714Y-114017429D01*
X96564286Y-113388857D02*
X96792857Y-113388857D01*
X96907143Y-113446000D01*
X97021429Y-113560286D01*
X97078571Y-113788857D01*
X97078571Y-114188857D01*
X97021429Y-114417429D01*
X96907143Y-114531714D01*
X96792857Y-114588857D01*
X96564286Y-114588857D01*
X96450000Y-114531714D01*
X96335714Y-114417429D01*
X96278571Y-114188857D01*
X96278571Y-113788857D01*
X96335714Y-113560286D01*
X96450000Y-113446000D01*
X96564286Y-113388857D01*
X98278572Y-114588857D02*
X97878572Y-114017429D01*
X97592857Y-114588857D02*
X97592857Y-113388857D01*
X98050000Y-113388857D01*
X98164286Y-113446000D01*
X98221429Y-113503143D01*
X98278572Y-113617429D01*
X98278572Y-113788857D01*
X98221429Y-113903143D01*
X98164286Y-113960286D01*
X98050000Y-114017429D01*
X97592857Y-114017429D01*
X98792857Y-113960286D02*
X99192857Y-113960286D01*
X99364286Y-114588857D02*
X98792857Y-114588857D01*
X98792857Y-113388857D01*
X99364286Y-113388857D01*
X100678572Y-113788857D02*
X100964286Y-114588857D01*
X101250000Y-113788857D01*
X102335715Y-114588857D02*
X101650000Y-114588857D01*
X101992858Y-114588857D02*
X101992858Y-113388857D01*
X101878572Y-113560286D01*
X101764286Y-113674571D01*
X101650000Y-113731714D01*
X102850000Y-114474571D02*
X102907143Y-114531714D01*
X102850000Y-114588857D01*
X102792857Y-114531714D01*
X102850000Y-114474571D01*
X102850000Y-114588857D01*
X103650001Y-113388857D02*
X103764286Y-113388857D01*
X103878572Y-113446000D01*
X103935715Y-113503143D01*
X103992858Y-113617429D01*
X104050001Y-113846000D01*
X104050001Y-114131714D01*
X103992858Y-114360286D01*
X103935715Y-114474571D01*
X103878572Y-114531714D01*
X103764286Y-114588857D01*
X103650001Y-114588857D01*
X103535715Y-114531714D01*
X103478572Y-114474571D01*
X103421429Y-114360286D01*
X103364286Y-114131714D01*
X103364286Y-113846000D01*
X103421429Y-113617429D01*
X103478572Y-113503143D01*
X103535715Y-113446000D01*
X103650001Y-113388857D01*
X104564286Y-114474571D02*
X104621429Y-114531714D01*
X104564286Y-114588857D01*
X104507143Y-114531714D01*
X104564286Y-114474571D01*
X104564286Y-114588857D01*
X105364287Y-113388857D02*
X105478572Y-113388857D01*
X105592858Y-113446000D01*
X105650001Y-113503143D01*
X105707144Y-113617429D01*
X105764287Y-113846000D01*
X105764287Y-114131714D01*
X105707144Y-114360286D01*
X105650001Y-114474571D01*
X105592858Y-114531714D01*
X105478572Y-114588857D01*
X105364287Y-114588857D01*
X105250001Y-114531714D01*
X105192858Y-114474571D01*
X105135715Y-114360286D01*
X105078572Y-114131714D01*
X105078572Y-113846000D01*
X105135715Y-113617429D01*
X105192858Y-113503143D01*
X105250001Y-113446000D01*
X105364287Y-113388857D01*
D11*
X121665150Y-76734843D02*
X121427161Y-77340752D01*
X122004874Y-77040731D01*
X122089919Y-76604685D02*
X122497770Y-76151720D01*
X122891809Y-76003143D02*
X123501333Y-76003143D01*
X124263238Y-76307905D02*
X123882285Y-76307905D01*
X123882285Y-75507905D01*
X124529904Y-75888857D02*
X124796571Y-75888857D01*
X124910857Y-76307905D02*
X124529904Y-76307905D01*
X124529904Y-75507905D01*
X124910857Y-75507905D01*
X125253714Y-76307905D02*
X125253714Y-75507905D01*
X125444190Y-75507905D01*
X125558476Y-75546000D01*
X125634667Y-75622190D01*
X125672762Y-75698381D01*
X125710857Y-75850762D01*
X125710857Y-75965048D01*
X125672762Y-76117429D01*
X125634667Y-76193619D01*
X125558476Y-76269810D01*
X125444190Y-76307905D01*
X125253714Y-76307905D01*
X126815619Y-75507905D02*
X126891810Y-75507905D01*
X126968000Y-75546000D01*
X127006095Y-75584095D01*
X127044191Y-75660286D01*
X127082286Y-75812667D01*
X127082286Y-76003143D01*
X127044191Y-76155524D01*
X127006095Y-76231714D01*
X126968000Y-76269810D01*
X126891810Y-76307905D01*
X126815619Y-76307905D01*
X126739429Y-76269810D01*
X126701333Y-76231714D01*
X126663238Y-76155524D01*
X126625143Y-76003143D01*
X126625143Y-75812667D01*
X126663238Y-75660286D01*
X126701333Y-75584095D01*
X126739429Y-75546000D01*
X126815619Y-75507905D01*
X76159096Y-127812296D02*
X76169321Y-127231120D01*
X75696800Y-127476418D02*
X76284586Y-126667401D01*
X76592783Y-126891320D01*
X76641843Y-126985824D01*
X76652377Y-127052338D01*
X76634922Y-127157377D01*
X76550953Y-127272951D01*
X76456449Y-127322010D01*
X76389935Y-127332545D01*
X76284896Y-127315090D01*
X75976698Y-127091172D01*
X76813705Y-127640432D02*
X77083378Y-127836361D01*
X76891064Y-128344102D02*
X76505817Y-128064203D01*
X77093603Y-127255187D01*
X77478849Y-127535085D01*
X77227250Y-128529495D02*
X77314834Y-128651989D01*
X77507458Y-128791938D01*
X77612497Y-128809393D01*
X77679011Y-128798858D01*
X77773515Y-128749799D01*
X77829495Y-128672750D01*
X77846950Y-128567711D01*
X77836415Y-128501196D01*
X77787356Y-128406691D01*
X77661247Y-128256207D01*
X77612187Y-128161703D01*
X77601653Y-128095189D01*
X77619107Y-127990150D01*
X77675087Y-127913101D01*
X77769591Y-127864041D01*
X77836105Y-127853507D01*
X77941144Y-127870962D01*
X78133768Y-128010911D01*
X78221352Y-128133405D01*
X78316165Y-128732034D02*
X78585838Y-128927962D01*
X78393524Y-129435703D02*
X78008278Y-129155805D01*
X78596063Y-128346788D01*
X78981310Y-128626686D01*
X79212457Y-128794624D02*
X79674753Y-129130502D01*
X78855819Y-129771580D02*
X79443605Y-128962563D01*
X120557604Y-129131522D02*
X120701167Y-129086077D01*
X120767682Y-129096613D01*
X120862186Y-129145672D01*
X120946156Y-129261246D01*
X120963611Y-129366285D01*
X120953076Y-129432799D01*
X120904016Y-129527303D01*
X120595819Y-129751222D01*
X120008034Y-128942205D01*
X120277706Y-128746276D01*
X120382745Y-128728821D01*
X120449260Y-128739356D01*
X120543764Y-128788416D01*
X120599743Y-128865465D01*
X120617198Y-128970504D01*
X120606663Y-129037018D01*
X120557604Y-129131522D01*
X120287931Y-129327451D01*
X120971149Y-128242461D02*
X121125248Y-128130501D01*
X121230287Y-128113046D01*
X121363316Y-128134116D01*
X121513799Y-128260225D01*
X121709728Y-128529897D01*
X121783162Y-128711986D01*
X121762093Y-128845014D01*
X121713033Y-128939518D01*
X121558934Y-129051478D01*
X121453895Y-129068933D01*
X121320867Y-129047863D01*
X121170383Y-128921754D01*
X120974454Y-128652082D01*
X120901020Y-128469994D01*
X120922089Y-128336965D01*
X120971149Y-128242461D01*
X121818690Y-127626686D02*
X121972790Y-127514726D01*
X122077828Y-127497271D01*
X122210857Y-127518341D01*
X122361341Y-127644450D01*
X122557270Y-127914122D01*
X122630704Y-128096211D01*
X122609634Y-128229239D01*
X122560575Y-128323743D01*
X122406476Y-128435703D01*
X122301437Y-128453158D01*
X122168408Y-128432088D01*
X122017925Y-128305979D01*
X121821996Y-128036307D01*
X121748561Y-127854219D01*
X121769631Y-127721190D01*
X121818690Y-127626686D01*
X122396560Y-127206839D02*
X122858856Y-126870962D01*
X123215493Y-127847918D02*
X122627707Y-127038901D01*
X124101560Y-127204152D02*
X123716313Y-127484050D01*
X123128528Y-126675033D01*
X123937545Y-126087248D02*
X124091644Y-125975288D01*
X124196683Y-125957834D01*
X124329711Y-125978903D01*
X124480195Y-126105012D01*
X124676124Y-126374685D01*
X124749558Y-126556773D01*
X124728489Y-126689801D01*
X124679429Y-126784305D01*
X124525330Y-126896265D01*
X124420291Y-126913720D01*
X124287262Y-126892650D01*
X124136779Y-126766542D01*
X123940850Y-126496869D01*
X123867416Y-126314781D01*
X123888485Y-126181752D01*
X123937545Y-126087248D01*
X125012310Y-126189291D02*
X125397557Y-125909393D01*
X125103200Y-126476418D02*
X124785086Y-125471473D01*
X125642544Y-126084561D01*
X125912217Y-125888633D02*
X125324431Y-125079616D01*
X125517054Y-124939667D01*
X125660619Y-124894222D01*
X125793647Y-124915292D01*
X125888151Y-124964351D01*
X126038635Y-125090460D01*
X126122605Y-125206034D01*
X126196039Y-125388122D01*
X126213494Y-125493161D01*
X126192424Y-125626190D01*
X126104839Y-125748684D01*
X125912217Y-125888633D01*
X115751361Y-107545583D02*
X116279224Y-107850345D01*
X116890750Y-108467341D02*
X116838711Y-108481285D01*
X116720689Y-108457133D01*
X116654707Y-108419038D01*
X116574779Y-108328904D01*
X116546892Y-108224825D01*
X116551995Y-108139795D01*
X116595195Y-107988782D01*
X116652338Y-107889807D01*
X116761519Y-107776889D01*
X116832606Y-107729953D01*
X116936684Y-107702066D01*
X117054707Y-107726218D01*
X117120689Y-107764313D01*
X117200616Y-107854447D01*
X117214560Y-107906486D01*
X117149578Y-108704752D02*
X117549578Y-108011932D01*
X117359102Y-108341846D02*
X117754999Y-108570418D01*
X117545475Y-108933324D02*
X117945475Y-108240504D01*
X118271287Y-109352371D02*
X118230823Y-108889123D01*
X117875389Y-109123800D02*
X118275389Y-108430980D01*
X118539321Y-108583361D01*
X118586257Y-108654447D01*
X118600201Y-108706486D01*
X118595096Y-108791517D01*
X118537954Y-108890491D01*
X118466867Y-108937426D01*
X118414828Y-108951370D01*
X118329797Y-108946266D01*
X118065866Y-108793885D01*
X119312068Y-109073495D02*
X119265132Y-109002408D01*
X119166159Y-108945266D01*
X119048137Y-108921114D01*
X118944058Y-108949001D01*
X118872972Y-108995937D01*
X118763790Y-109108855D01*
X118706647Y-109207830D01*
X118663448Y-109358843D01*
X118658344Y-109443873D01*
X118686232Y-109547952D01*
X118766159Y-109638086D01*
X118832141Y-109676181D01*
X118950163Y-109700333D01*
X119002203Y-109686388D01*
X119135536Y-109455449D01*
X119003570Y-109379258D01*
X114355524Y-107270571D02*
X113746000Y-107499143D01*
X114355524Y-107727714D01*
X114736476Y-107499143D02*
X115346000Y-107499143D01*
X99329905Y-138644381D02*
X99329905Y-138882476D01*
X99091810Y-138787238D02*
X99329905Y-138882476D01*
X99568001Y-138787238D01*
X99187048Y-139072952D02*
X99329905Y-138882476D01*
X99472763Y-139072952D01*
X99948953Y-139549143D02*
X99996572Y-139596762D01*
X99948953Y-139644381D01*
X99901334Y-139596762D01*
X99948953Y-139549143D01*
X99948953Y-139644381D01*
X99948953Y-139263429D02*
X99901334Y-138692000D01*
X99948953Y-138644381D01*
X99996572Y-138692000D01*
X99948953Y-139263429D01*
X99948953Y-138644381D01*
X87617429Y-139249143D02*
X88226953Y-139249143D01*
X87922191Y-139553905D02*
X87922191Y-138944381D01*
X88988858Y-138753905D02*
X88607905Y-138753905D01*
X88569810Y-139134857D01*
X88607905Y-139096762D01*
X88684096Y-139058667D01*
X88874572Y-139058667D01*
X88950762Y-139096762D01*
X88988858Y-139134857D01*
X89026953Y-139211048D01*
X89026953Y-139401524D01*
X88988858Y-139477714D01*
X88950762Y-139515810D01*
X88874572Y-139553905D01*
X88684096Y-139553905D01*
X88607905Y-139515810D01*
X88569810Y-139477714D01*
X89255524Y-138753905D02*
X89522191Y-139553905D01*
X89788858Y-138753905D01*
X104063810Y-138661905D02*
X104216191Y-138661905D01*
X104292382Y-138700000D01*
X104368572Y-138776190D01*
X104406667Y-138928571D01*
X104406667Y-139195238D01*
X104368572Y-139347619D01*
X104292382Y-139423810D01*
X104216191Y-139461905D01*
X104063810Y-139461905D01*
X103987620Y-139423810D01*
X103911429Y-139347619D01*
X103873334Y-139195238D01*
X103873334Y-138928571D01*
X103911429Y-138776190D01*
X103987620Y-138700000D01*
X104063810Y-138661905D01*
X106934000Y-139461905D02*
X106934000Y-138661905D01*
X131902865Y-109654564D02*
X131142019Y-109407351D01*
X131320429Y-109104818D02*
X131295971Y-109056816D01*
X131283284Y-108972582D01*
X131342145Y-108791428D01*
X131401919Y-108730739D01*
X131449922Y-108706280D01*
X131534156Y-108693594D01*
X131606617Y-108717138D01*
X131703537Y-108788685D01*
X131997041Y-109364718D01*
X132150078Y-108893719D01*
X132324830Y-108109330D02*
X132349289Y-108157332D01*
X132350204Y-108277797D01*
X132326660Y-108350258D01*
X132255113Y-108447178D01*
X132159106Y-108496096D01*
X132074873Y-108508782D01*
X131918179Y-108497925D01*
X131809486Y-108462608D01*
X131676335Y-108379289D01*
X131615645Y-108319515D01*
X131566729Y-108223509D01*
X131565814Y-108103044D01*
X131589358Y-108030583D01*
X131660905Y-107933663D01*
X131708908Y-107909204D01*
X135341142Y-115618808D02*
X135494179Y-115147808D01*
X135701620Y-115495600D01*
X135736937Y-115386908D01*
X135796711Y-115326219D01*
X135844714Y-115301759D01*
X135928948Y-115289073D01*
X136110101Y-115347933D01*
X136170790Y-115407708D01*
X136195250Y-115455712D01*
X136207936Y-115539945D01*
X136137303Y-115757330D01*
X136077529Y-115818019D01*
X136029525Y-115842477D01*
X135830198Y-114976597D02*
X136396289Y-114960253D01*
X135947919Y-114614290D01*
X135764937Y-114314501D02*
X135917974Y-113843502D01*
X136125415Y-114191294D01*
X136160732Y-114082601D01*
X136220506Y-114021912D01*
X136268509Y-113997453D01*
X136352743Y-113984767D01*
X136533896Y-114043627D01*
X136594585Y-114103401D01*
X136619044Y-114151405D01*
X136631731Y-114235638D01*
X136561098Y-114453023D01*
X136501324Y-114513712D01*
X136453320Y-114538170D01*
X136925119Y-113209406D02*
X136996665Y-113112485D01*
X137055526Y-112931332D01*
X137042839Y-112847099D01*
X137018380Y-112799095D01*
X136957691Y-112739321D01*
X136885229Y-112715776D01*
X136800996Y-112728463D01*
X136752993Y-112752922D01*
X136693218Y-112813611D01*
X136609899Y-112946762D01*
X136550124Y-113007452D01*
X136502122Y-113031910D01*
X136417888Y-113044596D01*
X136345427Y-113021052D01*
X136284737Y-112961278D01*
X136260278Y-112913275D01*
X136247592Y-112829041D01*
X136306453Y-112647888D01*
X136377999Y-112550967D01*
X137208563Y-112460332D02*
X136447718Y-112213119D01*
X136506578Y-112031965D01*
X136578125Y-111935045D01*
X136674130Y-111886127D01*
X136758364Y-111873441D01*
X136915059Y-111884299D01*
X137023751Y-111919615D01*
X137156902Y-112002934D01*
X137217591Y-112062708D01*
X137266509Y-112158715D01*
X137267423Y-112279179D01*
X137208563Y-112460332D01*
X137226619Y-111665085D02*
X137344340Y-111302778D01*
X137420460Y-111808180D02*
X136742019Y-111307351D01*
X137585269Y-111300949D01*
X137260905Y-109833663D02*
X137201130Y-109894353D01*
X137165814Y-110003044D01*
X137166729Y-110123509D01*
X137215645Y-110219515D01*
X137276335Y-110279289D01*
X137409486Y-110362608D01*
X137518179Y-110397925D01*
X137674873Y-110408782D01*
X137759106Y-110396096D01*
X137855113Y-110347178D01*
X137926660Y-110250258D01*
X137950204Y-110177797D01*
X137949289Y-110057332D01*
X137924830Y-110009330D01*
X137671215Y-109926925D01*
X137624127Y-110071848D01*
X138103240Y-109706797D02*
X137342395Y-109459584D01*
X138244505Y-109272029D01*
X137483660Y-109024815D01*
X138362226Y-108909722D02*
X137601381Y-108662508D01*
X137660241Y-108481355D01*
X137731788Y-108384434D01*
X137827793Y-108335516D01*
X137912027Y-108322830D01*
X138068722Y-108333688D01*
X138177415Y-108369004D01*
X138310566Y-108452323D01*
X138371255Y-108512098D01*
X138420172Y-108608104D01*
X138421086Y-108728568D01*
X138362226Y-108909722D01*
X138749790Y-107593643D02*
X138821337Y-107496723D01*
X138880198Y-107315569D01*
X138867511Y-107231336D01*
X138843052Y-107183333D01*
X138782363Y-107123558D01*
X138709901Y-107100014D01*
X138625668Y-107112700D01*
X138577665Y-107137160D01*
X138517890Y-107197848D01*
X138434571Y-107330999D01*
X138374796Y-107391689D01*
X138326794Y-107416148D01*
X138242560Y-107428834D01*
X138170099Y-107405290D01*
X138109409Y-107345515D01*
X138084950Y-107297513D01*
X138072264Y-107213279D01*
X138131124Y-107032125D01*
X138202671Y-106935205D01*
X139102038Y-106386257D02*
X139126497Y-106434260D01*
X139127411Y-106554724D01*
X139103867Y-106627185D01*
X139032320Y-106724106D01*
X138936314Y-106773023D01*
X138852081Y-106785710D01*
X138695386Y-106774852D01*
X138586694Y-106739536D01*
X138453543Y-106656217D01*
X138392853Y-106596442D01*
X138343936Y-106500436D01*
X138343022Y-106379972D01*
X138366566Y-106307511D01*
X138438113Y-106210590D01*
X138486115Y-106186132D01*
X139398169Y-105721417D02*
X139280448Y-106083725D01*
X138519603Y-105836511D01*
X130850523Y-88933449D02*
X130849609Y-89053914D01*
X130908469Y-89235067D01*
X130968244Y-89295756D01*
X131016247Y-89320215D01*
X131100480Y-89332902D01*
X131172942Y-89309358D01*
X131233631Y-89249583D01*
X131258089Y-89201580D01*
X131270777Y-89117346D01*
X131259919Y-88960651D01*
X131272605Y-88876417D01*
X131297064Y-88828415D01*
X131357754Y-88768640D01*
X131430215Y-88745096D01*
X131514449Y-88757782D01*
X131562451Y-88782241D01*
X131622226Y-88842931D01*
X131681086Y-89024084D01*
X131680172Y-89144549D01*
X131460044Y-89576574D02*
X131542449Y-89830189D01*
X131179227Y-90068374D02*
X131061506Y-89706067D01*
X131822351Y-89458853D01*
X131940072Y-89821161D01*
X131426441Y-90829220D02*
X131706344Y-90457883D01*
X131285176Y-90394451D02*
X132046021Y-90147237D01*
X132140197Y-90437083D01*
X132127511Y-90521317D01*
X132103053Y-90569320D01*
X132042363Y-90629094D01*
X131933671Y-90664410D01*
X131849437Y-90651724D01*
X131801435Y-90627266D01*
X131741660Y-90566576D01*
X131647483Y-90276730D01*
X132257918Y-90799390D02*
X131579477Y-91300219D01*
X132422727Y-91306621D01*
X132552220Y-91705158D02*
X132599308Y-91850081D01*
X132586622Y-91934315D01*
X132537705Y-92030320D01*
X132404554Y-92113639D01*
X132150939Y-92196044D01*
X131994244Y-92206901D01*
X131898238Y-92157985D01*
X131838463Y-92097295D01*
X131791375Y-91952372D01*
X131804061Y-91868139D01*
X131852979Y-91772133D01*
X131986130Y-91688814D01*
X132239745Y-91606409D01*
X132396440Y-91595551D01*
X132492445Y-91644469D01*
X132552220Y-91705158D01*
X135325626Y-83825724D02*
X136086471Y-83578511D01*
X136145332Y-83759664D01*
X136144417Y-83880129D01*
X136095501Y-83976135D01*
X136034811Y-84035910D01*
X135901660Y-84119228D01*
X135792967Y-84154545D01*
X135636272Y-84165402D01*
X135552039Y-84152716D01*
X135456033Y-84103798D01*
X135384486Y-84006878D01*
X135325626Y-83825724D01*
X135778453Y-84479707D02*
X135896173Y-84842013D01*
X135537523Y-84477877D02*
X136380773Y-84484279D01*
X135702333Y-84985108D01*
X136510266Y-84882816D02*
X136651531Y-85317585D01*
X135820053Y-85347415D02*
X136580898Y-85100201D01*
X136178703Y-85711551D02*
X136296424Y-86073858D01*
X135937774Y-85709722D02*
X136781024Y-85716124D01*
X136102583Y-86216953D01*
X137098870Y-86694353D02*
X136420429Y-87195182D01*
X137263679Y-87201583D01*
X136585238Y-87702412D02*
X137346083Y-87455198D01*
X136702959Y-88064718D02*
X137463804Y-87817505D01*
X136844224Y-88499487D01*
X137605069Y-88252274D01*
X138004405Y-89604583D02*
X138017091Y-89520349D01*
X137981775Y-89411657D01*
X137910229Y-89314737D01*
X137814223Y-89265819D01*
X137729989Y-89253133D01*
X137573294Y-89263990D01*
X137464602Y-89299307D01*
X137331451Y-89382626D01*
X137270762Y-89442400D01*
X137221844Y-89538406D01*
X137220930Y-89658871D01*
X137244474Y-89731332D01*
X137316021Y-89828252D01*
X137364024Y-89852710D01*
X137617639Y-89770306D01*
X137570551Y-89625383D01*
X137397511Y-90202331D02*
X138158356Y-89955117D01*
X137538776Y-90637100D01*
X138299621Y-90389886D01*
X137656497Y-90999407D02*
X138417342Y-90752193D01*
X138476202Y-90933347D01*
X138475288Y-91053811D01*
X138426371Y-91149817D01*
X138365681Y-91209592D01*
X138232531Y-91292911D01*
X138123838Y-91328227D01*
X137967143Y-91339085D01*
X137882910Y-91326398D01*
X137786904Y-91277481D01*
X137715357Y-91180560D01*
X137656497Y-90999407D01*
X118300064Y-72539609D02*
X117991866Y-72315691D01*
X118462095Y-71668477D01*
X118762111Y-72357334D02*
X118977850Y-72514077D01*
X118823999Y-72920270D02*
X118515801Y-72696351D01*
X118986029Y-72049138D01*
X119294227Y-72273056D01*
X119101376Y-73121796D02*
X119571604Y-72474583D01*
X119725702Y-72586542D01*
X119795770Y-72684537D01*
X119812626Y-72790960D01*
X119798662Y-72874991D01*
X119739914Y-73020662D01*
X119672739Y-73113121D01*
X119552352Y-73214008D01*
X119476749Y-73253255D01*
X119370325Y-73270111D01*
X119255474Y-73233755D01*
X119101376Y-73121796D01*
X120835212Y-73392647D02*
X120958491Y-73482215D01*
X120997739Y-73557818D01*
X121014594Y-73664240D01*
X120955847Y-73809911D01*
X120799104Y-74025649D01*
X120678717Y-74126536D01*
X120572294Y-74143393D01*
X120488262Y-74129428D01*
X120364984Y-74039861D01*
X120325736Y-73964258D01*
X120308880Y-73857834D01*
X120367628Y-73712164D01*
X120524371Y-73496426D01*
X120644758Y-73395539D01*
X120751181Y-73378684D01*
X120835212Y-73392647D01*
X121389966Y-73795700D02*
X121009305Y-74319635D01*
X120995341Y-74403665D01*
X121003769Y-74456878D01*
X121043017Y-74532481D01*
X121166295Y-74622048D01*
X121250327Y-74636013D01*
X121303539Y-74627584D01*
X121379142Y-74588337D01*
X121759802Y-74064402D01*
X121975540Y-74221144D02*
X122345376Y-74489846D01*
X121690230Y-75002709D02*
X122160458Y-74355495D01*
X119012913Y-64824968D02*
X119136192Y-64914535D01*
X119175440Y-64990139D01*
X119192296Y-65096561D01*
X119133548Y-65242232D01*
X118976805Y-65457970D01*
X118856418Y-65558857D01*
X118749995Y-65575713D01*
X118665964Y-65561749D01*
X118542685Y-65472182D01*
X118503438Y-65396579D01*
X118486582Y-65290155D01*
X118545330Y-65144484D01*
X118702073Y-64928746D01*
X118822459Y-64827859D01*
X118928882Y-64811004D01*
X119012913Y-64824968D01*
X119567667Y-65228021D02*
X119187007Y-65751955D01*
X119173043Y-65835986D01*
X119181471Y-65889199D01*
X119220718Y-65964801D01*
X119343997Y-66054369D01*
X119428028Y-66068333D01*
X119481240Y-66059905D01*
X119556843Y-66020657D01*
X119937504Y-65496722D01*
X120153241Y-65653465D02*
X120523078Y-65922167D01*
X119867932Y-66435030D02*
X120338160Y-65787816D01*
X121139472Y-66370003D02*
X120884982Y-67173960D01*
X121570948Y-66683489D01*
X121117576Y-67437125D02*
X121610691Y-67795394D01*
X122271621Y-67663440D02*
X122341688Y-67761435D01*
X122350116Y-67814647D01*
X122336152Y-67898678D01*
X122268976Y-67991137D01*
X122193373Y-68030385D01*
X122140162Y-68038813D01*
X122056130Y-68024849D01*
X121809572Y-67845714D01*
X122279801Y-67198501D01*
X122495539Y-67355244D01*
X122534786Y-67430846D01*
X122543215Y-67484058D01*
X122529250Y-67568090D01*
X122484467Y-67629729D01*
X122408864Y-67668977D01*
X122355652Y-67677404D01*
X122271621Y-67663440D01*
X122055883Y-67506697D01*
X122560318Y-68108632D02*
X122868514Y-68332550D01*
X122364327Y-68248767D02*
X123050293Y-67758296D01*
X122795803Y-68562253D01*
X123389309Y-68004606D02*
X123759146Y-68273308D01*
X123104000Y-68786171D02*
X123574228Y-68138957D01*
X123882424Y-68362875D02*
X124252261Y-68631577D01*
X123597115Y-69144440D02*
X124067343Y-68497226D01*
X125277740Y-69423719D02*
X125238491Y-69348115D01*
X125146033Y-69280940D01*
X125031182Y-69244584D01*
X124924759Y-69261439D01*
X124849155Y-69300687D01*
X124728769Y-69401575D01*
X124661593Y-69494034D01*
X124602845Y-69639704D01*
X124588881Y-69723735D01*
X124605737Y-69830159D01*
X124675805Y-69928154D01*
X124737444Y-69972937D01*
X124852295Y-70009293D01*
X124905507Y-70000865D01*
X125062249Y-69785127D01*
X124938970Y-69695560D01*
X125138100Y-70264031D02*
X125608328Y-69616817D01*
X125507936Y-70532733D01*
X125978164Y-69885519D01*
X125816133Y-70756651D02*
X126286361Y-70109437D01*
X126440459Y-70221396D01*
X126510527Y-70319391D01*
X126527383Y-70425814D01*
X126513419Y-70509846D01*
X126454671Y-70655516D01*
X126387496Y-70747976D01*
X126267109Y-70848863D01*
X126191506Y-70888110D01*
X126085082Y-70904966D01*
X125970231Y-70868610D01*
X125816133Y-70756651D01*
X77286739Y-77424124D02*
X77401590Y-77387768D01*
X77454802Y-77396197D01*
X77530405Y-77435444D01*
X77597580Y-77527903D01*
X77611544Y-77611934D01*
X77603117Y-77665146D01*
X77563869Y-77740749D01*
X77317311Y-77919884D01*
X76847083Y-77272670D01*
X77062821Y-77115928D01*
X77146852Y-77101964D01*
X77200064Y-77110391D01*
X77275667Y-77149639D01*
X77320451Y-77211278D01*
X77334415Y-77295310D01*
X77325987Y-77348521D01*
X77286739Y-77424124D01*
X77071001Y-77580867D01*
X77799354Y-77287129D02*
X78107551Y-77063211D01*
X77872066Y-77516832D02*
X77617576Y-76712875D01*
X78303542Y-77203346D01*
X77956592Y-76466565D02*
X78326428Y-76197863D01*
X78611738Y-76979428D02*
X78141510Y-76332214D01*
X78903079Y-76861932D02*
X79396195Y-76503663D01*
X79452299Y-76321637D02*
X79567150Y-76285281D01*
X79721248Y-76173322D01*
X79760495Y-76097719D01*
X79768923Y-76044507D01*
X79754959Y-75960476D01*
X79710175Y-75898836D01*
X79634573Y-75859589D01*
X79581361Y-75851161D01*
X79497329Y-75865124D01*
X79351659Y-75923872D01*
X79267627Y-75937837D01*
X79214416Y-75929409D01*
X79138813Y-75890161D01*
X79094029Y-75828522D01*
X79080065Y-75744490D01*
X79088493Y-75691279D01*
X79127741Y-75615676D01*
X79281839Y-75503717D01*
X79396690Y-75467361D01*
X80121904Y-75882228D02*
X79651676Y-75235015D01*
X80491740Y-75613526D01*
X80021512Y-74966313D01*
X80746726Y-75381181D02*
X80861577Y-75344825D01*
X81015675Y-75232866D01*
X81054922Y-75157263D01*
X81063350Y-75104050D01*
X81049387Y-75020019D01*
X81004603Y-74958380D01*
X80929000Y-74919132D01*
X80875788Y-74910705D01*
X80791756Y-74924668D01*
X80646086Y-74983416D01*
X80562054Y-74997380D01*
X80508843Y-74988953D01*
X80433240Y-74949704D01*
X80388457Y-74888065D01*
X80374492Y-74804034D01*
X80382920Y-74750823D01*
X80422168Y-74675219D01*
X80576266Y-74563260D01*
X80691117Y-74526904D01*
X74631409Y-69940876D02*
X74161181Y-69293662D01*
X74939605Y-69716958D02*
X74469377Y-69069744D01*
X75309442Y-69448256D01*
X74839214Y-68801042D01*
X75578887Y-68263638D02*
X75979542Y-67972545D01*
X75942939Y-68375845D01*
X76035398Y-68308670D01*
X76119429Y-68294706D01*
X76172641Y-68303133D01*
X76248244Y-68342381D01*
X76360203Y-68496480D01*
X76374167Y-68580510D01*
X76365739Y-68633723D01*
X76326492Y-68709326D01*
X76141573Y-68843677D01*
X76057543Y-68857641D01*
X76004331Y-68849212D01*
X76352023Y-68031539D02*
X76819607Y-68351057D01*
X76660220Y-67807621D01*
X76688396Y-67457533D02*
X77089052Y-67166439D01*
X77052448Y-67569740D01*
X77144908Y-67502564D01*
X77228938Y-67488600D01*
X77282150Y-67497027D01*
X77357754Y-67536276D01*
X77469713Y-67690374D01*
X77483677Y-67774405D01*
X77475249Y-67827617D01*
X77436001Y-67903220D01*
X77251083Y-68037571D01*
X77167052Y-68051535D01*
X77113840Y-68043106D01*
X78220953Y-66391153D02*
X78136921Y-66405117D01*
X78044463Y-66472292D01*
X77974395Y-66570287D01*
X77957539Y-66676710D01*
X77971503Y-66760742D01*
X78030251Y-66906412D01*
X78097427Y-66998872D01*
X78217813Y-67099759D01*
X78293416Y-67139006D01*
X78399840Y-67155862D01*
X78514691Y-67119506D01*
X78576330Y-67074723D01*
X78646398Y-66976727D01*
X78654825Y-66923515D01*
X78498083Y-66707778D01*
X78374804Y-66797345D01*
X78976986Y-66783629D02*
X78506758Y-66136415D01*
X79346823Y-66514927D01*
X78876594Y-65867713D01*
X79655019Y-66291009D02*
X79184791Y-65643796D01*
X79338889Y-65531837D01*
X79453740Y-65495480D01*
X79560163Y-65512335D01*
X79635767Y-65551584D01*
X79756154Y-65652471D01*
X79823329Y-65744930D01*
X79882077Y-65890601D01*
X79896041Y-65974631D01*
X79879185Y-66081055D01*
X79809117Y-66179050D01*
X79655019Y-66291009D01*
X79802788Y-73460693D02*
X79917639Y-73424337D01*
X80071738Y-73312378D01*
X80110985Y-73236775D01*
X80119413Y-73183563D01*
X80105449Y-73099532D01*
X80060665Y-73037892D01*
X79985062Y-72998645D01*
X79931850Y-72990218D01*
X79847819Y-73004181D01*
X79702149Y-73062929D01*
X79618117Y-73076893D01*
X79564906Y-73068465D01*
X79489302Y-73029217D01*
X79444519Y-72967578D01*
X79430555Y-72883547D01*
X79438982Y-72830335D01*
X79478231Y-72754732D01*
X79632329Y-72642773D01*
X79747180Y-72606417D01*
X80226083Y-72682268D02*
X80441821Y-72525525D01*
X80780591Y-72797366D02*
X80472394Y-73021285D01*
X80002165Y-72374071D01*
X80310363Y-72150153D01*
X81057968Y-72595840D02*
X80587740Y-71948626D01*
X81427805Y-72327138D01*
X80957576Y-71679924D01*
X81682790Y-72094792D02*
X81797641Y-72058436D01*
X81951739Y-71946477D01*
X81990987Y-71870874D01*
X81999415Y-71817662D01*
X81985451Y-71733631D01*
X81940667Y-71671991D01*
X81865064Y-71632744D01*
X81811852Y-71624317D01*
X81727821Y-71638280D01*
X81582150Y-71697027D01*
X81498119Y-71710992D01*
X81444908Y-71702564D01*
X81369304Y-71663316D01*
X81324521Y-71601677D01*
X81310556Y-71517645D01*
X81318984Y-71464434D01*
X81358232Y-71388831D01*
X81512331Y-71276872D01*
X81627182Y-71240516D01*
X82005446Y-70918603D02*
X82128725Y-70829035D01*
X82212756Y-70815071D01*
X82319179Y-70831926D01*
X82439565Y-70932814D01*
X82596308Y-71148552D01*
X82655056Y-71294222D01*
X82638201Y-71400645D01*
X82598953Y-71476249D01*
X82475674Y-71565816D01*
X82391643Y-71579780D01*
X82285220Y-71562924D01*
X82164833Y-71462037D01*
X82008090Y-71246299D01*
X81949342Y-71100628D01*
X81966199Y-70994205D01*
X82005446Y-70918603D01*
X83400265Y-70894062D02*
X82960608Y-70742607D01*
X83030428Y-71162764D02*
X82560200Y-70515550D01*
X82806758Y-70336415D01*
X82890789Y-70322451D01*
X82944001Y-70330879D01*
X83019604Y-70370127D01*
X83086779Y-70462585D01*
X83100743Y-70546617D01*
X83092316Y-70599828D01*
X83053068Y-70675432D01*
X82806510Y-70854566D01*
X61395407Y-90728466D02*
X61335632Y-90789155D01*
X61300316Y-90897847D01*
X61301230Y-91018311D01*
X61350147Y-91114317D01*
X61410837Y-91174092D01*
X61543988Y-91257411D01*
X61652680Y-91292727D01*
X61809375Y-91303585D01*
X61893608Y-91290899D01*
X61989615Y-91241981D01*
X62061161Y-91145061D01*
X62084705Y-91072600D01*
X62083791Y-90952135D01*
X62059332Y-90904132D01*
X61805717Y-90821728D01*
X61758629Y-90966651D01*
X62237742Y-90601600D02*
X61476897Y-90354387D01*
X62379007Y-90166831D01*
X61618162Y-89919618D01*
X62496728Y-89804525D02*
X61735883Y-89557311D01*
X61794743Y-89376158D01*
X61866290Y-89279237D01*
X61962295Y-89230319D01*
X62046529Y-89217633D01*
X62203224Y-89228491D01*
X62311917Y-89263807D01*
X62445067Y-89347126D01*
X62505756Y-89406900D01*
X62554674Y-89502907D01*
X62555588Y-89623371D01*
X62496728Y-89804525D01*
X62136133Y-88325466D02*
X62979383Y-88319065D01*
X62300943Y-87818236D01*
X63144192Y-87811835D02*
X62383347Y-87564621D01*
X63261913Y-87449528D02*
X62501068Y-87202314D01*
X63403178Y-87014759D01*
X62642332Y-86767545D01*
X62995495Y-85680624D02*
X63042583Y-85535701D01*
X63102358Y-85475011D01*
X63198363Y-85426094D01*
X63355058Y-85436952D01*
X63608673Y-85519356D01*
X63741824Y-85602675D01*
X63790742Y-85698681D01*
X63803428Y-85782915D01*
X63756340Y-85927837D01*
X63696565Y-85988526D01*
X63600559Y-86037444D01*
X63443864Y-86026586D01*
X63190249Y-85944182D01*
X63057098Y-85860863D01*
X63008181Y-85764857D01*
X62995495Y-85680624D01*
X63207392Y-85028471D02*
X63823314Y-85228596D01*
X63907547Y-85215910D01*
X63955551Y-85191451D01*
X64015326Y-85130762D01*
X64062414Y-84985839D01*
X64049728Y-84901605D01*
X64025268Y-84853602D01*
X63964579Y-84793828D01*
X63348657Y-84593702D01*
X63431061Y-84340088D02*
X63572326Y-83905319D01*
X64262539Y-84369917D02*
X63501694Y-84122703D01*
X68402614Y-90586410D02*
X67641769Y-90339196D01*
X68267634Y-90262162D01*
X67806578Y-89831965D01*
X68567423Y-90079179D01*
X67971387Y-89324736D02*
X68018475Y-89179813D01*
X68078250Y-89119123D01*
X68174255Y-89070206D01*
X68330950Y-89081064D01*
X68584565Y-89163468D01*
X68717716Y-89246787D01*
X68766634Y-89342792D01*
X68779320Y-89427026D01*
X68732232Y-89571949D01*
X68672458Y-89632638D01*
X68576451Y-89681556D01*
X68419756Y-89670698D01*
X68166141Y-89588293D01*
X68032990Y-89504975D01*
X67984073Y-89408969D01*
X67971387Y-89324736D01*
X68896127Y-88944255D02*
X68967674Y-88847334D01*
X69026534Y-88666181D01*
X69013847Y-88581948D01*
X68989388Y-88533944D01*
X68928699Y-88474170D01*
X68856237Y-88450625D01*
X68772004Y-88463312D01*
X68724002Y-88487771D01*
X68664226Y-88548460D01*
X68580907Y-88681611D01*
X68521132Y-88742301D01*
X68473130Y-88766759D01*
X68388896Y-88779446D01*
X68316435Y-88755902D01*
X68255745Y-88696127D01*
X68231287Y-88648124D01*
X68218600Y-88563890D01*
X68277461Y-88382737D01*
X68349008Y-88285816D01*
X68863437Y-87812073D02*
X68781033Y-88065689D01*
X69179571Y-88195182D02*
X68418726Y-87947968D01*
X68536447Y-87585660D01*
X68992930Y-87413536D02*
X69075334Y-87159921D01*
X69509189Y-87180721D02*
X69391468Y-87543029D01*
X68630623Y-87295815D01*
X68748344Y-86933507D01*
X68818976Y-86716124D02*
X68960241Y-86281355D01*
X69650454Y-86745952D02*
X68889609Y-86498739D01*
X60425563Y-106517763D02*
X61186408Y-106270549D01*
X60725353Y-106700746D01*
X61351218Y-106777780D01*
X60590373Y-107024994D01*
X60837586Y-107785839D02*
X60696321Y-107351070D01*
X60766954Y-107568454D02*
X61527799Y-107321240D01*
X61395563Y-107284095D01*
X61299557Y-107235178D01*
X61239782Y-107174489D01*
X61131888Y-108691607D02*
X61892733Y-108444393D01*
X61431678Y-108874590D01*
X62057543Y-108951624D01*
X61296697Y-109198838D01*
X62091030Y-109301245D02*
X62139033Y-109325703D01*
X62198807Y-109386393D01*
X62257668Y-109567546D01*
X62244981Y-109651779D01*
X62220523Y-109699783D01*
X62159833Y-109759558D01*
X62087372Y-109783102D01*
X61966908Y-109782188D01*
X61390874Y-109488684D01*
X61543911Y-109959683D01*
X62563742Y-110509545D02*
X61885301Y-111010374D01*
X62728551Y-111016776D01*
X62050110Y-111517604D02*
X62810955Y-111270390D01*
X62167831Y-111879911D02*
X62928676Y-111632697D01*
X62309096Y-112314680D01*
X63069941Y-112067466D01*
X63340699Y-112900772D02*
X62662258Y-113401601D01*
X63505508Y-113408003D01*
X62827067Y-113908831D02*
X63587912Y-113661617D01*
X62944788Y-114271138D02*
X63705633Y-114023924D01*
X63086053Y-114705907D01*
X63846898Y-114458693D01*
X66596634Y-106390875D02*
X67357479Y-106143662D01*
X66896424Y-106573858D01*
X67522289Y-106650892D01*
X66761443Y-106898106D01*
X67687098Y-107158122D02*
X67734186Y-107303045D01*
X67721500Y-107387279D01*
X67672583Y-107483284D01*
X67539432Y-107566603D01*
X67285816Y-107649008D01*
X67129122Y-107659865D01*
X67033116Y-107610949D01*
X66973341Y-107550259D01*
X66926252Y-107405336D01*
X66938939Y-107321103D01*
X66987857Y-107225097D01*
X67121008Y-107141778D01*
X67374623Y-107059373D01*
X67531318Y-107048515D01*
X67627323Y-107097433D01*
X67687098Y-107158122D01*
X67863679Y-107701583D02*
X68004944Y-108136351D01*
X67173466Y-108166181D02*
X67934311Y-107918967D01*
X68134437Y-108534890D02*
X68181525Y-108679813D01*
X68168839Y-108764047D01*
X68119922Y-108860052D01*
X67986771Y-108943370D01*
X67733155Y-109025775D01*
X67576460Y-109036633D01*
X67480454Y-108987716D01*
X67420680Y-108927026D01*
X67373591Y-108782103D01*
X67386278Y-108697870D01*
X67435195Y-108601864D01*
X67568346Y-108518545D01*
X67821962Y-108436141D01*
X67978657Y-108425283D01*
X68074662Y-108474201D01*
X68134437Y-108534890D01*
X67726754Y-109869025D02*
X68006657Y-109497689D01*
X67585489Y-109434256D02*
X68346334Y-109187042D01*
X68440510Y-109476888D01*
X68427824Y-109561122D01*
X68403366Y-109609125D01*
X68342676Y-109668900D01*
X68233984Y-109704216D01*
X68149750Y-109691529D01*
X68101748Y-109667071D01*
X68041973Y-109606381D01*
X67947796Y-109316535D01*
X105590477Y-119600000D02*
X105514286Y-119561905D01*
X105400001Y-119561905D01*
X105285715Y-119600000D01*
X105209524Y-119676190D01*
X105171429Y-119752381D01*
X105133334Y-119904762D01*
X105133334Y-120019048D01*
X105171429Y-120171429D01*
X105209524Y-120247619D01*
X105285715Y-120323810D01*
X105400001Y-120361905D01*
X105476191Y-120361905D01*
X105590477Y-120323810D01*
X105628572Y-120285714D01*
X105628572Y-120019048D01*
X105476191Y-120019048D01*
X106428572Y-120361905D02*
X106161905Y-119980952D01*
X105971429Y-120361905D02*
X105971429Y-119561905D01*
X106276191Y-119561905D01*
X106352382Y-119600000D01*
X106390477Y-119638095D01*
X106428572Y-119714286D01*
X106428572Y-119828571D01*
X106390477Y-119904762D01*
X106352382Y-119942857D01*
X106276191Y-119980952D01*
X105971429Y-119980952D01*
X106771429Y-120361905D02*
X106771429Y-119561905D01*
X107228572Y-120361905D01*
X107228572Y-119561905D01*
X92833334Y-119942857D02*
X92947620Y-119980952D01*
X92985715Y-120019048D01*
X93023810Y-120095238D01*
X93023810Y-120209524D01*
X92985715Y-120285714D01*
X92947620Y-120323810D01*
X92871429Y-120361905D01*
X92566667Y-120361905D01*
X92566667Y-119561905D01*
X92833334Y-119561905D01*
X92909524Y-119600000D01*
X92947620Y-119638095D01*
X92985715Y-119714286D01*
X92985715Y-119790476D01*
X92947620Y-119866667D01*
X92909524Y-119904762D01*
X92833334Y-119942857D01*
X92566667Y-119942857D01*
X93747620Y-120361905D02*
X93366667Y-120361905D01*
X93366667Y-119561905D01*
X94014286Y-120361905D02*
X94014286Y-119561905D01*
X94471429Y-120361905D02*
X94128572Y-119904762D01*
X94471429Y-119561905D02*
X94014286Y-120019048D01*
X92899999Y-115700000D02*
X92823808Y-115661905D01*
X92709523Y-115661905D01*
X92595237Y-115700000D01*
X92519046Y-115776190D01*
X92480951Y-115852381D01*
X92442856Y-116004762D01*
X92442856Y-116119048D01*
X92480951Y-116271429D01*
X92519046Y-116347619D01*
X92595237Y-116423810D01*
X92709523Y-116461905D01*
X92785713Y-116461905D01*
X92899999Y-116423810D01*
X92938094Y-116385714D01*
X92938094Y-116119048D01*
X92785713Y-116119048D01*
X93280951Y-116461905D02*
X93280951Y-115661905D01*
X93738094Y-116461905D01*
X93738094Y-115661905D01*
X94119046Y-116461905D02*
X94119046Y-115661905D01*
X94309522Y-115661905D01*
X94423808Y-115700000D01*
X94499999Y-115776190D01*
X94538094Y-115852381D01*
X94576189Y-116004762D01*
X94576189Y-116119048D01*
X94538094Y-116271429D01*
X94499999Y-116347619D01*
X94423808Y-116423810D01*
X94309522Y-116461905D01*
X94119046Y-116461905D01*
X95528570Y-115928571D02*
X95528570Y-116461905D01*
X95528570Y-116004762D02*
X95566665Y-115966667D01*
X95642856Y-115928571D01*
X95757142Y-115928571D01*
X95833332Y-115966667D01*
X95871427Y-116042857D01*
X95871427Y-116461905D01*
X96595237Y-116423810D02*
X96519047Y-116461905D01*
X96366666Y-116461905D01*
X96290475Y-116423810D01*
X96252380Y-116385714D01*
X96214285Y-116309524D01*
X96214285Y-116080952D01*
X96252380Y-116004762D01*
X96290475Y-115966667D01*
X96366666Y-115928571D01*
X96519047Y-115928571D01*
X96595237Y-115966667D01*
X97547618Y-116157143D02*
X98157142Y-116157143D01*
X97852380Y-116461905D02*
X97852380Y-115852381D01*
X98919047Y-115661905D02*
X98538094Y-115661905D01*
X98499999Y-116042857D01*
X98538094Y-116004762D01*
X98614285Y-115966667D01*
X98804761Y-115966667D01*
X98880951Y-116004762D01*
X98919047Y-116042857D01*
X98957142Y-116119048D01*
X98957142Y-116309524D01*
X98919047Y-116385714D01*
X98880951Y-116423810D01*
X98804761Y-116461905D01*
X98614285Y-116461905D01*
X98538094Y-116423810D01*
X98499999Y-116385714D01*
X100404761Y-115661905D02*
X100861904Y-115661905D01*
X100633333Y-116461905D02*
X100633333Y-115661905D01*
X101052381Y-115661905D02*
X101585714Y-116461905D01*
X101585714Y-115661905D02*
X101052381Y-116461905D01*
X103566667Y-116461905D02*
X103300000Y-116080952D01*
X103109524Y-116461905D02*
X103109524Y-115661905D01*
X103414286Y-115661905D01*
X103490477Y-115700000D01*
X103528572Y-115738095D01*
X103566667Y-115814286D01*
X103566667Y-115928571D01*
X103528572Y-116004762D01*
X103490477Y-116042857D01*
X103414286Y-116080952D01*
X103109524Y-116080952D01*
X103833334Y-115661905D02*
X104366667Y-116461905D01*
X104366667Y-115661905D02*
X103833334Y-116461905D01*
X105890477Y-115928571D02*
X105890477Y-116461905D01*
X105890477Y-116004762D02*
X105928572Y-115966667D01*
X106004763Y-115928571D01*
X106119049Y-115928571D01*
X106195239Y-115966667D01*
X106233334Y-116042857D01*
X106233334Y-116461905D01*
X106957144Y-116423810D02*
X106880954Y-116461905D01*
X106728573Y-116461905D01*
X106652382Y-116423810D01*
X106614287Y-116385714D01*
X106576192Y-116309524D01*
X106576192Y-116080952D01*
X106614287Y-116004762D01*
X106652382Y-115966667D01*
X106728573Y-115928571D01*
X106880954Y-115928571D01*
X106957144Y-115966667D01*
X99019048Y-120442857D02*
X98752381Y-120442857D01*
X98752381Y-120861905D02*
X98752381Y-120061905D01*
X99133334Y-120061905D01*
X99323809Y-120061905D02*
X99780952Y-120061905D01*
X99552381Y-120861905D02*
X99552381Y-120061905D01*
X100047619Y-120861905D02*
X100047619Y-120061905D01*
X100238095Y-120061905D01*
X100352381Y-120100000D01*
X100428572Y-120176190D01*
X100466667Y-120252381D01*
X100504762Y-120404762D01*
X100504762Y-120519048D01*
X100466667Y-120671429D01*
X100428572Y-120747619D01*
X100352381Y-120823810D01*
X100238095Y-120861905D01*
X100047619Y-120861905D01*
X100847619Y-120861905D02*
X100847619Y-120061905D01*
X88932095Y-106737143D02*
X89541619Y-106737143D01*
X89236857Y-107041905D02*
X89236857Y-106432381D01*
X90798762Y-106622857D02*
X90913048Y-106660952D01*
X90951143Y-106699048D01*
X90989238Y-106775238D01*
X90989238Y-106889524D01*
X90951143Y-106965714D01*
X90913048Y-107003810D01*
X90836857Y-107041905D01*
X90532095Y-107041905D01*
X90532095Y-106241905D01*
X90798762Y-106241905D01*
X90874952Y-106280000D01*
X90913048Y-106318095D01*
X90951143Y-106394286D01*
X90951143Y-106470476D01*
X90913048Y-106546667D01*
X90874952Y-106584762D01*
X90798762Y-106622857D01*
X90532095Y-106622857D01*
X91294000Y-106813333D02*
X91674952Y-106813333D01*
X91217809Y-107041905D02*
X91484476Y-106241905D01*
X91751143Y-107041905D01*
X91903523Y-106241905D02*
X92360666Y-106241905D01*
X92132095Y-107041905D02*
X92132095Y-106241905D01*
X92513047Y-106241905D02*
X92970190Y-106241905D01*
X92741619Y-107041905D02*
X92741619Y-106241905D01*
X93846381Y-106737143D02*
X94455905Y-106737143D01*
X111185554Y-88394834D02*
X111185554Y-89394834D01*
X112885554Y-89394834D02*
X112885554Y-88394834D01*
X113704000Y-88400000D02*
X113704000Y-89400000D01*
X115404000Y-89400000D02*
X115404000Y-88400000D01*
D13*
X107935554Y-87284834D02*
X106135554Y-87284834D01*
X106135554Y-90504834D02*
X108585554Y-90504834D01*
D11*
X101185554Y-88394834D02*
X101185554Y-89394834D01*
X102885554Y-89394834D02*
X102885554Y-88394834D01*
X64940071Y-116257007D02*
X68934509Y-114959136D01*
X68934509Y-114959136D02*
X64948189Y-102690507D01*
X64948189Y-102690507D02*
X60953752Y-103988378D01*
X60953752Y-103988378D02*
X64940071Y-116257007D01*
X66651973Y-115700777D02*
X66497464Y-115225248D01*
X66497464Y-115225248D02*
X65261091Y-115626970D01*
X65261091Y-115626970D02*
X61583789Y-104309398D01*
X61583789Y-104309398D02*
X62820162Y-103907676D01*
X62820162Y-103907676D02*
X62665654Y-103432148D01*
X67507924Y-115422661D02*
X67198907Y-114471605D01*
X67198907Y-114471605D02*
X68625492Y-114008079D01*
X63521605Y-103154032D02*
X63830622Y-104105089D01*
X63830622Y-104105089D02*
X65257206Y-103641563D01*
X68433032Y-112283127D02*
X69096371Y-112383034D01*
X69096371Y-112383034D02*
X68910961Y-111812400D01*
X68910961Y-111812400D02*
X68433032Y-112283127D01*
X61953752Y-93011622D02*
X65948190Y-94309493D01*
X65948190Y-94309493D02*
X69161966Y-84418506D01*
X69161966Y-84418506D02*
X65167529Y-83120634D01*
X65167529Y-83120634D02*
X61953752Y-93011622D01*
X63665654Y-93567853D02*
X63820163Y-93092324D01*
X63820163Y-93092324D02*
X62583789Y-92690602D01*
X62583789Y-92690602D02*
X65488549Y-83750671D01*
X65488549Y-83750671D02*
X66724922Y-84152393D01*
X66724922Y-84152393D02*
X66879431Y-83676865D01*
X64521605Y-93845968D02*
X64830622Y-92894911D01*
X64830622Y-92894911D02*
X66257207Y-93358437D01*
X67735382Y-83954980D02*
X67426365Y-84906037D01*
X67426365Y-84906037D02*
X68852950Y-85369562D01*
X67115405Y-91849797D02*
X67593334Y-92320524D01*
X67593334Y-92320524D02*
X67778744Y-91749890D01*
X67778744Y-91749890D02*
X67115405Y-91849797D01*
D13*
X112902468Y-80345196D02*
X117594818Y-74753072D01*
X117115712Y-83880528D02*
X121808062Y-78288404D01*
X121808062Y-78288404D02*
X120927111Y-77549198D01*
X122517728Y-93237094D02*
X129706825Y-91969462D01*
X123472793Y-98653536D02*
X130661890Y-97385904D01*
X130661890Y-97385904D02*
X130462194Y-96253376D01*
X121596693Y-109293430D02*
X127918679Y-112943430D01*
X118846693Y-114056570D02*
X125168679Y-117706570D01*
X125168679Y-117706570D02*
X125743679Y-116710641D01*
X110570325Y-121001268D02*
X113067072Y-127861024D01*
X105402016Y-122882378D02*
X107898763Y-129742134D01*
X107898763Y-129742134D02*
X108979409Y-129348811D01*
X94597984Y-122882378D02*
X92101237Y-129742134D01*
X89429675Y-121001268D02*
X86932928Y-127861024D01*
X86932928Y-127861024D02*
X88013574Y-128254347D01*
X81153307Y-114056570D02*
X74831321Y-117706570D01*
X78403307Y-109293430D02*
X72081321Y-112943430D01*
X72081321Y-112943430D02*
X72656321Y-113939359D01*
X76527207Y-98653536D02*
X69338110Y-97385904D01*
X77482272Y-93237094D02*
X70293175Y-91969462D01*
X70293175Y-91969462D02*
X70093480Y-93101991D01*
X82884288Y-83880528D02*
X78191938Y-78288404D01*
X87097532Y-80345196D02*
X82405182Y-74753072D01*
X82405182Y-74753072D02*
X81524231Y-75492278D01*
D11*
X101310000Y-109762000D02*
X101310000Y-110762000D01*
X103010000Y-110762000D02*
X103010000Y-109762000D01*
X88500000Y-86350000D02*
X89500000Y-86350000D01*
X89500000Y-84650000D02*
X88500000Y-84650000D01*
X88500000Y-83850000D02*
X89500000Y-83850000D01*
X89500000Y-82150000D02*
X88500000Y-82150000D01*
X122904891Y-86018443D02*
X122095874Y-86606228D01*
X123095109Y-87981557D02*
X123904126Y-87393772D01*
X117981557Y-119904891D02*
X117393772Y-119095874D01*
X116018443Y-120095109D02*
X116606228Y-120904126D01*
X83393772Y-120904126D02*
X83981557Y-120095109D01*
X82606228Y-119095874D02*
X82018443Y-119904891D01*
X76095874Y-87393772D02*
X76904891Y-87981557D01*
X77904126Y-86606228D02*
X77095109Y-86018443D01*
X109906000Y-108038000D02*
X112406000Y-108038000D01*
X109906000Y-106338000D02*
X112406000Y-106338000D01*
X111306000Y-106838000D02*
X111306000Y-107538000D01*
D10*
X111356000Y-107188000D02*
X111856000Y-107188000D01*
D11*
X100418000Y-137998000D02*
X100418000Y-135498000D01*
X98718000Y-137998000D02*
X98718000Y-135498000D01*
X99218000Y-136598000D02*
X99918000Y-136598000D01*
D10*
X99568000Y-136548000D02*
X99568000Y-136048000D01*
D11*
X88728000Y-112020000D02*
X88728000Y-107520000D01*
X88728000Y-107520000D02*
X94628000Y-107520000D01*
X94628000Y-107520000D02*
X94628000Y-112020000D01*
X94628000Y-112020000D02*
X88728000Y-112020000D01*
X91178000Y-107520000D02*
X91178000Y-108020000D01*
X91178000Y-108020000D02*
X89228000Y-108020000D01*
X89228000Y-108020000D02*
X89228000Y-111520000D01*
X89228000Y-111520000D02*
X94128000Y-111520000D01*
X94128000Y-111520000D02*
X94128000Y-108020000D01*
X94128000Y-108020000D02*
X92178000Y-108020000D01*
X92178000Y-108020000D02*
X92178000Y-107520000D01*
X88728000Y-108720000D02*
X89228000Y-108720000D01*
X88728000Y-110020000D02*
X89228000Y-110020000D01*
X94128000Y-108720000D02*
X94628000Y-108720000D01*
X94128000Y-110020000D02*
X94628000Y-110020000D01*
X90378000Y-107520000D02*
X90378000Y-107320000D01*
X90378000Y-107320000D02*
X90078000Y-107320000D01*
X90078000Y-107320000D02*
X90078000Y-107520000D01*
X90378000Y-107420000D02*
X90078000Y-107420000D01*
X91578000Y-111520000D02*
X91578000Y-111020000D01*
X91578000Y-111020000D02*
X91778000Y-111020000D01*
X91778000Y-111020000D02*
X91778000Y-111520000D01*
X91678000Y-111520000D02*
X91678000Y-111020000D01*
X117851126Y-65487286D02*
X115382428Y-68885158D01*
X115382428Y-68885158D02*
X123796204Y-74998124D01*
X123796204Y-74998124D02*
X126264902Y-71600253D01*
X126264902Y-71600253D02*
X117851126Y-65487286D01*
X116793112Y-66943517D02*
X117197621Y-67237409D01*
X117197621Y-67237409D02*
X117961741Y-66185687D01*
X117961741Y-66185687D02*
X125566501Y-71710869D01*
X125566501Y-71710869D02*
X124802380Y-72762591D01*
X124802380Y-72762591D02*
X125206889Y-73056483D01*
X116264105Y-67671632D02*
X117073122Y-68259417D01*
X117073122Y-68259417D02*
X116191445Y-69472943D01*
X124677882Y-73784599D02*
X123868865Y-73196813D01*
X123868865Y-73196813D02*
X122987187Y-74410339D01*
X117361049Y-70755334D02*
X116765672Y-71064408D01*
X116765672Y-71064408D02*
X117251083Y-71417080D01*
X117251083Y-71417080D02*
X117361049Y-70755334D01*
X73212556Y-71600253D02*
X75681254Y-74998124D01*
X75681254Y-74998124D02*
X84095030Y-68885157D01*
X84095030Y-68885157D02*
X81626332Y-65487286D01*
X81626332Y-65487286D02*
X73212556Y-71600253D01*
X74270569Y-73056483D02*
X74675078Y-72762591D01*
X74675078Y-72762591D02*
X73910957Y-71710868D01*
X73910957Y-71710868D02*
X81515717Y-66185687D01*
X81515717Y-66185687D02*
X82279837Y-67237409D01*
X82279837Y-67237409D02*
X82684346Y-66943517D01*
X74799576Y-73784598D02*
X75608593Y-73196813D01*
X75608593Y-73196813D02*
X76490271Y-74410339D01*
X83213353Y-67671632D02*
X82404336Y-68259417D01*
X82404336Y-68259417D02*
X83286013Y-69472943D01*
X78071324Y-73694260D02*
X78181290Y-74356006D01*
X78181290Y-74356006D02*
X78666701Y-74003334D01*
X78666701Y-74003334D02*
X78071324Y-73694260D01*
X134605013Y-82998276D02*
X130610575Y-84296147D01*
X130610575Y-84296147D02*
X133824352Y-94187135D01*
X133824352Y-94187135D02*
X137818790Y-92889264D01*
X137818790Y-92889264D02*
X134605013Y-82998276D01*
X132893111Y-83554506D02*
X133047620Y-84030035D01*
X133047620Y-84030035D02*
X134283993Y-83628313D01*
X134283993Y-83628313D02*
X137188753Y-92568244D01*
X137188753Y-92568244D02*
X135952379Y-92969966D01*
X135952379Y-92969966D02*
X136106888Y-93445494D01*
X132037160Y-83832622D02*
X132346177Y-84783678D01*
X132346177Y-84783678D02*
X130919592Y-85247204D01*
X135250937Y-93723609D02*
X134941920Y-92772553D01*
X134941920Y-92772553D02*
X133515335Y-93236078D01*
X131112052Y-86972156D02*
X130448713Y-86872249D01*
X130448713Y-86872249D02*
X130634123Y-87442883D01*
X130634123Y-87442883D02*
X131112052Y-86972156D01*
X138591333Y-104110737D02*
X134596895Y-102812866D01*
X134596895Y-102812866D02*
X130610576Y-115081495D01*
X130610576Y-115081495D02*
X134605013Y-116379366D01*
X134605013Y-116379366D02*
X138591333Y-104110737D01*
X136879431Y-103554506D02*
X136724922Y-104030035D01*
X136724922Y-104030035D02*
X137961296Y-104431757D01*
X137961296Y-104431757D02*
X134283994Y-115749329D01*
X134283994Y-115749329D02*
X133047620Y-115347607D01*
X133047620Y-115347607D02*
X132893112Y-115823135D01*
X136023480Y-103276391D02*
X135714463Y-104227448D01*
X135714463Y-104227448D02*
X134287878Y-103763922D01*
X132037161Y-115545020D02*
X132346178Y-114593964D01*
X132346178Y-114593964D02*
X130919593Y-114130438D01*
X133429680Y-105272562D02*
X132951751Y-104801835D01*
X132951751Y-104801835D02*
X132766341Y-105372469D01*
X132766341Y-105372469D02*
X133429680Y-105272562D01*
X63156198Y-100225290D02*
X63313178Y-100708426D01*
X63609235Y-98742732D02*
X61918257Y-99292164D01*
X64551119Y-101641552D02*
X62860141Y-102190984D01*
X64551119Y-101641552D02*
X63609235Y-98742732D01*
X61918257Y-99292164D02*
X62860141Y-102190984D01*
X77044510Y-75649297D02*
X77455490Y-75350703D01*
X75494517Y-75676569D02*
X76539599Y-77115001D01*
X77960401Y-73884999D02*
X79005483Y-75323431D01*
X77960401Y-73884999D02*
X75494517Y-75676569D01*
X76539599Y-77115001D02*
X79005483Y-75323431D01*
D13*
X89760000Y-92480000D02*
X89760000Y-91550000D01*
X89760000Y-89320000D02*
X89760000Y-90250000D01*
X89760000Y-89320000D02*
X87600000Y-89320000D01*
X89760000Y-92480000D02*
X88300000Y-92480000D01*
D11*
X107500000Y-139650000D02*
X107500000Y-138650000D01*
X103500000Y-139650000D02*
X107500000Y-139650000D01*
X101000000Y-138000000D02*
X101000000Y-134000000D01*
X110000000Y-134000000D02*
X110000000Y-138000000D01*
X110000000Y-138000000D02*
X101000000Y-138000000D01*
X101000000Y-134000000D02*
X110000000Y-134000000D01*
X103500000Y-139650000D02*
X103500000Y-138650000D01*
X118750714Y-131750000D02*
G75*
G03X118750714Y-131750000I-1750714J0D01*
G01*
X117713472Y-127245313D02*
X117728167Y-127265538D01*
X121504687Y-132463472D02*
X121489993Y-132443247D01*
X116286528Y-136254687D02*
X116271833Y-136234462D01*
X112510007Y-131056753D02*
X112495313Y-131036528D01*
X118844959Y-128802670D02*
X120373201Y-130906115D01*
X112495313Y-131036528D02*
X117713472Y-127245313D01*
X113626799Y-132593885D02*
X115155041Y-134697330D01*
X116286528Y-136254687D02*
X121504687Y-132463472D01*
X84250714Y-131750000D02*
G75*
G03X84250714Y-131750000I-1750714J0D01*
G01*
X87004687Y-131036528D02*
X86989993Y-131056753D01*
X83213472Y-136254687D02*
X83228167Y-136234462D01*
X77995313Y-132463472D02*
X78010007Y-132443247D01*
X81771833Y-127265538D02*
X81786528Y-127245313D01*
X85873201Y-132593885D02*
X84344959Y-134697330D01*
X81786528Y-127245313D02*
X87004687Y-131036528D01*
X80655041Y-128802670D02*
X79126799Y-130906115D01*
X77995313Y-132463472D02*
X83213472Y-136254687D01*
D13*
X106260000Y-111872000D02*
X108060000Y-111872000D01*
X108060000Y-108652000D02*
X105610000Y-108652000D01*
D14*
X91984000Y-83859000D02*
X91984000Y-84621000D01*
X91984000Y-84621000D02*
X107986000Y-84621000D01*
X107986000Y-84621000D02*
X107986000Y-83859000D01*
D11*
X111310000Y-109762000D02*
X111310000Y-110762000D01*
X113010000Y-110762000D02*
X113010000Y-109762000D01*
D13*
X94770000Y-119390000D02*
X107590000Y-119390000D01*
X107590000Y-119390000D02*
X107590000Y-116610000D01*
X107590000Y-116610000D02*
X94770000Y-116610000D01*
X94770000Y-116610000D02*
X94770000Y-119390000D01*
X93500000Y-119390000D02*
X92110000Y-119390000D01*
X92110000Y-119390000D02*
X92110000Y-118000000D01*
D11*
X89500000Y-87050000D02*
X88500000Y-87050000D01*
X88500000Y-88750000D02*
X89500000Y-88750000D01*
X107688000Y-106338000D02*
X106688000Y-106338000D01*
X106688000Y-108038000D02*
X107688000Y-108038000D01*
X100084000Y-132930000D02*
X101084000Y-132930000D01*
X101084000Y-131230000D02*
X100084000Y-131230000D01*
X102370000Y-108038000D02*
X103370000Y-108038000D01*
X103370000Y-106338000D02*
X102370000Y-106338000D01*
X86850000Y-91400000D02*
X86850000Y-90400000D01*
X85150000Y-90400000D02*
X85150000Y-91400000D01*
X110500000Y-78850000D02*
X111500000Y-78850000D01*
X111500000Y-77150000D02*
X110500000Y-77150000D01*
X89500000Y-72150000D02*
X88500000Y-72150000D01*
X88500000Y-73850000D02*
X89500000Y-73850000D01*
X110500000Y-73850000D02*
X111500000Y-73850000D01*
X111500000Y-72150000D02*
X110500000Y-72150000D01*
X110500000Y-76350000D02*
X111500000Y-76350000D01*
X111500000Y-74650000D02*
X110500000Y-74650000D01*
X111500000Y-81150000D02*
X110500000Y-81150000D01*
X110500000Y-82850000D02*
X111500000Y-82850000D01*
X89500000Y-74650000D02*
X88500000Y-74650000D01*
X88500000Y-76350000D02*
X89500000Y-76350000D01*
X75404891Y-78018443D02*
X74595874Y-78606228D01*
X75595109Y-79981557D02*
X76404126Y-79393772D01*
X110500000Y-71350000D02*
X111500000Y-71350000D01*
X111500000Y-69650000D02*
X110500000Y-69650000D01*
X73404891Y-75018443D02*
X72595874Y-75606228D01*
X73595109Y-76981557D02*
X74404126Y-76393772D01*
X74404891Y-76518443D02*
X73595874Y-77106228D01*
X74595109Y-78481557D02*
X75404126Y-77893772D01*
X61589854Y-99398867D02*
X59898876Y-99948299D01*
X62531738Y-102297687D02*
X60840760Y-102847119D01*
X62531738Y-102297687D02*
X61589854Y-99398867D01*
X59898876Y-99948299D02*
X60840760Y-102847119D01*
X70850000Y-107150000D02*
X72150000Y-107150000D01*
X70275000Y-104850000D02*
X72150000Y-104850000D01*
D13*
X102800000Y-131000000D02*
X102800000Y-133000000D01*
X102800000Y-133000000D02*
X106650000Y-133000000D01*
X102800000Y-131000000D02*
X106650000Y-131000000D01*
D11*
X98425000Y-127254000D02*
X96647000Y-127254000D01*
X98425000Y-130302000D02*
X96647000Y-130302000D01*
X98425000Y-130302000D02*
X98425000Y-127254000D01*
X96647000Y-127254000D02*
X96647000Y-130302000D01*
X69650000Y-102400000D02*
X70350000Y-102400000D01*
X70350000Y-103600000D02*
X69650000Y-103600000D01*
X73350000Y-103600000D02*
X72650000Y-103600000D01*
X72650000Y-102400000D02*
X73350000Y-102400000D01*
X74150000Y-103900000D02*
X74850000Y-103900000D01*
X74850000Y-105100000D02*
X74150000Y-105100000D01*
X96664000Y-133088000D02*
X96664000Y-130888000D01*
X96664000Y-130888000D02*
X98164000Y-130888000D01*
X98164000Y-130888000D02*
X98164000Y-139488000D01*
X98164000Y-139488000D02*
X90264000Y-139488000D01*
X90264000Y-139488000D02*
X90264000Y-130888000D01*
X90264000Y-130888000D02*
X91764000Y-130888000D01*
X91764000Y-130888000D02*
X91764000Y-133088000D01*
X98164000Y-137988000D02*
X96664000Y-137988000D01*
X96664000Y-137988000D02*
X96664000Y-133088000D01*
X96664000Y-133088000D02*
X98164000Y-133088000D01*
X90264000Y-137988000D02*
X91764000Y-137988000D01*
X91764000Y-137988000D02*
X91764000Y-133088000D01*
X91764000Y-133088000D02*
X90264000Y-133088000D01*
X96664000Y-135088000D02*
X91764000Y-135088000D01*
X96664000Y-134088000D02*
X91764000Y-134088000D01*
X95464000Y-135088000D02*
X95784000Y-135088000D01*
X95784000Y-135088000D02*
X95784000Y-138508000D01*
X95784000Y-138508000D02*
X95464000Y-138588000D01*
X95464000Y-138588000D02*
X95144000Y-138508000D01*
X95144000Y-138508000D02*
X95144000Y-135088000D01*
X95144000Y-135088000D02*
X95464000Y-135088000D01*
X92964000Y-135088000D02*
X93284000Y-135088000D01*
X93284000Y-135088000D02*
X93284000Y-138508000D01*
X93284000Y-138508000D02*
X92964000Y-138588000D01*
X92964000Y-138588000D02*
X92644000Y-138508000D01*
X92644000Y-138508000D02*
X92644000Y-135088000D01*
X92644000Y-135088000D02*
X92964000Y-135088000D01*
X95464000Y-131088000D02*
X95764000Y-130488000D01*
X95764000Y-130488000D02*
X95164000Y-130488000D01*
X95164000Y-130488000D02*
X95464000Y-131088000D01*
X110655143Y-89972666D02*
X110702762Y-90020285D01*
X110750381Y-90163142D01*
X110750381Y-90258380D01*
X110702762Y-90401238D01*
X110607524Y-90496476D01*
X110512286Y-90544095D01*
X110321810Y-90591714D01*
X110178952Y-90591714D01*
X109988476Y-90544095D01*
X109893238Y-90496476D01*
X109798000Y-90401238D01*
X109750381Y-90258380D01*
X109750381Y-90163142D01*
X109798000Y-90020285D01*
X109845619Y-89972666D01*
X110750381Y-89020285D02*
X110750381Y-89591714D01*
X110750381Y-89306000D02*
X109750381Y-89306000D01*
X109893238Y-89401238D01*
X109988476Y-89496476D01*
X110036095Y-89591714D01*
X115295214Y-86129112D02*
X114819023Y-86462446D01*
X115295214Y-86700541D02*
X114295214Y-86700541D01*
X114295214Y-86319588D01*
X114342833Y-86224350D01*
X114390452Y-86176731D01*
X114485690Y-86129112D01*
X114628547Y-86129112D01*
X114723785Y-86176731D01*
X114771404Y-86224350D01*
X114819023Y-86319588D01*
X114819023Y-86700541D01*
X114295214Y-85224350D02*
X114295214Y-85700541D01*
X114771404Y-85748160D01*
X114723785Y-85700541D01*
X114676166Y-85605303D01*
X114676166Y-85367207D01*
X114723785Y-85271969D01*
X114771404Y-85224350D01*
X114866643Y-85176731D01*
X115104738Y-85176731D01*
X115199976Y-85224350D01*
X115247595Y-85271969D01*
X115295214Y-85367207D01*
X115295214Y-85605303D01*
X115247595Y-85700541D01*
X115199976Y-85748160D01*
X103336095Y-87258381D02*
X103336095Y-88067905D01*
X103383714Y-88163143D01*
X103431333Y-88210762D01*
X103526571Y-88258381D01*
X103717048Y-88258381D01*
X103812286Y-88210762D01*
X103859905Y-88163143D01*
X103907524Y-88067905D01*
X103907524Y-87258381D01*
X104336095Y-87353619D02*
X104383714Y-87306000D01*
X104478952Y-87258381D01*
X104717048Y-87258381D01*
X104812286Y-87306000D01*
X104859905Y-87353619D01*
X104907524Y-87448857D01*
X104907524Y-87544095D01*
X104859905Y-87686952D01*
X104288476Y-88258381D01*
X104907524Y-88258381D01*
X100855143Y-89972666D02*
X100902762Y-90020285D01*
X100950381Y-90163142D01*
X100950381Y-90258380D01*
X100902762Y-90401238D01*
X100807524Y-90496476D01*
X100712286Y-90544095D01*
X100521810Y-90591714D01*
X100378952Y-90591714D01*
X100188476Y-90544095D01*
X100093238Y-90496476D01*
X99998000Y-90401238D01*
X99950381Y-90258380D01*
X99950381Y-90163142D01*
X99998000Y-90020285D01*
X100045619Y-89972666D01*
X100045619Y-89591714D02*
X99998000Y-89544095D01*
X99950381Y-89448857D01*
X99950381Y-89210761D01*
X99998000Y-89115523D01*
X100045619Y-89067904D01*
X100140857Y-89020285D01*
X100236095Y-89020285D01*
X100378952Y-89067904D01*
X100950381Y-89639333D01*
X100950381Y-89020285D01*
X69117811Y-115713758D02*
X68438485Y-115934484D01*
X68287904Y-115933340D01*
X68167897Y-115872194D01*
X68078464Y-115751044D01*
X68049034Y-115660467D01*
X68901512Y-116434942D02*
X68917370Y-116329651D01*
X68947943Y-116269647D01*
X69023805Y-116194929D01*
X69069093Y-116180213D01*
X69174385Y-116196072D01*
X69234389Y-116226645D01*
X69309107Y-116302507D01*
X69367968Y-116483661D01*
X69352110Y-116588953D01*
X69321536Y-116648956D01*
X69245675Y-116723675D01*
X69200386Y-116738390D01*
X69095094Y-116722532D01*
X69035091Y-116691958D01*
X68960372Y-116616097D01*
X68901512Y-116434942D01*
X68826793Y-116359081D01*
X68766790Y-116328507D01*
X68661497Y-116312649D01*
X68480344Y-116371510D01*
X68404482Y-116446228D01*
X68373909Y-116506232D01*
X68358051Y-116611524D01*
X68416911Y-116792678D01*
X68491630Y-116868540D01*
X68551633Y-116899113D01*
X68656925Y-116914971D01*
X68838078Y-116856111D01*
X68913941Y-116781392D01*
X68944514Y-116721388D01*
X68960372Y-116616097D01*
X65576178Y-82447795D02*
X66255504Y-82668521D01*
X66376654Y-82757956D01*
X66437800Y-82877963D01*
X66438944Y-83028543D01*
X66409513Y-83119120D01*
X65693898Y-82085488D02*
X65899910Y-81451450D01*
X66718530Y-82168063D01*
X118122106Y-84356198D02*
X117356061Y-83713411D01*
X117509106Y-83531020D01*
X117637411Y-83452193D01*
X117771586Y-83440454D01*
X117875151Y-83465194D01*
X118051673Y-83551151D01*
X118161109Y-83642978D01*
X118276413Y-83801892D01*
X118318760Y-83899588D01*
X118330499Y-84033763D01*
X118275150Y-84173807D01*
X118122106Y-84356198D01*
X118529677Y-82833324D02*
X119040374Y-83261849D01*
X118084806Y-82770844D02*
X118478936Y-83412370D01*
X118876853Y-82938152D01*
X123851673Y-99823677D02*
X123678025Y-98838869D01*
X123912503Y-98797525D01*
X124061460Y-98819613D01*
X124171789Y-98896866D01*
X124235222Y-98982389D01*
X124315194Y-99161702D01*
X124340001Y-99302390D01*
X124326181Y-99498241D01*
X124295823Y-99600301D01*
X124218570Y-99710630D01*
X124086151Y-99782332D01*
X123851673Y-99823677D01*
X125131790Y-98582532D02*
X124662833Y-98665221D01*
X124698627Y-99142446D01*
X124737254Y-99087281D01*
X124822776Y-99023848D01*
X125057255Y-98982503D01*
X125159315Y-99012861D01*
X125214479Y-99051487D01*
X125277913Y-99137010D01*
X125319258Y-99371488D01*
X125288900Y-99473548D01*
X125250273Y-99528713D01*
X125164751Y-99592146D01*
X124930272Y-99633491D01*
X124828212Y-99603133D01*
X124773048Y-99564507D01*
X118384600Y-115022726D02*
X118884600Y-114156701D01*
X119090797Y-114275748D01*
X119190706Y-114388416D01*
X119225565Y-114518514D01*
X119219186Y-114624802D01*
X119165187Y-114813568D01*
X119093758Y-114937287D01*
X118957281Y-115078435D01*
X118868422Y-115137104D01*
X118738325Y-115171963D01*
X118590797Y-115141773D01*
X118384600Y-115022726D01*
X120121780Y-114870987D02*
X119956822Y-114775748D01*
X119850534Y-114769368D01*
X119785485Y-114786798D01*
X119631578Y-114862897D01*
X119495101Y-115004044D01*
X119304625Y-115333959D01*
X119298245Y-115440247D01*
X119315675Y-115505296D01*
X119374344Y-115594154D01*
X119539302Y-115689393D01*
X119645590Y-115695773D01*
X119710638Y-115678343D01*
X119799497Y-115619674D01*
X119918544Y-115413478D01*
X119924924Y-115307189D01*
X119907495Y-115242140D01*
X119848826Y-115153282D01*
X119683868Y-115058043D01*
X119577580Y-115051663D01*
X119512531Y-115069093D01*
X119423672Y-115127763D01*
X104322458Y-123211141D02*
X105262150Y-122869121D01*
X105343583Y-123092857D01*
X105347697Y-123243386D01*
X105290775Y-123365454D01*
X105217568Y-123442775D01*
X105054865Y-123552668D01*
X104920623Y-123601529D01*
X104725347Y-123621928D01*
X104619566Y-123609754D01*
X104497498Y-123552833D01*
X104403891Y-123434877D01*
X104322458Y-123211141D01*
X105571597Y-123719319D02*
X105799611Y-124345781D01*
X104713338Y-124285075D01*
X93172656Y-130098306D02*
X92232963Y-129756286D01*
X92314396Y-129532550D01*
X92408004Y-129414594D01*
X92530072Y-129357672D01*
X92635853Y-129345499D01*
X92831128Y-129365898D01*
X92965371Y-129414758D01*
X93128073Y-129524652D01*
X93201281Y-129601973D01*
X93258202Y-129724040D01*
X93254089Y-129874570D01*
X93172656Y-130098306D01*
X93026568Y-128828931D02*
X92949248Y-128902139D01*
X92888214Y-128930600D01*
X92782433Y-128942774D01*
X92737685Y-128926487D01*
X92664478Y-128849166D01*
X92636017Y-128788133D01*
X92623843Y-128682351D01*
X92688990Y-128503362D01*
X92766311Y-128430154D01*
X92827345Y-128401693D01*
X92933126Y-128389519D01*
X92977873Y-128405806D01*
X93051081Y-128483127D01*
X93079541Y-128544160D01*
X93091715Y-128649941D01*
X93026568Y-128828931D01*
X93038742Y-128934712D01*
X93067203Y-128995746D01*
X93140411Y-129073067D01*
X93319400Y-129138214D01*
X93425181Y-129126040D01*
X93486215Y-129097579D01*
X93563536Y-129024372D01*
X93628683Y-128845382D01*
X93616509Y-128739601D01*
X93588048Y-128678567D01*
X93514841Y-128601246D01*
X93335852Y-128536100D01*
X93230070Y-128548273D01*
X93169036Y-128576734D01*
X93091715Y-128649941D01*
X75586981Y-118510821D02*
X75086981Y-117644796D01*
X75293178Y-117525748D01*
X75440706Y-117495558D01*
X75570803Y-117530418D01*
X75659662Y-117589087D01*
X75796139Y-117730234D01*
X75867568Y-117853953D01*
X75921567Y-118042720D01*
X75927946Y-118149008D01*
X75893087Y-118279105D01*
X75793178Y-118391773D01*
X75586981Y-118510821D01*
X76494246Y-117987011D02*
X76659203Y-117891773D01*
X76717873Y-117802915D01*
X76735303Y-117737866D01*
X76746353Y-117566529D01*
X76692354Y-117377763D01*
X76501878Y-117047848D01*
X76413019Y-116989179D01*
X76347971Y-116971749D01*
X76241683Y-116978129D01*
X76076725Y-117073367D01*
X76018056Y-117162225D01*
X76000626Y-117227274D01*
X76007006Y-117333562D01*
X76126053Y-117539758D01*
X76214911Y-117598427D01*
X76279961Y-117615858D01*
X76386249Y-117609478D01*
X76551207Y-117514240D01*
X76609876Y-117425382D01*
X76627305Y-117360332D01*
X76620925Y-117254044D01*
X69225607Y-98484650D02*
X69399255Y-97499842D01*
X69633733Y-97541187D01*
X69766151Y-97612889D01*
X69843405Y-97723218D01*
X69873762Y-97825278D01*
X69887582Y-98021130D01*
X69862775Y-98161817D01*
X69782804Y-98341131D01*
X69719370Y-98426653D01*
X69609041Y-98503906D01*
X69460084Y-98525995D01*
X69225607Y-98484650D01*
X70726266Y-98749257D02*
X70163519Y-98650029D01*
X70444892Y-98699643D02*
X70618540Y-97714835D01*
X70499942Y-97838984D01*
X70389613Y-97916237D01*
X70287553Y-97946595D01*
X71509557Y-97871945D02*
X71603349Y-97888483D01*
X71688871Y-97951917D01*
X71727498Y-98007081D01*
X71757855Y-98109141D01*
X71771675Y-98304993D01*
X71730330Y-98539471D01*
X71650359Y-98718785D01*
X71586925Y-98804307D01*
X71531761Y-98842933D01*
X71429701Y-98873291D01*
X71335909Y-98856753D01*
X71250387Y-98793320D01*
X71211760Y-98738155D01*
X71181402Y-98636095D01*
X71167583Y-98440244D01*
X71208928Y-98205765D01*
X71288899Y-98026452D01*
X71352332Y-97940929D01*
X71407497Y-97902303D01*
X71509557Y-97871945D01*
X77372928Y-79110588D02*
X78138972Y-78467800D01*
X78292017Y-78650192D01*
X78347366Y-78790236D01*
X78335627Y-78924410D01*
X78293280Y-79022107D01*
X78177976Y-79181020D01*
X78068540Y-79272848D01*
X77892018Y-79358805D01*
X77788453Y-79383545D01*
X77654278Y-79371806D01*
X77525973Y-79292979D01*
X77372928Y-79110588D01*
X78352414Y-80277894D02*
X77985107Y-79840154D01*
X78168760Y-80059024D02*
X78934805Y-79416236D01*
X78764152Y-79435106D01*
X78629978Y-79423367D01*
X78532282Y-79381020D01*
X78964593Y-81007460D02*
X78597285Y-80569720D01*
X78780939Y-80788590D02*
X79546983Y-80145802D01*
X79376331Y-80164672D01*
X79242156Y-80152934D01*
X79144460Y-80110586D01*
X101017143Y-111528666D02*
X101064762Y-111576285D01*
X101112381Y-111719142D01*
X101112381Y-111814380D01*
X101064762Y-111957238D01*
X100969524Y-112052476D01*
X100874286Y-112100095D01*
X100683810Y-112147714D01*
X100540952Y-112147714D01*
X100350476Y-112100095D01*
X100255238Y-112052476D01*
X100160000Y-111957238D01*
X100112381Y-111814380D01*
X100112381Y-111719142D01*
X100160000Y-111576285D01*
X100207619Y-111528666D01*
X100112381Y-111195333D02*
X100112381Y-110576285D01*
X100493333Y-110909619D01*
X100493333Y-110766761D01*
X100540952Y-110671523D01*
X100588571Y-110623904D01*
X100683810Y-110576285D01*
X100921905Y-110576285D01*
X101017143Y-110623904D01*
X101064762Y-110671523D01*
X101112381Y-110766761D01*
X101112381Y-111052476D01*
X101064762Y-111147714D01*
X101017143Y-111195333D01*
X86233334Y-85357143D02*
X86185715Y-85404762D01*
X86042858Y-85452381D01*
X85947620Y-85452381D01*
X85804762Y-85404762D01*
X85709524Y-85309524D01*
X85661905Y-85214286D01*
X85614286Y-85023810D01*
X85614286Y-84880952D01*
X85661905Y-84690476D01*
X85709524Y-84595238D01*
X85804762Y-84500000D01*
X85947620Y-84452381D01*
X86042858Y-84452381D01*
X86185715Y-84500000D01*
X86233334Y-84547619D01*
X87090477Y-84452381D02*
X86900000Y-84452381D01*
X86804762Y-84500000D01*
X86757143Y-84547619D01*
X86661905Y-84690476D01*
X86614286Y-84880952D01*
X86614286Y-85261905D01*
X86661905Y-85357143D01*
X86709524Y-85404762D01*
X86804762Y-85452381D01*
X86995239Y-85452381D01*
X87090477Y-85404762D01*
X87138096Y-85357143D01*
X87185715Y-85261905D01*
X87185715Y-85023810D01*
X87138096Y-84928571D01*
X87090477Y-84880952D01*
X86995239Y-84833333D01*
X86804762Y-84833333D01*
X86709524Y-84880952D01*
X86661905Y-84928571D01*
X86614286Y-85023810D01*
X86233334Y-82957143D02*
X86185715Y-83004762D01*
X86042858Y-83052381D01*
X85947620Y-83052381D01*
X85804762Y-83004762D01*
X85709524Y-82909524D01*
X85661905Y-82814286D01*
X85614286Y-82623810D01*
X85614286Y-82480952D01*
X85661905Y-82290476D01*
X85709524Y-82195238D01*
X85804762Y-82100000D01*
X85947620Y-82052381D01*
X86042858Y-82052381D01*
X86185715Y-82100000D01*
X86233334Y-82147619D01*
X86566667Y-82052381D02*
X87233334Y-82052381D01*
X86804762Y-83052381D01*
X123575088Y-89136899D02*
X123564553Y-89203413D01*
X123476969Y-89325907D01*
X123399920Y-89381886D01*
X123256355Y-89427331D01*
X123123327Y-89406262D01*
X123028823Y-89357202D01*
X122878339Y-89231094D01*
X122794369Y-89115519D01*
X122720935Y-88933431D01*
X122703480Y-88828392D01*
X122724550Y-88695364D01*
X122812135Y-88572869D01*
X122889184Y-88516890D01*
X123032747Y-88471445D01*
X123099261Y-88481980D01*
X123757485Y-88415775D02*
X123652446Y-88433230D01*
X123585931Y-88422695D01*
X123491427Y-88373636D01*
X123463438Y-88335111D01*
X123445983Y-88230072D01*
X123456518Y-88163558D01*
X123505577Y-88069054D01*
X123659676Y-87957094D01*
X123764715Y-87939639D01*
X123831229Y-87950174D01*
X123925733Y-87999234D01*
X123953723Y-88037758D01*
X123971178Y-88142797D01*
X123960643Y-88209311D01*
X123911584Y-88303815D01*
X123757485Y-88415775D01*
X123708425Y-88510279D01*
X123697890Y-88576793D01*
X123715346Y-88681833D01*
X123827305Y-88835931D01*
X123921809Y-88884991D01*
X123988323Y-88895526D01*
X124093362Y-88878071D01*
X124247461Y-88766111D01*
X124296521Y-88671607D01*
X124307056Y-88605093D01*
X124289601Y-88500054D01*
X124177642Y-88345956D01*
X124083137Y-88296895D01*
X124016623Y-88286361D01*
X123911584Y-88303815D01*
X114863101Y-120575088D02*
X114796587Y-120564553D01*
X114674093Y-120476969D01*
X114618114Y-120399920D01*
X114572669Y-120256355D01*
X114593738Y-120123327D01*
X114642798Y-120028823D01*
X114768906Y-119878339D01*
X114884481Y-119794369D01*
X115066569Y-119720935D01*
X115171608Y-119703480D01*
X115304636Y-119724550D01*
X115427131Y-119812135D01*
X115483110Y-119889184D01*
X115528555Y-120032747D01*
X115518020Y-120099261D01*
X115065950Y-121016313D02*
X115177909Y-121170411D01*
X115272413Y-121219472D01*
X115338928Y-121230006D01*
X115510481Y-121223086D01*
X115692569Y-121149652D01*
X116000766Y-120925733D01*
X116049826Y-120831229D01*
X116060361Y-120764715D01*
X116042906Y-120659676D01*
X115930946Y-120505577D01*
X115836442Y-120456518D01*
X115769928Y-120445983D01*
X115664889Y-120463438D01*
X115472266Y-120603386D01*
X115423207Y-120697890D01*
X115412671Y-120764405D01*
X115430126Y-120869444D01*
X115542085Y-121023543D01*
X115636590Y-121072603D01*
X115703105Y-121083137D01*
X115808144Y-121065682D01*
X84161073Y-121980006D02*
X84171608Y-122046520D01*
X84126163Y-122190083D01*
X84070184Y-122267133D01*
X83947689Y-122354717D01*
X83814661Y-122375787D01*
X83709622Y-122358332D01*
X83527534Y-122284898D01*
X83411959Y-122200928D01*
X83285850Y-122050444D01*
X83236791Y-121955940D01*
X83215721Y-121822912D01*
X83261167Y-121679347D01*
X83317146Y-121602298D01*
X83439640Y-121514714D01*
X83506154Y-121504179D01*
X84797918Y-121265493D02*
X84462040Y-121727788D01*
X84629978Y-121496641D02*
X83820962Y-120908856D01*
X83880556Y-121069874D01*
X83901625Y-121202903D01*
X83884171Y-121307942D01*
X84352767Y-120176888D02*
X84408747Y-120099838D01*
X84503251Y-120050779D01*
X84569766Y-120040244D01*
X84674805Y-120057699D01*
X84856893Y-120131133D01*
X85049516Y-120271082D01*
X85175625Y-120421566D01*
X85224684Y-120516070D01*
X85235219Y-120582584D01*
X85217764Y-120687623D01*
X85161784Y-120764673D01*
X85067280Y-120813733D01*
X85000766Y-120824267D01*
X84895727Y-120806812D01*
X84713639Y-120733378D01*
X84521015Y-120593429D01*
X84394907Y-120442945D01*
X84345847Y-120348441D01*
X84335312Y-120281927D01*
X84352767Y-120176888D01*
X75035645Y-88161073D02*
X74969131Y-88171608D01*
X74825568Y-88126163D01*
X74748518Y-88070184D01*
X74660934Y-87947689D01*
X74639864Y-87814661D01*
X74657319Y-87709622D01*
X74730753Y-87527534D01*
X74814723Y-87411959D01*
X74965207Y-87285850D01*
X75059711Y-87236791D01*
X75192739Y-87215721D01*
X75336304Y-87261167D01*
X75413353Y-87317146D01*
X75500937Y-87439640D01*
X75511472Y-87506154D01*
X75750158Y-88797918D02*
X75287863Y-88462040D01*
X75519010Y-88629978D02*
X76106795Y-87820962D01*
X75945777Y-87880556D01*
X75812748Y-87901625D01*
X75707709Y-87884171D01*
X76520651Y-89357713D02*
X76058355Y-89021836D01*
X76289502Y-89189774D02*
X76877288Y-88380757D01*
X76716269Y-88440351D01*
X76583241Y-88461421D01*
X76478202Y-88443966D01*
X113455524Y-106787905D02*
X113455524Y-105987905D01*
X113646000Y-105987905D01*
X113760286Y-106026000D01*
X113836477Y-106102190D01*
X113874572Y-106178381D01*
X113912667Y-106330762D01*
X113912667Y-106445048D01*
X113874572Y-106597429D01*
X113836477Y-106673619D01*
X113760286Y-106749810D01*
X113646000Y-106787905D01*
X113455524Y-106787905D01*
X114217429Y-106064095D02*
X114255524Y-106026000D01*
X114331715Y-105987905D01*
X114522191Y-105987905D01*
X114598381Y-106026000D01*
X114636477Y-106064095D01*
X114674572Y-106140286D01*
X114674572Y-106216476D01*
X114636477Y-106330762D01*
X114179334Y-106787905D01*
X114674572Y-106787905D01*
X98829905Y-134310381D02*
X98829905Y-133310381D01*
X99068000Y-133310381D01*
X99210858Y-133358000D01*
X99306096Y-133453238D01*
X99353715Y-133548476D01*
X99401334Y-133738952D01*
X99401334Y-133881810D01*
X99353715Y-134072286D01*
X99306096Y-134167524D01*
X99210858Y-134262762D01*
X99068000Y-134310381D01*
X98829905Y-134310381D01*
X99734667Y-133310381D02*
X100353715Y-133310381D01*
X100020381Y-133691333D01*
X100163239Y-133691333D01*
X100258477Y-133738952D01*
X100306096Y-133786571D01*
X100353715Y-133881810D01*
X100353715Y-134119905D01*
X100306096Y-134215143D01*
X100258477Y-134262762D01*
X100163239Y-134310381D01*
X99877524Y-134310381D01*
X99782286Y-134262762D01*
X99734667Y-134215143D01*
X87544667Y-107772381D02*
X87544667Y-108486667D01*
X87497047Y-108629524D01*
X87401809Y-108724762D01*
X87258952Y-108772381D01*
X87163714Y-108772381D01*
X88544667Y-108772381D02*
X87973238Y-108772381D01*
X88258952Y-108772381D02*
X88258952Y-107772381D01*
X88163714Y-107915238D01*
X88068476Y-108010476D01*
X87973238Y-108058095D01*
X116852210Y-64661038D02*
X116432364Y-65238907D01*
X116309869Y-65326491D01*
X116176840Y-65347560D01*
X116033277Y-65302116D01*
X115956228Y-65246136D01*
X117388250Y-65462516D02*
X116996393Y-66001860D01*
X117419544Y-65014370D02*
X116807075Y-65452290D01*
X117307895Y-65816158D01*
X82108446Y-65152895D02*
X82528292Y-65730765D01*
X82573736Y-65874329D01*
X82552667Y-66007357D01*
X82465083Y-66129851D01*
X82388033Y-66185831D01*
X82878938Y-64593100D02*
X82493691Y-64872998D01*
X82735064Y-65286233D01*
X82745599Y-65219719D01*
X82794658Y-65125215D01*
X82987282Y-64985266D01*
X83092321Y-64967811D01*
X83158835Y-64978345D01*
X83253340Y-65027406D01*
X83393289Y-65220029D01*
X83410744Y-65325067D01*
X83400209Y-65391582D01*
X83351149Y-65486086D01*
X83158526Y-65626035D01*
X83053487Y-65643490D01*
X82986973Y-65632955D01*
X134117811Y-81813758D02*
X133438485Y-82034484D01*
X133287904Y-82033340D01*
X133167897Y-81972194D01*
X133078464Y-81851044D01*
X133049034Y-81760467D01*
X134397398Y-82674238D02*
X134338537Y-82493083D01*
X134263819Y-82417222D01*
X134203815Y-82386648D01*
X134038520Y-82340217D01*
X133842652Y-82353789D01*
X133480344Y-82471510D01*
X133404482Y-82546228D01*
X133373909Y-82606232D01*
X133358051Y-82711524D01*
X133416911Y-82892678D01*
X133491630Y-82968540D01*
X133551633Y-82999113D01*
X133656925Y-83014971D01*
X133883367Y-82941396D01*
X133959229Y-82866677D01*
X133989803Y-82806673D01*
X134005661Y-82701382D01*
X133946800Y-82520227D01*
X133872082Y-82444366D01*
X133812078Y-82413792D01*
X133706786Y-82397934D01*
X130276178Y-116347795D02*
X130955504Y-116568521D01*
X131076654Y-116657956D01*
X131137800Y-116777963D01*
X131138944Y-116928543D01*
X131109513Y-117019120D01*
X131389100Y-116158640D02*
X131447961Y-115977487D01*
X131432103Y-115872194D01*
X131401529Y-115812190D01*
X131295094Y-115677468D01*
X131128656Y-115573320D01*
X130766348Y-115455599D01*
X130661056Y-115471457D01*
X130601053Y-115502030D01*
X130526334Y-115577892D01*
X130467474Y-115759046D01*
X130483332Y-115864338D01*
X130513905Y-115924342D01*
X130589767Y-115999060D01*
X130816209Y-116072635D01*
X130921501Y-116056777D01*
X130981505Y-116026204D01*
X131056223Y-115950343D01*
X131115084Y-115769188D01*
X131099226Y-115663896D01*
X131068652Y-115603893D01*
X130992790Y-115529174D01*
X62859518Y-96321046D02*
X62180191Y-96541772D01*
X62029611Y-96540628D01*
X61909604Y-96479482D01*
X61820170Y-96358332D01*
X61790740Y-96267755D01*
X62055612Y-97082946D02*
X63006668Y-96773929D01*
X63124389Y-97136237D01*
X63108531Y-97241529D01*
X63077958Y-97301532D01*
X63002096Y-97376251D01*
X62866231Y-97420396D01*
X62760939Y-97404538D01*
X62700936Y-97373965D01*
X62626217Y-97298103D01*
X62508496Y-96935795D01*
X63210394Y-97709128D02*
X63270397Y-97739701D01*
X63345116Y-97815562D01*
X63418691Y-98042005D01*
X63402833Y-98147297D01*
X63372260Y-98207300D01*
X63296398Y-98282019D01*
X63205821Y-98311449D01*
X63055241Y-98310306D01*
X62335199Y-97943426D01*
X62526495Y-98532176D01*
X91404762Y-90447619D02*
X91309524Y-90400000D01*
X91214286Y-90304762D01*
X91071429Y-90161905D01*
X90976190Y-90114286D01*
X90880952Y-90114286D01*
X90928571Y-90352381D02*
X90833333Y-90304762D01*
X90738095Y-90209524D01*
X90690476Y-90019048D01*
X90690476Y-89685714D01*
X90738095Y-89495238D01*
X90833333Y-89400000D01*
X90928571Y-89352381D01*
X91119048Y-89352381D01*
X91214286Y-89400000D01*
X91309524Y-89495238D01*
X91357143Y-89685714D01*
X91357143Y-90019048D01*
X91309524Y-90209524D01*
X91214286Y-90304762D01*
X91119048Y-90352381D01*
X90928571Y-90352381D01*
X92309524Y-90352381D02*
X91738095Y-90352381D01*
X92023809Y-90352381D02*
X92023809Y-89352381D01*
X91928571Y-89495238D01*
X91833333Y-89590476D01*
X91738095Y-89638095D01*
X107466667Y-133504762D02*
X107609524Y-133552381D01*
X107847620Y-133552381D01*
X107942858Y-133504762D01*
X107990477Y-133457143D01*
X108038096Y-133361905D01*
X108038096Y-133266667D01*
X107990477Y-133171429D01*
X107942858Y-133123810D01*
X107847620Y-133076190D01*
X107657143Y-133028571D01*
X107561905Y-132980952D01*
X107514286Y-132933333D01*
X107466667Y-132838095D01*
X107466667Y-132742857D01*
X107514286Y-132647619D01*
X107561905Y-132600000D01*
X107657143Y-132552381D01*
X107895239Y-132552381D01*
X108038096Y-132600000D01*
X108371429Y-132552381D02*
X108609524Y-133552381D01*
X108800001Y-132838095D01*
X108990477Y-133552381D01*
X109228572Y-132552381D01*
X110133334Y-133552381D02*
X109561905Y-133552381D01*
X109847619Y-133552381D02*
X109847619Y-132552381D01*
X109752381Y-132695238D01*
X109657143Y-132790476D01*
X109561905Y-132838095D01*
X112359224Y-130611173D02*
X112502788Y-130565728D01*
X112695411Y-130425779D01*
X112744471Y-130331275D01*
X112755006Y-130264760D01*
X112737551Y-130159722D01*
X112681571Y-130082672D01*
X112587067Y-130033613D01*
X112520553Y-130023078D01*
X112415513Y-130040532D01*
X112233424Y-130113967D01*
X112128385Y-130131422D01*
X112061871Y-130120887D01*
X111967367Y-130071828D01*
X111911388Y-129994779D01*
X111893933Y-129889740D01*
X111904467Y-129823225D01*
X111953527Y-129728721D01*
X112146151Y-129588772D01*
X112289714Y-129543327D01*
X112531396Y-129308875D02*
X113311805Y-129977943D01*
X113046057Y-129288114D01*
X113620002Y-129754024D01*
X113224840Y-128805059D01*
X113550491Y-128686180D02*
X113561026Y-128619665D01*
X113610085Y-128525161D01*
X113802709Y-128385212D01*
X113907748Y-128367757D01*
X113974262Y-128378292D01*
X114068766Y-128427351D01*
X114124746Y-128504400D01*
X114170191Y-128647964D01*
X114043772Y-129446137D01*
X114544593Y-129082270D01*
X84783398Y-128943746D02*
X84870982Y-129066240D01*
X85063606Y-129206189D01*
X85168644Y-129223644D01*
X85235159Y-129213109D01*
X85329663Y-129164050D01*
X85385642Y-129087001D01*
X85403097Y-128981962D01*
X85392562Y-128915447D01*
X85343504Y-128820942D01*
X85217394Y-128670458D01*
X85168335Y-128575954D01*
X85157800Y-128509440D01*
X85175255Y-128404401D01*
X85231234Y-128327352D01*
X85325738Y-128278292D01*
X85392253Y-128267758D01*
X85497292Y-128285212D01*
X85689915Y-128425162D01*
X85777499Y-128547656D01*
X86075161Y-128705059D02*
X85679999Y-129654025D01*
X86253945Y-129188115D01*
X85988196Y-129877943D01*
X86768604Y-129208875D01*
X86999752Y-129376814D02*
X87500572Y-129740681D01*
X87006981Y-129852949D01*
X87122556Y-129936919D01*
X87171615Y-130031423D01*
X87182150Y-130097937D01*
X87164695Y-130202977D01*
X87024746Y-130395600D01*
X86930242Y-130444659D01*
X86863728Y-130455194D01*
X86758689Y-130437739D01*
X86527540Y-130269800D01*
X86478481Y-130175296D01*
X86467946Y-130108782D01*
X103598095Y-108614381D02*
X103598095Y-109423905D01*
X103645714Y-109519143D01*
X103693333Y-109566762D01*
X103788571Y-109614381D01*
X103979048Y-109614381D01*
X104074286Y-109566762D01*
X104121905Y-109519143D01*
X104169524Y-109423905D01*
X104169524Y-108614381D01*
X105169524Y-109614381D02*
X104598095Y-109614381D01*
X104883809Y-109614381D02*
X104883809Y-108614381D01*
X104788571Y-108757238D01*
X104693333Y-108852476D01*
X104598095Y-108900095D01*
X88738095Y-60452381D02*
X88738095Y-61261905D01*
X88785714Y-61357143D01*
X88833333Y-61404762D01*
X88928571Y-61452381D01*
X89119048Y-61452381D01*
X89214286Y-61404762D01*
X89261905Y-61357143D01*
X89309524Y-61261905D01*
X89309524Y-60452381D01*
X90214286Y-60785714D02*
X90214286Y-61452381D01*
X89976190Y-60404762D02*
X89738095Y-61119048D01*
X90357143Y-61119048D01*
X111017143Y-111504857D02*
X111064762Y-111552476D01*
X111112381Y-111695333D01*
X111112381Y-111790571D01*
X111064762Y-111933429D01*
X110969524Y-112028667D01*
X110874286Y-112076286D01*
X110683810Y-112123905D01*
X110540952Y-112123905D01*
X110350476Y-112076286D01*
X110255238Y-112028667D01*
X110160000Y-111933429D01*
X110112381Y-111790571D01*
X110112381Y-111695333D01*
X110160000Y-111552476D01*
X110207619Y-111504857D01*
X111112381Y-110552476D02*
X111112381Y-111123905D01*
X111112381Y-110838191D02*
X110112381Y-110838191D01*
X110255238Y-110933429D01*
X110350476Y-111028667D01*
X110398095Y-111123905D01*
X110540952Y-109981048D02*
X110493333Y-110076286D01*
X110445714Y-110123905D01*
X110350476Y-110171524D01*
X110302857Y-110171524D01*
X110207619Y-110123905D01*
X110160000Y-110076286D01*
X110112381Y-109981048D01*
X110112381Y-109790571D01*
X110160000Y-109695333D01*
X110207619Y-109647714D01*
X110302857Y-109600095D01*
X110350476Y-109600095D01*
X110445714Y-109647714D01*
X110493333Y-109695333D01*
X110540952Y-109790571D01*
X110540952Y-109981048D01*
X110588571Y-110076286D01*
X110636190Y-110123905D01*
X110731429Y-110171524D01*
X110921905Y-110171524D01*
X111017143Y-110123905D01*
X111064762Y-110076286D01*
X111112381Y-109981048D01*
X111112381Y-109790571D01*
X111064762Y-109695333D01*
X111017143Y-109647714D01*
X110921905Y-109600095D01*
X110731429Y-109600095D01*
X110636190Y-109647714D01*
X110588571Y-109695333D01*
X110540952Y-109790571D01*
X90766667Y-116652381D02*
X90766667Y-117366667D01*
X90719047Y-117509524D01*
X90623809Y-117604762D01*
X90480952Y-117652381D01*
X90385714Y-117652381D01*
X91147619Y-116652381D02*
X91766667Y-116652381D01*
X91433333Y-117033333D01*
X91576191Y-117033333D01*
X91671429Y-117080952D01*
X91719048Y-117128571D01*
X91766667Y-117223810D01*
X91766667Y-117461905D01*
X91719048Y-117557143D01*
X91671429Y-117604762D01*
X91576191Y-117652381D01*
X91290476Y-117652381D01*
X91195238Y-117604762D01*
X91147619Y-117557143D01*
X86233334Y-88052381D02*
X85900000Y-87576190D01*
X85661905Y-88052381D02*
X85661905Y-87052381D01*
X86042858Y-87052381D01*
X86138096Y-87100000D01*
X86185715Y-87147619D01*
X86233334Y-87242857D01*
X86233334Y-87385714D01*
X86185715Y-87480952D01*
X86138096Y-87528571D01*
X86042858Y-87576190D01*
X85661905Y-87576190D01*
X86614286Y-87147619D02*
X86661905Y-87100000D01*
X86757143Y-87052381D01*
X86995239Y-87052381D01*
X87090477Y-87100000D01*
X87138096Y-87147619D01*
X87185715Y-87242857D01*
X87185715Y-87338095D01*
X87138096Y-87480952D01*
X86566667Y-88052381D01*
X87185715Y-88052381D01*
X100196667Y-106787905D02*
X99930000Y-106406952D01*
X99739524Y-106787905D02*
X99739524Y-105987905D01*
X100044286Y-105987905D01*
X100120477Y-106026000D01*
X100158572Y-106064095D01*
X100196667Y-106140286D01*
X100196667Y-106254571D01*
X100158572Y-106330762D01*
X100120477Y-106368857D01*
X100044286Y-106406952D01*
X99739524Y-106406952D01*
X100463334Y-105987905D02*
X100958572Y-105987905D01*
X100691905Y-106292667D01*
X100806191Y-106292667D01*
X100882381Y-106330762D01*
X100920477Y-106368857D01*
X100958572Y-106445048D01*
X100958572Y-106635524D01*
X100920477Y-106711714D01*
X100882381Y-106749810D01*
X100806191Y-106787905D01*
X100577619Y-106787905D01*
X100501429Y-106749810D01*
X100463334Y-106711714D01*
X99655334Y-131008381D02*
X99322000Y-130532190D01*
X99083905Y-131008381D02*
X99083905Y-130008381D01*
X99464858Y-130008381D01*
X99560096Y-130056000D01*
X99607715Y-130103619D01*
X99655334Y-130198857D01*
X99655334Y-130341714D01*
X99607715Y-130436952D01*
X99560096Y-130484571D01*
X99464858Y-130532190D01*
X99083905Y-130532190D01*
X100512477Y-130341714D02*
X100512477Y-131008381D01*
X100274381Y-129960762D02*
X100036286Y-130675048D01*
X100655334Y-130675048D01*
X98418667Y-106787905D02*
X98152000Y-106406952D01*
X97961524Y-106787905D02*
X97961524Y-105987905D01*
X98266286Y-105987905D01*
X98342477Y-106026000D01*
X98380572Y-106064095D01*
X98418667Y-106140286D01*
X98418667Y-106254571D01*
X98380572Y-106330762D01*
X98342477Y-106368857D01*
X98266286Y-106406952D01*
X97961524Y-106406952D01*
X99104381Y-105987905D02*
X98952000Y-105987905D01*
X98875810Y-106026000D01*
X98837715Y-106064095D01*
X98761524Y-106178381D01*
X98723429Y-106330762D01*
X98723429Y-106635524D01*
X98761524Y-106711714D01*
X98799619Y-106749810D01*
X98875810Y-106787905D01*
X99028191Y-106787905D01*
X99104381Y-106749810D01*
X99142477Y-106711714D01*
X99180572Y-106635524D01*
X99180572Y-106445048D01*
X99142477Y-106368857D01*
X99104381Y-106330762D01*
X99028191Y-106292667D01*
X98875810Y-106292667D01*
X98799619Y-106330762D01*
X98761524Y-106368857D01*
X98723429Y-106445048D01*
X84852381Y-91966666D02*
X84376190Y-92300000D01*
X84852381Y-92538095D02*
X83852381Y-92538095D01*
X83852381Y-92157142D01*
X83900000Y-92061904D01*
X83947619Y-92014285D01*
X84042857Y-91966666D01*
X84185714Y-91966666D01*
X84280952Y-92014285D01*
X84328571Y-92061904D01*
X84376190Y-92157142D01*
X84376190Y-92538095D01*
X83852381Y-91633333D02*
X83852381Y-90966666D01*
X84852381Y-91395238D01*
X113333334Y-77952381D02*
X113000000Y-77476190D01*
X112761905Y-77952381D02*
X112761905Y-76952381D01*
X113142858Y-76952381D01*
X113238096Y-77000000D01*
X113285715Y-77047619D01*
X113333334Y-77142857D01*
X113333334Y-77285714D01*
X113285715Y-77380952D01*
X113238096Y-77428571D01*
X113142858Y-77476190D01*
X112761905Y-77476190D01*
X113904762Y-77380952D02*
X113809524Y-77333333D01*
X113761905Y-77285714D01*
X113714286Y-77190476D01*
X113714286Y-77142857D01*
X113761905Y-77047619D01*
X113809524Y-77000000D01*
X113904762Y-76952381D01*
X114095239Y-76952381D01*
X114190477Y-77000000D01*
X114238096Y-77047619D01*
X114285715Y-77142857D01*
X114285715Y-77190476D01*
X114238096Y-77285714D01*
X114190477Y-77333333D01*
X114095239Y-77380952D01*
X113904762Y-77380952D01*
X113809524Y-77428571D01*
X113761905Y-77476190D01*
X113714286Y-77571429D01*
X113714286Y-77761905D01*
X113761905Y-77857143D01*
X113809524Y-77904762D01*
X113904762Y-77952381D01*
X114095239Y-77952381D01*
X114190477Y-77904762D01*
X114238096Y-77857143D01*
X114285715Y-77761905D01*
X114285715Y-77571429D01*
X114238096Y-77476190D01*
X114190477Y-77428571D01*
X114095239Y-77380952D01*
X86333334Y-72952381D02*
X86000000Y-72476190D01*
X85761905Y-72952381D02*
X85761905Y-71952381D01*
X86142858Y-71952381D01*
X86238096Y-72000000D01*
X86285715Y-72047619D01*
X86333334Y-72142857D01*
X86333334Y-72285714D01*
X86285715Y-72380952D01*
X86238096Y-72428571D01*
X86142858Y-72476190D01*
X85761905Y-72476190D01*
X86809524Y-72952381D02*
X87000000Y-72952381D01*
X87095239Y-72904762D01*
X87142858Y-72857143D01*
X87238096Y-72714286D01*
X87285715Y-72523810D01*
X87285715Y-72142857D01*
X87238096Y-72047619D01*
X87190477Y-72000000D01*
X87095239Y-71952381D01*
X86904762Y-71952381D01*
X86809524Y-72000000D01*
X86761905Y-72047619D01*
X86714286Y-72142857D01*
X86714286Y-72380952D01*
X86761905Y-72476190D01*
X86809524Y-72523810D01*
X86904762Y-72571429D01*
X87095239Y-72571429D01*
X87190477Y-72523810D01*
X87238096Y-72476190D01*
X87285715Y-72380952D01*
X113357143Y-72952381D02*
X113023809Y-72476190D01*
X112785714Y-72952381D02*
X112785714Y-71952381D01*
X113166667Y-71952381D01*
X113261905Y-72000000D01*
X113309524Y-72047619D01*
X113357143Y-72142857D01*
X113357143Y-72285714D01*
X113309524Y-72380952D01*
X113261905Y-72428571D01*
X113166667Y-72476190D01*
X112785714Y-72476190D01*
X114309524Y-72952381D02*
X113738095Y-72952381D01*
X114023809Y-72952381D02*
X114023809Y-71952381D01*
X113928571Y-72095238D01*
X113833333Y-72190476D01*
X113738095Y-72238095D01*
X114928571Y-71952381D02*
X115023810Y-71952381D01*
X115119048Y-72000000D01*
X115166667Y-72047619D01*
X115214286Y-72142857D01*
X115261905Y-72333333D01*
X115261905Y-72571429D01*
X115214286Y-72761905D01*
X115166667Y-72857143D01*
X115119048Y-72904762D01*
X115023810Y-72952381D01*
X114928571Y-72952381D01*
X114833333Y-72904762D01*
X114785714Y-72857143D01*
X114738095Y-72761905D01*
X114690476Y-72571429D01*
X114690476Y-72333333D01*
X114738095Y-72142857D01*
X114785714Y-72047619D01*
X114833333Y-72000000D01*
X114928571Y-71952381D01*
X113357143Y-75452381D02*
X113023809Y-74976190D01*
X112785714Y-75452381D02*
X112785714Y-74452381D01*
X113166667Y-74452381D01*
X113261905Y-74500000D01*
X113309524Y-74547619D01*
X113357143Y-74642857D01*
X113357143Y-74785714D01*
X113309524Y-74880952D01*
X113261905Y-74928571D01*
X113166667Y-74976190D01*
X112785714Y-74976190D01*
X114309524Y-75452381D02*
X113738095Y-75452381D01*
X114023809Y-75452381D02*
X114023809Y-74452381D01*
X113928571Y-74595238D01*
X113833333Y-74690476D01*
X113738095Y-74738095D01*
X115261905Y-75452381D02*
X114690476Y-75452381D01*
X114976190Y-75452381D02*
X114976190Y-74452381D01*
X114880952Y-74595238D01*
X114785714Y-74690476D01*
X114690476Y-74738095D01*
X113357143Y-82952381D02*
X113023809Y-82476190D01*
X112785714Y-82952381D02*
X112785714Y-81952381D01*
X113166667Y-81952381D01*
X113261905Y-82000000D01*
X113309524Y-82047619D01*
X113357143Y-82142857D01*
X113357143Y-82285714D01*
X113309524Y-82380952D01*
X113261905Y-82428571D01*
X113166667Y-82476190D01*
X112785714Y-82476190D01*
X114309524Y-82952381D02*
X113738095Y-82952381D01*
X114023809Y-82952381D02*
X114023809Y-81952381D01*
X113928571Y-82095238D01*
X113833333Y-82190476D01*
X113738095Y-82238095D01*
X114690476Y-82047619D02*
X114738095Y-82000000D01*
X114833333Y-81952381D01*
X115071429Y-81952381D01*
X115166667Y-82000000D01*
X115214286Y-82047619D01*
X115261905Y-82142857D01*
X115261905Y-82238095D01*
X115214286Y-82380952D01*
X114642857Y-82952381D01*
X115261905Y-82952381D01*
X85357143Y-75452381D02*
X85023809Y-74976190D01*
X84785714Y-75452381D02*
X84785714Y-74452381D01*
X85166667Y-74452381D01*
X85261905Y-74500000D01*
X85309524Y-74547619D01*
X85357143Y-74642857D01*
X85357143Y-74785714D01*
X85309524Y-74880952D01*
X85261905Y-74928571D01*
X85166667Y-74976190D01*
X84785714Y-74976190D01*
X86309524Y-75452381D02*
X85738095Y-75452381D01*
X86023809Y-75452381D02*
X86023809Y-74452381D01*
X85928571Y-74595238D01*
X85833333Y-74690476D01*
X85738095Y-74738095D01*
X86642857Y-74452381D02*
X87261905Y-74452381D01*
X86928571Y-74833333D01*
X87071429Y-74833333D01*
X87166667Y-74880952D01*
X87214286Y-74928571D01*
X87261905Y-75023810D01*
X87261905Y-75261905D01*
X87214286Y-75357143D01*
X87166667Y-75404762D01*
X87071429Y-75452381D01*
X86785714Y-75452381D01*
X86690476Y-75404762D01*
X86642857Y-75357143D01*
X72745821Y-81743846D02*
X72196250Y-81554528D01*
X72283525Y-82079723D02*
X71695740Y-81270706D01*
X72003937Y-81046788D01*
X72108976Y-81029333D01*
X72175490Y-81039868D01*
X72269994Y-81088927D01*
X72353964Y-81204501D01*
X72371419Y-81309540D01*
X72360884Y-81376054D01*
X72311824Y-81470558D01*
X72003627Y-81694477D01*
X73516313Y-81184050D02*
X73054017Y-81519928D01*
X73285165Y-81351989D02*
X72697380Y-80542972D01*
X72704300Y-80714526D01*
X72683230Y-80847554D01*
X72634171Y-80942058D01*
X73817899Y-80140889D02*
X74209756Y-80680234D01*
X73401358Y-79972642D02*
X73628581Y-80690460D01*
X74129402Y-80326593D01*
X113357143Y-70452381D02*
X113023809Y-69976190D01*
X112785714Y-70452381D02*
X112785714Y-69452381D01*
X113166667Y-69452381D01*
X113261905Y-69500000D01*
X113309524Y-69547619D01*
X113357143Y-69642857D01*
X113357143Y-69785714D01*
X113309524Y-69880952D01*
X113261905Y-69928571D01*
X113166667Y-69976190D01*
X112785714Y-69976190D01*
X114309524Y-70452381D02*
X113738095Y-70452381D01*
X114023809Y-70452381D02*
X114023809Y-69452381D01*
X113928571Y-69595238D01*
X113833333Y-69690476D01*
X113738095Y-69738095D01*
X115214286Y-69452381D02*
X114738095Y-69452381D01*
X114690476Y-69928571D01*
X114738095Y-69880952D01*
X114833333Y-69833333D01*
X115071429Y-69833333D01*
X115166667Y-69880952D01*
X115214286Y-69928571D01*
X115261905Y-70023810D01*
X115261905Y-70261905D01*
X115214286Y-70357143D01*
X115166667Y-70404762D01*
X115071429Y-70452381D01*
X114833333Y-70452381D01*
X114738095Y-70404762D01*
X114690476Y-70357143D01*
X72745821Y-75243846D02*
X72196250Y-75054528D01*
X72283525Y-75579723D02*
X71695740Y-74770706D01*
X72003937Y-74546788D01*
X72108976Y-74529333D01*
X72175490Y-74539868D01*
X72269994Y-74588927D01*
X72353964Y-74704501D01*
X72371419Y-74809540D01*
X72360884Y-74876054D01*
X72311824Y-74970558D01*
X72003627Y-75194477D01*
X73516313Y-74684050D02*
X73054017Y-75019928D01*
X73285165Y-74851989D02*
X72697380Y-74042972D01*
X72704300Y-74214526D01*
X72683230Y-74347554D01*
X72634171Y-74442058D01*
X73621971Y-73371217D02*
X73467872Y-73483177D01*
X73418813Y-73577681D01*
X73408278Y-73644195D01*
X73415198Y-73815748D01*
X73488632Y-73997837D01*
X73712551Y-74306034D01*
X73807055Y-74355093D01*
X73873569Y-74365628D01*
X73978608Y-74348173D01*
X74132707Y-74236214D01*
X74181767Y-74141710D01*
X74192301Y-74075195D01*
X74174846Y-73970156D01*
X74034898Y-73777534D01*
X73940393Y-73728473D01*
X73873879Y-73717938D01*
X73768840Y-73735393D01*
X73614741Y-73847353D01*
X73565681Y-73941857D01*
X73555146Y-74008371D01*
X73572602Y-74113411D01*
X71745821Y-80243846D02*
X71196250Y-80054528D01*
X71283525Y-80579723D02*
X70695740Y-79770706D01*
X71003937Y-79546788D01*
X71108976Y-79529333D01*
X71175490Y-79539868D01*
X71269994Y-79588927D01*
X71353964Y-79704501D01*
X71371419Y-79809540D01*
X71360884Y-79876054D01*
X71311824Y-79970558D01*
X71003627Y-80194477D01*
X72516313Y-79684050D02*
X72054017Y-80019928D01*
X72285165Y-79851989D02*
X71697380Y-79042972D01*
X71704300Y-79214526D01*
X71683230Y-79347554D01*
X71634171Y-79442058D01*
X72198200Y-78679105D02*
X72737545Y-78287248D01*
X72978608Y-79348173D01*
X60763303Y-97038230D02*
X60083976Y-97258956D01*
X59933396Y-97257812D01*
X59813389Y-97196666D01*
X59723955Y-97075516D01*
X59694525Y-96984939D01*
X59959397Y-97800130D02*
X60910453Y-97491113D01*
X61028174Y-97853421D01*
X61012316Y-97958713D01*
X60981743Y-98018716D01*
X60905881Y-98093435D01*
X60770016Y-98137580D01*
X60664724Y-98121722D01*
X60604721Y-98091149D01*
X60530002Y-98015287D01*
X60412281Y-97652979D01*
X60430280Y-99249360D02*
X60253699Y-98705898D01*
X60341989Y-98977629D02*
X61293046Y-98668612D01*
X61127751Y-98622180D01*
X61007744Y-98561034D01*
X60933025Y-98485172D01*
X68438095Y-104752381D02*
X68438095Y-105561905D01*
X68485714Y-105657143D01*
X68533333Y-105704762D01*
X68628571Y-105752381D01*
X68819048Y-105752381D01*
X68914286Y-105704762D01*
X68961905Y-105657143D01*
X69009524Y-105561905D01*
X69009524Y-104752381D01*
X69390476Y-104752381D02*
X70009524Y-104752381D01*
X69676190Y-105133333D01*
X69819048Y-105133333D01*
X69914286Y-105180952D01*
X69961905Y-105228571D01*
X70009524Y-105323810D01*
X70009524Y-105561905D01*
X69961905Y-105657143D01*
X69914286Y-105704762D01*
X69819048Y-105752381D01*
X69533333Y-105752381D01*
X69438095Y-105704762D01*
X69390476Y-105657143D01*
X102893905Y-131008381D02*
X102893905Y-130008381D01*
X103132000Y-130008381D01*
X103274858Y-130056000D01*
X103370096Y-130151238D01*
X103417715Y-130246476D01*
X103465334Y-130436952D01*
X103465334Y-130579810D01*
X103417715Y-130770286D01*
X103370096Y-130865524D01*
X103274858Y-130960762D01*
X103132000Y-131008381D01*
X102893905Y-131008381D01*
X104417715Y-131008381D02*
X103846286Y-131008381D01*
X104132000Y-131008381D02*
X104132000Y-130008381D01*
X104036762Y-130151238D01*
X103941524Y-130246476D01*
X103846286Y-130294095D01*
X94416667Y-127214381D02*
X94416667Y-127928667D01*
X94369047Y-128071524D01*
X94273809Y-128166762D01*
X94130952Y-128214381D01*
X94035714Y-128214381D01*
X94892857Y-128214381D02*
X94892857Y-127214381D01*
X95273810Y-127214381D01*
X95369048Y-127262000D01*
X95416667Y-127309619D01*
X95464286Y-127404857D01*
X95464286Y-127547714D01*
X95416667Y-127642952D01*
X95369048Y-127690571D01*
X95273810Y-127738190D01*
X94892857Y-127738190D01*
X95797619Y-127214381D02*
X96416667Y-127214381D01*
X96083333Y-127595333D01*
X96226191Y-127595333D01*
X96321429Y-127642952D01*
X96369048Y-127690571D01*
X96416667Y-127785810D01*
X96416667Y-128023905D01*
X96369048Y-128119143D01*
X96321429Y-128166762D01*
X96226191Y-128214381D01*
X95940476Y-128214381D01*
X95845238Y-128166762D01*
X95797619Y-128119143D01*
X69833334Y-101457143D02*
X69785715Y-101504762D01*
X69642858Y-101552381D01*
X69547620Y-101552381D01*
X69404762Y-101504762D01*
X69309524Y-101409524D01*
X69261905Y-101314286D01*
X69214286Y-101123810D01*
X69214286Y-100980952D01*
X69261905Y-100790476D01*
X69309524Y-100695238D01*
X69404762Y-100600000D01*
X69547620Y-100552381D01*
X69642858Y-100552381D01*
X69785715Y-100600000D01*
X69833334Y-100647619D01*
X70690477Y-100885714D02*
X70690477Y-101552381D01*
X70452381Y-100504762D02*
X70214286Y-101219048D01*
X70833334Y-101219048D01*
X72833334Y-105257143D02*
X72785715Y-105304762D01*
X72642858Y-105352381D01*
X72547620Y-105352381D01*
X72404762Y-105304762D01*
X72309524Y-105209524D01*
X72261905Y-105114286D01*
X72214286Y-104923810D01*
X72214286Y-104780952D01*
X72261905Y-104590476D01*
X72309524Y-104495238D01*
X72404762Y-104400000D01*
X72547620Y-104352381D01*
X72642858Y-104352381D01*
X72785715Y-104400000D01*
X72833334Y-104447619D01*
X73738096Y-104352381D02*
X73261905Y-104352381D01*
X73214286Y-104828571D01*
X73261905Y-104780952D01*
X73357143Y-104733333D01*
X73595239Y-104733333D01*
X73690477Y-104780952D01*
X73738096Y-104828571D01*
X73785715Y-104923810D01*
X73785715Y-105161905D01*
X73738096Y-105257143D01*
X73690477Y-105304762D01*
X73595239Y-105352381D01*
X73357143Y-105352381D01*
X73261905Y-105304762D01*
X73214286Y-105257143D01*
X74333334Y-103052381D02*
X74000000Y-102576190D01*
X73761905Y-103052381D02*
X73761905Y-102052381D01*
X74142858Y-102052381D01*
X74238096Y-102100000D01*
X74285715Y-102147619D01*
X74333334Y-102242857D01*
X74333334Y-102385714D01*
X74285715Y-102480952D01*
X74238096Y-102528571D01*
X74142858Y-102576190D01*
X73761905Y-102576190D01*
X75285715Y-103052381D02*
X74714286Y-103052381D01*
X75000000Y-103052381D02*
X75000000Y-102052381D01*
X74904762Y-102195238D01*
X74809524Y-102290476D01*
X74714286Y-102338095D01*
X89074667Y-130770381D02*
X89074667Y-131484667D01*
X89027047Y-131627524D01*
X88931809Y-131722762D01*
X88788952Y-131770381D01*
X88693714Y-131770381D01*
X89503238Y-130865619D02*
X89550857Y-130818000D01*
X89646095Y-130770381D01*
X89884191Y-130770381D01*
X89979429Y-130818000D01*
X90027048Y-130865619D01*
X90074667Y-130960857D01*
X90074667Y-131056095D01*
X90027048Y-131198952D01*
X89455619Y-131770381D01*
X90074667Y-131770381D01*
%LPC*%
D15*
X58000000Y-100000000D03*
D16*
X68250000Y-122000000D03*
X131250000Y-122000000D03*
X68750000Y-76750000D03*
D17*
X112035554Y-89894834D03*
X112035554Y-87894834D03*
X114554000Y-89900000D03*
X114554000Y-87900000D03*
D18*
X108135554Y-89844834D03*
X108135554Y-88894834D03*
X108135554Y-87944834D03*
X105935554Y-87944834D03*
X105935554Y-89844834D03*
D17*
X102035554Y-89894834D03*
X102035554Y-87894834D03*
D10*
G36*
X67235210Y-113855218D02*
X65095333Y-114550507D01*
X64400044Y-112410630D01*
X66539921Y-111715341D01*
X67235210Y-113855218D01*
X67235210Y-113855218D01*
G37*
D19*
X65045085Y-110755283D03*
X64272542Y-108377641D03*
X63500000Y-106000000D03*
D10*
G36*
X65222294Y-92417583D02*
X63082417Y-91722294D01*
X63777706Y-89582417D01*
X65917583Y-90277706D01*
X65222294Y-92417583D01*
X65222294Y-92417583D01*
G37*
D19*
X65272542Y-88622359D03*
X66045085Y-86244717D03*
D10*
G36*
X120081349Y-79646145D02*
X119008887Y-78746242D01*
X120230183Y-77290757D01*
X121302645Y-78190660D01*
X120081349Y-79646145D01*
X120081349Y-79646145D01*
G37*
G36*
X117630007Y-77589225D02*
X116557545Y-76689322D01*
X117778841Y-75233837D01*
X118851303Y-76133740D01*
X117630007Y-77589225D01*
X117630007Y-77589225D01*
G37*
G36*
X116931689Y-83399763D02*
X115859227Y-82499860D01*
X117080523Y-81044375D01*
X118152985Y-81944278D01*
X116931689Y-83399763D01*
X116931689Y-83399763D01*
G37*
G36*
X114480347Y-81342843D02*
X113407885Y-80442940D01*
X114629181Y-78987455D01*
X115701643Y-79887358D01*
X114480347Y-81342843D01*
X114480347Y-81342843D01*
G37*
G36*
X128466411Y-97316084D02*
X128223304Y-95937353D01*
X130094439Y-95607422D01*
X130337546Y-96986153D01*
X128466411Y-97316084D01*
X128466411Y-97316084D01*
G37*
G36*
X127910737Y-94164700D02*
X127667630Y-92785969D01*
X129538765Y-92456038D01*
X129781872Y-93834769D01*
X127910737Y-94164700D01*
X127910737Y-94164700D01*
G37*
G36*
X123640853Y-98166960D02*
X123397746Y-96788229D01*
X125268881Y-96458298D01*
X125511988Y-97837029D01*
X123640853Y-98166960D01*
X123640853Y-98166960D01*
G37*
G36*
X123085179Y-95015576D02*
X122842072Y-93636845D01*
X124713207Y-93306914D01*
X124956314Y-94685645D01*
X123085179Y-95015576D01*
X123085179Y-95015576D01*
G37*
G36*
X123531724Y-116241859D02*
X124231724Y-115029423D01*
X125877172Y-115979423D01*
X125177172Y-117191859D01*
X123531724Y-116241859D01*
X123531724Y-116241859D01*
G37*
G36*
X125131724Y-113470577D02*
X125831724Y-112258141D01*
X127477172Y-113208141D01*
X126777172Y-114420577D01*
X125131724Y-113470577D01*
X125131724Y-113470577D01*
G37*
G36*
X119288200Y-113791859D02*
X119988200Y-112579423D01*
X121633648Y-113529423D01*
X120933648Y-114741859D01*
X119288200Y-113791859D01*
X119288200Y-113791859D01*
G37*
G36*
X120888200Y-111020577D02*
X121588200Y-109808141D01*
X123233648Y-110758141D01*
X122533648Y-111970577D01*
X120888200Y-111020577D01*
X120888200Y-111020577D01*
G37*
G36*
X107586281Y-127567886D02*
X108901851Y-127089058D01*
X109551689Y-128874474D01*
X108236119Y-129353302D01*
X107586281Y-127567886D01*
X107586281Y-127567886D01*
G37*
G36*
X110593298Y-126473422D02*
X111908868Y-125994594D01*
X112558706Y-127780010D01*
X111243136Y-128258838D01*
X110593298Y-126473422D01*
X110593298Y-126473422D01*
G37*
G36*
X105910382Y-122963392D02*
X107225952Y-122484564D01*
X107875790Y-124269980D01*
X106560220Y-124748808D01*
X105910382Y-122963392D01*
X105910382Y-122963392D01*
G37*
G36*
X108917399Y-121868928D02*
X110232969Y-121390100D01*
X110882807Y-123175516D01*
X109567237Y-123654344D01*
X108917399Y-121868928D01*
X108917399Y-121868928D01*
G37*
G36*
X88091132Y-125994594D02*
X89406702Y-126473422D01*
X88756864Y-128258838D01*
X87441294Y-127780010D01*
X88091132Y-125994594D01*
X88091132Y-125994594D01*
G37*
G36*
X91098149Y-127089058D02*
X92413719Y-127567886D01*
X91763881Y-129353302D01*
X90448311Y-128874474D01*
X91098149Y-127089058D01*
X91098149Y-127089058D01*
G37*
G36*
X89767031Y-121390100D02*
X91082601Y-121868928D01*
X90432763Y-123654344D01*
X89117193Y-123175516D01*
X89767031Y-121390100D01*
X89767031Y-121390100D01*
G37*
G36*
X92774048Y-122484564D02*
X94089618Y-122963392D01*
X93439780Y-124748808D01*
X92124210Y-124269980D01*
X92774048Y-122484564D01*
X92774048Y-122484564D01*
G37*
G36*
X74168276Y-112258141D02*
X74868276Y-113470577D01*
X73222828Y-114420577D01*
X72522828Y-113208141D01*
X74168276Y-112258141D01*
X74168276Y-112258141D01*
G37*
G36*
X75768276Y-115029423D02*
X76468276Y-116241859D01*
X74822828Y-117191859D01*
X74122828Y-115979423D01*
X75768276Y-115029423D01*
X75768276Y-115029423D01*
G37*
G36*
X78411800Y-109808141D02*
X79111800Y-111020577D01*
X77466352Y-111970577D01*
X76766352Y-110758141D01*
X78411800Y-109808141D01*
X78411800Y-109808141D01*
G37*
G36*
X80011800Y-112579423D02*
X80711800Y-113791859D01*
X79066352Y-114741859D01*
X78366352Y-113529423D01*
X80011800Y-112579423D01*
X80011800Y-112579423D01*
G37*
G36*
X72332370Y-92785969D02*
X72089263Y-94164700D01*
X70218128Y-93834769D01*
X70461235Y-92456038D01*
X72332370Y-92785969D01*
X72332370Y-92785969D01*
G37*
G36*
X71776696Y-95937353D02*
X71533589Y-97316084D01*
X69662454Y-96986153D01*
X69905561Y-95607422D01*
X71776696Y-95937353D01*
X71776696Y-95937353D01*
G37*
G36*
X77157928Y-93636845D02*
X76914821Y-95015576D01*
X75043686Y-94685645D01*
X75286793Y-93306914D01*
X77157928Y-93636845D01*
X77157928Y-93636845D01*
G37*
G36*
X76602254Y-96788229D02*
X76359147Y-98166960D01*
X74488012Y-97837029D01*
X74731119Y-96458298D01*
X76602254Y-96788229D01*
X76602254Y-96788229D01*
G37*
G36*
X83442455Y-76689322D02*
X82369993Y-77589225D01*
X81148697Y-76133740D01*
X82221159Y-75233837D01*
X83442455Y-76689322D01*
X83442455Y-76689322D01*
G37*
G36*
X80991113Y-78746242D02*
X79918651Y-79646145D01*
X78697355Y-78190660D01*
X79769817Y-77290757D01*
X80991113Y-78746242D01*
X80991113Y-78746242D01*
G37*
G36*
X86592115Y-80442940D02*
X85519653Y-81342843D01*
X84298357Y-79887358D01*
X85370819Y-78987455D01*
X86592115Y-80442940D01*
X86592115Y-80442940D01*
G37*
G36*
X84140773Y-82499860D02*
X83068311Y-83399763D01*
X81847015Y-81944278D01*
X82919477Y-81044375D01*
X84140773Y-82499860D01*
X84140773Y-82499860D01*
G37*
D17*
X102160000Y-111262000D03*
X102160000Y-109262000D03*
D20*
X90000000Y-85500000D03*
X88000000Y-85500000D03*
X90000000Y-83000000D03*
X88000000Y-83000000D03*
D10*
G36*
X122109594Y-88666674D02*
X121139748Y-87331796D01*
X122272372Y-86508896D01*
X123242218Y-87843774D01*
X122109594Y-88666674D01*
X122109594Y-88666674D01*
G37*
G36*
X123727628Y-87491104D02*
X122757782Y-86156226D01*
X123890406Y-85333326D01*
X124860252Y-86668204D01*
X123727628Y-87491104D01*
X123727628Y-87491104D01*
G37*
G36*
X115333326Y-119109594D02*
X116668204Y-118139748D01*
X117491104Y-119272372D01*
X116156226Y-120242218D01*
X115333326Y-119109594D01*
X115333326Y-119109594D01*
G37*
G36*
X116508896Y-120727628D02*
X117843774Y-119757782D01*
X118666674Y-120890406D01*
X117331796Y-121860252D01*
X116508896Y-120727628D01*
X116508896Y-120727628D01*
G37*
G36*
X83331796Y-118139748D02*
X84666674Y-119109594D01*
X83843774Y-120242218D01*
X82508896Y-119272372D01*
X83331796Y-118139748D01*
X83331796Y-118139748D01*
G37*
G36*
X82156226Y-119757782D02*
X83491104Y-120727628D01*
X82668204Y-121860252D01*
X81333326Y-120890406D01*
X82156226Y-119757782D01*
X82156226Y-119757782D01*
G37*
G36*
X78860252Y-87331796D02*
X77890406Y-88666674D01*
X76757782Y-87843774D01*
X77727628Y-86508896D01*
X78860252Y-87331796D01*
X78860252Y-87331796D01*
G37*
G36*
X77242218Y-86156226D02*
X76272372Y-87491104D01*
X75139748Y-86668204D01*
X76109594Y-85333326D01*
X77242218Y-86156226D01*
X77242218Y-86156226D01*
G37*
D21*
X112555020Y-107188000D03*
X110456980Y-107188000D03*
X99568000Y-135348980D03*
X99568000Y-137447020D03*
D22*
X90678000Y-109220000D03*
D23*
X92678000Y-109220000D03*
D10*
G36*
X117406055Y-68779423D02*
X118728572Y-66959134D01*
X120548861Y-68281651D01*
X119226344Y-70101940D01*
X117406055Y-68779423D01*
X117406055Y-68779423D01*
G37*
D19*
X121000000Y-70000000D03*
X123022543Y-71469463D03*
D10*
G36*
X76206029Y-73040866D02*
X74883512Y-71220577D01*
X76703801Y-69898060D01*
X78026318Y-71718349D01*
X76206029Y-73040866D01*
X76206029Y-73040866D01*
G37*
D19*
X78477457Y-70000000D03*
X80500000Y-68530537D03*
D10*
G36*
X132309874Y-85400065D02*
X134449751Y-84704776D01*
X135145040Y-86844653D01*
X133005163Y-87539942D01*
X132309874Y-85400065D01*
X132309874Y-85400065D01*
G37*
D19*
X134499999Y-88500000D03*
X135272542Y-90877642D03*
D10*
G36*
X135322791Y-104704776D02*
X137462668Y-105400065D01*
X136767379Y-107539942D01*
X134627502Y-106844653D01*
X135322791Y-104704776D01*
X135322791Y-104704776D01*
G37*
D19*
X135272543Y-108500000D03*
X134500000Y-110877642D03*
X133727458Y-113255283D03*
D10*
G36*
X62001991Y-99342765D02*
X63571235Y-98832887D01*
X64003859Y-100164367D01*
X62434615Y-100674245D01*
X62001991Y-99342765D01*
X62001991Y-99342765D01*
G37*
G36*
X62465517Y-100769349D02*
X64034761Y-100259471D01*
X64467385Y-101590951D01*
X62898141Y-102100829D01*
X62465517Y-100769349D01*
X62465517Y-100769349D01*
G37*
G36*
X76561848Y-77019728D02*
X75592002Y-75684850D01*
X76724626Y-74861950D01*
X77694472Y-76196828D01*
X76561848Y-77019728D01*
X76561848Y-77019728D01*
G37*
G36*
X77775374Y-76138050D02*
X76805528Y-74803172D01*
X77938152Y-73980272D01*
X78907998Y-75315150D01*
X77775374Y-76138050D01*
X77775374Y-76138050D01*
G37*
D24*
X88000000Y-89950000D03*
X88000000Y-91850000D03*
X90000000Y-90900000D03*
D25*
X103000000Y-137650000D03*
D26*
X105500000Y-137650000D03*
X108000000Y-137650000D03*
X108000000Y-134350000D03*
X105500000Y-134350000D03*
X103000000Y-134350000D03*
D10*
G36*
X114817500Y-137167490D02*
X113818265Y-135792161D01*
X115395848Y-134645980D01*
X116395083Y-136021309D01*
X114817500Y-137167490D01*
X114817500Y-137167490D01*
G37*
G36*
X112172467Y-133526913D02*
X111173232Y-132151584D01*
X112750815Y-131005403D01*
X113750050Y-132380732D01*
X112172467Y-133526913D01*
X112172467Y-133526913D01*
G37*
G36*
X118604152Y-128854020D02*
X117604917Y-127478691D01*
X119182500Y-126332510D01*
X120181735Y-127707839D01*
X118604152Y-128854020D01*
X118604152Y-128854020D01*
G37*
G36*
X121249185Y-132494597D02*
X120249950Y-131119268D01*
X121827533Y-129973087D01*
X122826768Y-131348416D01*
X121249185Y-132494597D01*
X121249185Y-132494597D01*
G37*
G36*
X76673232Y-131348416D02*
X77672467Y-129973087D01*
X79250050Y-131119268D01*
X78250815Y-132494597D01*
X76673232Y-131348416D01*
X76673232Y-131348416D01*
G37*
G36*
X79318265Y-127707839D02*
X80317500Y-126332510D01*
X81895083Y-127478691D01*
X80895848Y-128854020D01*
X79318265Y-127707839D01*
X79318265Y-127707839D01*
G37*
G36*
X85749950Y-132380732D02*
X86749185Y-131005403D01*
X88326768Y-132151584D01*
X87327533Y-133526913D01*
X85749950Y-132380732D01*
X85749950Y-132380732D01*
G37*
G36*
X83104917Y-136021309D02*
X84104152Y-134645980D01*
X85681735Y-135792161D01*
X84682500Y-137167490D01*
X83104917Y-136021309D01*
X83104917Y-136021309D01*
G37*
D18*
X106060000Y-109312000D03*
X106060000Y-110262000D03*
X106060000Y-111212000D03*
X108260000Y-111212000D03*
X108260000Y-109312000D03*
D27*
X92300000Y-69000000D03*
X92300000Y-71000000D03*
X92300000Y-73000000D03*
X92300000Y-75000000D03*
X92300000Y-77000000D03*
X92300000Y-79000000D03*
X92300000Y-81000000D03*
X92300000Y-83000000D03*
X107700000Y-83000000D03*
X107600000Y-81000000D03*
X107700000Y-79000000D03*
X107700000Y-77000000D03*
X107700000Y-75000000D03*
X107700000Y-73000000D03*
X107700000Y-71000000D03*
X107700000Y-69000000D03*
D17*
X112160000Y-111262000D03*
X112160000Y-109262000D03*
D28*
X93500000Y-118000000D03*
D29*
X96040000Y-118000000D03*
X98580000Y-118000000D03*
X101120000Y-118000000D03*
X103660000Y-118000000D03*
X106200000Y-118000000D03*
D20*
X88000000Y-87900000D03*
X90000000Y-87900000D03*
X106188000Y-107188000D03*
X108188000Y-107188000D03*
X101584000Y-132080000D03*
X99584000Y-132080000D03*
X103870000Y-107188000D03*
X101870000Y-107188000D03*
D17*
X86000000Y-89900000D03*
X86000000Y-91900000D03*
D20*
X112000000Y-78000000D03*
X110000000Y-78000000D03*
X88000000Y-73000000D03*
X90000000Y-73000000D03*
X112000000Y-73000000D03*
X110000000Y-73000000D03*
X112000000Y-75500000D03*
X110000000Y-75500000D03*
X110000000Y-82000000D03*
X112000000Y-82000000D03*
X88000000Y-75500000D03*
X90000000Y-75500000D03*
D10*
G36*
X74609594Y-80666674D02*
X73639748Y-79331796D01*
X74772372Y-78508896D01*
X75742218Y-79843774D01*
X74609594Y-80666674D01*
X74609594Y-80666674D01*
G37*
G36*
X76227628Y-79491104D02*
X75257782Y-78156226D01*
X76390406Y-77333326D01*
X77360252Y-78668204D01*
X76227628Y-79491104D01*
X76227628Y-79491104D01*
G37*
D20*
X112000000Y-70500000D03*
X110000000Y-70500000D03*
D10*
G36*
X72609594Y-77666674D02*
X71639748Y-76331796D01*
X72772372Y-75508896D01*
X73742218Y-76843774D01*
X72609594Y-77666674D01*
X72609594Y-77666674D01*
G37*
G36*
X74227628Y-76491104D02*
X73257782Y-75156226D01*
X74390406Y-74333326D01*
X75360252Y-75668204D01*
X74227628Y-76491104D01*
X74227628Y-76491104D01*
G37*
G36*
X73609594Y-79166674D02*
X72639748Y-77831796D01*
X73772372Y-77008896D01*
X74742218Y-78343774D01*
X73609594Y-79166674D01*
X73609594Y-79166674D01*
G37*
G36*
X75227628Y-77991104D02*
X74257782Y-76656226D01*
X75390406Y-75833326D01*
X76360252Y-77168204D01*
X75227628Y-77991104D01*
X75227628Y-77991104D01*
G37*
G36*
X59982610Y-99998900D02*
X61551854Y-99489022D01*
X61984478Y-100820502D01*
X60415234Y-101330380D01*
X59982610Y-99998900D01*
X59982610Y-99998900D01*
G37*
G36*
X60446136Y-101425484D02*
X62015380Y-100915606D01*
X62448004Y-102247086D01*
X60878760Y-102756964D01*
X60446136Y-101425484D01*
X60446136Y-101425484D01*
G37*
D30*
X70550000Y-105250000D03*
X70550000Y-105750000D03*
X70550000Y-106250000D03*
X70550000Y-106750000D03*
X72450000Y-106750000D03*
X72450000Y-106250000D03*
X72450000Y-105750000D03*
X72450000Y-105250000D03*
D24*
X71500000Y-106400000D03*
X71500000Y-105600000D03*
D31*
X103525000Y-132000000D03*
X106475000Y-132000000D03*
D17*
X97536000Y-128028000D03*
X97536000Y-129528000D03*
D32*
X69250000Y-103000000D03*
X70750000Y-103000000D03*
X73750000Y-103000000D03*
X72250000Y-103000000D03*
X73750000Y-104500000D03*
X75250000Y-104500000D03*
D33*
X95464000Y-132588000D03*
D19*
X92964000Y-132588000D03*
D16*
X130750000Y-76750000D03*
D15*
X141500000Y-100000000D03*
M02*
