M48
INCH,TZ
T1C0.016
T2C0.028
T3C0.035
T4C0.039
T5C0.126
%
G90
G05
T1
X23900Y-38000
X24488Y-38819
X24500Y-40600
X24800Y-44000
X25119Y-38815
X25400Y-37200
X25453Y-39733
X25591Y-47244
X25800Y-40800
X25886Y-31201
X26039Y-39958
X26100Y-38800
X26600Y-42800
X26673Y-46555
X26700Y-41100
X26800Y-35200
X27000Y-36500
X27000Y-37800
X27000Y-39500
X27362Y-49606
X27400Y-45600
X27461Y-28839
X27900Y-41000
X27900Y-42400
X27953Y-31398
X28346Y-29429
X28346Y-48425
X28400Y-41000
X28400Y-42400
X28500Y-35200
X28800Y-39500
X29400Y-42500
X29528Y-32480
X29700Y-40500
X30300Y-47500
X30400Y-44800
X30551Y-41523
X30600Y-35800
X30600Y-37000
X30609Y-39685
X30700Y-42800
X30709Y-42126
X30709Y-40079
X30709Y-41190
X30900Y-36600
X31200Y-32400
X31300Y-28600
X31496Y-41654
X31800Y-36500
X31800Y-36900
X31800Y-38700
X32185Y-52362
X32300Y-35000
X32500Y-31400
X32700Y-43000
X33021Y-31040
X33100Y-29400
X33100Y-36400
X33150Y-32047
X33400Y-50400
X33500Y-24300
X33800Y-33000
X33900Y-24900
X34016Y-29055
X34400Y-25500
X34400Y-54400
X34600Y-46700
X34700Y-48700
X34900Y-26100
X34900Y-30700
X35200Y-36300
X35500Y-26600
X36000Y-48600
X36299Y-34094
X36400Y-26600
X36508Y-34456
X36800Y-45200
X36890Y-33838
X36900Y-47200
X37008Y-34173
X37200Y-26600
X37200Y-36400
X37600Y-33200
X37700Y-48400
X37700Y-53800
X38000Y-26600
X38000Y-45200
X38200Y-47200
X38200Y-49600
X38300Y-42700
X38600Y-35000
X38819Y-48622
X38900Y-26600
X39000Y-29000
X39134Y-47835
X39213Y-48622
X39409Y-35672
X39409Y-36538
X39512Y-44080
X39512Y-44946
X39800Y-26600
X40100Y-47600
X40100Y-32500
X40100Y-50400
X40511Y-35672
X40511Y-36538
X40614Y-44080
X40614Y-44946
X40700Y-26600
X40768Y-31339
X40800Y-33900
X41000Y-34700
X41535Y-35672
X41535Y-36538
X41575Y-30315
X41600Y-26600
X41638Y-44080
X41638Y-44946
X41700Y-31500
X41700Y-32300
X41700Y-47700
X41700Y-50400
X41900Y-53500
X42100Y-34100
X42500Y-26600
X42716Y-35750
X42716Y-36538
X42800Y-48900
X42819Y-44158
X42819Y-44946
X43300Y-34700
X43400Y-26600
X43400Y-32800
X43600Y-31600
X43600Y-46200
X43800Y-53500
X43818Y-35750
X43818Y-36538
X43921Y-44158
X43921Y-44946
X44000Y-26100
X44100Y-47400
X44331Y-31575
X44400Y-25600
X44800Y-25000
X44800Y-28900
X44842Y-35750
X44842Y-36538
X44945Y-44158
X44945Y-44946
X45000Y-32800
X45079Y-47441
X45100Y-50600
X45200Y-24400
X45200Y-46000
X45500Y-30200
X45591Y-30866
X45700Y-42500
X45800Y-31700
X45827Y-33937
X46100Y-34800
X46100Y-36200
X46200Y-52000
X46518Y-30532
X46800Y-49000
X46900Y-32200
X46932Y-33856
X47000Y-47000
X47200Y-29100
X47700Y-37500
X47933Y-36024
X48000Y-41700
X48700Y-33100
X48700Y-30900
X48819Y-36024
X48821Y-35621
X49056Y-36260
X49300Y-41000
X49300Y-43600
X49508Y-36811
X49764Y-36147
X49803Y-30315
X49900Y-37600
X50098Y-47933
X50300Y-32600
X50300Y-34900
X50787Y-28740
X50984Y-46654
X51181Y-49508
X51575Y-31890
X51800Y-34200
X51800Y-36600
X51800Y-37900
X51800Y-41000
X51800Y-43700
X52756Y-31102
X52854Y-46949
X54400Y-39000
T2
X35700Y-43000
X36487Y-43000
T3
X25000Y-41732
X25304Y-42668
X25394Y-35827
X25608Y-43604
X25698Y-34891
X25912Y-44541
X26002Y-33955
X30100Y-28138
X30897Y-27559
X31693Y-26981
X36600Y-52200
X37584Y-52200
X40551Y-52894
X40551Y-54193
X41535Y-52894
X41535Y-54193
X42520Y-52894
X42520Y-54193
X46842Y-26981
X47638Y-27559
X48434Y-28138
X52649Y-33906
X52649Y-44589
X52953Y-34843
X52953Y-43653
X53257Y-35779
X53257Y-42717
X53561Y-41780
T4
X36811Y-46457
X37811Y-46457
X38811Y-46457
X39811Y-46457
X40811Y-46457
X41811Y-46457
T5
X26870Y-48031
X27067Y-30217
X51476Y-30217
X51673Y-48031
T0
M30
